  0
SECTION
  2
HEADER
  9
$ACADVER
  1
AC1032
  9
$ACADMAINTVER
 90
     0
  9
$DWGCODEPAGE
  3
ANSI_1252
  9
$HANDSEED
  5
131
  9
$INSBASE
 10
0.0
 20
0.0
 30
0.0
  9
$EXTMIN
 10
1.0000000000000000e20
 20
1.0000000000000000e20
 30
1.0000000000000000e20
  9
$EXTMAX
 10
-1.0000000000000000e20
 20
-1.0000000000000000e20
 30
-1.0000000000000000e20
  9
$LIMMIN
 10
0.0
 20
0.0
  9
$LIMMAX
 10
0.0
 20
0.0
  9
$ORTHOMODE
 70
     0
  9
$OSMODE
 70
     0
  9
$REGENMODE
 70
     1
  9
$FILLMODE
 70
     1
  9
$QTEXTMODE
 70
     0
  9
$MIRRTEXT
 70
     0
  9
$LTSCALE
 40
1.0
  9
$ATTMODE
 70
     1
  9
$TEXTSIZE
 40
2.5
  9
$TRACEWID
 40
0.05
  9
$SKETCHINC
 40
0.1
  9
$SKPOLY
 70
     0
  9
$TEXTSTYLE
  7
Standard
  9
$CMLSTYLE
  2
Standard
  9
$CLAYER
  8
0
  9
$CELTYPE
  6
ByLayer
  9
$CECOLOR
 62
   256
  9
$CELWEIGHT
370
    -1
  9
$CELTSCALE
 40
1.0
  9
$DISPSILH
 70
     1
  9
$LWDISPLAY
290
     0
  9
$LUNITS
 70
     2
  9
$LUPREC
 70
     4
  9
$AUNITS
 70
     0
  9
$AUPREC
 70
     0
  9
$MEASUREMENT
 70
     0
  9
$INSUNITS
 70
     0
  9
$PDMODE
 70
     0
  9
$PDSIZE
 40
0.0
  9
$PLINEGEN
 70
     0
  9
$PSLTSCALE
 70
     1
  9
$DIMSCALE
 40
1.0
  9
$DIMASZ
 40
0.18
  9
$DIMEXO
 40
0.0625
  9
$DIMDLI
 40
0.38
  9
$DIMRND
 40
0.0
  9
$DIMDLE
 40
0.0
  9
$DIMEXE
 40
0.18
  9
$DIMTP
 40
0.0
  9
$DIMTM
 40
0.0
  9
$DIMTXT
 40
0.18
  9
$DIMCEN
 40
0.09
  9
$DIMTSZ
 40
0.0
  9
$DIMTOL
 70
     0
  9
$DIMLIM
 70
     0
  9
$DIMTIH
 70
     1
  9
$DIMTOH
 70
     1
  9
$DIMSE1
 70
     0
  9
$DIMSE2
 70
     0
  9
$DIMTAD
 70
     0
  9
$DIMZIN
 70
     0
  9
$DIMCLRD
 70
     0
  9
$DIMCLRE
 70
     0
  9
$DIMCLRT
 70
     0
  9
$DIMGAP
 40
0.09
  9
$DIMALT
 70
     0
  9
$DIMALTD
 70
     2
  9
$DIMALTF
 40
25.4
  9
$DIMLFAC
 40
1.0
  9
$DIMTOFL
 70
     0
  9
$DIMTVP
 40
0.0
  9
$DIMTIX
 70
     0
  9
$DIMSOXD
 70
     0
  9
$DIMSAH
 70
     0
  9
$DIMPOST
  1

  9
$DIMAPOST
  1

  9
$DIMSTYLE
  2
Standard
  9
$DIMLUNIT
 70
     2
  9
$DIMDEC
 70
     4
  9
$DIMTDEC
 70
     4
  9
$DIMALTU
 70
     2
  9
$DIMALTTD
 70
     4
  9
$DIMAUNIT
 70
     0
  9
$DIMADEC
 70
     0
  9
$DIMJUST
 70
     0
  9
$DIMSD1
 70
     0
  9
$DIMSD2
 70
     0
  9
$DIMTOLJ
 70
     1
  9
$DIMTZIN
 70
     0
  9
$DIMALTZ
 70
     0
  9
$DIMALTTZ
 70
     0
  9
$DIMATFIT
 70
     3
  9
$DIMDSEP
 70
    46
  9
$DIMTMOVE
 70
     0
  9
$DIMFRAC
 70
     0
  9
$DIMLWD
 70
    -2
  9
$DIMLWE
 70
    -2
  9
$DIMTFAC
 40
1.0
  9
$SPLFRAME
 70
     0
  9
$SOLIDHIST
280
0
  9
$SHOWHIST
280
1
  9
$SPLINETYPE
 70
     6
  9
$SPLINESEGS
 70
     8
  9
$SURFTAB1
 70
     6
  9
$SURFTAB2
 70
     6
  9
$SURFTYPE
 70
     6
  9
$SURFU
 70
     6
  9
$SURFV
 70
     6
  9
$WORLDVIEW
 70
     1
  9
$PELEVATION
 40
0.0
  9
$PLINEWID
 40
0.0
  9
$MAXACTVP
 70
    64
  9
$TILEMODE
 70
     1
  9
$PLIMCHECK
 70
     0
  9
$VISRETAIN
 70
     1
  9
$PSTYLEMODE
290
     1
  9
$TDCREATE
 40
0.0
  9
$TDUPDATE
 40
0.0
  9
$TDINDWG
 40
0.0
  9
$UCSORG
 10
0.0
 20
0.0
 30
0.0
  9
$UCSXDIR
 10
1.0
 20
0.0
 30
0.0
  9
$UCSYDIR
 10
0.0
 20
1.0
 30
0.0
  0
ENDSEC
  0
SECTION
  2
CLASSES
  0
CLASS
  1
ACDBDICTIONARYWDFLT
  2
AcDbDictionaryWithDefault
  3
ObjectDBX Classes
 90
     0
 91
     0
280
0
281
0
  0
CLASS
  1
DICTIONARYVAR
  2
AcDbDictionaryVar
  3
ObjectDBX Classes
 90
     0
 91
     0
280
0
281
0
  0
CLASS
  1
LAYOUT
  2
AcDbLayout
  3
ObjectDBX Classes
 90
     0
 91
     0
280
0
281
0
  0
CLASS
  1
ACDBPLACEHOLDER
  2
AcDbPlaceHolder
  3
ObjectDBX Classes
 90
     0
 91
     0
280
0
281
0
  0
CLASS
  1
PLOTSETTINGS
  2
AcDbPlotSettings
  3
ObjectDBX Classes
 90
     0
 91
     0
280
0
281
0
  0
CLASS
  1
SCALE
  2
AcDbScale
  3
ObjectDBX Classes
 90
     0
 91
     0
280
0
281
0
  0
CLASS
  1
MESH
  2
AcDbSubDMesh
  3
AcDbSubDMesh|Description: AutoCAD subD mesh
 90
  4095
 91
     0
280
0
281
1
  0
CLASS
  1
ACAD_TABLE
  2
AcDbTable
  3
ObjectDBX Classes
 90
  1025
 91
     0
280
0
281
1
  0
CLASS
  1
WIPEOUT
  2
AcDbWipeout
  3
WipeOut|AutoCAD Express Tool|www.autodesk.com
 90
   127
 91
     0
280
0
281
1
  0
CLASS
  1
IMAGE
  2
AcDbRasterImage
  3
ISM
 90
   127
 91
     0
280
0
281
1
  0
CLASS
  1
PDFREFERENCE
  2
AcDbPdfReference
  3
ObjectDBX Classes
 90
     1
 91
     0
280
0
281
1
  0
CLASS
  1
DWFREFERENCE
  2
AcDbDwfReference
  3
ObjectDBX Classes
 90
     1
 91
     0
280
0
281
1
  0
CLASS
  1
DGNREFERENCE
  2
AcDbDgnReference
  3
ObjectDBX Classes
 90
     1
 91
     0
280
0
281
1
  0
CLASS
  1
PDFUNDERLAY
  2
AcDbPdfReference
  3
ObjectDBX Classes
 90
     1
 91
     0
280
0
281
1
  0
CLASS
  1
DWFUNDERLAY
  2
AcDbDwfReference
  3
ObjectDBX Classes
 90
     1
 91
     0
280
0
281
1
  0
CLASS
  1
DGNUNDERLAY
  2
AcDbDgnReference
  3
ObjectDBX Classes
 90
     1
 91
     0
280
0
281
1
  0
CLASS
  1
HELIX
  2
AcDbHelix
  3
ObjectDBX Classes
 90
     0
 91
     0
280
0
281
1
  0
CLASS
  1
LIGHT
  2
AcDbLight
  3
SCENEOE
 90
  1153
 91
     0
280
0
281
1
  0
CLASS
  1
MULTILEADER
  2
AcDbMLeader
  3
ACDB_MLEADER_CLASS
 90
  1025
 91
     0
280
0
281
1
  0
CLASS
  1
OLE2FRAME
  2
AcDbOle2Frame
  3
ObjectDBX Classes
 90
     1
 91
     0
280
0
281
1
  0
CLASS
  1
MLINE
  2
AcDbMline
  3
ObjectDBX Classes
 90
     1
 91
     0
280
0
281
1
  0
CLASS
  1
ARC_DIMENSION
  2
AcDbArcDimension
  3
ObjectDBX Classes
 90
     0
 91
     0
280
0
281
1
  0
CLASS
  1
LARGE_RADIAL_DIMENSION
  2
AcDbRadialDimensionLarge
  3
ObjectDBX Classes
 90
     0
 91
     0
280
0
281
1
  0
CLASS
  1
CAMERA
  2
AcDbCamera
  3
ObjectDBX Classes
 90
     0
 91
     0
280
0
281
1
  0
CLASS
  1
SECTIONOBJECT
  2
AcDbSection
  3
ObjectDBX Classes
 90
     0
 91
     0
280
0
281
1
  0
CLASS
  1
ARCALIGNEDTEXT
  2
AcDbArcAlignedText
  3
AutoCAD Express Tools
 90
   127
 91
     0
280
0
281
1
  0
CLASS
  1
RTEXT
  2
AcDbRText
  3
AutoCAD Express Tools
 90
   127
 91
     0
280
0
281
1
  0
CLASS
  1
POSITIONMARKER
  2
AcDbGeoPositionMarker
  3
ObjectDBX Classes
 90
     0
 91
     0
280
0
281
1
  0
CLASS
  1
COORDINATION_MODEL
  2
AcDbNavisworksModel
  3
ObjectDBX Classes
 90
     0
 91
     0
280
0
281
1
  0
CLASS
  1
ACDBPOINTCLOUD
  2
AcDbPointCloud
  3
AcDbPointCloudObj
 90
     0
 91
     0
280
0
281
1
  0
CLASS
  1
ACDBPOINTCLOUDEX
  2
AcDbPointCloudEx
  3
AcDbPointCloudObj
 90
     0
 91
     0
280
0
281
1
  0
CLASS
  1
MPOLYGON
  2
AcDbMPolygon
  3
ObjectDBX Classes
 90
   127
 91
     0
280
0
281
1
  0
CLASS
  1
ALIGNMENTPARAMETERENTITY
  2
AcDbBlockAlignmentParameterEntity
  3
ObjectDBX Classes
 90
     0
 91
     0
280
0
281
1
  0
CLASS
  1
BASEPOINTPARAMETERENTITY
  2
AcDbBlockBasepointParameterEntity
  3
ObjectDBX Classes
 90
     0
 91
     0
280
0
281
1
  0
CLASS
  1
FLIPPARAMETERENTITY
  2
AcDbBlockFlipParameterEntity
  3
ObjectDBX Classes
 90
     0
 91
     0
280
0
281
1
  0
CLASS
  1
LINEARPARAMETERENTITY
  2
AcDbBlockLinearParameterEntity
  3
ObjectDBX Classes
 90
     0
 91
     0
280
0
281
1
  0
CLASS
  1
POINTPARAMETERENTITY
  2
AcDbBlockPointParameterEntity
  3
ObjectDBX Classes
 90
     0
 91
     0
280
0
281
1
  0
CLASS
  1
ROTATIONPARAMETERENTITY
  2
AcDbBlockRotationParameterEntity
  3
ObjectDBX Classes
 90
     0
 91
     0
280
0
281
1
  0
CLASS
  1
VISIBILITYPARAMETERENTITY
  2
AcDbBlockVisibilityParameterEntity
  3
ObjectDBX Classes
 90
     0
 91
     0
280
0
281
1
  0
CLASS
  1
FLIPGRIPENTITY
  2
AcDbBlockFlipGripEntity
  3
ObjectDBX Classes
 90
     0
 91
     0
280
0
281
1
  0
CLASS
  1
LINEARGRIPENTITY
  2
AcDbBlockLinearGripEntity
  3
ObjectDBX Classes
 90
     0
 91
     0
280
0
281
1
  0
CLASS
  1
POLARGRIPENTITY
  2
AcDbBlockPolarGripEntity
  3
ObjectDBX Classes
 90
     0
 91
     0
280
0
281
1
  0
CLASS
  1
ROTATIONGRIPENTITY
  2
AcDbBlockRotationGripEntity
  3
ObjectDBX Classes
 90
     0
 91
     0
280
0
281
1
  0
CLASS
  1
VISIBILITYGRIPENTITY
  2
AcDbBlockVisibilityGripEntity
  3
ObjectDBX Classes
 90
     0
 91
     0
280
0
281
1
  0
CLASS
  1
XYGRIPENTITY
  2
AcDbBlockXYGripEntity
  3
ObjectDBX Classes
 90
     0
 91
     0
280
0
281
1
  0
CLASS
  1
XYPARAMETERENTITY
  2
AcDbBlockXYParameterEntity
  3
ObjectDBX Classes
 90
     0
 91
     0
280
0
281
1
  0
CLASS
  1
BLOCKANGULARCONSTRAINTPARAMETERENTITY
  2
AcDbBlockAngularConstraintParameterEntity
  3
ObjectDBX Classes
 90
     0
 91
     0
280
0
281
1
  0
CLASS
  1
LOFTEDSURFACE
  2
AcDbLoftedSurface
  3
ObjectDBX Classes
 90
     0
 91
     0
280
0
281
1
  0
CLASS
  1
ACDBASSOCDEPENDENCY
  2
AcDbAssocDependency
  3
ObjectDBX Classes
 90
     0
 91
     0
280
0
281
0
  0
CLASS
  1
ACDBASSOCVALUEDEPENDENCY
  2
AcDbAssocValueDependency
  3
ObjectDBX Classes
 90
  1025
 91
     0
280
0
281
0
  0
CLASS
  1
ACDBASSOCGEOMDEPENDENCY
  2
AcDbAssocGeomDependency
  3
ObjectDBX Classes
 90
  1025
 91
     0
280
0
281
0
  0
CLASS
  1
ACDBASSOCACTION
  2
AcDbAssocAction
  3
ObjectDBX Classes
 90
     0
 91
     0
280
0
281
0
  0
CLASS
  1
ACDBASSOCNETWORK
  2
AcDbAssocNetwork
  3
ObjectDBX Classes
 90
  1025
 91
     0
280
0
281
0
  0
CLASS
  1
ACDBASSOC2DCONSTRAINTGROUP
  2
AcDbAssoc2dConstraintGroup
  3
ObjectDBX Classes
 90
  1025
 91
     0
280
0
281
0
  0
CLASS
  1
ACDBASSOCVARIABLE
  2
AcDbAssocVariable
  3
ObjectDBX Classes
 90
  1025
 91
     0
280
0
281
0
  0
CLASS
  1
ACDBASSOCPERSSUBENTMANAGER
  2
AcDbAssocPersSubentManager
  3
ObjectDBX Classes
 90
     0
 91
     0
280
0
281
0
  0
CLASS
  1
ACDBASSOCCOMPOUNDACTIONPARAM
  2
AcDbAssocCompoundActionParam
  3
ObjectDBX Classes
 90
     0
 91
     0
280
0
281
0
  0
CLASS
  1
ACDBASSOCOSNAPPOINTREFACTIONPARAM
  2
AcDbAssocOsnapPointRefActionParam
  3
ObjectDBX Classes
 90
     0
 91
     0
280
0
281
0
  0
CLASS
  1
ACDBASSOCOBJECTACTIONPARAM
  2
AcDbAssocObjectActionParam
  3
ObjectDBX Classes
 90
     0
 91
     0
280
0
281
0
  0
CLASS
  1
ACDBASSOCPATHACTIONPARAM
  2
AcDbAssocPathActionParam
  3
ObjectDBX Classes
 90
     0
 91
     0
280
0
281
0
  0
CLASS
  1
ACDBASSOCEDGEACTIONPARAM
  2
AcDbAssocEdgeActionParam
  3
ObjectDBX Classes
 90
     0
 91
     0
280
0
281
0
  0
CLASS
  1
ACDBASSOCFACEACTIONPARAM
  2
AcDbAssocFaceActionParam
  3
ObjectDBX Classes
 90
     0
 91
     0
280
0
281
0
  0
CLASS
  1
ACDBASSOCVERTEXACTIONPARAM
  2
AcDbAssocVertexActionParam
  3
ObjectDBX Classes
 90
     0
 91
     0
280
0
281
0
  0
CLASS
  1
ACDBASSOCASMBODYACTIONPARAM
  2
AcDbAssocAsmbodyActionParam
  3
ObjectDBX Classes
 90
     0
 91
     0
280
0
281
0
  0
CLASS
  1
ACDBASSOCDIMDEPENDENCYBODY
  2
AcDbAssocDimDependencyBody
  3
ObjectDBX Classes
 90
     0
 91
     0
280
0
281
0
  0
CLASS
  1
ACDBASSOCPLANESURFACEACTIONBODY
  2
AcDbAssocPlaneSurfaceActionBody
  3
ObjectDBX Classes
 90
     0
 91
     0
280
0
281
0
  0
CLASS
  1
ACDBASSOCEXTENDSURFACEACTIONBODY
  2
AcDbAssocExtendSurfaceActionBody
  3
ObjectDBX Classes
 90
     0
 91
     0
280
0
281
0
  0
CLASS
  1
ACDBASSOCEXTRUDEDSURFACEACTIONBODY
  2
AcDbAssocExtrudedSurfaceActionBody
  3
ObjectDBX Classes
 90
     0
 91
     0
280
0
281
0
  0
CLASS
  1
ACDBASSOCLOFTEDSURFACEACTIONBODY
  2
AcDbAssocLoftedSurfaceActionBody
  3
ObjectDBX Classes
 90
     0
 91
     0
280
0
281
0
  0
CLASS
  1
ACDBASSOCNETWORKSURFACEACTIONBODY
  2
AcDbAssocNetworkSurfaceActionBody
  3
ObjectDBX Classes
 90
     0
 91
     0
280
0
281
0
  0
CLASS
  1
ACDBASSOCOFFSETSURFACEACTIONBODY
  2
AcDbAssocOffsetSurfaceActionBody
  3
ObjectDBX Classes
 90
     0
 91
     0
280
0
281
0
  0
CLASS
  1
ACDBASSOCREVOLVEDSURFACEACTIONBODY
  2
AcDbAssocRevolvedSurfaceActionBody
  3
ObjectDBX Classes
 90
     0
 91
     0
280
0
281
0
  0
CLASS
  1
ACDBASSOCTRIMSURFACEACTIONBODY
  2
AcDbAssocTrimSurfaceActionBody
  3
ObjectDBX Classes
 90
     0
 91
     0
280
0
281
0
  0
CLASS
  1
ACDBASSOCBLENDSURFACEACTIONBODY
  2
AcDbAssocBlendSurfaceActionBody
  3
ObjectDBX Classes
 90
     0
 91
     0
280
0
281
0
  0
CLASS
  1
ACDBASSOCPATCHSURFACEACTIONBODY
  2
AcDbAssocPatchSurfaceActionBody
  3
ObjectDBX Classes
 90
     0
 91
     0
280
0
281
0
  0
CLASS
  1
ACDBASSOCFILLETSURFACEACTIONBODY
  2
AcDbAssocFilletSurfaceActionBody
  3
ObjectDBX Classes
 90
     0
 91
     0
280
0
281
0
  0
CLASS
  1
ACDBASSOCSWEPTSURFACEACTIONBODY
  2
AcDbAssocSweptSurfaceActionBody
  3
ObjectDBX Classes
 90
     0
 91
     0
280
0
281
0
  0
CLASS
  1
ACDBASSOCEDGECHAMFERACTIONBODY
  2
AcDbAssocEdgeChamferActionBody
  3
ObjectDBX Classes
 90
     0
 91
     0
280
0
281
0
  0
CLASS
  1
ACDBASSOCEDGEFILLETACTIONBODY
  2
AcDbAssocEdgeFilletActionBody
  3
ObjectDBX Classes
 90
     0
 91
     0
280
0
281
0
  0
CLASS
  1
ACDBASSOCRESTOREENTITYSTATEACTIONBODY
  2
AcDbAssocRestoreEntityStateActionBody
  3
ObjectDBX Classes
 90
     0
 91
     0
280
0
281
0
  0
CLASS
  1
ACDBASSOCMLEADERACTIONBODY
  2
AcDbAssocMLeaderActionBody
  3
ObjectDBX Classes
 90
     0
 91
     0
280
0
281
0
  0
CLASS
  1
ACDBASSOCALIGNEDDIMACTIONBODY
  2
AcDbAssocAlignedDimActionBody
  3
ObjectDBX Classes
 90
     0
 91
     0
280
0
281
0
  0
CLASS
  1
ACDBASSOC3POINTANGULARDIMACTIONBODY
  2
AcDbAssoc3PointAngularDimActionBody
  3
ObjectDBX Classes
 90
     0
 91
     0
280
0
281
0
  0
CLASS
  1
ACDBASSOCORDINATEDIMACTIONBODY
  2
AcDbAssocOrdinateDimActionBody
  3
ObjectDBX Classes
 90
     0
 91
     0
280
0
281
0
  0
CLASS
  1
ACDBASSOCROTATEDDIMACTIONBODY
  2
AcDbAssocRotatedDimActionBody
  3
ObjectDBX Classes
 90
     0
 91
     0
280
0
281
0
  0
CLASS
  1
ACDBASSOCARRAYMODIFYPARAMETERS
  2
AcDbAssocArrayModifyParameters
  3
ObjectDBX Classes
 90
     0
 91
     0
280
0
281
0
  0
CLASS
  1
ACDBASSOCARRAYPATHPARAMETERS
  2
AcDbAssocArrayPathParameters
  3
ObjectDBX Classes
 90
     0
 91
     0
280
0
281
0
  0
CLASS
  1
ACDBASSOCARRAYPOLARPARAMETERS
  2
AcDbAssocArrayPolarParameters
  3
ObjectDBX Classes
 90
     0
 91
     0
280
0
281
0
  0
CLASS
  1
ACDBASSOCARRAYRECTANGULARPARAMETERS
  2
AcDbAssocArrayRectangularParameters
  3
ObjectDBX Classes
 90
     0
 91
     0
280
0
281
0
  0
CLASS
  1
ACDBASSOCARRAYACTIONBODY
  2
AcDbAssocArrayActionBody
  3
ObjectDBX Classes
 90
     0
 91
     0
280
0
281
0
  0
CLASS
  1
ACDBASSOCARRAYMODIFYACTIONBODY
  2
AcDbAssocArrayModifyActionBody
  3
ObjectDBX Classes
 90
     0
 91
     0
280
0
281
0
  0
CLASS
  1
PERSUBENTMGR
  2
AcDbPersSubentManager
  3
ObjectDBX Classes
 90
     0
 91
     0
280
0
281
0
  0
CLASS
  1
ACSH_BOOLEAN_CLASS
  2
AcDbShBoolean
  3
ObjectDBX Classes
 90
     0
 91
     0
280
0
281
0
  0
CLASS
  1
ACSH_BOX_CLASS
  2
AcDbShBox
  3
ObjectDBX Classes
 90
     0
 91
     0
280
0
281
0
  0
CLASS
  1
ACSH_BREP_CLASS
  2
AcDbShBrep
  3
ObjectDBX Classes
 90
     0
 91
     0
280
0
281
0
  0
CLASS
  1
ACSH_CHAMFER_CLASS
  2
AcDbShChamfer
  3
ObjectDBX Classes
 90
     0
 91
     0
280
0
281
0
  0
CLASS
  1
ACSH_CONE_CLASS
  2
AcDbShCone
  3
ObjectDBX Classes
 90
     0
 91
     0
280
0
281
0
  0
CLASS
  1
ACSH_CYLINDER_CLASS
  2
AcDbShCylinder
  3
ObjectDBX Classes
 90
     0
 91
     0
280
0
281
0
  0
CLASS
  1
ACSH_EXTRUSION_CLASS
  2
AcDbShExtrusion
  3
ObjectDBX Classes
 90
     0
 91
     0
280
0
281
0
  0
CLASS
  1
ACSH_FILLET_CLASS
  2
AcDbShFillet
  3
ObjectDBX Classes
 90
     0
 91
     0
280
0
281
0
  0
CLASS
  1
ACSH_HISTORY_CLASS
  2
AcDbShHistory
  3
ObjectDBX Classes
 90
     0
 91
     0
280
0
281
0
  0
CLASS
  1
ACSH_LOFT_CLASS
  2
AcDbShLoft
  3
ObjectDBX Classes
 90
     0
 91
     0
280
0
281
0
  0
CLASS
  1
ACSH_PYRAMID_CLASS
  2
AcDbShPyramid
  3
ObjectDBX Classes
 90
     0
 91
     0
280
0
281
0
  0
CLASS
  1
ACSH_REVOLVE_CLASS
  2
AcDbShRevolve
  3
ObjectDBX Classes
 90
     0
 91
     0
280
0
281
0
  0
CLASS
  1
ACSH_SPHERE_CLASS
  2
AcDbShSphere
  3
ObjectDBX Classes
 90
     0
 91
     0
280
0
281
0
  0
CLASS
  1
ACSH_SWEEP_CLASS
  2
AcDbShSweep
  3
ObjectDBX Classes
 90
     0
 91
     0
280
0
281
0
  0
CLASS
  1
ACSH_TORUS_CLASS
  2
AcDbShTorus
  3
ObjectDBX Classes
 90
     0
 91
     0
280
0
281
0
  0
CLASS
  1
ACSH_WEDGE_CLASS
  2
AcDbShWedge
  3
ObjectDBX Classes
 90
     0
 91
     0
280
0
281
0
  0
CLASS
  1
ACDB_BLOCKREPRESENTATION_DATA
  2
AcDbBlockRepresentationData
  3
ObjectDBX Classes
 90
     0
 91
     0
280
0
281
0
  0
CLASS
  1
ACDB_DYNAMICBLOCKPURGEPREVENTER_VERSION
  2
AcDbDynamicBlockPurgePreventer
  3
ObjectDBX Classes
 90
     0
 91
     0
280
0
281
0
  0
CLASS
  1
ACDB_DYNAMICBLOCKPROXYNODE
  2
AcDbDynamicBlockProxyNode
  3
ObjectDBX Classes
 90
     0
 91
     0
280
0
281
0
  0
CLASS
  1
ACAD_EVALUATION_GRAPH
  2
AcDbEvalGraph
  3
ObjectDBX Classes
 90
     0
 91
     0
280
0
281
0
  0
CLASS
  1
BLOCKGRIPLOCATIONCOMPONENT
  2
AcDbBlockGripExpr
  3
ObjectDBX Classes
 90
     0
 91
     0
280
0
281
0
  0
CLASS
  1
BLOCKALIGNMENTPARAMETER
  2
AcDbBlockAlignmentParameter
  3
ObjectDBX Classes
 90
     0
 91
     0
280
0
281
0
  0
CLASS
  1
BLOCKALIGNMENTGRIP
  2
AcDbBlockAlignmentGrip
  3
ObjectDBX Classes
 90
     0
 91
     0
280
0
281
0
  0
CLASS
  1
BLOCKBASEPOINTPARAMETER
  2
AcDbBlockBasepointParameter
  3
ObjectDBX Classes
 90
     0
 91
     0
280
0
281
0
  0
CLASS
  1
BLOCKFLIPACTION
  2
AcDbBlockFlipAction
  3
ObjectDBX Classes
 90
     0
 91
     0
280
0
281
0
  0
CLASS
  1
BLOCKFLIPPARAMETER
  2
AcDbBlockFlipParameter
  3
ObjectDBX Classes
 90
     0
 91
     0
280
0
281
0
  0
CLASS
  1
BLOCKFLIPGRIP
  2
AcDbBlockFlipGrip
  3
ObjectDBX Classes
 90
     0
 91
     0
280
0
281
0
  0
CLASS
  1
BLOCKLINEARGRIP
  2
AcDbBlockLinearGrip
  3
ObjectDBX Classes
 90
     0
 91
     0
280
0
281
0
  0
CLASS
  1
BLOCKLOOKUPGRIP
  2
AcDbBlockLookupGrip
  3
ObjectDBX Classes
 90
     0
 91
     0
280
0
281
0
  0
CLASS
  1
BLOCKROTATIONGRIP
  2
AcDbBlockRotationGrip
  3
ObjectDBX Classes
 90
     0
 91
     0
280
0
281
0
  0
CLASS
  1
BLOCKMOVEACTION
  2
AcDbBlockMoveAction
  3
ObjectDBX Classes
 90
     0
 91
     0
280
0
281
0
  0
CLASS
  1
BLOCKROTATEACTION
  2
AcDbBlockRotationAction
  3
ObjectDBX Classes
 90
     0
 91
     0
280
0
281
0
  0
CLASS
  1
BLOCKSCALEACTION
  2
AcDbBlockScaleAction
  3
ObjectDBX Classes
 90
     0
 91
     0
280
0
281
0
  0
CLASS
  1
BLOCKVISIBILITYGRIP
  2
AcDbBlockVisibilityGrip
  3
ObjectDBX Classes
 90
     0
 91
     0
280
0
281
0
  0
CLASS
  1
BLOCKLINEARPARAMETER
  2
AcDbBlockLinearParameter
  3
ObjectDBX Classes
 90
     0
 91
     0
280
0
281
0
  0
CLASS
  1
BLOCKROTATIONPARAMETER
  2
AcDbBlockRotationParameter
  3
ObjectDBX Classes
 90
     0
 91
     0
280
0
281
0
  0
CLASS
  1
BLOCKXYPARAMETER
  2
AcDbBlockXYParameter
  3
ObjectDBX Classes
 90
     0
 91
     0
280
0
281
0
  0
CLASS
  1
BLOCKVISIBILITYPARAMETER
  2
AcDbBlockVisibilityParameter
  3
ObjectDBX Classes
 90
     0
 91
     0
280
0
281
0
  0
CLASS
  1
BLOCKPOLARPARAMETER
  2
AcDbBlockPolarParameter
  3
ObjectDBX Classes
 90
     0
 91
     0
280
0
281
0
  0
CLASS
  1
BLOCKPOLARGRIP
  2
AcDbBlockPolarGrip
  3
ObjectDBX Classes
 90
     0
 91
     0
280
0
281
0
  0
CLASS
  1
ACDBBLOCKPARAMDEPENDENCYBODY
  2
AcDbBlockParameterDependencyBody
  3
ObjectDBX Classes
 90
     0
 91
     0
280
0
281
0
  0
CLASS
  1
BLOCKPARAMDEPENDENCYBODY
  2
AcDbBlockParameterDependencyBody
  3
ObjectDBX Classes
 90
     0
 91
     0
280
0
281
0
  0
CLASS
  1
ACMECOMMANDHISTORY
  2
AcMeCommandHistory
  3
AcMeServices
 90
     0
 91
     0
280
0
281
0
  0
CLASS
  1
ACMESCOPE
  2
AcMeScope
  3
AcMeServices
 90
     0
 91
     0
280
0
281
0
  0
CLASS
  1
ACMESTATEMGR
  2
AcMeStateMgr
  3
AcMeServices
 90
     0
 91
     0
280
0
281
0
  0
CLASS
  1
CSACDOCUMENTOPTIONS
  2
CDocDataContainer
  3
"DERU003_CSAPP"
 90
  4095
 91
     0
280
0
281
0
  0
CLASS
  1
BLOCKALIGNEDCONSTRAINTPARAMETER
  2
AcDbBlockAlignedConstraintParameter
  3
ObjectDBX Classes
 90
     0
 91
     0
280
0
281
0
  0
CLASS
  1
BLOCKANGULARCONSTRAINTPARAMETER
  2
AcDbBlockAngularConstraintParameter
  3
ObjectDBX Classes
 90
     0
 91
     0
280
0
281
0
  0
CLASS
  1
BLOCKARRAYACTION
  2
AcDbBlockArrayAction
  3
ObjectDBX Classes
 90
     0
 91
     0
280
0
281
0
  0
CLASS
  1
BLOCKDIAMETRICCONSTRAINTPARAMETER
  2
AcDbBlockDiametricConstraintParameter
  3
ObjectDBX Classes
 90
     0
 91
     0
280
0
281
0
  0
CLASS
  1
BLOCKHORIZONTALCONSTRAINTPARAMETER
  2
AcDbBlockHorizontalConstraintParameter
  3
ObjectDBX Classes
 90
     0
 91
     0
280
0
281
0
  0
CLASS
  1
BLOCKLINEARCONSTRAINTPARAMETER
  2
AcDbBlockLinearConstraintParameter
  3
ObjectDBX Classes
 90
     0
 91
     0
280
0
281
0
  0
CLASS
  1
BLOCKRADIALCONSTRAINTPARAMETER
  2
AcDbBlockRadialConstraintParameter
  3
ObjectDBX Classes
 90
     0
 91
     0
280
0
281
0
  0
CLASS
  1
BLOCKVERTICALCONSTRAINTPARAMETER
  2
AcDbBlockVerticalConstraintParameter
  3
ObjectDBX Classes
 90
     0
 91
     0
280
0
281
0
  0
CLASS
  1
BLOCKLOOKUPACTION
  2
AcDbBlockLookupAction
  3
ObjectDBX Classes
 90
     0
 91
     0
280
0
281
0
  0
CLASS
  1
BLOCKLOOKUPPARAMETER
  2
AcDbBlockLookupParameter
  3
ObjectDBX Classes
 90
     0
 91
     0
280
0
281
0
  0
CLASS
  1
BLOCKPOINTPARAMETER
  2
AcDbBlockPointParameter
  3
ObjectDBX Classes
 90
     0
 91
     0
280
0
281
0
  0
CLASS
  1
BLOCKPOLARSTRETCHACTION
  2
AcDbBlockPolarStretchAction
  3
ObjectDBX Classes
 90
     0
 91
     0
280
0
281
0
  0
CLASS
  1
BLOCKSTRETCHACTION
  2
AcDbBlockStretchAction
  3
ObjectDBX Classes
 90
     0
 91
     0
280
0
281
0
  0
CLASS
  1
BLOCKUSERPARAMETER
  2
AcDbBlockUserParameter
  3
ObjectDBX Classes
 90
     0
 91
     0
280
0
281
0
  0
CLASS
  1
BLOCKXYGRIP
  2
AcDbBlockXYGrip
  3
ObjectDBX Classes
 90
     0
 91
     0
280
0
281
0
  0
CLASS
  1
BLOCKPROPERTIESTABLE
  2
AcDbBlockPropertiesTable
  3
ObjectDBX Classes
 90
     0
 91
     0
280
0
281
0
  0
CLASS
  1
BLOCKPROPERTIESTABLEGRIP
  2
AcDbBlockPropertiesTableGrip
  3
ObjectDBX Classes
 90
     0
 91
     0
280
0
281
0
  0
CLASS
  1
SPATIAL_INDEX
  2
AcDbSpatialIndex
  3
ObjectDBX Classes
 90
     0
 91
     0
280
0
281
0
  0
CLASS
  1
LAYERFILTER
  2
AcDbLayerFilter
  3
ObjectDBX Classes
 90
     0
 91
     0
280
0
281
0
  0
CLASS
  1
PARTIAL_VIEWING_INDEX
  2
OdDbPartialViewingIndex
  3
ObjectDBX Classes
 90
     0
 91
     0
280
0
281
0
  0
CLASS
  1
VBA_PROJECT
  2
AcDbVbaProject
  3
ObjectDBX Classes
 90
     0
 91
     0
280
0
281
0
  0
CLASS
  1
SECTION_MANAGER
  2
AcDbSectionManager
  3
ObjectDBX Classes
 90
     0
 91
     0
280
0
281
0
  0
CLASS
  1
SECTION_SETTINGS
  2
AcDbSectionSettings
  3
ObjectDBX Classes
 90
     0
 91
     0
280
0
281
0
  0
CLASS
  1
LIGHTLIST
  2
AcDbLightList
  3
SCENEOE
 90
     0
 91
     0
280
0
281
0
  0
CLASS
  1
SUN
  2
AcDbSun
  3
SCENEOE
 90
     0
 91
     0
280
0
281
0
  0
CLASS
  1
SUNSTUDY
  2
AcDbSunStudy
  3
SCENEOE
 90
     0
 91
     0
280
0
281
0
  0
CLASS
  1
RENDERSETTINGS
  2
AcDbRenderSettings
  3
SCENEOE
 90
     0
 91
     0
280
0
281
0
  0
CLASS
  1
MENTALRAYRENDERSETTINGS
  2
AcDbMentalRayRenderSettings
  3
SCENEOE
 90
     0
 91
     0
280
0
281
0
  0
CLASS
  1
RAPIDRTRENDERSETTINGS
  2
AcDbRapidRTRenderSettings
  3
ObjectDBX Classes
 90
     0
 91
     0
280
0
281
0
  0
CLASS
  1
RENDERENVIRONMENT
  2
AcDbRenderEnvironment
  3
SCENEOE
 90
     0
 91
     0
280
0
281
0
  0
CLASS
  1
RENDERGLOBAL
  2
AcDbRenderGlobal
  3
SCENEOE
 90
     0
 91
     0
280
0
281
0
  0
CLASS
  1
RENDERENTRY
  2
AcDbRenderEntry
  3
SCENEOE
 90
     0
 91
     0
280
0
281
0
  0
CLASS
  1
RAPIDRTRENDERENVIRONMENT
  2
AcDbIBLBackground
  3
SCENEOE
 90
     0
 91
     0
280
0
281
0
  0
CLASS
  1
SKYLIGHT_BACKGROUND
  2
AcDbSkyBackground
  3
SCENEOE
 90
     0
 91
     0
280
0
281
0
  0
CLASS
  1
IMAGE_BACKGROUND
  2
AcDbImageBackground
  3
SCENEOE
 90
     0
 91
     0
280
0
281
0
  0
CLASS
  1
SOLID_BACKGROUND
  2
AcDbSolidBackground
  3
SCENEOE
 90
     0
 91
     0
280
0
281
0
  0
CLASS
  1
GROUND_PLANE_BACKGROUND
  2
AcDbGroundPlaneBackground
  3
SCENEOE
 90
     0
 91
     0
280
0
281
0
  0
CLASS
  1
GRADIENT_BACKGROUND
  2
AcDbGradientBackground
  3
SCENEOE
 90
     0
 91
     0
280
0
281
0
  0
CLASS
  1
ACDBCURVEPATH
  2
AcDbCurvePath
  3
SCENEOE
 90
     0
 91
     0
280
0
281
0
  0
CLASS
  1
ACDBMOTIONPATH
  2
AcDbMotionPath
  3
SCENEOE
 90
     0
 91
     0
280
0
281
0
  0
CLASS
  1
ACDBPOINTPATH
  2
AcDbPointPath
  3
SCENEOE
 90
     0
 91
     0
280
0
281
0
  0
CLASS
  1
TVDEVICEPROPERTIES
  2
AcDbTvDeviceProperties
  3
SCENEOE
 90
     0
 91
     0
280
0
281
0
  0
CLASS
  1
ACDBPOINTCLOUDDEF
  2
AcDbPointCloudDef
  3
AcDbPointCloudObj
 90
     0
 91
     0
280
0
281
0
  0
CLASS
  1
ACDBPOINTCLOUDDEFEX
  2
AcDbPointCloudDefEx
  3
AcDbPointCloudObj
 90
     0
 91
     0
280
0
281
0
  0
CLASS
  1
ACDBPOINTCLOUDDEF_REACTOR
  2
AcDbPointCloudDefReactor
  3
AcDbPointCloudObj
 90
     0
 91
     0
280
0
281
0
  0
CLASS
  1
ACDBPOINTCLOUDDEF_REACTOR_EX
  2
AcDbPointCloudDefReactorEx
  3
AcDbPointCloudObj
 90
     0
 91
     0
280
0
281
0
  0
CLASS
  1
ACDBPOINTCLOUDCOLORMAP
  2
AcDbPointCloudColorMap
  3
AcDbPointCloudObj
 90
     0
 91
     0
280
0
281
0
  0
CLASS
  1
NAVISWORKSMODELDEF
  2
AcDbNavisworksModelDef
  3
ObjectDBX Classes
 90
     0
 91
     0
280
0
281
0
  0
CLASS
  1
CONTEXTDATAMANAGER
  2
AcDbContextDataManager
  3
ObjectDBX Classes
 90
     0
 91
     0
280
0
281
0
  0
CLASS
  1
DATATABLE
  2
AcDbDataTable
  3
ObjectDBX Classes
 90
     0
 91
     0
280
0
281
0
  0
CLASS
  1
DATALINK
  2
AcDbDataLink
  3
ObjectDBX Classes
 90
     0
 91
     0
280
0
281
0
  0
CLASS
  1
ACDBPERSSUBENTMANAGER
  2
AcDbPersSubentManager
  3
ObjectDBX Classes
 90
     0
 91
     0
280
0
281
0
  0
CLASS
  1
GEOMAPIMAGE
  2
AcDbGeomapImage
  3
ObjectDBX Classes
 90
     0
 91
     0
280
0
281
0
  0
CLASS
  1
ACDBDETAILVIEWSTYLE
  2
AcDbDetailViewStyle
  3
ObjectDBX Classes
 90
     0
 91
     0
280
0
281
0
  0
CLASS
  1
ACDBSECTIONVIEWSTYLE
  2
AcDbSectionViewStyle
  3
ObjectDBX Classes
 90
     0
 91
     0
280
0
281
0
  0
CLASS
  1
ACAD_PROXY_ENTITY_WRAPPER
  2
AcDbProxyEntityWrapper
  3
ObjectDBX Classes
 90
     0
 91
     0
280
0
281
1
  0
CLASS
  1
ACAD_PROXY_OBJECT_WRAPPER
  2
AcDbProxyObjectWrapper
  3
ObjectDBX Classes
 90
     0
 91
     0
280
0
281
0
  0
CLASS
  1
AEC_REFEDIT_STATUS_TRACKER
  2
AecDbRefEditStatusTracker
  3
AecArchBase
 90
     0
 91
     0
280
0
281
0
  0
CLASS
  1
EXACXREFPANELOBJECT
  2
ExAcXREFPanelObject
  3
EXAC_ESW
 90
     0
 91
     0
280
0
281
0
  0
CLASS
  1
XREFPANELOBJECT
  2
ExAcXREFPanelObject
  3
EXAC_ESW
 90
     0
 91
     0
280
0
281
0
  0
CLASS
  1
NPOCOLLECTION
  2
AcDbImpNonPersistentObjectsCollection
  3
ObjectDBX Classes
 90
     0
 91
     0
280
0
281
0
  0
CLASS
  1
LSDEFINITION
  2
AcDbLSDefinition
  3
DgnLS
 90
     0
 91
     0
280
0
281
0
  0
CLASS
  1
LSSYMBOLCOMPONENT
  2
AcDbLSSymbolComponent
  3
DgnLS
 90
     0
 91
     0
280
0
281
0
  0
CLASS
  1
LSCOMPOUNDCOMPONENT
  2
AcDbLSCompoundComponent
  3
DgnLS
 90
     0
 91
     0
280
0
281
0
  0
CLASS
  1
LSSTROKEPATTERNCOMPONENT
  2
AcDbLSStrokePatternComponent
  3
DgnLS
 90
     0
 91
     0
280
0
281
0
  0
CLASS
  1
LSPOINTCOMPONENT
  2
AcDbLSPointComponent
  3
DgnLS
 90
     0
 91
     0
280
0
281
0
  0
CLASS
  1
LSINTERNALCOMPONENT
  2
AcDbLSInternalComponent
  3
DgnLS
 90
     0
 91
     0
280
0
281
0
  0
CLASS
  1
McDbContainer2
  2
McDbContainer2
  3
NanoSPDS
 90
     0
 91
     0
280
0
281
0
  0
CLASS
  1
Wall
  2
PtDbWall
  3
NanoSPDS
 90
     0
 91
     0
280
0
281
1
  0
CLASS
  1
mcsDbObject
  2
mcsDbObject
  3
NanoSPDS
 90
     0
 91
     0
280
0
281
1
  0
CLASS
  1
NOTEPOSITION
  2
mcsDbObjectNotePosition
  3
NanoSPDS
 90
     0
 91
     0
280
0
281
1
  0
CLASS
  1
spdsLevelMark
  2
mcsDbObjectLevelMark
  3
NanoSPDS
 90
     0
 91
     0
280
0
281
1
  0
CLASS
  1
spdsRelationMark
  2
mcsDbObjectRelationMark
  3
NanoSPDS
 90
     0
 91
     0
280
0
281
1
  0
CLASS
  1
SECTIONLINE
  2
AcDbSectionSymbol
  3
ObjectDBX Classes
 90
     0
 91
     0
280
0
281
1
  0
CLASS
  1
DRAWINGVIEW
  2
AcDbViewBorder
  3
ObjectDBX Classes
 90
     0
 91
     0
280
0
281
1
  0
CLASS
  1
ACDB_ANNOTSCALEOBJECTCONTEXTDATA_CLASS
  2
AcDbAnnotScaleObjectContextData
  3
ObjectDBX Classes
 90
     0
 91
     0
280
0
281
0
  0
CLASS
  1
ACDB_BLKREFOBJECTCONTEXTDATA_CLASS
  2
AcDbBlkrefObjectContextData
  3
ObjectDBX Classes
 90
     0
 91
     0
280
0
281
0
  0
CLASS
  1
ACDB_TEXTOBJECTCONTEXTDATA_CLASS
  2
AcDbTextObjectContextData
  3
ObjectDBX Classes
 90
     0
 91
     0
280
0
281
0
  0
CLASS
  1
ACDB_MTEXTOBJECTCONTEXTDATA_CLASS
  2
AcDbMTextObjectContextData
  3
ObjectDBX Classes
 90
     0
 91
     0
280
0
281
0
  0
CLASS
  1
ACDB_ALDIMOBJECTCONTEXTDATA_CLASS
  2
AcDbAlignedDimensionObjectContextData
  3
ObjectDBX Classes
 90
     0
 91
     0
280
0
281
0
  0
CLASS
  1
ACDB_ANGDIMOBJECTCONTEXTDATA_CLASS
  2
AcDbAngularDimensionObjectContextData
  3
ObjectDBX Classes
 90
     0
 91
     0
280
0
281
0
  0
CLASS
  1
ACDB_DMDIMOBJECTCONTEXTDATA_CLASS
  2
AcDbDiametricDimensionObjectContextData
  3
ObjectDBX Classes
 90
     0
 91
     0
280
0
281
0
  0
CLASS
  1
ACDB_RADIMOBJECTCONTEXTDATA_CLASS
  2
AcDbRadialDimensionObjectContextData
  3
ObjectDBX Classes
 90
     0
 91
     0
280
0
281
0
  0
CLASS
  1
ACDB_RADIMLGOBJECTCONTEXTDATA_CLASS
  2
AcDbRadialDimensionLargeObjectContextData
  3
ObjectDBX Classes
 90
     0
 91
     0
280
0
281
0
  0
CLASS
  1
ACDB_ORDDIMOBJECTCONTEXTDATA_CLASS
  2
AcDbOrdinateDimensionObjectContextData
  3
ObjectDBX Classes
 90
     0
 91
     0
280
0
281
0
  0
CLASS
  1
ACDB_MLEADEROBJECTCONTEXTDATA_CLASS
  2
AcDbMLeaderObjectContextData
  3
ObjectDBX Classes
 90
     0
 91
     0
280
0
281
0
  0
CLASS
  1
ACDB_MTEXTATTRIBUTEOBJECTCONTEXTDATA_CLASS
  2
AcDbMTextAttributeObjectContextData
  3
ObjectDBX Classes
 90
     0
 91
     0
280
0
281
0
  0
CLASS
  1
ACDB_LEADEROBJECTCONTEXTDATA_CLASS
  2
AcDbLeaderObjectContextData
  3
ObjectDBX Classes
 90
     0
 91
     0
280
0
281
0
  0
CLASS
  1
ACDB_FCFOBJECTCONTEXTDATA_CLASS
  2
AcDbFcfObjectContextData
  3
ObjectDBX Classes
 90
     0
 91
     0
280
0
281
0
  0
CLASS
  1
ACDB_HATCHSCALECONTEXTDATA_CLASS
  2
AcDbHatchScaleContextData
  3
ObjectDBX Classes
 90
     0
 91
     0
280
0
281
0
  0
CLASS
  1
ACDB_HATCHVIEWCONTEXTDATA_CLASS
  2
AcDbHatchViewContextData
  3
ObjectDBX Classes
 90
     0
 91
     0
280
0
281
0
  0
CLASS
  1
TABLESTYLE
  2
AcDbTableStyle
  3
ObjectDBX Classes
 90
  1025
 91
     0
280
0
281
0
  0
CLASS
  1
MATERIAL
  2
AcDbMaterial
  3
ObjectDBX Classes
 90
  1025
 91
     0
280
0
281
0
  0
CLASS
  1
VISUALSTYLE
  2
AcDbVisualStyle
  3
ObjectDBX Classes
 90
  4095
 91
     0
280
0
281
0
  0
CLASS
  1
MLEADERSTYLE
  2
AcDbMLeaderStyle
  3
ACDB_MLEADERSTYLE_CLASS
 90
  4095
 91
     0
280
0
281
0
  0
CLASS
  1
CELLSTYLEMAP
  2
AcDbCellStyleMap
  3
ObjectDBX Classes
 90
  1025
 91
     0
280
0
281
0
  0
CLASS
  1
ACDSRECORD
  2
AcDsRecord
  3
AcDsData
 90
     0
 91
     0
280
0
281
0
  0
CLASS
  1
ACDSSCHEMA
  2
AcDsSchema
  3
AcDsData
 90
     0
 91
     0
280
0
281
0
  0
CLASS
  1
XRECORD
  2
AcDbXrecord
  3
ObjectDBX Classes
 90
     0
 91
     0
280
0
281
0
  0
CLASS
  1
SORTENTSTABLE
  2
AcDbSortentsTable
  3
ObjectDBX Classes
 90
     0
 91
     0
280
0
281
0
  0
CLASS
  1
BREAKDATA
  2
AcDbBreakData
  3
ObjectDBX Classes
 90
     0
 91
     0
280
0
281
0
  0
CLASS
  1
BREAKPOINTREF
  2
AcDbBreakPointRef
  3
ObjectDBX Classes
 90
     0
 91
     0
280
0
281
0
  0
CLASS
  1
IDBUFFER
  2
AcDbIdBuffer
  3
ObjectDBX Classes
 90
     0
 91
     0
280
0
281
0
  0
CLASS
  1
INDEX
  2
AcDbIndex
  3
ObjectDBX Classes
 90
     0
 91
     0
280
0
281
0
  0
CLASS
  1
LAYER_INDEX
  2
AcDbLayerIndex
  3
ObjectDBX Classes
 90
     0
 91
     0
280
0
281
0
  0
CLASS
  1
PARTIAL_VIEWING_FILTER
  2
OdDbPartialViewingFilter
  3
OdDbPartialViewing|https://www.opendesign.com Teigha(R) Core Db
 90
     0
 91
     0
280
0
281
0
  0
CLASS
  1
WIPEOUTVARIABLES
  2
AcDbWipeoutVariables
  3
WipeOut|AutoCAD Express Tool|www.autodesk.com
 90
     0
 91
     0
280
0
281
0
  0
CLASS
  1
DIMASSOC
  2
AcDbDimAssoc
  3
AcDbDimAssoc|Product Desc:     AcDim ARX App For Dimension|Company:          Autodesk|WEB Address:      www.autodesk.com
 90
     0
 91
     0
280
0
281
0
  0
CLASS
  1
TABLECONTENT
  2
AcDbTableContent
  3
ObjectDBX Classes
 90
  1025
 91
     0
280
0
281
0
  0
CLASS
  1
TABLEGEOMETRY
  2
AcDbTableGeometry
  3
ObjectDBX Classes
 90
  1025
 91
     0
280
0
281
0
  0
CLASS
  1
Format
  2
mcsDbObjectFormat
  3
NanoSPDS
 90
     0
 91
     0
280
0
281
1
  0
CLASS
  1
RASTERVARIABLES
  2
AcDbRasterVariables
  3
ISM
 90
     0
 91
     0
280
0
281
0
  0
CLASS
  1
IMAGEDEF
  2
AcDbRasterImageDef
  3
ISM
 90
     0
 91
     0
280
0
281
0
  0
CLASS
  1
IMAGEDEF_REACTOR
  2
AcDbRasterImageDefReactor
  3
ISM
 90
     1
 91
     0
280
0
281
0
  0
CLASS
  1
DBCOLOR
  2
AcDbColor
  3
ObjectDBX Classes
 90
  1025
 91
     0
280
0
281
0
  0
CLASS
  1
GEODATA
  2
AcDbGeoData
  3
ObjectDBX Classes
 90
  1025
 91
     0
280
0
281
0
  0
CLASS
  1
PDFDEFINITION
  2
AcDbPdfDefinition
  3
ObjectDBX Classes
 90
     1
 91
     0
280
0
281
0
  0
CLASS
  1
DWFDEFINITION
  2
AcDbDwfDefinition
  3
ObjectDBX Classes
 90
     1
 91
     0
280
0
281
0
  0
CLASS
  1
DGNDEFINITION
  2
AcDbDgnDefinition
  3
ObjectDBX Classes
 90
     1
 91
     0
280
0
281
0
  0
CLASS
  1
SPATIAL_FILTER
  2
AcDbSpatialFilter
  3
ObjectDBX Classes
 90
     1
 91
     0
280
0
281
0
  0
CLASS
  1
GROUP
  2
AcDbGroup
  3
ObjectDBX Classes
 90
     0
 91
     0
280
0
281
0
  0
CLASS
  1
MLINESTYLE
  2
AcDbMlineStyle
  3
ObjectDBX Classes
 90
     0
 91
     0
280
0
281
0
  0
ENDSEC
  0
SECTION
  2
TABLES
  0
TABLE
  2
VPORT
  5
8
330
0
100
AcDbSymbolTable
 70
     1
  0
VPORT
  5
20
330
8
100
AcDbSymbolTableRecord
100
AcDbViewportTableRecord
  2
*Active
 70
     0
 10
0.0
 20
0.0
 11
1.0
 21
1.0
 12
0.0
 22
0.0
 13
0.0
 23
0.0
 14
0.5
 24
0.5
 15
10.0
 25
10.0
 16
0.0
 26
0.0
 36
1.0
 17
0.0
 27
0.0
 37
0.0
 40
10.0
 41
1.0
 42
50.0
 43
0.0
 44
0.0
 50
0.0
 51
0.0
 71
     0
 72
   100
 73
     1
 74
     3
 75
     0
 76
     0
 77
     0
 78
     0
281
     0
 65
     1
110
0.0
120
0.0
130
0.0
111
1.0
121
0.0
131
0.0
112
0.0
122
1.0
132
0.0
 79
     0
146
0.0
 60
     2
 61
     5
292
     1
282
     1
141
0.0
142
0.0
 63
   250
  0
ENDTAB
  0
TABLE
  2
LTYPE
  5
5
330
0
100
AcDbSymbolTable
 70
     3
  0
LTYPE
  5
11
330
5
100
AcDbSymbolTableRecord
100
AcDbLinetypeTableRecord
  2
Continuous
 70
     0
  3
Solid line
 72
    65
 73
     0
 40
0.0
  0
LTYPE
  5
12
330
5
100
AcDbSymbolTableRecord
100
AcDbLinetypeTableRecord
  2
ByLayer
 70
     0
  3

 72
    65
 73
     0
 40
0.0
  0
LTYPE
  5
13
330
5
100
AcDbSymbolTableRecord
100
AcDbLinetypeTableRecord
  2
ByBlock
 70
     0
  3

 72
    65
 73
     0
 40
0.0
  0
ENDTAB
  0
TABLE
  2
LAYER
  5
2
330
0
100
AcDbSymbolTable
 70
     2
  0
LAYER
  5
10
330
2
100
AcDbSymbolTableRecord
100
AcDbLayerTableRecord
  2
0
 70
     0
 62
     7
  6
Continuous
370
    -3
390
30
290
     1
  0
LAYER
  5
34
330
2
100
AcDbSymbolTableRecord
100
AcDbLayerTableRecord
  2
AEC_WALL_AXIS
 70
     0
 62
    -7
  6
Continuous
370
    -3
390
30
290
     0
  0
ENDTAB
  0
TABLE
  2
STYLE
  5
3
330
0
100
AcDbSymbolTable
 70
     1
  0
STYLE
  5
14
330
3
100
AcDbSymbolTableRecord
100
AcDbTextStyleTableRecord
  2
Standard
 70
     0
 40
0.0
 41
1.0
 50
0.0
 71
     0
 42
2.5
  3
txt
  4

  0
ENDTAB
  0
TABLE
  2
VIEW
  5
6
330
0
100
AcDbSymbolTable
 70
     0
  0
ENDTAB
  0
TABLE
  2
UCS
  5
7
330
0
100
AcDbSymbolTable
 70
     0
  0
ENDTAB
  0
TABLE
  2
APPID
  5
9
330
0
100
AcDbSymbolTable
 70
     5
  0
APPID
  5
1C
330
9
100
AcDbSymbolTableRecord
100
AcDbRegAppTableRecord
  2
ACAD
 70
     0
  0
APPID
  5
1D
330
9
100
AcDbSymbolTableRecord
100
AcDbRegAppTableRecord
  2
AcadAnnotative
 70
     0
  0
APPID
  5
1E
330
9
100
AcDbSymbolTableRecord
100
AcDbRegAppTableRecord
  2
AcCmTransparency
 70
     0
  0
APPID
  5
1F
330
9
100
AcDbSymbolTableRecord
100
AcDbRegAppTableRecord
  2
AcAecLayerStandard
 70
     0
  0
APPID
  5
31
330
9
100
AcDbSymbolTableRecord
100
AcDbRegAppTableRecord
  2
OPENCAD_AEC
 70
     0
  0
ENDTAB
  0
TABLE
  2
DIMSTYLE
  5
A
330
0
100
AcDbSymbolTable
 70
     1
100
AcDbDimStyleTable
 71
     1
  0
DIMSTYLE
105
1B
330
A
100
AcDbSymbolTableRecord
100
AcDbDimStyleTableRecord
  2
Standard
 70
     0
 40
1.0
 41
0.18
 42
0.625
 43
3.75
 44
1.25
 45
0.0
 46
0.0
 47
0.0
 48
0.0
140
0.18
141
0.09
142
0.0
143
25.4
144
1.0
145
0.0
146
1.0
147
0.625
 71
     0
 72
     0
 73
     0
 74
     0
 75
     0
 76
     0
 77
     1
 78
     8
 79
     0
170
     0
171
     3
172
     0
173
     1
174
     0
175
     0
176
     0
177
     0
178
     0
179
     0
271
     2
272
     2
273
     2
274
     3
275
     0
276
     0
277
     2
278
    46
279
     0
280
     0
281
     0
282
     0
283
     0
284
     8
285
     0
286
     0
288
     0
289
     3
340
14
371
    -2
372
    -2
  0
ENDTAB
  0
TABLE
  2
BLOCK_RECORD
  5
1
330
0
100
AcDbSymbolTable
 70
     2
  0
BLOCK_RECORD
  5
15
330
1
100
AcDbSymbolTableRecord
100
AcDbBlockTableRecord
  2
*Model_Space
 70
     0
280
1
281
     0
  0
BLOCK_RECORD
  5
18
330
1
100
AcDbSymbolTableRecord
100
AcDbBlockTableRecord
  2
*Paper_Space
 70
     0
280
1
281
     0
  0
ENDTAB
  0
ENDSEC
  0
SECTION
  2
BLOCKS
  0
BLOCK
  5
16
330
15
100
AcDbEntity
  8
0
100
AcDbBlockBegin
  2
*Model_Space
 70
     0
 10
0.0
 20
0.0
 30
0.0
  3
*Model_Space
  1

  0
ENDBLK
  5
17
330
15
100
AcDbEntity
  8
0
100
AcDbBlockEnd
  0
BLOCK
  5
19
330
18
100
AcDbEntity
 67
     1
  8
0
100
AcDbBlockBegin
  2
*Paper_Space
 70
     0
 10
0.0
 20
0.0
 30
0.0
  3
*Paper_Space
  1

  0
ENDBLK
  5
1A
330
18
100
AcDbEntity
 67
     1
  8
0
100
AcDbBlockEnd
  0
ENDSEC
  0
SECTION
  2
ENTITIES
  0
LWPOLYLINE
  5
32
330
15
100
AcDbEntity
  8
AEC_WALL_AXIS
100
AcDbPolyline
 90
     2
 70
     0
 38
0.0
 10
0.0
 20
0.0
 40
0.0
 41
0.0
 42
0.0
 10
5.0
 20
0.0
 40
0.0
 41
0.0
 42
0.0
1001
OPENCAD_AEC
1000
WALL
1000
style1
1041
3.0
1071
     0
1071
     1
1000
Concrete
1041
0.2
1000
Structural
1071
     3
1005
35
1005
3C
1005
3D
1000
Center
1000
axis_offset
1041
-0.1
1041
0.0
1041
0.0
1000

1000

1000
layer_id
1000
bafa0434-1aaa-433f-9f34-3a52bab0624b
1000
New
1000
0
1041
0.0
1000

1000
planes
1000

1000

1041
0.0
1041
0.0
1041
0.0
1041
0.0
1041
0.0
1041
0.0
1041
0.0
1041
1.0
1041
0.0
1041
0.0
1041
0.0
1041
0.0
1041
0.0
1041
1.0
1001
OPENCAD_AEC
1000
JOINED_PEERS
1005
33
  0
LWPOLYLINE
  5
33
330
15
100
AcDbEntity
  8
AEC_WALL_AXIS
100
AcDbPolyline
 90
     2
 70
     0
 38
0.0
 10
5.0
 20
0.0
 40
0.0
 41
0.0
 42
0.0
 10
5.0
 20
5.0
 40
0.0
 41
0.0
 42
0.0
1001
OPENCAD_AEC
1000
WALL
1000
style1
1041
3.0
1071
     0
1071
     1
1000
Concrete
1041
0.2
1000
Structural
1071
     3
1005
39
1005
3E
1005
3F
1000
Center
1000
axis_offset
1041
-0.1
1041
0.0
1041
0.0
1000

1000

1000
layer_id
1000
e284eab1-21d1-4b6f-b618-a37ec02d7e28
1000
New
1000
0
1041
0.0
1000

1000
planes
1000

1000

1041
0.0
1041
0.0
1041
0.0
1041
0.0
1041
0.0
1041
0.0
1041
0.0
1041
1.0
1041
0.0
1041
0.0
1041
0.0
1041
0.0
1041
0.0
1041
1.0
1001
OPENCAD_AEC
1000
JOINED_PEERS
1005
32
  0
LWPOLYLINE
  5
35
330
15
100
AcDbEntity
  8
0
100
AcDbPolyline
 90
     4
 70
     1
 38
0.0
 10
0.0
 20
-0.1
 40
0.0
 41
0.0
 42
0.0
 10
5.100000000000023
 20
-0.1
 40
0.0
 41
0.0
 42
0.0
 10
4.900000000000034
 20
0.1
 40
0.0
 41
0.0
 42
0.0
 10
0.0
 20
0.1
 40
0.0
 41
0.0
 42
0.0
1001
OPENCAD_AEC
1000
WALL_REP
1005
32
1000
contour
  0
POINT
  5
38
330
15
100
AcDbEntity
  8
0
100
AcDbPoint
 10
0.0
 20
0.0
 30
0.0
1001
OPENCAD_AEC
1000
STOREY
1071
     0
1000
Level 1
1040
0.0
1040
3.0
1001
OPENCAD_AEC
1000
CHILD_HANDLES
1005
32
1005
33
1005
41
1005
42
1005
62
1005
63
1005
8D
1005
8E
1005
BE
1005
BF
1005
E2
1005
E3
1005
E4
1005
F5
1005
F6
  0
LWPOLYLINE
  5
39
330
15
100
AcDbEntity
  8
0
100
AcDbPolyline
 90
     4
 70
     1
 38
0.0
 10
5.1
 20
-0.10000000000002274
 40
0.0
 41
0.0
 42
0.0
 10
5.1
 20
5.0
 40
0.0
 41
0.0
 42
0.0
 10
4.9
 20
5.0
 40
0.0
 41
0.0
 42
0.0
 10
4.9
 20
0.0999999999999659
 40
0.0
 41
0.0
 42
0.0
1001
OPENCAD_AEC
1000
WALL_REP
1005
33
1000
contour
  0
HATCH
  5
3C
330
15
100
AcDbEntity
  8
0
100
AcDbHatch
 10
0.0
 20
0.0
 30
0.0
210
0.0
220
0.0
230
1.0
  2
ANSI31
 70
     0
 71
     0
 91
     1
 92
    19
 72
     0
 73
     1
 93
     5
 10
0.0
 20
-0.1
 10
5.100000000000023
 20
-0.1
 10
4.900000000000034
 20
0.1
 10
0.0
 20
0.1
 10
0.0
 20
-0.1
 97
     0
 75
     0
 76
     1
 52
0.0
 41
1.0
 77
     0
 78
     1
 53
45.0
 43
0.0
 44
0.10000000149011612
 45
-2.2450639965498094
 46
2.24506399654981
 79
     0
 98
     0
1001
OPENCAD_AEC
1000
WALL_REP
1005
32
1000
hatch
  0
3DSOLID
  5
3D
330
15
100
AcDbEntity
  8
0
100
AcDbModelerGeometry
290
     0
  2
{00000000-0000-0000-0000-000000000000}
100
AcDb3dSolid
350
0
1001
OPENCAD_AEC
1000
WALL_REP
1005
32
1000
solid
  0
HATCH
  5
3E
330
15
100
AcDbEntity
  8
0
100
AcDbHatch
 10
0.0
 20
0.0
 30
0.0
210
0.0
220
0.0
230
1.0
  2
ANSI31
 70
     0
 71
     0
 91
     1
 92
    19
 72
     0
 73
     1
 93
     5
 10
5.1
 20
-0.10000000000002274
 10
5.1
 20
5.0
 10
4.9
 20
5.0
 10
4.9
 20
0.0999999999999659
 10
5.1
 20
-0.10000000000002274
 97
     0
 75
     0
 76
     1
 52
90.00000250447816
 41
1.0
 77
     0
 78
     1
 53
135.00000250447818
 43
-0.09999977856203118
 44
-5.099999909003702
 45
-2.24506389841494
 46
-2.245064094684675
 79
     0
 98
     0
1001
OPENCAD_AEC
1000
WALL_REP
1005
33
1000
hatch
  0
3DSOLID
  5
3F
330
15
100
AcDbEntity
  8
0
100
AcDbModelerGeometry
290
     0
  2
{00000000-0000-0000-0000-000000000000}
100
AcDb3dSolid
350
0
1001
OPENCAD_AEC
1000
WALL_REP
1005
33
1000
solid
  0
MTEXT
  5
40
330
15
100
AcDbEntity
  8
0
100
AcDbMText
 10
0.0
 20
-1.4
 30
0.0
 40
0.28
 41
10.0
 71
     1
 72
     1
  1
L einschalig\PStil: style1 (Concrete)\PVerbindung: L, Standard-Miter\POverride: keiner
  7
Standard
 73
     1
 44
1.0
  0
LWPOLYLINE
  5
41
330
15
100
AcDbEntity
  8
AEC_WALL_AXIS
100
AcDbPolyline
 90
     2
 70
     0
 38
0.0
 10
10.0
 20
0.0
 40
0.0
 41
0.0
 42
0.0
 10
16.0
 20
0.0
 40
0.0
 41
0.0
 42
0.0
1001
OPENCAD_AEC
1000
WALL
1000
style1
1041
3.0
1071
     0
1071
     3
1000
Putz
1041
0.015
1000
Finish
1000
Mauerwerk
1041
0.24
1000
Structural
1000
Putz
1041
0.015
1000
Finish
1071
     9
1005
49
1005
55
1005
56
1005
46
1005
57
1005
58
1005
43
1005
59
1005
5A
1000
Center
1000
axis_offset
1041
-0.135
1041
0.0
1041
0.0
1041
-0.12000000000000001
1041
0.0
1041
0.0
1041
0.11999999999999998
1041
0.0
1041
0.0
1000

1000

1000

1000
DOTS
1000
ANSI31
1000
DOTS
1000
layer_id
1000
e1fde875-f307-4aaf-90d1-4f8ed02a452d
1000
8c77a2d6-af75-4f11-a812-f0c855e3833f
1000
a01148bf-b8cf-4d70-a9c0-a90fae8b8dea
1000
New
1000
0
1041
0.0
1000

1000
planes
1000

1000

1041
0.0
1041
0.0
1041
0.0
1041
0.0
1041
0.0
1041
0.0
1041
0.0
1041
1.0
1041
0.0
1041
0.0
1041
0.0
1041
0.0
1041
0.0
1041
1.0
1001
OPENCAD_AEC
1000
JOINED_PEERS
1005
42
  0
LWPOLYLINE
  5
42
330
15
100
AcDbEntity
  8
AEC_WALL_AXIS
100
AcDbPolyline
 90
     2
 70
     0
 38
0.0
 10
16.0
 20
0.0
 40
0.0
 41
0.0
 42
0.0
 10
16.0
 20
5.0
 40
0.0
 41
0.0
 42
0.0
1001
OPENCAD_AEC
1000
WALL
1000
style1
1041
3.0
1071
     0
1071
     3
1000
Putz
1041
0.015
1000
Finish
1000
Mauerwerk
1041
0.24
1000
Structural
1000
Putz
1041
0.015
1000
Finish
1071
     9
1005
52
1005
5B
1005
5C
1005
4F
1005
5D
1005
5E
1005
4C
1005
5F
1005
60
1000
Center
1000
axis_offset
1041
-0.135
1041
0.0
1041
0.0
1041
-0.12000000000000001
1041
0.0
1041
0.0
1041
0.11999999999999998
1041
0.0
1041
0.0
1000

1000

1000

1000
DOTS
1000
ANSI31
1000
DOTS
1000
layer_id
1000
f4edbac8-d017-4b84-912f-87ce06dad8f6
1000
1daebc61-3028-424d-954a-32e1eac76afb
1000
2de6a888-8550-437d-b8cc-78eaa888e618
1000
New
1000
0
1041
0.0
1000

1000
planes
1000

1000

1041
0.0
1041
0.0
1041
0.0
1041
0.0
1041
0.0
1041
0.0
1041
0.0
1041
1.0
1041
0.0
1041
0.0
1041
0.0
1041
0.0
1041
0.0
1041
1.0
1001
OPENCAD_AEC
1000
JOINED_PEERS
1005
41
  0
LWPOLYLINE
  5
43
330
15
100
AcDbEntity
  8
0
 62
     9
420
13158596
100
AcDbPolyline
 90
     4
 70
     1
 38
0.0
 10
10.0
 20
0.11999999999999998
 40
0.0
 41
0.0
 42
0.0
 10
15.88000000000011
 20
0.11999999999999998
 40
0.0
 41
0.0
 42
0.0
 10
15.864999999999895
 20
0.13499999999999998
 40
0.0
 41
0.0
 42
0.0
 10
10.0
 20
0.13499999999999998
 40
0.0
 41
0.0
 42
0.0
1001
OPENCAD_AEC
1000
WALL_REP
1005
41
1000
contour
  0
LWPOLYLINE
  5
46
330
15
100
AcDbEntity
  8
0
 62
    45
420
9139029
100
AcDbPolyline
 90
     4
 70
     1
 38
0.0
 10
10.0
 20
-0.12000000000000001
 40
0.0
 41
0.0
 42
0.0
 10
16.11999999999989
 20
-0.12000000000000001
 40
0.0
 41
0.0
 42
0.0
 10
15.88000000000011
 20
0.11999999999999998
 40
0.0
 41
0.0
 42
0.0
 10
10.0
 20
0.11999999999999998
 40
0.0
 41
0.0
 42
0.0
1001
OPENCAD_AEC
1000
WALL_REP
1005
41
1000
contour
  0
LWPOLYLINE
  5
49
330
15
100
AcDbEntity
  8
0
 62
     9
420
13158596
100
AcDbPolyline
 90
     4
 70
     1
 38
0.0
 10
10.0
 20
-0.135
 40
0.0
 41
0.0
 42
0.0
 10
16.135000000000105
 20
-0.135
 40
0.0
 41
0.0
 42
0.0
 10
16.11999999999989
 20
-0.12000000000000001
 40
0.0
 41
0.0
 42
0.0
 10
10.0
 20
-0.12000000000000001
 40
0.0
 41
0.0
 42
0.0
1001
OPENCAD_AEC
1000
WALL_REP
1005
41
1000
contour
  0
LWPOLYLINE
  5
4C
330
15
100
AcDbEntity
  8
0
 62
     9
420
13158596
100
AcDbPolyline
 90
     4
 70
     1
 38
0.0
 10
15.88
 20
0.1199999999999477
 40
0.0
 41
0.0
 42
0.0
 10
15.88
 20
5.0
 40
0.0
 41
0.0
 42
0.0
 10
15.865
 20
5.0
 40
0.0
 41
0.0
 42
0.0
 10
15.865
 20
0.13499999999993406
 40
0.0
 41
0.0
 42
0.0
1001
OPENCAD_AEC
1000
WALL_REP
1005
42
1000
contour
  0
LWPOLYLINE
  5
4F
330
15
100
AcDbEntity
  8
0
 62
    45
420
9139029
100
AcDbPolyline
 90
     4
 70
     1
 38
0.0
 10
16.12
 20
-0.1199999999999477
 40
0.0
 41
0.0
 42
0.0
 10
16.12
 20
5.0
 40
0.0
 41
0.0
 42
0.0
 10
15.88
 20
5.0
 40
0.0
 41
0.0
 42
0.0
 10
15.88
 20
0.1199999999999477
 40
0.0
 41
0.0
 42
0.0
1001
OPENCAD_AEC
1000
WALL_REP
1005
42
1000
contour
  0
LWPOLYLINE
  5
52
330
15
100
AcDbEntity
  8
0
 62
     9
420
13158596
100
AcDbPolyline
 90
     4
 70
     1
 38
0.0
 10
16.135
 20
-0.13499999999987722
 40
0.0
 41
0.0
 42
0.0
 10
16.135
 20
5.0
 40
0.0
 41
0.0
 42
0.0
 10
16.12
 20
5.0
 40
0.0
 41
0.0
 42
0.0
 10
16.12
 20
-0.1199999999999477
 40
0.0
 41
0.0
 42
0.0
1001
OPENCAD_AEC
1000
WALL_REP
1005
42
1000
contour
  0
HATCH
  5
55
330
15
100
AcDbEntity
  8
0
 62
   253
420
11842736
440
33554687
100
AcDbHatch
 10
0.0
 20
0.0
 30
0.0
210
0.0
220
0.0
230
1.0
  2
DOTS
 70
     0
 71
     0
 91
     1
 92
    19
 72
     0
 73
     1
 93
     5
 10
10.0
 20
-0.135
 10
16.135000000000105
 20
-0.135
 10
16.11999999999989
 20
-0.12000000000000001
 10
10.0
 20
-0.12000000000000001
 10
10.0
 20
-0.135
 97
     0
 75
     0
 76
     1
 52
0.0
 41
0.0012000000569969416
 77
     0
 78
     1
 53
0.0
 43
-0.012000000569969416
 44
0.00016200001413188905
 45
0.0009525000309362069
 46
0.0019050000618724139
 79
     2
 49
0.0
 49
-0.0019050000618724139
 98
     0
1001
OPENCAD_AEC
1000
WALL_REP
1005
41
1000
hatch
  0
3DSOLID
  5
56
330
15
100
AcDbEntity
  8
0
100
AcDbModelerGeometry
290
     0
  2
{00000000-0000-0000-0000-000000000000}
100
AcDb3dSolid
350
0
1001
OPENCAD_AEC
1000
WALL_REP
1005
41
1000
solid
  0
HATCH
  5
57
330
15
100
AcDbEntity
  8
0
 62
    45
420
9139029
440
33554687
100
AcDbHatch
 10
0.0
 20
0.0
 30
0.0
210
0.0
220
0.0
230
1.0
  2
ANSI31
 70
     0
 71
     0
 91
     1
 92
    19
 72
     0
 73
     1
 93
     5
 10
10.0
 20
-0.12000000000000001
 10
16.11999999999989
 20
-0.12000000000000001
 10
15.88000000000011
 20
0.11999999999999998
 10
10.0
 20
0.11999999999999998
 10
10.0
 20
-0.12000000000000001
 97
     0
 75
     0
 76
     1
 52
0.0
 41
0.0024999999441206455
 77
     0
 78
     1
 53
45.0
 43
-0.024999999441206455
 44
0.0002999999865889551
 45
-0.005612659865921797
 46
0.005612659865921798
 79
     0
 98
     0
1001
OPENCAD_AEC
1000
WALL_REP
1005
41
1000
hatch
  0
3DSOLID
  5
58
330
15
100
AcDbEntity
  8
0
100
AcDbModelerGeometry
290
     0
  2
{00000000-0000-0000-0000-000000000000}
100
AcDb3dSolid
350
0
1001
OPENCAD_AEC
1000
WALL_REP
1005
41
1000
solid
  0
HATCH
  5
59
330
15
100
AcDbEntity
  8
0
 62
   253
420
11842736
440
33554687
100
AcDbHatch
 10
0.0
 20
0.0
 30
0.0
210
0.0
220
0.0
230
1.0
  2
DOTS
 70
     0
 71
     0
 91
     1
 92
    19
 72
     0
 73
     1
 93
     5
 10
10.0
 20
0.11999999999999998
 10
15.88000000000011
 20
0.11999999999999998
 10
15.864999999999895
 20
0.13499999999999998
 10
10.0
 20
0.13499999999999998
 10
10.0
 20
0.11999999999999998
 97
     0
 75
     0
 76
     1
 52
0.0
 41
0.0012000000569969416
 77
     0
 78
     1
 53
0.0
 43
-0.012000000569969416
 44
-0.00014400000362098202
 45
0.0009525000309362069
 46
0.0019050000618724139
 79
     2
 49
0.0
 49
-0.0019050000618724139
 98
     0
1001
OPENCAD_AEC
1000
WALL_REP
1005
41
1000
hatch
  0
3DSOLID
  5
5A
330
15
100
AcDbEntity
  8
0
100
AcDbModelerGeometry
290
     0
  2
{00000000-0000-0000-0000-000000000000}
100
AcDb3dSolid
350
0
1001
OPENCAD_AEC
1000
WALL_REP
1005
41
1000
solid
  0
HATCH
  5
5B
330
15
100
AcDbEntity
  8
0
 62
   253
420
11842736
440
33554687
100
AcDbHatch
 10
0.0
 20
0.0
 30
0.0
210
0.0
220
0.0
230
1.0
  2
DOTS
 70
     0
 71
     0
 91
     1
 92
    19
 72
     0
 73
     1
 93
     5
 10
16.135
 20
-0.13499999999987722
 10
16.135
 20
5.0
 10
16.12
 20
5.0
 10
16.12
 20
-0.1199999999999477
 10
16.135
 20
-0.13499999999987722
 97
     0
 75
     0
 76
     1
 52
90.00000250447816
 41
0.0012000000569969416
 77
     0
 78
     1
 53
90.00000250447816
 43
-0.00016199916779190346
 44
-0.019362001201385093
 45
-0.0019050001035075122
 46
0.0009524999476660053
 79
     2
 49
0.0
 49
-0.0019050000618724139
 98
     0
1001
OPENCAD_AEC
1000
WALL_REP
1005
42
1000
hatch
  0
3DSOLID
  5
5C
330
15
100
AcDbEntity
  8
0
100
AcDbModelerGeometry
290
     0
  2
{00000000-0000-0000-0000-000000000000}
100
AcDb3dSolid
350
0
1001
OPENCAD_AEC
1000
WALL_REP
1005
42
1000
solid
  0
HATCH
  5
5D
330
15
100
AcDbEntity
  8
0
 62
    45
420
9139029
440
33554687
100
AcDbHatch
 10
0.0
 20
0.0
 30
0.0
210
0.0
220
0.0
230
1.0
  2
ANSI31
 70
     0
 71
     0
 91
     1
 92
    19
 72
     0
 73
     1
 93
     5
 10
16.12
 20
-0.1199999999999477
 10
16.12
 20
5.0
 10
15.88
 20
5.0
 10
15.88
 20
0.1199999999999477
 10
16.12
 20
-0.1199999999999477
 97
     0
 75
     0
 76
     1
 52
90.00000250447816
 41
0.0024999999441206455
 77
     0
 78
     1
 53
135.00000250447818
 43
-0.0002999982250198853
 44
-0.040300001210421627
 45
-0.005612659620584628
 46
-0.005612660111258955
 79
     0
 98
     0
1001
OPENCAD_AEC
1000
WALL_REP
1005
42
1000
hatch
  0
3DSOLID
  5
5E
330
15
100
AcDbEntity
  8
0
100
AcDbModelerGeometry
290
     0
  2
{00000000-0000-0000-0000-000000000000}
100
AcDb3dSolid
350
0
1001
OPENCAD_AEC
1000
WALL_REP
1005
42
1000
solid
  0
HATCH
  5
5F
330
15
100
AcDbEntity
  8
0
 62
   253
420
11842736
440
33554687
100
AcDbHatch
 10
0.0
 20
0.0
 30
0.0
210
0.0
220
0.0
230
1.0
  2
DOTS
 70
     0
 71
     0
 91
     1
 92
    19
 72
     0
 73
     1
 93
     5
 10
15.88
 20
0.1199999999999477
 10
15.88
 20
5.0
 10
15.865
 20
5.0
 10
15.865
 20
0.13499999999993406
 10
15.88
 20
0.1199999999999477
 97
     0
 75
     0
 76
     1
 52
90.00000250447816
 41
0.0012000000569969416
 77
     0
 78
     1
 53
90.00000250447816
 43
0.00014400083658527531
 44
-0.019056001036146082
 45
-0.0019050001035075122
 46
0.0009524999476660053
 79
     2
 49
0.0
 49
-0.0019050000618724139
 98
     0
1001
OPENCAD_AEC
1000
WALL_REP
1005
42
1000
hatch
  0
3DSOLID
  5
60
330
15
100
AcDbEntity
  8
0
100
AcDbModelerGeometry
290
     0
  2
{00000000-0000-0000-0000-000000000000}
100
AcDb3dSolid
350
0
1001
OPENCAD_AEC
1000
WALL_REP
1005
42
1000
solid
  0
MTEXT
  5
61
330
15
100
AcDbEntity
  8
0
100
AcDbMText
 10
10.0
 20
-1.4
 30
0.0
 40
0.28
 41
10.0
 71
     1
 72
     1
  1
L dreischalig\PStil: style1 (Putz+Mauerwerk+Putz)\PVerbindung: L, Standard-Miter\POverride: keiner
  7
Standard
 73
     1
 44
1.0
  0
LWPOLYLINE
  5
62
330
15
100
AcDbEntity
  8
AEC_WALL_AXIS
100
AcDbPolyline
 90
     2
 70
     0
 38
0.0
 10
20.0
 20
0.0
 40
0.0
 41
0.0
 42
0.0
 10
26.0
 20
0.0
 40
0.0
 41
0.0
 42
0.0
1001
OPENCAD_AEC
1000
WALL
1000
style1
1041
3.0
1071
     0
1071
     4
1000
Putz
1041
0.015
1000
Finish
1000
Mauerwerk
1041
0.24
1000
Structural
1000
Insulation
1041
0.12
1000
Insulation
1000
Putz
1041
0.015
1000
Finish
1071
    12
1005
6D
1005
7C
1005
7D
1005
6A
1005
7E
1005
7F
1005
67
1005
80
1005
81
1005
64
1005
82
1005
83
1000
Center
1000
axis_offset
1041
-0.195
1041
0.0
1041
0.0
1041
-0.18
1041
0.0
1041
0.0
1041
0.06
1041
0.0
1041
0.0
1041
0.18
1041
0.0
1041
0.0
1000

1000

1000

1000

1000
DOTS
1000
ANSI31
1000

1000
DOTS
1000
layer_id
1000
870c247b-2bc3-4143-9cda-2c960db6f9ea
1000
60e262d4-701a-435c-88b8-f64854110ba1
1000
972571fa-c332-4cf5-aa00-777a1f559551
1000
18c80fc8-2274-4ad7-b667-22a913fbe6a7
1000
New
1000
0
1041
0.0
1000

1000
planes
1000

1000

1041
0.0
1041
0.0
1041
0.0
1041
0.0
1041
0.0
1041
0.0
1041
0.0
1041
1.0
1041
0.0
1041
0.0
1041
0.0
1041
0.0
1041
0.0
1041
1.0
1001
OPENCAD_AEC
1000
JOINED_PEERS
1005
63
  0
LWPOLYLINE
  5
63
330
15
100
AcDbEntity
  8
AEC_WALL_AXIS
100
AcDbPolyline
 90
     2
 70
     0
 38
0.0
 10
26.0
 20
0.0
 40
0.0
 41
0.0
 42
0.0
 10
26.0
 20
5.0
 40
0.0
 41
0.0
 42
0.0
1001
OPENCAD_AEC
1000
WALL
1000
style1
1041
3.0
1071
     0
1071
     4
1000
Putz
1041
0.015
1000
Finish
1000
Mauerwerk
1041
0.24
1000
Structural
1000
Insulation
1041
0.12
1000
Insulation
1000
Putz
1041
0.015
1000
Finish
1071
    12
1005
79
1005
84
1005
85
1005
76
1005
86
1005
87
1005
73
1005
88
1005
89
1005
70
1005
8A
1005
8B
1000
Center
1000
axis_offset
1041
-0.195
1041
0.0
1041
0.0
1041
-0.18
1041
0.0
1041
0.0
1041
0.06
1041
0.0
1041
0.0
1041
0.18
1041
0.0
1041
0.0
1000

1000

1000

1000

1000
DOTS
1000
ANSI31
1000

1000
DOTS
1000
layer_id
1000
86dc6ad0-5dc8-46eb-9862-387676c0b132
1000
48411329-cc9b-4db2-b960-b757543e44a0
1000
915745fe-ebfd-4580-b16d-6f8067f06f0e
1000
a0fd06be-2b6f-47d3-97da-7dea0d89b256
1000
New
1000
0
1041
0.0
1000

1000
planes
1000

1000

1041
0.0
1041
0.0
1041
0.0
1041
0.0
1041
0.0
1041
0.0
1041
0.0
1041
1.0
1041
0.0
1041
0.0
1041
0.0
1041
0.0
1041
0.0
1041
1.0
1001
OPENCAD_AEC
1000
JOINED_PEERS
1005
62
  0
LWPOLYLINE
  5
64
330
15
100
AcDbEntity
  8
0
 62
     9
420
13158596
100
AcDbPolyline
 90
     4
 70
     1
 38
0.0
 10
20.0
 20
0.18
 40
0.0
 41
0.0
 42
0.0
 10
25.820000000000164
 20
0.18
 40
0.0
 41
0.0
 42
0.0
 10
25.804999999999836
 20
0.195
 40
0.0
 41
0.0
 42
0.0
 10
20.0
 20
0.195
 40
0.0
 41
0.0
 42
0.0
1001
OPENCAD_AEC
1000
WALL_REP
1005
62
1000
contour
  0
LWPOLYLINE
  5
67
330
15
100
AcDbEntity
  8
0
 62
    45
420
9139029
100
AcDbPolyline
 90
     4
 70
     1
 38
0.0
 10
20.0
 20
0.06
 40
0.0
 41
0.0
 42
0.0
 10
25.94000000000017
 20
0.06
 40
0.0
 41
0.0
 42
0.0
 10
25.820000000000164
 20
0.18
 40
0.0
 41
0.0
 42
0.0
 10
20.0
 20
0.18
 40
0.0
 41
0.0
 42
0.0
1001
OPENCAD_AEC
1000
WALL_REP
1005
62
1000
contour
  0
LWPOLYLINE
  5
6A
330
15
100
AcDbEntity
  8
0
 62
    45
420
9139029
100
AcDbPolyline
 90
     4
 70
     1
 38
0.0
 10
20.0
 20
-0.18
 40
0.0
 41
0.0
 42
0.0
 10
26.179999999999836
 20
-0.18
 40
0.0
 41
0.0
 42
0.0
 10
25.94000000000017
 20
0.06
 40
0.0
 41
0.0
 42
0.0
 10
20.0
 20
0.06
 40
0.0
 41
0.0
 42
0.0
1001
OPENCAD_AEC
1000
WALL_REP
1005
62
1000
contour
  0
LWPOLYLINE
  5
6D
330
15
100
AcDbEntity
  8
0
 62
     9
420
13158596
100
AcDbPolyline
 90
     4
 70
     1
 38
0.0
 10
20.0
 20
-0.195
 40
0.0
 41
0.0
 42
0.0
 10
26.195000000000164
 20
-0.195
 40
0.0
 41
0.0
 42
0.0
 10
26.179999999999836
 20
-0.18
 40
0.0
 41
0.0
 42
0.0
 10
20.0
 20
-0.18
 40
0.0
 41
0.0
 42
0.0
1001
OPENCAD_AEC
1000
WALL_REP
1005
62
1000
contour
  0
LWPOLYLINE
  5
70
330
15
100
AcDbEntity
  8
0
 62
     9
420
13158596
100
AcDbPolyline
 90
     4
 70
     1
 38
0.0
 10
25.82
 20
0.17999999999994998
 40
0.0
 41
0.0
 42
0.0
 10
25.82
 20
5.0
 40
0.0
 41
0.0
 42
0.0
 10
25.805
 20
5.0
 40
0.0
 41
0.0
 42
0.0
 10
25.805
 20
0.19500000000005002
 40
0.0
 41
0.0
 42
0.0
1001
OPENCAD_AEC
1000
WALL_REP
1005
63
1000
contour
  0
LWPOLYLINE
  5
73
330
15
100
AcDbEntity
  8
0
 62
    45
420
9139029
100
AcDbPolyline
 90
     4
 70
     1
 38
0.0
 10
25.94
 20
0.05999999999994543
 40
0.0
 41
0.0
 42
0.0
 10
25.94
 20
5.0
 40
0.0
 41
0.0
 42
0.0
 10
25.82
 20
5.0
 40
0.0
 41
0.0
 42
0.0
 10
25.82
 20
0.17999999999994998
 40
0.0
 41
0.0
 42
0.0
1001
OPENCAD_AEC
1000
WALL_REP
1005
63
1000
contour
  0
LWPOLYLINE
  5
76
330
15
100
AcDbEntity
  8
0
 62
    45
420
9139029
100
AcDbPolyline
 90
     4
 70
     1
 38
0.0
 10
26.18
 20
-0.17999999999994998
 40
0.0
 41
0.0
 42
0.0
 10
26.18
 20
5.0
 40
0.0
 41
0.0
 42
0.0
 10
25.94
 20
5.0
 40
0.0
 41
0.0
 42
0.0
 10
25.94
 20
0.05999999999994543
 40
0.0
 41
0.0
 42
0.0
1001
OPENCAD_AEC
1000
WALL_REP
1005
63
1000
contour
  0
LWPOLYLINE
  5
79
330
15
100
AcDbEntity
  8
0
 62
     9
420
13158596
100
AcDbPolyline
 90
     4
 70
     1
 38
0.0
 10
26.195
 20
-0.19499999999999318
 40
0.0
 41
0.0
 42
0.0
 10
26.195
 20
5.0
 40
0.0
 41
0.0
 42
0.0
 10
26.18
 20
5.0
 40
0.0
 41
0.0
 42
0.0
 10
26.18
 20
-0.17999999999994998
 40
0.0
 41
0.0
 42
0.0
1001
OPENCAD_AEC
1000
WALL_REP
1005
63
1000
contour
  0
HATCH
  5
7C
330
15
100
AcDbEntity
  8
0
 62
   253
420
11842736
440
33554687
100
AcDbHatch
 10
0.0
 20
0.0
 30
0.0
210
0.0
220
0.0
230
1.0
  2
DOTS
 70
     0
 71
     0
 91
     1
 92
    19
 72
     0
 73
     1
 93
     5
 10
20.0
 20
-0.195
 10
26.195000000000164
 20
-0.195
 10
26.179999999999836
 20
-0.18
 10
20.0
 20
-0.18
 10
20.0
 20
-0.195
 97
     0
 75
     0
 76
     1
 52
0.0
 41
0.0012000000569969416
 77
     0
 78
     1
 53
0.0
 43
-0.02400000113993883
 44
0.00023400000253133435
 45
0.0009525000309362069
 46
0.0019050000618724139
 79
     2
 49
0.0
 49
-0.0019050000618724139
 98
     0
1001
OPENCAD_AEC
1000
WALL_REP
1005
62
1000
hatch
  0
3DSOLID
  5
7D
330
15
100
AcDbEntity
  8
0
100
AcDbModelerGeometry
290
     0
  2
{00000000-0000-0000-0000-000000000000}
100
AcDb3dSolid
350
0
1001
OPENCAD_AEC
1000
WALL_REP
1005
62
1000
solid
  0
HATCH
  5
7E
330
15
100
AcDbEntity
  8
0
 62
    45
420
9139029
440
33554687
100
AcDbHatch
 10
0.0
 20
0.0
 30
0.0
210
0.0
220
0.0
230
1.0
  2
ANSI31
 70
     0
 71
     0
 91
     1
 92
    19
 72
     0
 73
     1
 93
     5
 10
20.0
 20
-0.18
 10
26.179999999999836
 20
-0.18
 10
25.94000000000017
 20
0.06
 10
20.0
 20
0.06
 10
20.0
 20
-0.18
 97
     0
 75
     0
 76
     1
 52
0.0
 41
0.0024999999441206455
 77
     0
 78
     1
 53
45.0
 43
-0.04999999888241291
 44
0.0004500000078231092
 45
-0.005612659865921797
 46
0.005612659865921798
 79
     0
 98
     0
1001
OPENCAD_AEC
1000
WALL_REP
1005
62
1000
hatch
  0
3DSOLID
  5
7F
330
15
100
AcDbEntity
  8
0
100
AcDbModelerGeometry
290
     0
  2
{00000000-0000-0000-0000-000000000000}
100
AcDb3dSolid
350
0
1001
OPENCAD_AEC
1000
WALL_REP
1005
62
1000
solid
  0
HATCH
  5
80
330
15
100
AcDbEntity
  8
0
100
AcDbHatch
 10
0.0
 20
0.0
 30
0.0
210
0.0
220
0.0
230
1.0
  2
ANSI31
 70
     0
 71
     0
 91
     1
 92
    19
 72
     0
 73
     1
 93
     5
 10
20.0
 20
0.06
 10
25.94000000000017
 20
0.06
 10
25.820000000000164
 20
0.18
 10
20.0
 20
0.18
 10
20.0
 20
0.06
 97
     0
 75
     0
 76
     1
 52
0.0
 41
1.0
 77
     0
 78
     1
 53
45.0
 43
-20.0
 44
-0.05999999865889549
 45
-2.2450639965498094
 46
2.24506399654981
 79
     0
 98
     0
1001
OPENCAD_AEC
1000
WALL_REP
1005
62
1000
hatch
  0
3DSOLID
  5
81
330
15
100
AcDbEntity
  8
0
100
AcDbModelerGeometry
290
     0
  2
{00000000-0000-0000-0000-000000000000}
100
AcDb3dSolid
350
0
1001
OPENCAD_AEC
1000
WALL_REP
1005
62
1000
solid
  0
HATCH
  5
82
330
15
100
AcDbEntity
  8
0
 62
   253
420
11842736
440
33554687
100
AcDbHatch
 10
0.0
 20
0.0
 30
0.0
210
0.0
220
0.0
230
1.0
  2
DOTS
 70
     0
 71
     0
 91
     1
 92
    19
 72
     0
 73
     1
 93
     5
 10
20.0
 20
0.18
 10
25.820000000000164
 20
0.18
 10
25.804999999999836
 20
0.195
 10
20.0
 20
0.195
 10
20.0
 20
0.18
 97
     0
 75
     0
 76
     1
 52
0.0
 41
0.0012000000569969416
 77
     0
 78
     1
 53
0.0
 43
-0.02400000113993883
 44
-0.00021600001884251874
 45
0.0009525000309362069
 46
0.0019050000618724139
 79
     2
 49
0.0
 49
-0.0019050000618724139
 98
     0
1001
OPENCAD_AEC
1000
WALL_REP
1005
62
1000
hatch
  0
3DSOLID
  5
83
330
15
100
AcDbEntity
  8
0
100
AcDbModelerGeometry
290
     0
  2
{00000000-0000-0000-0000-000000000000}
100
AcDb3dSolid
350
0
1001
OPENCAD_AEC
1000
WALL_REP
1005
62
1000
solid
  0
HATCH
  5
84
330
15
100
AcDbEntity
  8
0
 62
   253
420
11842736
440
33554687
100
AcDbHatch
 10
0.0
 20
0.0
 30
0.0
210
0.0
220
0.0
230
1.0
  2
DOTS
 70
     0
 71
     0
 91
     1
 92
    19
 72
     0
 73
     1
 93
     5
 10
26.195
 20
-0.19499999999999318
 10
26.195
 20
5.0
 10
26.18
 20
5.0
 10
26.18
 20
-0.17999999999994998
 10
26.195
 20
-0.19499999999999318
 97
     0
 75
     0
 76
     1
 52
90.00000250447816
 41
0.0012000000569969416
 77
     0
 78
     1
 53
90.00000250447816
 43
-0.00023399862850745153
 44
-0.03143400113705236
 45
-0.0019050001035075122
 46
0.0009524999476660053
 79
     2
 49
0.0
 49
-0.0019050000618724139
 98
     0
1001
OPENCAD_AEC
1000
WALL_REP
1005
63
1000
hatch
  0
3DSOLID
  5
85
330
15
100
AcDbEntity
  8
0
100
AcDbModelerGeometry
290
     0
  2
{00000000-0000-0000-0000-000000000000}
100
AcDb3dSolid
350
0
1001
OPENCAD_AEC
1000
WALL_REP
1005
63
1000
solid
  0
HATCH
  5
86
330
15
100
AcDbEntity
  8
0
 62
    45
420
9139029
440
33554687
100
AcDbHatch
 10
0.0
 20
0.0
 30
0.0
210
0.0
220
0.0
230
1.0
  2
ANSI31
 70
     0
 71
     0
 91
     1
 92
    19
 72
     0
 73
     1
 93
     5
 10
26.18
 20
-0.17999999999994998
 10
26.18
 20
5.0
 10
25.94
 20
5.0
 10
25.94
 20
0.05999999999994543
 10
26.18
 20
-0.17999999999994998
 97
     0
 75
     0
 76
     1
 52
90.00000250447816
 41
0.0024999999441206455
 77
     0
 78
     1
 53
135.00000250447818
 43
-0.0004499971469126638
 44
-0.065449999319688
 45
-0.005612659620584628
 46
-0.005612660111258955
 79
     0
 98
     0
1001
OPENCAD_AEC
1000
WALL_REP
1005
63
1000
hatch
  0
3DSOLID
  5
87
330
15
100
AcDbEntity
  8
0
100
AcDbModelerGeometry
290
     0
  2
{00000000-0000-0000-0000-000000000000}
100
AcDb3dSolid
350
0
1001
OPENCAD_AEC
1000
WALL_REP
1005
63
1000
solid
  0
HATCH
  5
88
330
15
100
AcDbEntity
  8
0
100
AcDbHatch
 10
0.0
 20
0.0
 30
0.0
210
0.0
220
0.0
230
1.0
  2
ANSI31
 70
     0
 71
     0
 91
     1
 92
    19
 72
     0
 73
     1
 93
     5
 10
25.94
 20
0.05999999999994543
 10
25.94
 20
5.0
 10
25.82
 20
5.0
 10
25.82
 20
0.17999999999994998
 10
25.94
 20
0.05999999999994543
 97
     0
 75
     0
 76
     1
 52
90.00000250447816
 41
1.0
 77
     0
 78
     1
 53
135.00000250447818
 43
0.06000113253237542
 44
-25.940000531434908
 45
-2.24506389841494
 46
-2.245064094684675
 79
     0
 98
     0
1001
OPENCAD_AEC
1000
WALL_REP
1005
63
1000
hatch
  0
3DSOLID
  5
89
330
15
100
AcDbEntity
  8
0
100
AcDbModelerGeometry
290
     0
  2
{00000000-0000-0000-0000-000000000000}
100
AcDb3dSolid
350
0
1001
OPENCAD_AEC
1000
WALL_REP
1005
63
1000
solid
  0
HATCH
  5
8A
330
15
100
AcDbEntity
  8
0
 62
   253
420
11842736
440
33554687
100
AcDbHatch
 10
0.0
 20
0.0
 30
0.0
210
0.0
220
0.0
230
1.0
  2
DOTS
 70
     0
 71
     0
 91
     1
 92
    19
 72
     0
 73
     1
 93
     5
 10
25.82
 20
0.17999999999994998
 10
25.82
 20
5.0
 10
25.805
 20
5.0
 10
25.805
 20
0.19500000000005002
 10
25.82
 20
0.17999999999994998
 97
     0
 75
     0
 76
     1
 52
90.00000250447816
 41
0.0012000000569969416
 77
     0
 78
     1
 53
90.00000250447816
 43
0.00021600137319627467
 44
-0.030984001096008382
 45
-0.0019050001035075122
 46
0.0009524999476660053
 79
     2
 49
0.0
 49
-0.0019050000618724139
 98
     0
1001
OPENCAD_AEC
1000
WALL_REP
1005
63
1000
hatch
  0
3DSOLID
  5
8B
330
15
100
AcDbEntity
  8
0
100
AcDbModelerGeometry
290
     0
  2
{00000000-0000-0000-0000-000000000000}
100
AcDb3dSolid
350
0
1001
OPENCAD_AEC
1000
WALL_REP
1005
63
1000
solid
  0
MTEXT
  5
8C
330
15
100
AcDbEntity
  8
0
100
AcDbMText
 10
20.0
 20
-1.4
 30
0.0
 40
0.28
 41
10.0
 71
     1
 72
     1
  1
L vierschalig\PStil: style1 (Putz+Mauerwerk+Insulation+Putz)\PVerbindung: L, Standard-Miter\POverride: keiner
  7
Standard
 73
     1
 44
1.0
  0
LWPOLYLINE
  5
8D
330
15
100
AcDbEntity
  8
AEC_WALL_AXIS
100
AcDbPolyline
 90
     2
 70
     0
 38
0.0
 10
0.0
 20
10.0
 40
0.0
 41
0.0
 42
0.0
 10
10.0
 20
10.0
 40
0.0
 41
0.0
 42
0.0
1001
OPENCAD_AEC
1000
WALL
1000
style1
1041
3.0
1071
     0
1071
     4
1000
Putz
1041
0.015
1000
Finish
1000
Mauerwerk
1041
0.24
1000
Structural
1000
Insulation
1041
0.12
1000
Insulation
1000
Putz
1041
0.015
1000
Finish
1071
    18
1005
98
1005
AF
1005
B0
1005
95
1005
B1
1005
B2
1005
92
1005
B3
1005
8F
1005
B4
1005
B5
1005
B6
1005
B7
1005
B8
1005
B9
1005
BA
1005
BB
1005
BC
1000
Center
1000
axis_offset
1041
-0.195
1041
0.0
1041
0.0
1041
-0.18
1041
0.0
1041
0.0
1041
0.06
1041
0.0
1041
0.0
1041
0.18
1041
0.0
1041
0.0
1000

1000

1000

1000

1000
DOTS
1000
ANSI31
1000

1000
DOTS
1000
layer_id
1000
a8af8b3c-fe96-4ac2-9b83-1e6e102bb3d3
1000
61fe96dc-f6bd-4e11-951a-0849058a9a46
1000
0edfc01d-745a-4e5d-9c9e-8b99204bcf83
1000
b8340d88-7c0e-41b1-b942-0751b68d3e7e
1000
New
1000
0
1041
0.0
1000

1000
planes
1000

1000

1041
0.0
1041
0.0
1041
0.0
1041
0.0
1041
0.0
1041
0.0
1041
0.0
1041
1.0
1041
0.0
1041
0.0
1041
0.0
1041
0.0
1041
0.0
1041
1.0
1001
OPENCAD_AEC
1000
JOINED_PEERS
1005
8E
  0
LWPOLYLINE
  5
8E
330
15
100
AcDbEntity
  8
AEC_WALL_AXIS
100
AcDbPolyline
 90
     2
 70
     0
 38
0.0
 10
5.0
 20
10.0
 40
0.0
 41
0.0
 42
0.0
 10
5.0
 20
16.0
 40
0.0
 41
0.0
 42
0.0
1001
OPENCAD_AEC
1000
WALL
1000
style1
1041
3.0
1071
     0
1071
     4
1000
Putz
1041
0.015
1000
Finish
1000
Mauerwerk
1041
0.24
1000
Structural
1000
Insulation
1041
0.12
1000
Insulation
1000
Putz
1041
0.015
1000
Finish
1071
    12
1005
A4
1005
A7
1005
A8
1005
A1
1005
A9
1005
AA
1005
9E
1005
AB
1005
AC
1005
9B
1005
AD
1005
AE
1000
Center
1000
axis_offset
1041
-0.195
1041
0.0
1041
0.0
1041
-0.18
1041
0.0
1041
0.0
1041
0.06
1041
0.0
1041
0.0
1041
0.18
1041
0.0
1041
0.0
1000

1000

1000

1000

1000
DOTS
1000
ANSI31
1000

1000
DOTS
1000
layer_id
1000
e9802b46-0643-4578-9881-7af4f8fb18c8
1000
f1e1ffa7-c981-4ed5-ba90-d373770f7943
1000
45e62690-bf6a-436c-9740-ade8419313a4
1000
d4e991b7-7ed1-4b66-bf6d-20330dfa7366
1000
New
1000
0
1041
0.0
1000

1000
planes
1000

1000

1041
0.0
1041
0.0
1041
0.0
1041
0.0
1041
0.0
1041
0.0
1041
0.0
1041
1.0
1041
0.0
1041
0.0
1041
0.0
1041
0.0
1041
0.0
1041
1.0
1001
OPENCAD_AEC
1000
JOINED_PEERS
1005
8D
  0
LWPOLYLINE
  5
8F
330
15
100
AcDbEntity
  8
0
 62
     9
420
13158596
100
AcDbPolyline
 90
     4
 70
     1
 38
0.0
 10
5.18
 20
10.06
 40
0.0
 41
0.0
 42
0.0
 10
10.0
 20
10.06
 40
0.0
 41
0.0
 42
0.0
 10
10.0
 20
10.18
 40
0.0
 41
0.0
 42
0.0
 10
5.18
 20
10.18
 40
0.0
 41
0.0
 42
0.0
1001
OPENCAD_AEC
1000
WALL_REP
1005
8D
1000
contour
  0
LWPOLYLINE
  5
92
330
15
100
AcDbEntity
  8
0
 62
    45
420
9139029
100
AcDbPolyline
 90
     4
 70
     1
 38
0.0
 10
0.0
 20
10.06
 40
0.0
 41
0.0
 42
0.0
 10
4.94
 20
10.06
 40
0.0
 41
0.0
 42
0.0
 10
4.82
 20
10.18
 40
0.0
 41
0.0
 42
0.0
 10
0.0
 20
10.18
 40
0.0
 41
0.0
 42
0.0
1001
OPENCAD_AEC
1000
WALL_REP
1005
8D
1000
contour
  0
LWPOLYLINE
  5
95
330
15
100
AcDbEntity
  8
0
 62
    45
420
9139029
100
AcDbPolyline
 90
     4
 70
     1
 38
0.0
 10
0.0
 20
9.82
 40
0.0
 41
0.0
 42
0.0
 10
10.0
 20
9.82
 40
0.0
 41
0.0
 42
0.0
 10
10.0
 20
10.06
 40
0.0
 41
0.0
 42
-0.0
 10
0.0
 20
10.06
 40
0.0
 41
0.0
 42
0.0
1001
OPENCAD_AEC
1000
WALL_REP
1005
8D
1000
contour
  0
LWPOLYLINE
  5
98
330
15
100
AcDbEntity
  8
0
 62
     9
420
13158596
100
AcDbPolyline
 90
     4
 70
     1
 38
0.0
 10
0.0
 20
9.805
 40
0.0
 41
0.0
 42
0.0
 10
10.0
 20
9.805
 40
0.0
 41
0.0
 42
0.0
 10
10.0
 20
9.82
 40
0.0
 41
0.0
 42
-0.0
 10
0.0
 20
9.82
 40
0.0
 41
0.0
 42
0.0
1001
OPENCAD_AEC
1000
WALL_REP
1005
8D
1000
contour
  0
LWPOLYLINE
  5
9B
330
15
100
AcDbEntity
  8
0
 62
     9
420
13158596
100
AcDbPolyline
 90
     4
 70
     1
 38
0.0
 10
4.82
 20
10.179999999999836
 40
0.0
 41
0.0
 42
0.0
 10
4.82
 20
16.0
 40
0.0
 41
0.0
 42
0.0
 10
4.805
 20
16.0
 40
0.0
 41
0.0
 42
0.0
 10
4.805
 20
10.195000000000164
 40
0.0
 41
0.0
 42
0.0
1001
OPENCAD_AEC
1000
WALL_REP
1005
8E
1000
contour
  0
LWPOLYLINE
  5
9E
330
15
100
AcDbEntity
  8
0
 62
    45
420
9139029
100
AcDbPolyline
 90
     4
 70
     1
 38
0.0
 10
4.94
 20
10.059999999999832
 40
0.0
 41
0.0
 42
0.0
 10
4.94
 20
16.0
 40
0.0
 41
0.0
 42
0.0
 10
4.82
 20
16.0
 40
0.0
 41
0.0
 42
0.0
 10
4.82
 20
10.179999999999836
 40
0.0
 41
0.0
 42
0.0
1001
OPENCAD_AEC
1000
WALL_REP
1005
8E
1000
contour
  0
LWPOLYLINE
  5
A1
330
15
100
AcDbEntity
  8
0
 62
    45
420
9139029
100
AcDbPolyline
 90
     4
 70
     1
 38
0.0
 10
5.18
 20
10.059999999999832
 40
0.0
 41
0.0
 42
0.0
 10
5.18
 20
16.0
 40
0.0
 41
0.0
 42
0.0
 10
4.94
 20
16.0
 40
0.0
 41
0.0
 42
0.0
 10
4.94
 20
10.059999999999832
 40
0.0
 41
0.0
 42
0.0
1001
OPENCAD_AEC
1000
WALL_REP
1005
8E
1000
contour
  0
LWPOLYLINE
  5
A4
330
15
100
AcDbEntity
  8
0
 62
     9
420
13158596
100
AcDbPolyline
 90
     4
 70
     1
 38
0.0
 10
5.195
 20
10.195000000000164
 40
0.0
 41
0.0
 42
0.0
 10
5.195
 20
16.0
 40
0.0
 41
0.0
 42
0.0
 10
5.18
 20
16.0
 40
0.0
 41
0.0
 42
0.0
 10
5.18
 20
10.179999999999836
 40
0.0
 41
0.0
 42
0.0
1001
OPENCAD_AEC
1000
WALL_REP
1005
8E
1000
contour
  0
HATCH
  5
A7
330
15
100
AcDbEntity
  8
0
 62
   253
420
11842736
440
33554687
100
AcDbHatch
 10
0.0
 20
0.0
 30
0.0
210
0.0
220
0.0
230
1.0
  2
DOTS
 70
     0
 71
     0
 91
     1
 92
    19
 72
     0
 73
     1
 93
     5
 10
5.195
 20
10.195000000000164
 10
5.195
 20
16.0
 10
5.18
 20
16.0
 10
5.18
 20
10.179999999999836
 10
5.195
 20
10.195000000000164
 97
     0
 75
     0
 76
     1
 52
90.00000250447816
 41
0.0012000000569969416
 77
     0
 78
     1
 53
90.00000250447816
 43
0.01223400048736968
 44
-0.006233999967327613
 45
-0.0019050001035075122
 46
0.0009524999476660053
 79
     2
 49
0.0
 49
-0.0019050000618724139
 98
     0
1001
OPENCAD_AEC
1000
WALL_REP
1005
8E
1000
hatch
  0
3DSOLID
  5
A8
330
15
100
AcDbEntity
  8
0
100
AcDbModelerGeometry
290
     0
  2
{00000000-0000-0000-0000-000000000000}
100
AcDb3dSolid
350
0
1001
OPENCAD_AEC
1000
WALL_REP
1005
8E
1000
solid
  0
HATCH
  5
A9
330
15
100
AcDbEntity
  8
0
 62
    45
420
9139029
440
33554687
100
AcDbHatch
 10
0.0
 20
0.0
 30
0.0
210
0.0
220
0.0
230
1.0
  2
ANSI31
 70
     0
 71
     0
 91
     1
 92
    19
 72
     0
 73
     1
 93
     5
 10
5.18
 20
10.059999999999832
 10
5.18
 20
16.0
 10
4.94
 20
16.0
 10
4.94
 20
10.059999999999832
 10
5.18
 20
10.059999999999832
 97
     0
 75
     0
 76
     1
 52
90.00000250447816
 41
0.0024999999441206455
 77
     0
 78
     1
 53
135.00000250447818
 43
0.025150001052957862
 44
-0.012949998182050018
 45
-0.005612659620584628
 46
-0.005612660111258955
 79
     0
 98
     0
1001
OPENCAD_AEC
1000
WALL_REP
1005
8E
1000
hatch
  0
3DSOLID
  5
AA
330
15
100
AcDbEntity
  8
0
100
AcDbModelerGeometry
290
     0
  2
{00000000-0000-0000-0000-000000000000}
100
AcDb3dSolid
350
0
1001
OPENCAD_AEC
1000
WALL_REP
1005
8E
1000
solid
  0
HATCH
  5
AB
330
15
100
AcDbEntity
  8
0
100
AcDbHatch
 10
0.0
 20
0.0
 30
0.0
210
0.0
220
0.0
230
1.0
  2
ANSI31
 70
     0
 71
     0
 91
     1
 92
    19
 72
     0
 73
     1
 93
     5
 10
4.94
 20
10.059999999999832
 10
4.94
 20
16.0
 10
4.82
 20
16.0
 10
4.82
 20
10.179999999999836
 10
4.94
 20
10.059999999999832
 97
     0
 75
     0
 76
     1
 52
90.00000250447816
 41
1.0
 77
     0
 78
     1
 53
135.00000250447818
 43
10.060000635550958
 44
-4.939999617483852
 45
-2.24506389841494
 46
-2.245064094684675
 79
     0
 98
     0
1001
OPENCAD_AEC
1000
WALL_REP
1005
8E
1000
hatch
  0
3DSOLID
  5
AC
330
15
100
AcDbEntity
  8
0
100
AcDbModelerGeometry
290
     0
  2
{00000000-0000-0000-0000-000000000000}
100
AcDb3dSolid
350
0
1001
OPENCAD_AEC
1000
WALL_REP
1005
8E
1000
solid
  0
HATCH
  5
AD
330
15
100
AcDbEntity
  8
0
 62
   253
420
11842736
440
33554687
100
AcDbHatch
 10
0.0
 20
0.0
 30
0.0
210
0.0
220
0.0
230
1.0
  2
DOTS
 70
     0
 71
     0
 91
     1
 92
    19
 72
     0
 73
     1
 93
     5
 10
4.82
 20
10.179999999999836
 10
4.82
 20
16.0
 10
4.805
 20
16.0
 10
4.805
 20
10.195000000000164
 10
4.82
 20
10.179999999999836
 97
     0
 75
     0
 76
     1
 52
90.00000250447816
 41
0.0012000000569969416
 77
     0
 78
     1
 53
90.00000250447816
 43
0.012216001199266508
 44
-0.005783999946740533
 45
-0.0019050001035075122
 46
0.0009524999476660053
 79
     2
 49
0.0
 49
-0.0019050000618724139
 98
     0
1001
OPENCAD_AEC
1000
WALL_REP
1005
8E
1000
hatch
  0
3DSOLID
  5
AE
330
15
100
AcDbEntity
  8
0
100
AcDbModelerGeometry
290
     0
  2
{00000000-0000-0000-0000-000000000000}
100
AcDb3dSolid
350
0
1001
OPENCAD_AEC
1000
WALL_REP
1005
8E
1000
solid
  0
HATCH
  5
AF
330
15
100
AcDbEntity
  8
0
 62
   253
420
11842736
440
33554687
100
AcDbHatch
 10
0.0
 20
0.0
 30
0.0
210
0.0
220
0.0
230
1.0
  2
DOTS
 70
     0
 71
     0
 91
     1
 92
    19
 72
     0
 73
     1
 93
     5
 10
0.0
 20
9.805
 10
10.0
 20
9.805
 10
10.0
 20
9.82
 10
0.0
 20
9.82
 10
0.0
 20
9.805
 97
     0
 75
     0
 76
     1
 52
0.0
 41
0.0012000000569969416
 77
     0
 78
     1
 53
0.0
 43
0.0
 44
-0.011766000925065967
 45
0.0009525000309362069
 46
0.0019050000618724139
 79
     2
 49
0.0
 49
-0.0019050000618724139
 98
     0
1001
OPENCAD_AEC
1000
WALL_REP
1005
8D
1000
hatch
  0
3DSOLID
  5
B0
330
15
100
AcDbEntity
  8
0
100
AcDbModelerGeometry
290
     0
  2
{00000000-0000-0000-0000-000000000000}
100
AcDb3dSolid
350
0
1001
OPENCAD_AEC
1000
WALL_REP
1005
8D
1000
solid
  0
HATCH
  5
B1
330
15
100
AcDbEntity
  8
0
 62
    45
420
9139029
440
33554687
100
AcDbHatch
 10
0.0
 20
0.0
 30
0.0
210
0.0
220
0.0
230
1.0
  2
ANSI31
 70
     0
 71
     0
 91
     1
 92
    19
 72
     0
 73
     1
 93
     5
 10
0.0
 20
9.82
 10
10.0
 20
9.82
 10
10.0
 20
10.06
 10
0.0
 20
10.06
 10
0.0
 20
9.82
 97
     0
 75
     0
 76
     1
 52
0.0
 41
0.0024999999441206455
 77
     0
 78
     1
 53
45.0
 43
0.0
 44
-0.024549998688325303
 45
-0.005612659865921797
 46
0.005612659865921798
 79
     0
 98
     0
1001
OPENCAD_AEC
1000
WALL_REP
1005
8D
1000
hatch
  0
3DSOLID
  5
B2
330
15
100
AcDbEntity
  8
0
100
AcDbModelerGeometry
290
     0
  2
{00000000-0000-0000-0000-000000000000}
100
AcDb3dSolid
350
0
1001
OPENCAD_AEC
1000
WALL_REP
1005
8D
1000
solid
  0
HATCH
  5
B3
330
15
100
AcDbEntity
  8
0
100
AcDbHatch
 10
0.0
 20
0.0
 30
0.0
210
0.0
220
0.0
230
1.0
  2
ANSI31
 70
     0
 71
     0
 91
     1
 92
    19
 72
     0
 73
     1
 93
     5
 10
0.0
 20
10.06
 10
4.94
 20
10.06
 10
4.82
 20
10.18
 10
0.0
 20
10.18
 10
0.0
 20
10.06
 97
     0
 75
     0
 76
     1
 52
0.0
 41
1.0
 77
     0
 78
     1
 53
45.0
 43
0.0
 44
-10.0600004196167
 45
-2.2450639965498094
 46
2.24506399654981
 79
     0
 98
     0
1001
OPENCAD_AEC
1000
WALL_REP
1005
8D
1000
hatch
  0
HATCH
  5
B4
330
15
100
AcDbEntity
  8
0
100
AcDbHatch
 10
0.0
 20
0.0
 30
0.0
210
0.0
220
0.0
230
1.0
  2
ANSI31
 70
     0
 71
     0
 91
     1
 92
    19
 72
     0
 73
     1
 93
     5
 10
5.18
 20
10.06
 10
10.0
 20
10.06
 10
10.0
 20
10.18
 10
5.18
 20
10.18
 10
5.18
 20
10.06
 97
     0
 75
     0
 76
     1
 52
0.0
 41
1.0
 77
     0
 78
     1
 53
45.0
 43
-5.179999828338623
 44
-10.0600004196167
 45
-2.2450639965498094
 46
2.24506399654981
 79
     0
 98
     0
1001
OPENCAD_AEC
1000
WALL_REP
1005
8D
1000
hatch
  0
3DSOLID
  5
B5
330
15
100
AcDbEntity
  8
0
100
AcDbModelerGeometry
290
     0
  2
{00000000-0000-0000-0000-000000000000}
100
AcDb3dSolid
350
0
1001
OPENCAD_AEC
1000
WALL_REP
1005
8D
1000
solid
  0
3DSOLID
  5
B6
330
15
100
AcDbEntity
  8
0
100
AcDbModelerGeometry
290
     0
  2
{00000000-0000-0000-0000-000000000000}
100
AcDb3dSolid
350
0
1001
OPENCAD_AEC
1000
WALL_REP
1005
8D
1000
solid
  0
LWPOLYLINE
  5
B7
330
15
100
AcDbEntity
  8
0
 62
     9
420
13158596
100
AcDbPolyline
 90
     4
 70
     1
 38
0.0
 10
0.0
 20
10.18
 40
0.0
 41
0.0
 42
0.0
 10
4.82
 20
10.18
 40
0.0
 41
0.0
 42
0.0
 10
4.805
 20
10.195
 40
0.0
 41
0.0
 42
0.0
 10
0.0
 20
10.195
 40
0.0
 41
0.0
 42
0.0
1001
OPENCAD_AEC
1000
WALL_REP
1005
8D
1000
contour
  0
HATCH
  5
B8
330
15
100
AcDbEntity
  8
0
 62
   253
420
11842736
440
33554687
100
AcDbHatch
 10
0.0
 20
0.0
 30
0.0
210
0.0
220
0.0
230
1.0
  2
DOTS
 70
     0
 71
     0
 91
     1
 92
    19
 72
     0
 73
     1
 93
     5
 10
0.0
 20
10.18
 10
4.82
 20
10.18
 10
4.805
 20
10.195
 10
0.0
 20
10.195
 10
0.0
 20
10.18
 97
     0
 75
     0
 76
     1
 52
0.0
 41
0.0012000000569969416
 77
     0
 78
     1
 53
0.0
 43
0.0
 44
-0.01221600094643982
 45
0.0009525000309362069
 46
0.0019050000618724139
 79
     2
 49
0.0
 49
-0.0019050000618724139
 98
     0
1001
OPENCAD_AEC
1000
WALL_REP
1005
8D
1000
hatch
  0
LWPOLYLINE
  5
B9
330
15
100
AcDbEntity
  8
0
 62
     9
420
13158596
100
AcDbPolyline
 90
     4
 70
     1
 38
0.0
 10
5.18
 20
10.18
 40
0.0
 41
0.0
 42
0.0
 10
10.0
 20
10.18
 40
0.0
 41
0.0
 42
0.0
 10
10.0
 20
10.195
 40
0.0
 41
0.0
 42
0.0
 10
5.194999999999999
 20
10.195
 40
0.0
 41
0.0
 42
0.0
1001
OPENCAD_AEC
1000
WALL_REP
1005
8D
1000
contour
  0
HATCH
  5
BA
330
15
100
AcDbEntity
  8
0
 62
   253
420
11842736
440
33554687
100
AcDbHatch
 10
0.0
 20
0.0
 30
0.0
210
0.0
220
0.0
230
1.0
  2
DOTS
 70
     0
 71
     0
 91
     1
 92
    19
 72
     0
 73
     1
 93
     5
 10
5.18
 20
10.18
 10
10.0
 20
10.18
 10
10.0
 20
10.195
 10
5.194999999999999
 20
10.195
 10
5.18
 20
10.18
 97
     0
 75
     0
 76
     1
 52
0.0
 41
0.0012000000569969416
 77
     0
 78
     1
 53
0.0
 43
-0.006216000089250495
 44
-0.01221600094643982
 45
0.0009525000309362069
 46
0.0019050000618724139
 79
     2
 49
0.0
 49
-0.0019050000618724139
 98
     0
1001
OPENCAD_AEC
1000
WALL_REP
1005
8D
1000
hatch
  0
3DSOLID
  5
BB
330
15
100
AcDbEntity
  8
0
100
AcDbModelerGeometry
290
     0
  2
{00000000-0000-0000-0000-000000000000}
100
AcDb3dSolid
350
0
1001
OPENCAD_AEC
1000
WALL_REP
1005
8D
1000
solid
  0
3DSOLID
  5
BC
330
15
100
AcDbEntity
  8
0
100
AcDbModelerGeometry
290
     0
  2
{00000000-0000-0000-0000-000000000000}
100
AcDb3dSolid
350
0
1001
OPENCAD_AEC
1000
WALL_REP
1005
8D
1000
solid
  0
MTEXT
  5
BD
330
15
100
AcDbEntity
  8
0
100
AcDbMText
 10
0.0
 20
8.3
 30
0.0
 40
0.28
 41
10.0
 71
     1
 72
     1
  1
T vierschalig\PStil: style1 (Putz+Mauerwerk+Insulation+Putz)\PVerbindung: T (Auto-Join)\PStamm → Durchgang, Standard-Miter\POverride: keiner
  7
Standard
 73
     1
 44
1.0
  0
LWPOLYLINE
  5
BE
330
15
100
AcDbEntity
  8
AEC_WALL_AXIS
100
AcDbPolyline
 90
     2
 70
     0
 38
0.0
 10
14.0
 20
10.0
 40
0.0
 41
0.0
 42
0.0
 10
24.0
 20
10.0
 40
0.0
 41
0.0
 42
0.0
1001
OPENCAD_AEC
1000
WALL
1000
style1
1041
3.0
1071
     0
1071
     3
1000
Putz
1041
0.015
1000
Finish
1000
Mauerwerk
1041
0.24
1000
Structural
1000
Putz
1041
0.015
1000
Finish
1071
    12
1005
C6
1005
D8
1005
D9
1005
C3
1005
DA
1005
DB
1005
C0
1005
DC
1005
DD
1005
DE
1005
DF
1005
E0
1000
Center
1000
axis_offset
1041
-0.135
1041
0.0
1041
0.0
1041
-0.12000000000000001
1041
0.0
1041
0.0
1041
0.11999999999999998
1041
0.0
1041
0.0
1000

1000

1000

1000
DOTS
1000
ANSI31
1000
DOTS
1000
layer_id
1000
a7b06c9d-cba2-4d26-9ed0-31dc107f26e9
1000
1cff6ba9-09fa-4fee-b7d1-3fb320503fdd
1000
13b373bd-5c6b-4b19-b2fd-c14aa4094317
1000
New
1000
0
1041
0.0
1000

1000
planes
1000

1000

1041
0.0
1041
0.0
1041
0.0
1041
0.0
1041
0.0
1041
0.0
1041
0.0
1041
1.0
1041
0.0
1041
0.0
1041
0.0
1041
0.0
1041
0.0
1041
1.0
1001
OPENCAD_AEC
1000
JOINED_PEERS
1005
BF
  0
LWPOLYLINE
  5
BF
330
15
100
AcDbEntity
  8
AEC_WALL_AXIS
100
AcDbPolyline
 90
     2
 70
     0
 38
0.0
 10
19.0
 20
10.0
 40
0.0
 41
0.0
 42
0.0
 10
19.0
 20
16.0
 40
0.0
 41
0.0
 42
0.0
1001
OPENCAD_AEC
1000
WALL
1000
style1
1041
3.0
1071
     0
1071
     3
1000
Putz
1041
0.015
1000
Finish
1000
Mauerwerk
1041
0.24
1000
Structural
1000
Putz
1041
0.015
1000
Finish
1071
     9
1005
CF
1005
D2
1005
D3
1005
CC
1005
D4
1005
D5
1005
C9
1005
D6
1005
D7
1000
Center
1000
axis_offset
1041
-0.135
1041
0.0
1041
0.0
1041
-0.12000000000000001
1041
0.0
1041
0.0
1041
0.11999999999999998
1041
0.0
1041
0.0
1000

1000

1000

1000
DOTS
1000
ANSI31
1000
DOTS
1000
layer_id
1000
afdf28ca-7881-4201-b9cc-8fffb508b36c
1000
e35f4d9e-8a75-4e9b-9a52-e4c4135c457c
1000
dcaa112a-fb7a-41ed-bc6d-da58b3b0769d
1000
New
1000
0
1041
0.0
1000

1000
planes
1000

1000

1041
0.0
1041
0.0
1041
0.0
1041
0.0
1041
0.0
1041
0.0
1041
0.0
1041
1.0
1041
0.0
1041
0.0
1041
0.0
1041
0.0
1041
0.0
1041
1.0
1001
OPENCAD_AEC
1000
JOINED_PEERS
1005
BE
  0
LWPOLYLINE
  5
C0
330
15
100
AcDbEntity
  8
0
 62
     9
420
13158596
100
AcDbPolyline
 90
     4
 70
     1
 38
0.0
 10
14.0
 20
10.12
 40
0.0
 41
0.0
 42
0.0
 10
18.88
 20
10.12
 40
0.0
 41
0.0
 42
0.0
 10
18.865
 20
10.135
 40
0.0
 41
0.0
 42
0.0
 10
14.0
 20
10.135
 40
0.0
 41
0.0
 42
0.0
1001
OPENCAD_AEC
1000
WALL_REP
1005
BE
1000
contour
  0
LWPOLYLINE
  5
C3
330
15
100
AcDbEntity
  8
0
 62
    45
420
9139029
100
AcDbPolyline
 90
     4
 70
     1
 38
0.0
 10
14.0
 20
9.88
 40
0.0
 41
0.0
 42
0.0
 10
24.0
 20
9.88
 40
0.0
 41
0.0
 42
0.0
 10
24.0
 20
10.12
 40
0.0
 41
0.0
 42
-0.0
 10
14.0
 20
10.12
 40
0.0
 41
0.0
 42
0.0
1001
OPENCAD_AEC
1000
WALL_REP
1005
BE
1000
contour
  0
LWPOLYLINE
  5
C6
330
15
100
AcDbEntity
  8
0
 62
     9
420
13158596
100
AcDbPolyline
 90
     4
 70
     1
 38
0.0
 10
14.0
 20
9.865
 40
0.0
 41
0.0
 42
0.0
 10
24.0
 20
9.865
 40
0.0
 41
0.0
 42
0.0
 10
24.0
 20
9.88
 40
0.0
 41
0.0
 42
-0.0
 10
14.0
 20
9.88
 40
0.0
 41
0.0
 42
0.0
1001
OPENCAD_AEC
1000
WALL_REP
1005
BE
1000
contour
  0
LWPOLYLINE
  5
C9
330
15
100
AcDbEntity
  8
0
 62
     9
420
13158596
100
AcDbPolyline
 90
     4
 70
     1
 38
0.0
 10
18.88
 20
10.11999999999989
 40
0.0
 41
0.0
 42
0.0
 10
18.88
 20
16.0
 40
0.0
 41
0.0
 42
0.0
 10
18.865
 20
16.0
 40
0.0
 41
0.0
 42
0.0
 10
18.865
 20
10.135000000000105
 40
0.0
 41
0.0
 42
0.0
1001
OPENCAD_AEC
1000
WALL_REP
1005
BF
1000
contour
  0
LWPOLYLINE
  5
CC
330
15
100
AcDbEntity
  8
0
 62
    45
420
9139029
100
AcDbPolyline
 90
     4
 70
     1
 38
0.0
 10
19.12
 20
10.11999999999989
 40
0.0
 41
0.0
 42
0.0
 10
19.12
 20
16.0
 40
0.0
 41
0.0
 42
0.0
 10
18.88
 20
16.0
 40
0.0
 41
0.0
 42
0.0
 10
18.88
 20
10.11999999999989
 40
0.0
 41
0.0
 42
0.0
1001
OPENCAD_AEC
1000
WALL_REP
1005
BF
1000
contour
  0
LWPOLYLINE
  5
CF
330
15
100
AcDbEntity
  8
0
 62
     9
420
13158596
100
AcDbPolyline
 90
     4
 70
     1
 38
0.0
 10
19.135
 20
10.135000000000105
 40
0.0
 41
0.0
 42
0.0
 10
19.135
 20
16.0
 40
0.0
 41
0.0
 42
0.0
 10
19.12
 20
16.0
 40
0.0
 41
0.0
 42
0.0
 10
19.12
 20
10.11999999999989
 40
0.0
 41
0.0
 42
0.0
1001
OPENCAD_AEC
1000
WALL_REP
1005
BF
1000
contour
  0
HATCH
  5
D2
330
15
100
AcDbEntity
  8
0
 62
   253
420
11842736
440
33554687
100
AcDbHatch
 10
0.0
 20
0.0
 30
0.0
210
0.0
220
0.0
230
1.0
  2
DOTS
 70
     0
 71
     0
 91
     1
 92
    19
 72
     0
 73
     1
 93
     5
 10
19.135
 20
10.135000000000105
 10
19.135
 20
16.0
 10
19.12
 20
16.0
 10
19.12
 20
10.11999999999989
 10
19.135
 20
10.135000000000105
 97
     0
 75
     0
 76
     1
 52
90.00000250447816
 41
0.0012000000569969416
 77
     0
 78
     1
 53
90.00000250447816
 43
0.012162001856023204
 44
-0.022962000833676707
 45
-0.0019050001035075122
 46
0.0009524999476660053
 79
     2
 49
0.0
 49
-0.0019050000618724139
 98
     0
1001
OPENCAD_AEC
1000
WALL_REP
1005
BF
1000
hatch
  0
3DSOLID
  5
D3
330
15
100
AcDbEntity
  8
0
100
AcDbModelerGeometry
290
     0
  2
{00000000-0000-0000-0000-000000000000}
100
AcDb3dSolid
350
0
1001
OPENCAD_AEC
1000
WALL_REP
1005
BF
1000
solid
  0
HATCH
  5
D4
330
15
100
AcDbEntity
  8
0
 62
    45
420
9139029
440
33554687
100
AcDbHatch
 10
0.0
 20
0.0
 30
0.0
210
0.0
220
0.0
230
1.0
  2
ANSI31
 70
     0
 71
     0
 91
     1
 92
    19
 72
     0
 73
     1
 93
     5
 10
19.12
 20
10.11999999999989
 10
19.12
 20
16.0
 10
18.88
 20
16.0
 10
18.88
 20
10.11999999999989
 10
19.12
 20
10.11999999999989
 97
     0
 75
     0
 76
     1
 52
90.00000250447816
 41
0.0024999999441206455
 77
     0
 78
     1
 53
135.00000250447818
 43
0.025300001237803106
 44
-0.04779999992377201
 45
-0.005612659620584628
 46
-0.005612660111258955
 79
     0
 98
     0
1001
OPENCAD_AEC
1000
WALL_REP
1005
BF
1000
hatch
  0
3DSOLID
  5
D5
330
15
100
AcDbEntity
  8
0
100
AcDbModelerGeometry
290
     0
  2
{00000000-0000-0000-0000-000000000000}
100
AcDb3dSolid
350
0
1001
OPENCAD_AEC
1000
WALL_REP
1005
BF
1000
solid
  0
HATCH
  5
D6
330
15
100
AcDbEntity
  8
0
 62
   253
420
11842736
440
33554687
100
AcDbHatch
 10
0.0
 20
0.0
 30
0.0
210
0.0
220
0.0
230
1.0
  2
DOTS
 70
     0
 71
     0
 91
     1
 92
    19
 72
     0
 73
     1
 93
     5
 10
18.88
 20
10.11999999999989
 10
18.88
 20
16.0
 10
18.865
 20
16.0
 10
18.865
 20
10.135000000000105
 10
18.88
 20
10.11999999999989
 97
     0
 75
     0
 76
     1
 52
90.00000250447816
 41
0.0012000000569969416
 77
     0
 78
     1
 53
90.00000250447816
 43
0.012144001429805183
 44
-0.022655999538190967
 45
-0.0019050001035075122
 46
0.0009524999476660053
 79
     2
 49
0.0
 49
-0.0019050000618724139
 98
     0
1001
OPENCAD_AEC
1000
WALL_REP
1005
BF
1000
hatch
  0
3DSOLID
  5
D7
330
15
100
AcDbEntity
  8
0
100
AcDbModelerGeometry
290
     0
  2
{00000000-0000-0000-0000-000000000000}
100
AcDb3dSolid
350
0
1001
OPENCAD_AEC
1000
WALL_REP
1005
BF
1000
solid
  0
HATCH
  5
D8
330
15
100
AcDbEntity
  8
0
 62
   253
420
11842736
440
33554687
100
AcDbHatch
 10
0.0
 20
0.0
 30
0.0
210
0.0
220
0.0
230
1.0
  2
DOTS
 70
     0
 71
     0
 91
     1
 92
    19
 72
     0
 73
     1
 93
     5
 10
14.0
 20
9.865
 10
24.0
 20
9.865
 10
24.0
 20
9.88
 10
14.0
 20
9.88
 10
14.0
 20
9.865
 97
     0
 75
     0
 76
     1
 52
0.0
 41
0.0012000000569969416
 77
     0
 78
     1
 53
0.0
 43
-0.016800000797957182
 44
-0.011838000287616612
 45
0.0009525000309362069
 46
0.0019050000618724139
 79
     2
 49
0.0
 49
-0.0019050000618724139
 98
     0
1001
OPENCAD_AEC
1000
WALL_REP
1005
BE
1000
hatch
  0
3DSOLID
  5
D9
330
15
100
AcDbEntity
  8
0
100
AcDbModelerGeometry
290
     0
  2
{00000000-0000-0000-0000-000000000000}
100
AcDb3dSolid
350
0
1001
OPENCAD_AEC
1000
WALL_REP
1005
BE
1000
solid
  0
HATCH
  5
DA
330
15
100
AcDbEntity
  8
0
 62
    45
420
9139029
440
33554687
100
AcDbHatch
 10
0.0
 20
0.0
 30
0.0
210
0.0
220
0.0
230
1.0
  2
ANSI31
 70
     0
 71
     0
 91
     1
 92
    19
 72
     0
 73
     1
 93
     5
 10
14.0
 20
9.88
 10
24.0
 20
9.88
 10
24.0
 20
10.12
 10
14.0
 20
10.12
 10
14.0
 20
9.88
 97
     0
 75
     0
 76
     1
 52
0.0
 41
0.0024999999441206455
 77
     0
 78
     1
 53
45.0
 43
-0.03499999921768904
 44
-0.024699999734014266
 45
-0.005612659865921797
 46
0.005612659865921798
 79
     0
 98
     0
1001
OPENCAD_AEC
1000
WALL_REP
1005
BE
1000
hatch
  0
3DSOLID
  5
DB
330
15
100
AcDbEntity
  8
0
100
AcDbModelerGeometry
290
     0
  2
{00000000-0000-0000-0000-000000000000}
100
AcDb3dSolid
350
0
1001
OPENCAD_AEC
1000
WALL_REP
1005
BE
1000
solid
  0
HATCH
  5
DC
330
15
100
AcDbEntity
  8
0
 62
   253
420
11842736
440
33554687
100
AcDbHatch
 10
0.0
 20
0.0
 30
0.0
210
0.0
220
0.0
230
1.0
  2
DOTS
 70
     0
 71
     0
 91
     1
 92
    19
 72
     0
 73
     1
 93
     5
 10
14.0
 20
10.12
 10
18.88
 20
10.12
 10
18.865
 20
10.135
 10
14.0
 20
10.135
 10
14.0
 20
10.12
 97
     0
 75
     0
 76
     1
 52
0.0
 41
0.0012000000569969416
 77
     0
 78
     1
 53
0.0
 43
-0.016800000797957182
 44
-0.01214400043947994
 45
0.0009525000309362069
 46
0.0019050000618724139
 79
     2
 49
0.0
 49
-0.0019050000618724139
 98
     0
1001
OPENCAD_AEC
1000
WALL_REP
1005
BE
1000
hatch
  0
LWPOLYLINE
  5
DD
330
15
100
AcDbEntity
  8
0
 62
     9
420
13158596
100
AcDbPolyline
 90
     4
 70
     1
 38
0.0
 10
19.12
 20
10.12
 40
0.0
 41
0.0
 42
0.0
 10
24.0
 20
10.12
 40
0.0
 41
0.0
 42
0.0
 10
24.0
 20
10.135
 40
0.0
 41
0.0
 42
0.0
 10
19.135
 20
10.135
 40
0.0
 41
0.0
 42
0.0
1001
OPENCAD_AEC
1000
WALL_REP
1005
BE
1000
contour
  0
HATCH
  5
DE
330
15
100
AcDbEntity
  8
0
 62
   253
420
11842736
440
33554687
100
AcDbHatch
 10
0.0
 20
0.0
 30
0.0
210
0.0
220
0.0
230
1.0
  2
DOTS
 70
     0
 71
     0
 91
     1
 92
    19
 72
     0
 73
     1
 93
     5
 10
19.12
 20
10.12
 10
24.0
 20
10.12
 10
24.0
 20
10.135
 10
19.135
 20
10.135
 10
19.12
 20
10.12
 97
     0
 75
     0
 76
     1
 52
0.0
 41
0.0012000000569969416
 77
     0
 78
     1
 53
0.0
 43
-0.02294400209686165
 44
-0.01214400043947994
 45
0.0009525000309362069
 46
0.0019050000618724139
 79
     2
 49
0.0
 49
-0.0019050000618724139
 98
     0
1001
OPENCAD_AEC
1000
WALL_REP
1005
BE
1000
hatch
  0
3DSOLID
  5
DF
330
15
100
AcDbEntity
  8
0
100
AcDbModelerGeometry
290
     0
  2
{00000000-0000-0000-0000-000000000000}
100
AcDb3dSolid
350
0
1001
OPENCAD_AEC
1000
WALL_REP
1005
BE
1000
solid
  0
3DSOLID
  5
E0
330
15
100
AcDbEntity
  8
0
100
AcDbModelerGeometry
290
     0
  2
{00000000-0000-0000-0000-000000000000}
100
AcDb3dSolid
350
0
1001
OPENCAD_AEC
1000
WALL_REP
1005
BE
1000
solid
  0
MTEXT
  5
E1
330
15
100
AcDbEntity
  8
0
100
AcDbMText
 10
14.0
 20
8.3
 30
0.0
 40
0.28
 41
10.0
 71
     1
 72
     1
  1
T dreischalig\PStil: style1 (Putz+Mauerwerk+Putz)\PVerbindung: T (Auto-Join)\PStamm → Durchgang, Standard-Miter\POverride: keiner
  7
Standard
 73
     1
 44
1.0
  0
LWPOLYLINE
  5
E2
330
15
100
AcDbEntity
  8
AEC_WALL_AXIS
100
AcDbPolyline
 90
     2
 70
     0
 38
0.0
 10
0.0
 20
22.0
 40
0.0
 41
0.0
 42
0.0
 10
8.0
 20
22.0
 40
0.0
 41
0.0
 42
0.0
1001
OPENCAD_AEC
1000
WALL
1000
style1
1041
3.0
1071
     0
1071
     1
1000
Concrete
1041
0.2
1000
Structural
1071
     3
1005
E5
1005
EE
1005
EF
1000
Center
1000
axis_offset
1041
-0.1
1041
0.0
1041
0.0
1000

1000

1000
layer_id
1000
23160952-6428-4278-9641-a2c2f8240c65
1000
New
1000
0
1041
0.0
1000

1000
planes
1000

1000

1041
0.0
1041
0.0
1041
0.0
1041
0.0
1041
0.0
1041
0.0
1041
0.0
1041
1.0
1041
0.0
1041
0.0
1041
0.0
1041
0.0
1041
0.0
1041
1.0
1001
OPENCAD_AEC
1000
JOINED_PEERS
1005
E3
1005
E4
  0
LWPOLYLINE
  5
E3
330
15
100
AcDbEntity
  8
AEC_WALL_AXIS
100
AcDbPolyline
 90
     2
 70
     0
 38
0.0
 10
8.0
 20
22.0
 40
0.0
 41
0.0
 42
0.0
 10
8.0
 20
28.0
 40
0.0
 41
0.0
 42
0.0
1001
OPENCAD_AEC
1000
WALL
1000
style1
1041
3.0
1071
     0
1071
     1
1000
Concrete
1041
0.2
1000
Structural
1071
     3
1005
E8
1005
F0
1005
F1
1000
Center
1000
axis_offset
1041
-0.1
1041
0.0
1041
0.0
1000

1000

1000
layer_id
1000
f62aae8f-69e1-4121-9e6b-f88f9e084dad
1000
New
1000
0
1041
0.0
1000

1000
planes
1000

1000

1041
0.0
1041
0.0
1041
0.0
1041
0.0
1041
0.0
1041
0.0
1041
0.0
1041
1.0
1041
0.0
1041
0.0
1041
0.0
1041
0.0
1041
0.0
1041
1.0
1001
OPENCAD_AEC
1000
JOINED_PEERS
1005
E2
1005
E4
  0
LWPOLYLINE
  5
E4
330
15
100
AcDbEntity
  8
AEC_WALL_AXIS
100
AcDbPolyline
 90
     2
 70
     0
 38
0.0
 10
8.0
 20
22.0
 40
0.0
 41
0.0
 42
0.0
 10
8.0
 20
16.0
 40
0.0
 41
0.0
 42
0.0
1001
OPENCAD_AEC
1000
WALL
1000
style1
1041
3.0
1071
     0
1071
     1
1000
Concrete
1041
0.2
1000
Structural
1071
     3
1005
EB
1005
F2
1005
F3
1000
Center
1000
axis_offset
1041
-0.1
1041
0.0
1041
0.0
1000

1000

1000
layer_id
1000
2dd00ae3-904e-4810-9ac3-a9ca9ee4c061
1000
New
1000
0
1041
0.0
1000

1000
planes
1000

1000

1041
0.0
1041
0.0
1041
0.0
1041
0.0
1041
0.0
1041
0.0
1041
0.0
1041
1.0
1041
0.0
1041
0.0
1041
0.0
1041
0.0
1041
0.0
1041
1.0
1001
OPENCAD_AEC
1000
JOINED_PEERS
1005
E2
1005
E3
  0
LWPOLYLINE
  5
E5
330
15
100
AcDbEntity
  8
0
100
AcDbPolyline
 90
     4
 70
     1
 38
0.0
 10
0.0
 20
21.9
 40
0.0
 41
0.0
 42
0.0
 10
8.100000000000023
 20
21.9
 40
0.0
 41
0.0
 42
0.0
 10
8.100000000000023
 20
22.1
 40
0.0
 41
0.0
 42
0.0
 10
0.0
 20
22.1
 40
0.0
 41
0.0
 42
0.0
1001
OPENCAD_AEC
1000
WALL_REP
1005
E2
1000
contour
  0
LWPOLYLINE
  5
E8
330
15
100
AcDbEntity
  8
0
100
AcDbPolyline
 90
     4
 70
     1
 38
0.0
 10
8.1
 20
22.0
 40
0.0
 41
0.0
 42
0.0
 10
8.1
 20
28.0
 40
0.0
 41
0.0
 42
0.0
 10
7.9
 20
28.0
 40
0.0
 41
0.0
 42
0.0
 10
7.9
 20
22.100000000000023
 40
0.0
 41
0.0
 42
0.0
1001
OPENCAD_AEC
1000
WALL_REP
1005
E3
1000
contour
  0
LWPOLYLINE
  5
EB
330
15
100
AcDbEntity
  8
0
100
AcDbPolyline
 90
     4
 70
     1
 38
0.0
 10
7.9
 20
21.899999999999977
 40
0.0
 41
0.0
 42
0.0
 10
7.9
 20
16.0
 40
0.0
 41
0.0
 42
0.0
 10
8.1
 20
16.0
 40
0.0
 41
0.0
 42
0.0
 10
8.1
 20
22.0
 40
0.0
 41
0.0
 42
0.0
1001
OPENCAD_AEC
1000
WALL_REP
1005
E4
1000
contour
  0
HATCH
  5
EE
330
15
100
AcDbEntity
  8
0
100
AcDbHatch
 10
0.0
 20
0.0
 30
0.0
210
0.0
220
0.0
230
1.0
  2
ANSI31
 70
     0
 71
     0
 91
     1
 92
    19
 72
     0
 73
     1
 93
     5
 10
0.0
 20
21.9
 10
8.100000000000023
 20
21.9
 10
8.100000000000023
 20
22.1
 10
0.0
 20
22.1
 10
0.0
 20
21.9
 97
     0
 75
     0
 76
     1
 52
0.0
 41
1.0
 77
     0
 78
     1
 53
45.0
 43
0.0
 44
-21.899999618530273
 45
-2.2450639965498094
 46
2.24506399654981
 79
     0
 98
     0
1001
OPENCAD_AEC
1000
WALL_REP
1005
E2
1000
hatch
  0
3DSOLID
  5
EF
330
15
100
AcDbEntity
  8
0
100
AcDbModelerGeometry
290
     0
  2
{00000000-0000-0000-0000-000000000000}
100
AcDb3dSolid
350
0
1001
OPENCAD_AEC
1000
WALL_REP
1005
E2
1000
solid
  0
HATCH
  5
F0
330
15
100
AcDbEntity
  8
0
100
AcDbHatch
 10
0.0
 20
0.0
 30
0.0
210
0.0
220
0.0
230
1.0
  2
ANSI31
 70
     0
 71
     0
 91
     1
 92
    19
 72
     0
 73
     1
 93
     5
 10
8.1
 20
22.0
 10
8.1
 20
28.0
 10
7.9
 20
28.0
 10
7.9
 20
22.100000000000023
 10
8.1
 20
22.0
 97
     0
 75
     0
 76
     1
 52
90.00000250447816
 41
1.0
 77
     0
 78
     1
 53
135.00000250447818
 43
22.000000354062255
 44
-8.099999419819138
 45
-2.24506389841494
 46
-2.245064094684675
 79
     0
 98
     0
1001
OPENCAD_AEC
1000
WALL_REP
1005
E3
1000
hatch
  0
3DSOLID
  5
F1
330
15
100
AcDbEntity
  8
0
100
AcDbModelerGeometry
290
     0
  2
{00000000-0000-0000-0000-000000000000}
100
AcDb3dSolid
350
0
1001
OPENCAD_AEC
1000
WALL_REP
1005
E3
1000
solid
  0
HATCH
  5
F2
330
15
100
AcDbEntity
  8
0
100
AcDbHatch
 10
0.0
 20
0.0
 30
0.0
210
0.0
220
0.0
230
1.0
  2
ANSI31
 70
     0
 71
     0
 91
     1
 92
    19
 72
     0
 73
     1
 93
     5
 10
7.9
 20
21.899999999999977
 10
7.9
 20
16.0
 10
8.1
 20
16.0
 10
8.1
 20
22.0
 10
7.9
 20
21.899999999999977
 97
     0
 75
     0
 76
     1
 52
-90.00000250447816
 41
1.0
 77
     0
 78
     1
 53
-45.00000250447817
 43
-21.899999273210266
 44
7.900001052646848
 45
2.2450640946846754
 46
2.2450638984149394
 79
     0
 98
     0
1001
OPENCAD_AEC
1000
WALL_REP
1005
E4
1000
hatch
  0
3DSOLID
  5
F3
330
15
100
AcDbEntity
  8
0
100
AcDbModelerGeometry
290
     0
  2
{00000000-0000-0000-0000-000000000000}
100
AcDb3dSolid
350
0
1001
OPENCAD_AEC
1000
WALL_REP
1005
E4
1000
solid
  0
MTEXT
  5
F4
330
15
100
AcDbEntity
  8
0
100
AcDbMText
 10
0.0
 20
29.2
 30
0.0
 40
0.28
 41
10.0
 71
     1
 72
     1
  1
N-Wege einschalig\PStil: style1 (Concrete)\PVerbindung: N-Wege (3 Wände)\PStandard-Miter\POverride: keiner
  7
Standard
 73
     1
 44
1.0
  0
LWPOLYLINE
  5
F5
330
15
100
AcDbEntity
  8
AEC_WALL_AXIS
100
AcDbPolyline
 90
     2
 70
     0
 38
0.0
 10
14.0
 20
22.0
 40
0.0
 41
0.0
 42
0.0
 10
22.0
 20
22.0
 40
0.0
 41
0.0
 42
0.0
1001
OPENCAD_AEC
1000
JOINED_PEERS
1005
F6
1001
OPENCAD_AEC
1000
JOIN_OVERRIDE
1071
     1
1000
{"default_style":"Miter","layer_pairs":[{"layer_a":{"material_id":"Putz","role_tag":null,"index":0,"layer_id":"89de7668-62dc-4bf3-97cf-8ce6bd014cef"},"layer_b":null,"style":"NoExtend"},{"layer_a":{"material_id":"Mauerwerk","role_tag":null,"index":1,"layer_id":"b1222ddd-45f4-44dd-8ae4-3df4c172a591"},"layer_b":{"material_id":"Mauerwerk","role_tag":null,"index":1,"layer_id":"b1222ddd-45f4-44dd-8ae4-3df4c172a591"},"style":"Miter"},{"layer_a":{"material_id":"Insulation","role_tag":null,"index":2,"layer_id":"bfe35db9-e974-4ad0-8045-a718b4333655"},"layer_b":null,"style":"Butt"},{"layer_a":{"material_id":"Putz","role_tag":null,"index":3,"layer_id":"67b8b9ce-a797-44f7-86bc-b725258ba0d0"},"layer_b":null,"style":"NoExtend"}],"layer_gaps":[]}
1001
OPENCAD_AEC
1000
WALL
1000
style1
1041
3.0
1071
     0
1071
     4
1000
Putz
1041
0.015
1000
Finish
1000
Mauerwerk
1041
0.24
1000
Structural
1000
Insulation
1041
0.12
1000
Insulation
1000
Putz
1041
0.015
1000
Finish
1071
    12
1005
F7
1005
11F
1005
120
1005
FA
1005
121
1005
122
1005
FD
1005
123
1005
124
1005
100
1005
125
1005
126
1000
Center
1000
axis_offset
1041
-0.195
1041
0.0
1041
0.0
1041
-0.18
1041
0.0
1041
0.0
1041
0.06
1041
0.0
1041
0.0
1041
0.18
1041
0.0
1041
0.0
1000

1000

1000

1000

1000
DOTS
1000
ANSI31
1000

1000
DOTS
1000
layer_id
1000
89de7668-62dc-4bf3-97cf-8ce6bd014cef
1000
b1222ddd-45f4-44dd-8ae4-3df4c172a591
1000
bfe35db9-e974-4ad0-8045-a718b4333655
1000
67b8b9ce-a797-44f7-86bc-b725258ba0d0
1000
New
1000
0
1041
0.0
1000

1000
planes
1000

1000

1041
0.0
1041
0.0
1041
0.0
1041
0.0
1041
0.0
1041
0.0
1041
0.0
1041
1.0
1041
0.0
1041
0.0
1041
0.0
1041
0.0
1041
0.0
1041
1.0
  0
LWPOLYLINE
  5
F6
330
15
100
AcDbEntity
  8
AEC_WALL_AXIS
100
AcDbPolyline
 90
     2
 70
     0
 38
0.0
 10
22.0
 20
22.0
 40
0.0
 41
0.0
 42
0.0
 10
22.0
 20
28.0
 40
0.0
 41
0.0
 42
0.0
1001
OPENCAD_AEC
1000
JOINED_PEERS
1005
F5
1001
OPENCAD_AEC
1000
WALL
1000
style1
1041
3.0
1071
     0
1071
     4
1000
Putz
1041
0.015
1000
Finish
1000
Mauerwerk
1041
0.24
1000
Structural
1000
Insulation
1041
0.12
1000
Insulation
1000
Putz
1041
0.015
1000
Finish
1071
    12
1005
103
1005
127
1005
128
1005
106
1005
129
1005
12A
1005
109
1005
12B
1005
12C
1005
10C
1005
12D
1005
12E
1000
Center
1000
axis_offset
1041
-0.195
1041
0.0
1041
0.0
1041
-0.18
1041
0.0
1041
0.0
1041
0.06
1041
0.0
1041
0.0
1041
0.18
1041
0.0
1041
0.0
1000

1000

1000

1000

1000
DOTS
1000
ANSI31
1000

1000
DOTS
1000
layer_id
1000
cd7ff2ee-85d5-4969-9377-9245772ca66c
1000
f47f6798-4d0e-4beb-96b3-c689a0d0485d
1000
92d02f9d-e6bc-47c5-a593-0d924298838a
1000
7e9ab775-da91-42ed-a7ef-9a95ae43cb96
1000
New
1000
0
1041
0.0
1000

1000
planes
1000

1000

1041
0.0
1041
0.0
1041
0.0
1041
0.0
1041
0.0
1041
0.0
1041
0.0
1041
1.0
1041
0.0
1041
0.0
1041
0.0
1041
0.0
1041
0.0
1041
1.0
  0
LWPOLYLINE
  5
F7
330
15
100
AcDbEntity
  8
0
 62
     9
420
13158596
100
AcDbPolyline
 90
     4
 70
     1
 38
0.0
 10
14.0
 20
21.805
 40
0.0
 41
0.0
 42
0.0
 10
22.0
 20
21.805
 40
0.0
 41
0.0
 42
0.0
 10
22.0
 20
21.82
 40
0.0
 41
0.0
 42
0.0
 10
14.0
 20
21.82
 40
0.0
 41
0.0
 42
0.0
1001
OPENCAD_AEC
1000
WALL_REP
1005
F5
1000
contour
  0
LWPOLYLINE
  5
FA
330
15
100
AcDbEntity
  8
0
 62
    45
420
9139029
100
AcDbPolyline
 90
     4
 70
     1
 38
0.0
 10
14.0
 20
21.82
 40
0.0
 41
0.0
 42
0.0
 10
22.17999999999995
 20
21.82
 40
0.0
 41
0.0
 42
0.0
 10
21.940000000000055
 20
22.06
 40
0.0
 41
0.0
 42
0.0
 10
14.0
 20
22.06
 40
0.0
 41
0.0
 42
0.0
1001
OPENCAD_AEC
1000
WALL_REP
1005
F5
1000
contour
  0
LWPOLYLINE
  5
FD
330
15
100
AcDbEntity
  8
0
 62
    45
420
9139029
100
AcDbPolyline
 90
     4
 70
     1
 38
0.0
 10
14.0
 20
22.06
 40
0.0
 41
0.0
 42
0.0
 10
21.82000000000005
 20
22.06
 40
0.0
 41
0.0
 42
0.0
 10
21.82000000000005
 20
22.18
 40
0.0
 41
0.0
 42
0.0
 10
14.0
 20
22.18
 40
0.0
 41
0.0
 42
0.0
1001
OPENCAD_AEC
1000
WALL_REP
1005
F5
1000
contour
  0
LWPOLYLINE
  5
100
330
15
100
AcDbEntity
  8
0
 62
     9
420
13158596
100
AcDbPolyline
 90
     4
 70
     1
 38
0.0
 10
14.0
 20
22.18
 40
0.0
 41
0.0
 42
0.0
 10
22.0
 20
22.18
 40
0.0
 41
0.0
 42
0.0
 10
22.0
 20
22.195
 40
0.0
 41
0.0
 42
0.0
 10
14.0
 20
22.195
 40
0.0
 41
0.0
 42
0.0
1001
OPENCAD_AEC
1000
WALL_REP
1005
F5
1000
contour
  0
LWPOLYLINE
  5
103
330
15
100
AcDbEntity
  8
0
 62
     9
420
13158596
100
AcDbPolyline
 90
     4
 70
     1
 38
0.0
 10
22.195
 20
21.80499999999995
 40
0.0
 41
0.0
 42
0.0
 10
22.195
 20
28.0
 40
0.0
 41
0.0
 42
0.0
 10
22.18
 20
28.0
 40
0.0
 41
0.0
 42
0.0
 10
22.18
 20
21.82000000000005
 40
0.0
 41
0.0
 42
0.0
1001
OPENCAD_AEC
1000
WALL_REP
1005
F6
1000
contour
  0
LWPOLYLINE
  5
106
330
15
100
AcDbEntity
  8
0
 62
    45
420
9139029
100
AcDbPolyline
 90
     4
 70
     1
 38
0.0
 10
22.18
 20
21.82000000000005
 40
0.0
 41
0.0
 42
0.0
 10
22.18
 20
28.0
 40
0.0
 41
0.0
 42
0.0
 10
21.94
 20
28.0
 40
0.0
 41
0.0
 42
0.0
 10
21.94
 20
22.05999999999983
 40
0.0
 41
0.0
 42
0.0
1001
OPENCAD_AEC
1000
WALL_REP
1005
F6
1000
contour
  0
LWPOLYLINE
  5
109
330
15
100
AcDbEntity
  8
0
 62
    45
420
9139029
100
AcDbPolyline
 90
     4
 70
     1
 38
0.0
 10
21.94
 20
22.05999999999983
 40
0.0
 41
0.0
 42
0.0
 10
21.94
 20
28.0
 40
0.0
 41
0.0
 42
0.0
 10
21.82
 20
28.0
 40
0.0
 41
0.0
 42
0.0
 10
21.82
 20
22.180000000000064
 40
0.0
 41
0.0
 42
0.0
1001
OPENCAD_AEC
1000
WALL_REP
1005
F6
1000
contour
  0
LWPOLYLINE
  5
10C
330
15
100
AcDbEntity
  8
0
 62
     9
420
13158596
100
AcDbPolyline
 90
     4
 70
     1
 38
0.0
 10
21.82
 20
22.180000000000064
 40
0.0
 41
0.0
 42
0.0
 10
21.82
 20
28.0
 40
0.0
 41
0.0
 42
0.0
 10
21.805
 20
28.0
 40
0.0
 41
0.0
 42
0.0
 10
21.805
 20
22.19500000000005
 40
0.0
 41
0.0
 42
0.0
1001
OPENCAD_AEC
1000
WALL_REP
1005
F6
1000
contour
  0
HATCH
  5
11F
330
15
100
AcDbEntity
  8
0
 62
   253
420
11842736
440
33554687
100
AcDbHatch
 10
0.0
 20
0.0
 30
0.0
210
0.0
220
0.0
230
1.0
  2
DOTS
 70
     0
 71
     0
 91
     1
 92
    19
 72
     0
 73
     1
 93
     5
 10
14.0
 20
21.805
 10
22.0
 20
21.805
 10
22.0
 20
21.82
 10
14.0
 20
21.82
 10
14.0
 20
21.805
 97
     0
 75
     0
 76
     1
 52
0.0
 41
0.0012000000569969416
 77
     0
 78
     1
 53
0.0
 43
-0.016800000797957182
 44
-0.026166001609029266
 45
0.0009525000309362069
 46
0.0019050000618724139
 79
     2
 49
0.0
 49
-0.0019050000618724139
 98
     0
1001
OPENCAD_AEC
1000
WALL_REP
1005
F5
1000
hatch
  0
3DSOLID
  5
120
330
15
100
AcDbEntity
  8
0
100
AcDbModelerGeometry
290
     0
  2
{00000000-0000-0000-0000-000000000000}
100
AcDb3dSolid
350
0
1001
OPENCAD_AEC
1000
WALL_REP
1005
F5
1000
solid
  0
HATCH
  5
121
330
15
100
AcDbEntity
  8
0
 62
    45
420
9139029
440
33554687
100
AcDbHatch
 10
0.0
 20
0.0
 30
0.0
210
0.0
220
0.0
230
1.0
  2
ANSI31
 70
     0
 71
     0
 91
     1
 92
    19
 72
     0
 73
     1
 93
     5
 10
14.0
 20
21.82
 10
22.17999999999995
 20
21.82
 10
21.940000000000055
 20
22.06
 10
14.0
 20
22.06
 10
14.0
 20
21.82
 97
     0
 75
     0
 76
     1
 52
0.0
 41
0.0024999999441206455
 77
     0
 78
     1
 53
45.0
 43
-0.03499999921768904
 44
-0.05454999801777305
 45
-0.005612659865921797
 46
0.005612659865921798
 79
     0
 98
     0
1001
OPENCAD_AEC
1000
WALL_REP
1005
F5
1000
hatch
  0
3DSOLID
  5
122
330
15
100
AcDbEntity
  8
0
100
AcDbModelerGeometry
290
     0
  2
{00000000-0000-0000-0000-000000000000}
100
AcDb3dSolid
350
0
1001
OPENCAD_AEC
1000
WALL_REP
1005
F5
1000
solid
  0
HATCH
  5
123
330
15
100
AcDbEntity
  8
0
100
AcDbHatch
 10
0.0
 20
0.0
 30
0.0
210
0.0
220
0.0
230
1.0
  2
ANSI31
 70
     0
 71
     0
 91
     1
 92
    19
 72
     0
 73
     1
 93
     5
 10
14.0
 20
22.06
 10
21.82000000000005
 20
22.06
 10
21.82000000000005
 20
22.18
 10
14.0
 20
22.18
 10
14.0
 20
22.06
 97
     0
 75
     0
 76
     1
 52
0.0
 41
1.0
 77
     0
 78
     1
 53
45.0
 43
-14.0
 44
-22.059999465942383
 45
-2.2450639965498094
 46
2.24506399654981
 79
     0
 98
     0
1001
OPENCAD_AEC
1000
WALL_REP
1005
F5
1000
hatch
  0
3DSOLID
  5
124
330
15
100
AcDbEntity
  8
0
100
AcDbModelerGeometry
290
     0
  2
{00000000-0000-0000-0000-000000000000}
100
AcDb3dSolid
350
0
1001
OPENCAD_AEC
1000
WALL_REP
1005
F5
1000
solid
  0
HATCH
  5
125
330
15
100
AcDbEntity
  8
0
 62
   253
420
11842736
440
33554687
100
AcDbHatch
 10
0.0
 20
0.0
 30
0.0
210
0.0
220
0.0
230
1.0
  2
DOTS
 70
     0
 71
     0
 91
     1
 92
    19
 72
     0
 73
     1
 93
     5
 10
14.0
 20
22.18
 10
22.0
 20
22.18
 10
22.0
 20
22.195
 10
14.0
 20
22.195
 10
14.0
 20
22.18
 97
     0
 75
     0
 76
     1
 52
0.0
 41
0.0012000000569969416
 77
     0
 78
     1
 53
0.0
 43
-0.016800000797957182
 44
-0.02661600163040312
 45
0.0009525000309362069
 46
0.0019050000618724139
 79
     2
 49
0.0
 49
-0.0019050000618724139
 98
     0
1001
OPENCAD_AEC
1000
WALL_REP
1005
F5
1000
hatch
  0
3DSOLID
  5
126
330
15
100
AcDbEntity
  8
0
100
AcDbModelerGeometry
290
     0
  2
{00000000-0000-0000-0000-000000000000}
100
AcDb3dSolid
350
0
1001
OPENCAD_AEC
1000
WALL_REP
1005
F5
1000
solid
  0
HATCH
  5
127
330
15
100
AcDbEntity
  8
0
 62
   253
420
11842736
440
33554687
100
AcDbHatch
 10
0.0
 20
0.0
 30
0.0
210
0.0
220
0.0
230
1.0
  2
DOTS
 70
     0
 71
     0
 91
     1
 92
    19
 72
     0
 73
     1
 93
     5
 10
22.195
 20
21.80499999999995
 10
22.195
 20
28.0
 10
22.18
 20
28.0
 10
22.18
 20
21.82000000000005
 10
22.195
 20
21.80499999999995
 97
     0
 75
     0
 76
     1
 52
90.00000250447816
 41
0.0012000000569969416
 77
     0
 78
     1
 53
90.00000250447816
 43
0.02616600277323844
 44
-0.026633999755083834
 45
-0.0019050001035075122
 46
0.0009524999476660053
 79
     2
 49
0.0
 49
-0.0019050000618724139
 98
     0
1001
OPENCAD_AEC
1000
WALL_REP
1005
F6
1000
hatch
  0
3DSOLID
  5
128
330
15
100
AcDbEntity
  8
0
100
AcDbModelerGeometry
290
     0
  2
{00000000-0000-0000-0000-000000000000}
100
AcDb3dSolid
350
0
1001
OPENCAD_AEC
1000
WALL_REP
1005
F6
1000
solid
  0
HATCH
  5
129
330
15
100
AcDbEntity
  8
0
 62
    45
420
9139029
440
33554687
100
AcDbHatch
 10
0.0
 20
0.0
 30
0.0
210
0.0
220
0.0
230
1.0
  2
ANSI31
 70
     0
 71
     0
 91
     1
 92
    19
 72
     0
 73
     1
 93
     5
 10
22.18
 20
21.82000000000005
 10
22.18
 20
28.0
 10
21.94
 20
28.0
 10
21.94
 20
22.05999999999983
 10
22.18
 20
21.82000000000005
 97
     0
 75
     0
 76
     1
 52
90.00000250447816
 41
0.0024999999441206455
 77
     0
 78
     1
 53
135.00000250447818
 43
0.054550000441569546
 44
-0.05544999713907906
 45
-0.005612659620584628
 46
-0.005612660111258955
 79
     0
 98
     0
1001
OPENCAD_AEC
1000
WALL_REP
1005
F6
1000
hatch
  0
3DSOLID
  5
12A
330
15
100
AcDbEntity
  8
0
100
AcDbModelerGeometry
290
     0
  2
{00000000-0000-0000-0000-000000000000}
100
AcDb3dSolid
350
0
1001
OPENCAD_AEC
1000
WALL_REP
1005
F6
1000
solid
  0
HATCH
  5
12B
330
15
100
AcDbEntity
  8
0
100
AcDbHatch
 10
0.0
 20
0.0
 30
0.0
210
0.0
220
0.0
230
1.0
  2
ANSI31
 70
     0
 71
     0
 91
     1
 92
    19
 72
     0
 73
     1
 93
     5
 10
21.94
 20
22.05999999999983
 10
21.94
 20
28.0
 10
21.82
 20
28.0
 10
21.82
 20
22.180000000000064
 10
21.94
 20
22.05999999999983
 97
     0
 75
     0
 76
     1
 52
90.00000250447816
 41
1.0
 77
     0
 78
     1
 53
135.00000250447818
 43
22.06000042497028
 44
-21.939999569784355
 45
-2.24506389841494
 46
-2.245064094684675
 79
     0
 98
     0
1001
OPENCAD_AEC
1000
WALL_REP
1005
F6
1000
hatch
  0
3DSOLID
  5
12C
330
15
100
AcDbEntity
  8
0
100
AcDbModelerGeometry
290
     0
  2
{00000000-0000-0000-0000-000000000000}
100
AcDb3dSolid
350
0
1001
OPENCAD_AEC
1000
WALL_REP
1005
F6
1000
solid
  0
HATCH
  5
12D
330
15
100
AcDbEntity
  8
0
 62
   253
420
11842736
440
33554687
100
AcDbHatch
 10
0.0
 20
0.0
 30
0.0
210
0.0
220
0.0
230
1.0
  2
DOTS
 70
     0
 71
     0
 91
     1
 92
    19
 72
     0
 73
     1
 93
     5
 10
21.82
 20
22.180000000000064
 10
21.82
 20
28.0
 10
21.805
 20
28.0
 10
21.805
 20
22.19500000000005
 10
21.82
 20
22.180000000000064
 97
     0
 75
     0
 76
     1
 52
90.00000250447816
 41
0.0012000000569969416
 77
     0
 78
     1
 53
90.00000250447816
 43
0.026616002774942166
 44
-0.026183999714039854
 45
-0.0019050001035075122
 46
0.0009524999476660053
 79
     2
 49
0.0
 49
-0.0019050000618724139
 98
     0
1001
OPENCAD_AEC
1000
WALL_REP
1005
F6
1000
hatch
  0
3DSOLID
  5
12E
330
15
100
AcDbEntity
  8
0
100
AcDbModelerGeometry
290
     0
  2
{00000000-0000-0000-0000-000000000000}
100
AcDb3dSolid
350
0
1001
OPENCAD_AEC
1000
WALL_REP
1005
F6
1000
solid
  0
MTEXT
  5
12F
330
15
100
AcDbEntity
  8
0
100
AcDbMText
 10
14.0
 20
29.2
 30
0.0
 40
0.28
 41
10.0
 71
     1
 72
     1
  1
L vierschalig mit Schicht-Overrides\PStil: style1 (Putz+Mauerwerk+Insulation+Putz)\PVerbindung: L\PDefault: Miter\PPutz außen/innen: NoExtend\PMauerwerk: Miter\PDämmung: Butt
  7
Standard
 73
     1
 44
1.0
  0
ENDSEC
  0
SECTION
  2
OBJECTS
  0
DICTIONARY
  5
C
330
0
100
AcDbDictionary
280
0
281
1
  3
ACAD_GROUP
350
21
  3
ACAD_MLINESTYLE
350
22
  3
ACAD_LAYOUT
350
23
  3
ACAD_PLOTSETTINGS
350
24
  3
ACAD_PLOTSTYLENAME
350
25
  3
ACAD_MATERIAL
350
26
  3
ACAD_COLOR
350
27
  3
ACAD_VISUALSTYLE
350
28
  3
ACAD_MLEADERSTYLE
350
29
  3
ACAD_TABLESTYLE
350
2A
  0
DICTIONARY
  5
21
330
C
100
AcDbDictionary
280
0
281
1
  0
DICTIONARY
  5
22
330
C
100
AcDbDictionary
280
0
281
1
  3
Standard
350
2B
  0
DICTIONARY
  5
23
330
C
100
AcDbDictionary
280
0
281
1
  3
Model
350
2E
  3
Layout1
350
2F
  0
DICTIONARY
  5
24
330
C
100
AcDbDictionary
280
0
281
1
  0
ACDBDICTIONARYWDFLT
  5
25
330
C
100
AcDbDictionary
281
     1
  3
Normal
350
30
100
AcDbDictionaryWithDefault
340
30
  0
DICTIONARY
  5
26
330
C
100
AcDbDictionary
280
0
281
1
  0
DICTIONARY
  5
27
330
C
100
AcDbDictionary
280
0
281
1
  0
DICTIONARY
  5
28
330
C
100
AcDbDictionary
280
0
281
1
  0
DICTIONARY
  5
29
330
C
100
AcDbDictionary
280
0
281
1
  3
Standard
350
2C
  0
DICTIONARY
  5
2A
330
C
100
AcDbDictionary
280
0
281
1
  3
Standard
350
2D
  0
MLINESTYLE
  5
2B
330
22
100
AcDbMlineStyle
  2
Standard
 70
     0
  3

 62
   256
 51
90.0
 52
90.0
 71
     2
 49
0.5
 62
   256
  6
BYLAYER
 49
-0.5
 62
   256
  6
BYLAYER
  0
MLEADERSTYLE
  5
2C
330
29
100
AcDbMLeaderStyle
170
     2
171
     0
172
     0
 90
     2
 40
0.0
 41
0.0
173
     1
 91
-1056964608
340
12
 92
    -2
290
     1
 42
0.09
291
     1
 43
0.36
  3
Standard
 44
0.18
300

342
14
174
     1
175
     1
176
     0
178
     1
 93
-1056964608
 45
0.18
292
     0
297
     0
 46
0.0
 94
-1056964608
 47
1.0
 49
1.0
140
1.0
293
     0
141
0.0
294
     0
177
     0
142
1.0
295
     0
296
     0
143
0.125
  0
TABLESTYLE
  5
2D
330
2A
100
AcDbTableStyle
  3
Standard
 70
     0
 71
     0
 40
0.06
 41
0.06
280
0
281
0
  7
Standard
140
0.18
170
     5
 62
     0
 63
     7
283
0
 90
   512
 91
     0
  1

274
    -2
284
1
 64
     0
275
    -2
285
1
 65
     0
276
    -2
286
1
 66
     0
277
    -2
287
1
 67
     0
278
    -2
288
1
 68
     0
279
    -2
289
1
 69
     0
  7
Standard
140
0.25
170
     2
 62
     0
 63
     7
283
0
 90
   512
 91
     0
  1

274
    -2
284
1
 64
     0
275
    -2
285
1
 65
     0
276
    -2
286
1
 66
     0
277
    -2
287
1
 67
     0
278
    -2
288
1
 68
     0
279
    -2
289
1
 69
     0
  7
Standard
140
0.25
170
     2
 62
     0
 63
     7
283
0
 90
   512
 91
     0
  1

274
    -2
284
1
 64
     0
275
    -2
285
1
 65
     0
276
    -2
286
1
 66
     0
277
    -2
287
1
 67
     0
278
    -2
288
1
 68
     0
279
    -2
289
1
 69
     0
  0
LAYOUT
  5
2E
330
23
100
AcDbPlotSettings
  1

  2

  4

  6

  7

 40
0.0
 41
0.0
 42
0.0
 43
0.0
 44
0.0
 45
0.0
 46
0.0
 47
0.0
 48
0.0
 49
0.0
140
0.0
141
0.0
142
1.0
143
1.0
147
1.0
148
0.0
149
0.0
 70
  1024
 72
     0
 73
     0
 74
     5
 75
     0
 76
     0
 77
     0
 78
   300
100
AcDbLayout
  1
Model
 70
     1
 71
     0
 10
0.0
 20
0.0
 11
0.0
 21
0.0
 12
0.0
 22
0.0
 32
0.0
 14
0.0
 24
0.0
 34
0.0
 15
12.0
 25
9.0
 35
0.0
146
0.0
 13
0.0
 23
0.0
 33
0.0
 16
1.0
 26
0.0
 36
0.0
 17
0.0
 27
1.0
 37
0.0
 76
     0
330
15
  0
LAYOUT
  5
2F
330
23
100
AcDbPlotSettings
  1

  2

  4

  6

  7

 40
0.0
 41
0.0
 42
0.0
 43
0.0
 44
0.0
 45
0.0
 46
0.0
 47
0.0
 48
0.0
 49
0.0
140
0.0
141
0.0
142
1.0
143
1.0
147
1.0
148
0.0
149
0.0
 70
     0
 72
     0
 73
     0
 74
     5
 75
     0
 76
     0
 77
     0
 78
   300
100
AcDbLayout
  1
Layout1
 70
     0
 71
     1
 10
0.0
 20
0.0
 11
0.0
 21
0.0
 12
0.0
 22
0.0
 32
0.0
 14
0.0
 24
0.0
 34
0.0
 15
12.0
 25
9.0
 35
0.0
146
0.0
 13
0.0
 23
0.0
 33
0.0
 16
1.0
 26
0.0
 36
0.0
 17
0.0
 27
1.0
 37
0.0
 76
     0
330
18
  0
ACDBPLACEHOLDER
  5
30
102
{ACAD_REACTORS
330
25
102
}
330
25
  0
ENDSEC
  0
EOF
