  0
SECTION
  2
HEADER
  9
$ACADVER
  1
AC1032
  9
$ACADMAINTVER
 90
     0
  9
$DWGCODEPAGE
  3
ANSI_1252
  9
$HANDSEED
  5
130
  9
$INSBASE
 10
0.0
 20
0.0
 30
0.0
  9
$EXTMIN
 10
1.0000000000000000e20
 20
1.0000000000000000e20
 30
1.0000000000000000e20
  9
$EXTMAX
 10
-1.0000000000000000e20
 20
-1.0000000000000000e20
 30
-1.0000000000000000e20
  9
$LIMMIN
 10
0.0
 20
0.0
  9
$LIMMAX
 10
0.0
 20
0.0
  9
$ORTHOMODE
 70
     0
  9
$OSMODE
 70
     0
  9
$REGENMODE
 70
     1
  9
$FILLMODE
 70
     1
  9
$QTEXTMODE
 70
     0
  9
$MIRRTEXT
 70
     0
  9
$LTSCALE
 40
1.0
  9
$ATTMODE
 70
     1
  9
$TEXTSIZE
 40
2.5
  9
$TRACEWID
 40
0.05
  9
$SKETCHINC
 40
0.1
  9
$SKPOLY
 70
     0
  9
$SKTOLERANCE
 40
0.5
  9
$TEXTSTYLE
  7
Standard
  9
$CMLSTYLE
  2
Standard
  9
$CLAYER
  8
0
  9
$CELTYPE
  6
ByLayer
  9
$CECOLOR
 62
   256
  9
$CELWEIGHT
370
    -1
  9
$CELTSCALE
 40
1.0
  9
$DISPSILH
 70
     1
  9
$LWDISPLAY
290
     0
  9
$LUNITS
 70
     2
  9
$LUPREC
 70
     4
  9
$AUNITS
 70
     0
  9
$AUPREC
 70
     0
  9
$MEASUREMENT
 70
     0
  9
$INSUNITS
 70
     0
  9
$PDMODE
 70
     0
  9
$PDSIZE
 40
0.0
  9
$PLINEGEN
 70
     0
  9
$PSLTSCALE
 70
     1
  9
$DIMSCALE
 40
1.0
  9
$DIMASZ
 40
0.18
  9
$DIMEXO
 40
0.0625
  9
$DIMDLI
 40
0.38
  9
$DIMRND
 40
0.0
  9
$DIMDLE
 40
0.0
  9
$DIMEXE
 40
0.18
  9
$DIMTP
 40
0.0
  9
$DIMTM
 40
0.0
  9
$DIMTXT
 40
0.18
  9
$DIMCEN
 40
0.09
  9
$DIMTSZ
 40
0.0
  9
$DIMTOL
 70
     0
  9
$DIMLIM
 70
     0
  9
$DIMTIH
 70
     1
  9
$DIMTOH
 70
     1
  9
$DIMSE1
 70
     0
  9
$DIMSE2
 70
     0
  9
$DIMTAD
 70
     0
  9
$DIMZIN
 70
     0
  9
$DIMCLRD
 70
     0
  9
$DIMCLRE
 70
     0
  9
$DIMCLRT
 70
     0
  9
$DIMGAP
 40
0.09
  9
$DIMALT
 70
     0
  9
$DIMALTD
 70
     2
  9
$DIMALTF
 40
25.4
  9
$DIMLFAC
 40
1.0
  9
$DIMTOFL
 70
     0
  9
$DIMTVP
 40
0.0
  9
$DIMTIX
 70
     0
  9
$DIMSOXD
 70
     0
  9
$DIMSAH
 70
     0
  9
$DIMPOST
  1

  9
$DIMAPOST
  1

  9
$DIMSTYLE
  2
Standard
  9
$DIMLUNIT
 70
     2
  9
$DIMDEC
 70
     4
  9
$DIMTDEC
 70
     4
  9
$DIMALTU
 70
     2
  9
$DIMALTTD
 70
     4
  9
$DIMAUNIT
 70
     0
  9
$DIMADEC
 70
     0
  9
$DIMJUST
 70
     0
  9
$DIMSD1
 70
     0
  9
$DIMSD2
 70
     0
  9
$DIMTOLJ
 70
     1
  9
$DIMTZIN
 70
     0
  9
$DIMALTZ
 70
     0
  9
$DIMALTTZ
 70
     0
  9
$DIMATFIT
 70
     3
  9
$DIMDSEP
 70
    46
  9
$DIMTMOVE
 70
     0
  9
$DIMFRAC
 70
     0
  9
$DIMLWD
 70
    -2
  9
$DIMLWE
 70
    -2
  9
$DIMTFAC
 40
1.0
  9
$SPLFRAME
 70
     0
  9
$SOLIDHIST
 70
     0
  9
$SHOWHIST
 70
     1
  9
$SPLINETYPE
 70
     6
  9
$SPLINESEGS
 70
     8
  9
$SURFTAB1
 70
     6
  9
$SURFTAB2
 70
     6
  9
$SURFTYPE
 70
     6
  9
$SURFU
 70
     6
  9
$SURFV
 70
     6
  9
$WORLDVIEW
 70
     1
  9
$PELEVATION
 40
0.0
  9
$PLINEWID
 40
0.0
  9
$MAXACTVP
 70
    64
  9
$TILEMODE
 70
     1
  9
$PLIMCHECK
 70
     0
  9
$VISRETAIN
 70
     1
  9
$PSTYLEMODE
290
     1
  9
$TDCREATE
 40
0.0
  9
$TDUPDATE
 40
0.0
  9
$TDINDWG
 40
0.0
  9
$UCSORG
 10
0.0
 20
0.0
 30
0.0
  9
$UCSXDIR
 10
1.0
 20
0.0
 30
0.0
  9
$UCSYDIR
 10
0.0
 20
1.0
 30
0.0
  0
ENDSEC
  0
SECTION
  2
CLASSES
  0
CLASS
  1
ACDBDICTIONARYWDFLT
  2
AcDbDictionaryWithDefault
  3
ObjectDBX Classes
 90
     0
 91
     0
280
0
281
0
  0
CLASS
  1
DICTIONARYVAR
  2
AcDbDictionaryVar
  3
ObjectDBX Classes
 90
     0
 91
     0
280
0
281
0
  0
CLASS
  1
LAYOUT
  2
AcDbLayout
  3
ObjectDBX Classes
 90
     0
 91
     0
280
0
281
0
  0
CLASS
  1
ACDBPLACEHOLDER
  2
AcDbPlaceHolder
  3
ObjectDBX Classes
 90
     0
 91
     0
280
0
281
0
  0
CLASS
  1
PLOTSETTINGS
  2
AcDbPlotSettings
  3
ObjectDBX Classes
 90
     0
 91
     0
280
0
281
0
  0
CLASS
  1
SCALE
  2
AcDbScale
  3
ObjectDBX Classes
 90
     0
 91
     0
280
0
281
0
  0
CLASS
  1
MESH
  2
AcDbSubDMesh
  3
AcDbSubDMesh|Description: AutoCAD subD mesh
 90
  4095
 91
     0
280
0
281
1
  0
CLASS
  1
ACAD_TABLE
  2
AcDbTable
  3
ObjectDBX Classes
 90
  1025
 91
     0
280
0
281
1
  0
CLASS
  1
WIPEOUT
  2
AcDbWipeout
  3
WipeOut|AutoCAD Express Tool|www.autodesk.com
 90
   127
 91
     0
280
0
281
1
  0
CLASS
  1
IMAGE
  2
AcDbRasterImage
  3
ISM
 90
   127
 91
     0
280
0
281
1
  0
CLASS
  1
PDFREFERENCE
  2
AcDbPdfReference
  3
ObjectDBX Classes
 90
     1
 91
     0
280
0
281
1
  0
CLASS
  1
DWFREFERENCE
  2
AcDbDwfReference
  3
ObjectDBX Classes
 90
     1
 91
     0
280
0
281
1
  0
CLASS
  1
DGNREFERENCE
  2
AcDbDgnReference
  3
ObjectDBX Classes
 90
     1
 91
     0
280
0
281
1
  0
CLASS
  1
PDFUNDERLAY
  2
AcDbPdfReference
  3
ObjectDBX Classes
 90
     1
 91
     0
280
0
281
1
  0
CLASS
  1
DWFUNDERLAY
  2
AcDbDwfReference
  3
ObjectDBX Classes
 90
     1
 91
     0
280
0
281
1
  0
CLASS
  1
DGNUNDERLAY
  2
AcDbDgnReference
  3
ObjectDBX Classes
 90
     1
 91
     0
280
0
281
1
  0
CLASS
  1
HELIX
  2
AcDbHelix
  3
ObjectDBX Classes
 90
     0
 91
     0
280
0
281
1
  0
CLASS
  1
MULTILEADER
  2
AcDbMLeader
  3
ACDB_MLEADER_CLASS
 90
  1025
 91
     0
280
0
281
1
  0
CLASS
  1
OLE2FRAME
  2
AcDbOle2Frame
  3
ObjectDBX Classes
 90
     1
 91
     0
280
0
281
1
  0
CLASS
  1
MLINE
  2
AcDbMline
  3
ObjectDBX Classes
 90
     1
 91
     0
280
0
281
1
  0
CLASS
  1
ARC_DIMENSION
  2
AcDbArcDimension
  3
ObjectDBX Classes
 90
     0
 91
     0
280
0
281
1
  0
CLASS
  1
LARGE_RADIAL_DIMENSION
  2
AcDbRadialDimensionLarge
  3
ObjectDBX Classes
 90
     0
 91
     0
280
0
281
1
  0
CLASS
  1
CAMERA
  2
AcDbCamera
  3
ObjectDBX Classes
 90
     0
 91
     0
280
0
281
1
  0
CLASS
  1
SECTIONOBJECT
  2
AcDbSection
  3
ObjectDBX Classes
 90
     0
 91
     0
280
0
281
1
  0
CLASS
  1
ARCALIGNEDTEXT
  2
AcDbArcAlignedText
  3
AutoCAD Express Tools
 90
   127
 91
     0
280
0
281
1
  0
CLASS
  1
RTEXT
  2
AcDbRText
  3
AutoCAD Express Tools
 90
   127
 91
     0
280
0
281
1
  0
CLASS
  1
POSITIONMARKER
  2
AcDbGeoPositionMarker
  3
ObjectDBX Classes
 90
     0
 91
     0
280
0
281
1
  0
CLASS
  1
COORDINATION_MODEL
  2
AcDbNavisworksModel
  3
ObjectDBX Classes
 90
     0
 91
     0
280
0
281
1
  0
CLASS
  1
ACDBPOINTCLOUD
  2
AcDbPointCloud
  3
AcDbPointCloudObj
 90
     0
 91
     0
280
0
281
1
  0
CLASS
  1
ACDBPOINTCLOUDEX
  2
AcDbPointCloudEx
  3
AcDbPointCloudObj
 90
     0
 91
     0
280
0
281
1
  0
CLASS
  1
MPOLYGON
  2
AcDbMPolygon
  3
ObjectDBX Classes
 90
   127
 91
     0
280
0
281
1
  0
CLASS
  1
ALIGNMENTPARAMETERENTITY
  2
AcDbBlockAlignmentParameterEntity
  3
ObjectDBX Classes
 90
     0
 91
     0
280
0
281
1
  0
CLASS
  1
BASEPOINTPARAMETERENTITY
  2
AcDbBlockBasepointParameterEntity
  3
ObjectDBX Classes
 90
     0
 91
     0
280
0
281
1
  0
CLASS
  1
FLIPPARAMETERENTITY
  2
AcDbBlockFlipParameterEntity
  3
ObjectDBX Classes
 90
     0
 91
     0
280
0
281
1
  0
CLASS
  1
LINEARPARAMETERENTITY
  2
AcDbBlockLinearParameterEntity
  3
ObjectDBX Classes
 90
     0
 91
     0
280
0
281
1
  0
CLASS
  1
POINTPARAMETERENTITY
  2
AcDbBlockPointParameterEntity
  3
ObjectDBX Classes
 90
     0
 91
     0
280
0
281
1
  0
CLASS
  1
ROTATIONPARAMETERENTITY
  2
AcDbBlockRotationParameterEntity
  3
ObjectDBX Classes
 90
     0
 91
     0
280
0
281
1
  0
CLASS
  1
VISIBILITYPARAMETERENTITY
  2
AcDbBlockVisibilityParameterEntity
  3
ObjectDBX Classes
 90
     0
 91
     0
280
0
281
1
  0
CLASS
  1
FLIPGRIPENTITY
  2
AcDbBlockFlipGripEntity
  3
ObjectDBX Classes
 90
     0
 91
     0
280
0
281
1
  0
CLASS
  1
LINEARGRIPENTITY
  2
AcDbBlockLinearGripEntity
  3
ObjectDBX Classes
 90
     0
 91
     0
280
0
281
1
  0
CLASS
  1
POLARGRIPENTITY
  2
AcDbBlockPolarGripEntity
  3
ObjectDBX Classes
 90
     0
 91
     0
280
0
281
1
  0
CLASS
  1
ROTATIONGRIPENTITY
  2
AcDbBlockRotationGripEntity
  3
ObjectDBX Classes
 90
     0
 91
     0
280
0
281
1
  0
CLASS
  1
VISIBILITYGRIPENTITY
  2
AcDbBlockVisibilityGripEntity
  3
ObjectDBX Classes
 90
     0
 91
     0
280
0
281
1
  0
CLASS
  1
XYGRIPENTITY
  2
AcDbBlockXYGripEntity
  3
ObjectDBX Classes
 90
     0
 91
     0
280
0
281
1
  0
CLASS
  1
XYPARAMETERENTITY
  2
AcDbBlockXYParameterEntity
  3
ObjectDBX Classes
 90
     0
 91
     0
280
0
281
1
  0
CLASS
  1
BLOCKANGULARCONSTRAINTPARAMETERENTITY
  2
AcDbBlockAngularConstraintParameterEntity
  3
ObjectDBX Classes
 90
     0
 91
     0
280
0
281
1
  0
CLASS
  1
LOFTEDSURFACE
  2
AcDbLoftedSurface
  3
ObjectDBX Classes
 90
     0
 91
     0
280
0
281
1
  0
CLASS
  1
ACDBASSOCDEPENDENCY
  2
AcDbAssocDependency
  3
ObjectDBX Classes
 90
     0
 91
     0
280
0
281
0
  0
CLASS
  1
ACDBASSOCVALUEDEPENDENCY
  2
AcDbAssocValueDependency
  3
ObjectDBX Classes
 90
     0
 91
     0
280
0
281
0
  0
CLASS
  1
ACDBASSOCGEOMDEPENDENCY
  2
AcDbAssocGeomDependency
  3
ObjectDBX Classes
 90
     0
 91
     0
280
0
281
0
  0
CLASS
  1
ACDBASSOCACTION
  2
AcDbAssocAction
  3
ObjectDBX Classes
 90
     0
 91
     0
280
0
281
0
  0
CLASS
  1
ACDBASSOCNETWORK
  2
AcDbAssocNetwork
  3
ObjectDBX Classes
 90
     0
 91
     0
280
0
281
0
  0
CLASS
  1
ACDBASSOC2DCONSTRAINTGROUP
  2
AcDbAssoc2dConstraintGroup
  3
ObjectDBX Classes
 90
     0
 91
     0
280
0
281
0
  0
CLASS
  1
ACDBASSOCVARIABLE
  2
AcDbAssocVariable
  3
ObjectDBX Classes
 90
     0
 91
     0
280
0
281
0
  0
CLASS
  1
ACDBASSOCPERSSUBENTMANAGER
  2
AcDbAssocPersSubentManager
  3
ObjectDBX Classes
 90
     0
 91
     0
280
0
281
0
  0
CLASS
  1
ACDBASSOCACTIONPARAM
  2
AcDbAssocActionParam
  3
ObjectDBX Classes
 90
     0
 91
     0
280
0
281
0
  0
CLASS
  1
ACDBASSOCCOMPOUNDACTIONPARAM
  2
AcDbAssocCompoundActionParam
  3
ObjectDBX Classes
 90
     0
 91
     0
280
0
281
0
  0
CLASS
  1
ACDBASSOCOSNAPPOINTREFACTIONPARAM
  2
AcDbAssocOsnapPointRefActionParam
  3
ObjectDBX Classes
 90
     0
 91
     0
280
0
281
0
  0
CLASS
  1
ACDBASSOCPOINTREFACTIONPARAM
  2
AcDbAssocPointRefActionParam
  3
ObjectDBX Classes
 90
     0
 91
     0
280
0
281
0
  0
CLASS
  1
ACDBASSOCOBJECTACTIONPARAM
  2
AcDbAssocObjectActionParam
  3
ObjectDBX Classes
 90
     0
 91
     0
280
0
281
0
  0
CLASS
  1
ACDBASSOCPATHACTIONPARAM
  2
AcDbAssocPathActionParam
  3
ObjectDBX Classes
 90
     0
 91
     0
280
0
281
0
  0
CLASS
  1
ACDBASSOCEDGEACTIONPARAM
  2
AcDbAssocEdgeActionParam
  3
ObjectDBX Classes
 90
     0
 91
     0
280
0
281
0
  0
CLASS
  1
ACDBASSOCFACEACTIONPARAM
  2
AcDbAssocFaceActionParam
  3
ObjectDBX Classes
 90
     0
 91
     0
280
0
281
0
  0
CLASS
  1
ACDBASSOCVERTEXACTIONPARAM
  2
AcDbAssocVertexActionParam
  3
ObjectDBX Classes
 90
     0
 91
     0
280
0
281
0
  0
CLASS
  1
ACDBASSOCASMBODYACTIONPARAM
  2
AcDbAssocAsmbodyActionParam
  3
ObjectDBX Classes
 90
     0
 91
     0
280
0
281
0
  0
CLASS
  1
ACDBASSOCDIMDEPENDENCYBODY
  2
AcDbAssocDimDependencyBody
  3
ObjectDBX Classes
 90
     0
 91
     0
280
0
281
0
  0
CLASS
  1
ACDBASSOCPLANESURFACEACTIONBODY
  2
AcDbAssocPlaneSurfaceActionBody
  3
ObjectDBX Classes
 90
     0
 91
     0
280
0
281
0
  0
CLASS
  1
ACDBASSOCEXTENDSURFACEACTIONBODY
  2
AcDbAssocExtendSurfaceActionBody
  3
ObjectDBX Classes
 90
     0
 91
     0
280
0
281
0
  0
CLASS
  1
ACDBASSOCEXTRUDEDSURFACEACTIONBODY
  2
AcDbAssocExtrudedSurfaceActionBody
  3
ObjectDBX Classes
 90
     0
 91
     0
280
0
281
0
  0
CLASS
  1
ACDBASSOCLOFTEDSURFACEACTIONBODY
  2
AcDbAssocLoftedSurfaceActionBody
  3
ObjectDBX Classes
 90
     0
 91
     0
280
0
281
0
  0
CLASS
  1
ACDBASSOCNETWORKSURFACEACTIONBODY
  2
AcDbAssocNetworkSurfaceActionBody
  3
ObjectDBX Classes
 90
     0
 91
     0
280
0
281
0
  0
CLASS
  1
ACDBASSOCOFFSETSURFACEACTIONBODY
  2
AcDbAssocOffsetSurfaceActionBody
  3
ObjectDBX Classes
 90
     0
 91
     0
280
0
281
0
  0
CLASS
  1
ACDBASSOCREVOLVEDSURFACEACTIONBODY
  2
AcDbAssocRevolvedSurfaceActionBody
  3
ObjectDBX Classes
 90
     0
 91
     0
280
0
281
0
  0
CLASS
  1
ACDBASSOCTRIMSURFACEACTIONBODY
  2
AcDbAssocTrimSurfaceActionBody
  3
ObjectDBX Classes
 90
     0
 91
     0
280
0
281
0
  0
CLASS
  1
ACDBASSOCBLENDSURFACEACTIONBODY
  2
AcDbAssocBlendSurfaceActionBody
  3
ObjectDBX Classes
 90
     0
 91
     0
280
0
281
0
  0
CLASS
  1
ACDBASSOCPATCHSURFACEACTIONBODY
  2
AcDbAssocPatchSurfaceActionBody
  3
ObjectDBX Classes
 90
     0
 91
     0
280
0
281
0
  0
CLASS
  1
ACDBASSOCFILLETSURFACEACTIONBODY
  2
AcDbAssocFilletSurfaceActionBody
  3
ObjectDBX Classes
 90
     0
 91
     0
280
0
281
0
  0
CLASS
  1
ACDBASSOCSWEPTSURFACEACTIONBODY
  2
AcDbAssocSweptSurfaceActionBody
  3
ObjectDBX Classes
 90
     0
 91
     0
280
0
281
0
  0
CLASS
  1
ACDBASSOCEDGECHAMFERACTIONBODY
  2
AcDbAssocEdgeChamferActionBody
  3
ObjectDBX Classes
 90
     0
 91
     0
280
0
281
0
  0
CLASS
  1
ACDBASSOCEDGEFILLETACTIONBODY
  2
AcDbAssocEdgeFilletActionBody
  3
ObjectDBX Classes
 90
     0
 91
     0
280
0
281
0
  0
CLASS
  1
ACDBASSOCRESTOREENTITYSTATEACTIONBODY
  2
AcDbAssocRestoreEntityStateActionBody
  3
ObjectDBX Classes
 90
     0
 91
     0
280
0
281
0
  0
CLASS
  1
ACDBASSOCMLEADERACTIONBODY
  2
AcDbAssocMLeaderActionBody
  3
ObjectDBX Classes
 90
     0
 91
     0
280
0
281
0
  0
CLASS
  1
ACDBASSOCALIGNEDDIMACTIONBODY
  2
AcDbAssocAlignedDimActionBody
  3
ObjectDBX Classes
 90
     0
 91
     0
280
0
281
0
  0
CLASS
  1
ACDBASSOC3POINTANGULARDIMACTIONBODY
  2
AcDbAssoc3PointAngularDimActionBody
  3
ObjectDBX Classes
 90
     0
 91
     0
280
0
281
0
  0
CLASS
  1
ACDBASSOCORDINATEDIMACTIONBODY
  2
AcDbAssocOrdinateDimActionBody
  3
ObjectDBX Classes
 90
     0
 91
     0
280
0
281
0
  0
CLASS
  1
ACDBASSOCROTATEDDIMACTIONBODY
  2
AcDbAssocRotatedDimActionBody
  3
ObjectDBX Classes
 90
     0
 91
     0
280
0
281
0
  0
CLASS
  1
ACDBASSOCARRAYMODIFYPARAMETERS
  2
AcDbAssocArrayModifyParameters
  3
ObjectDBX Classes
 90
     0
 91
     0
280
0
281
0
  0
CLASS
  1
ACDBASSOCARRAYPATHPARAMETERS
  2
AcDbAssocArrayPathParameters
  3
ObjectDBX Classes
 90
     0
 91
     0
280
0
281
0
  0
CLASS
  1
ACDBASSOCARRAYPOLARPARAMETERS
  2
AcDbAssocArrayPolarParameters
  3
ObjectDBX Classes
 90
     0
 91
     0
280
0
281
0
  0
CLASS
  1
ACDBASSOCARRAYRECTANGULARPARAMETERS
  2
AcDbAssocArrayRectangularParameters
  3
ObjectDBX Classes
 90
     0
 91
     0
280
0
281
0
  0
CLASS
  1
ACDBASSOCARRAYACTIONBODY
  2
AcDbAssocArrayActionBody
  3
ObjectDBX Classes
 90
     0
 91
     0
280
0
281
0
  0
CLASS
  1
ACDBASSOCARRAYMODIFYACTIONBODY
  2
AcDbAssocArrayModifyActionBody
  3
ObjectDBX Classes
 90
     0
 91
     0
280
0
281
0
  0
CLASS
  1
PERSUBENTMGR
  2
AcDbPersSubentManager
  3
ObjectDBX Classes
 90
     0
 91
     0
280
0
281
0
  0
CLASS
  1
ACSH_BOOLEAN_CLASS
  2
AcDbShBoolean
  3
ObjectDBX Classes
 90
     0
 91
     0
280
0
281
0
  0
CLASS
  1
ACSH_BOX_CLASS
  2
AcDbShBox
  3
ObjectDBX Classes
 90
     0
 91
     0
280
0
281
0
  0
CLASS
  1
ACSH_BREP_CLASS
  2
AcDbShBrep
  3
ObjectDBX Classes
 90
     0
 91
     0
280
0
281
0
  0
CLASS
  1
ACSH_CHAMFER_CLASS
  2
AcDbShChamfer
  3
ObjectDBX Classes
 90
     0
 91
     0
280
0
281
0
  0
CLASS
  1
ACSH_CONE_CLASS
  2
AcDbShCone
  3
ObjectDBX Classes
 90
     0
 91
     0
280
0
281
0
  0
CLASS
  1
ACSH_CYLINDER_CLASS
  2
AcDbShCylinder
  3
ObjectDBX Classes
 90
     0
 91
     0
280
0
281
0
  0
CLASS
  1
ACSH_EXTRUSION_CLASS
  2
AcDbShExtrusion
  3
ObjectDBX Classes
 90
     0
 91
     0
280
0
281
0
  0
CLASS
  1
ACSH_FILLET_CLASS
  2
AcDbShFillet
  3
ObjectDBX Classes
 90
     0
 91
     0
280
0
281
0
  0
CLASS
  1
ACSH_HISTORY_CLASS
  2
AcDbShHistory
  3
ObjectDBX Classes
 90
     0
 91
     0
280
0
281
0
  0
CLASS
  1
ACSH_LOFT_CLASS
  2
AcDbShLoft
  3
ObjectDBX Classes
 90
     0
 91
     0
280
0
281
0
  0
CLASS
  1
ACSH_PYRAMID_CLASS
  2
AcDbShPyramid
  3
ObjectDBX Classes
 90
     0
 91
     0
280
0
281
0
  0
CLASS
  1
ACSH_REVOLVE_CLASS
  2
AcDbShRevolve
  3
ObjectDBX Classes
 90
     0
 91
     0
280
0
281
0
  0
CLASS
  1
ACSH_SPHERE_CLASS
  2
AcDbShSphere
  3
ObjectDBX Classes
 90
     0
 91
     0
280
0
281
0
  0
CLASS
  1
ACSH_SWEEP_CLASS
  2
AcDbShSweep
  3
ObjectDBX Classes
 90
     0
 91
     0
280
0
281
0
  0
CLASS
  1
ACSH_TORUS_CLASS
  2
AcDbShTorus
  3
ObjectDBX Classes
 90
     0
 91
     0
280
0
281
0
  0
CLASS
  1
ACSH_WEDGE_CLASS
  2
AcDbShWedge
  3
ObjectDBX Classes
 90
     0
 91
     0
280
0
281
0
  0
CLASS
  1
ACDB_BLOCKREPRESENTATION_DATA
  2
AcDbBlockRepresentationData
  3
ObjectDBX Classes
 90
     0
 91
     0
280
0
281
0
  0
CLASS
  1
ACDB_DYNAMICBLOCKPURGEPREVENTER_VERSION
  2
AcDbDynamicBlockPurgePreventer
  3
ObjectDBX Classes
 90
     0
 91
     0
280
0
281
0
  0
CLASS
  1
ACDB_DYNAMICBLOCKPROXYNODE
  2
AcDbDynamicBlockProxyNode
  3
ObjectDBX Classes
 90
     0
 91
     0
280
0
281
0
  0
CLASS
  1
ACAD_EVALUATION_GRAPH
  2
AcDbEvalGraph
  3
ObjectDBX Classes
 90
     0
 91
     0
280
0
281
0
  0
CLASS
  1
BLOCKGRIPLOCATIONCOMPONENT
  2
AcDbBlockGripExpr
  3
ObjectDBX Classes
 90
     0
 91
     0
280
0
281
0
  0
CLASS
  1
BLOCKALIGNMENTPARAMETER
  2
AcDbBlockAlignmentParameter
  3
ObjectDBX Classes
 90
     0
 91
     0
280
0
281
0
  0
CLASS
  1
BLOCKALIGNMENTGRIP
  2
AcDbBlockAlignmentGrip
  3
ObjectDBX Classes
 90
     0
 91
     0
280
0
281
0
  0
CLASS
  1
BLOCKBASEPOINTPARAMETER
  2
AcDbBlockBasepointParameter
  3
ObjectDBX Classes
 90
     0
 91
     0
280
0
281
0
  0
CLASS
  1
BLOCKFLIPACTION
  2
AcDbBlockFlipAction
  3
ObjectDBX Classes
 90
     0
 91
     0
280
0
281
0
  0
CLASS
  1
BLOCKFLIPPARAMETER
  2
AcDbBlockFlipParameter
  3
ObjectDBX Classes
 90
     0
 91
     0
280
0
281
0
  0
CLASS
  1
BLOCKFLIPGRIP
  2
AcDbBlockFlipGrip
  3
ObjectDBX Classes
 90
     0
 91
     0
280
0
281
0
  0
CLASS
  1
BLOCKLINEARGRIP
  2
AcDbBlockLinearGrip
  3
ObjectDBX Classes
 90
     0
 91
     0
280
0
281
0
  0
CLASS
  1
BLOCKLOOKUPGRIP
  2
AcDbBlockLookupGrip
  3
ObjectDBX Classes
 90
     0
 91
     0
280
0
281
0
  0
CLASS
  1
BLOCKROTATIONGRIP
  2
AcDbBlockRotationGrip
  3
ObjectDBX Classes
 90
     0
 91
     0
280
0
281
0
  0
CLASS
  1
BLOCKMOVEACTION
  2
AcDbBlockMoveAction
  3
ObjectDBX Classes
 90
     0
 91
     0
280
0
281
0
  0
CLASS
  1
BLOCKROTATEACTION
  2
AcDbBlockRotationAction
  3
ObjectDBX Classes
 90
     0
 91
     0
280
0
281
0
  0
CLASS
  1
BLOCKSCALEACTION
  2
AcDbBlockScaleAction
  3
ObjectDBX Classes
 90
     0
 91
     0
280
0
281
0
  0
CLASS
  1
BLOCKVISIBILITYGRIP
  2
AcDbBlockVisibilityGrip
  3
ObjectDBX Classes
 90
     0
 91
     0
280
0
281
0
  0
CLASS
  1
BLOCKLINEARPARAMETER
  2
AcDbBlockLinearParameter
  3
ObjectDBX Classes
 90
     0
 91
     0
280
0
281
0
  0
CLASS
  1
BLOCKROTATIONPARAMETER
  2
AcDbBlockRotationParameter
  3
ObjectDBX Classes
 90
     0
 91
     0
280
0
281
0
  0
CLASS
  1
BLOCKXYPARAMETER
  2
AcDbBlockXYParameter
  3
ObjectDBX Classes
 90
     0
 91
     0
280
0
281
0
  0
CLASS
  1
BLOCKVISIBILITYPARAMETER
  2
AcDbBlockVisibilityParameter
  3
ObjectDBX Classes
 90
     0
 91
     0
280
0
281
0
  0
CLASS
  1
BLOCKPOLARPARAMETER
  2
AcDbBlockPolarParameter
  3
ObjectDBX Classes
 90
     0
 91
     0
280
0
281
0
  0
CLASS
  1
BLOCKPOLARGRIP
  2
AcDbBlockPolarGrip
  3
ObjectDBX Classes
 90
     0
 91
     0
280
0
281
0
  0
CLASS
  1
ACDBBLOCKPARAMDEPENDENCYBODY
  2
AcDbBlockParameterDependencyBody
  3
ObjectDBX Classes
 90
     0
 91
     0
280
0
281
0
  0
CLASS
  1
BLOCKPARAMDEPENDENCYBODY
  2
AcDbBlockParameterDependencyBody
  3
ObjectDBX Classes
 90
     0
 91
     0
280
0
281
0
  0
CLASS
  1
ACMECOMMANDHISTORY
  2
AcMeCommandHistory
  3
AcMeServices
 90
     0
 91
     0
280
0
281
0
  0
CLASS
  1
ACMESCOPE
  2
AcMeScope
  3
AcMeServices
 90
     0
 91
     0
280
0
281
0
  0
CLASS
  1
ACMESTATEMGR
  2
AcMeStateMgr
  3
AcMeServices
 90
     0
 91
     0
280
0
281
0
  0
CLASS
  1
CSACDOCUMENTOPTIONS
  2
CDocDataContainer
  3
"DERU003_CSAPP"
 90
  4095
 91
     0
280
0
281
0
  0
CLASS
  1
BLOCKALIGNEDCONSTRAINTPARAMETER
  2
AcDbBlockAlignedConstraintParameter
  3
ObjectDBX Classes
 90
     0
 91
     0
280
0
281
0
  0
CLASS
  1
BLOCKANGULARCONSTRAINTPARAMETER
  2
AcDbBlockAngularConstraintParameter
  3
ObjectDBX Classes
 90
     0
 91
     0
280
0
281
0
  0
CLASS
  1
BLOCKARRAYACTION
  2
AcDbBlockArrayAction
  3
ObjectDBX Classes
 90
     0
 91
     0
280
0
281
0
  0
CLASS
  1
BLOCKDIAMETRICCONSTRAINTPARAMETER
  2
AcDbBlockDiametricConstraintParameter
  3
ObjectDBX Classes
 90
     0
 91
     0
280
0
281
0
  0
CLASS
  1
BLOCKHORIZONTALCONSTRAINTPARAMETER
  2
AcDbBlockHorizontalConstraintParameter
  3
ObjectDBX Classes
 90
     0
 91
     0
280
0
281
0
  0
CLASS
  1
BLOCKLINEARCONSTRAINTPARAMETER
  2
AcDbBlockLinearConstraintParameter
  3
ObjectDBX Classes
 90
     0
 91
     0
280
0
281
0
  0
CLASS
  1
BLOCKRADIALCONSTRAINTPARAMETER
  2
AcDbBlockRadialConstraintParameter
  3
ObjectDBX Classes
 90
     0
 91
     0
280
0
281
0
  0
CLASS
  1
BLOCKVERTICALCONSTRAINTPARAMETER
  2
AcDbBlockVerticalConstraintParameter
  3
ObjectDBX Classes
 90
     0
 91
     0
280
0
281
0
  0
CLASS
  1
BLOCKLOOKUPACTION
  2
AcDbBlockLookupAction
  3
ObjectDBX Classes
 90
     0
 91
     0
280
0
281
0
  0
CLASS
  1
BLOCKLOOKUPPARAMETER
  2
AcDbBlockLookupParameter
  3
ObjectDBX Classes
 90
     0
 91
     0
280
0
281
0
  0
CLASS
  1
BLOCKPOINTPARAMETER
  2
AcDbBlockPointParameter
  3
ObjectDBX Classes
 90
     0
 91
     0
280
0
281
0
  0
CLASS
  1
BLOCKPOLARSTRETCHACTION
  2
AcDbBlockPolarStretchAction
  3
ObjectDBX Classes
 90
     0
 91
     0
280
0
281
0
  0
CLASS
  1
BLOCKSTRETCHACTION
  2
AcDbBlockStretchAction
  3
ObjectDBX Classes
 90
     0
 91
     0
280
0
281
0
  0
CLASS
  1
BLOCKUSERPARAMETER
  2
AcDbBlockUserParameter
  3
ObjectDBX Classes
 90
     0
 91
     0
280
0
281
0
  0
CLASS
  1
BLOCKXYGRIP
  2
AcDbBlockXYGrip
  3
ObjectDBX Classes
 90
     0
 91
     0
280
0
281
0
  0
CLASS
  1
BLOCKPROPERTIESTABLE
  2
AcDbBlockPropertiesTable
  3
ObjectDBX Classes
 90
     0
 91
     0
280
0
281
0
  0
CLASS
  1
BLOCKPROPERTIESTABLEGRIP
  2
AcDbBlockPropertiesTableGrip
  3
ObjectDBX Classes
 90
     0
 91
     0
280
0
281
0
  0
CLASS
  1
SPATIAL_INDEX
  2
AcDbSpatialIndex
  3
ObjectDBX Classes
 90
     0
 91
     0
280
0
281
0
  0
CLASS
  1
LAYERFILTER
  2
AcDbLayerFilter
  3
ObjectDBX Classes
 90
     0
 91
     0
280
0
281
0
  0
CLASS
  1
PARTIAL_VIEWING_INDEX
  2
OdDbPartialViewingIndex
  3
ObjectDBX Classes
 90
     0
 91
     0
280
0
281
0
  0
CLASS
  1
VBA_PROJECT
  2
AcDbVbaProject
  3
ObjectDBX Classes
 90
     0
 91
     0
280
0
281
0
  0
CLASS
  1
SECTION_MANAGER
  2
AcDbSectionManager
  3
ObjectDBX Classes
 90
     0
 91
     0
280
0
281
0
  0
CLASS
  1
SECTION_SETTINGS
  2
AcDbSectionSettings
  3
ObjectDBX Classes
 90
     0
 91
     0
280
0
281
0
  0
CLASS
  1
LIGHTLIST
  2
AcDbLightList
  3
SCENEOE
 90
     0
 91
     0
280
0
281
0
  0
CLASS
  1
SUN
  2
AcDbSun
  3
SCENEOE
 90
     0
 91
     0
280
0
281
0
  0
CLASS
  1
SUNSTUDY
  2
AcDbSunStudy
  3
SCENEOE
 90
     0
 91
     0
280
0
281
0
  0
CLASS
  1
RENDERSETTINGS
  2
AcDbRenderSettings
  3
SCENEOE
 90
     0
 91
     0
280
0
281
0
  0
CLASS
  1
MENTALRAYRENDERSETTINGS
  2
AcDbMentalRayRenderSettings
  3
SCENEOE
 90
     0
 91
     0
280
0
281
0
  0
CLASS
  1
RAPIDRTRENDERSETTINGS
  2
AcDbRapidRTRenderSettings
  3
ObjectDBX Classes
 90
     0
 91
     0
280
0
281
0
  0
CLASS
  1
RENDERENVIRONMENT
  2
AcDbRenderEnvironment
  3
SCENEOE
 90
     0
 91
     0
280
0
281
0
  0
CLASS
  1
RENDERGLOBAL
  2
AcDbRenderGlobal
  3
SCENEOE
 90
     0
 91
     0
280
0
281
0
  0
CLASS
  1
RENDERENTRY
  2
AcDbRenderEntry
  3
SCENEOE
 90
     0
 91
     0
280
0
281
0
  0
CLASS
  1
RAPIDRTRENDERENVIRONMENT
  2
AcDbIBLBackground
  3
SCENEOE
 90
     0
 91
     0
280
0
281
0
  0
CLASS
  1
SKYLIGHT_BACKGROUND
  2
AcDbSkyBackground
  3
SCENEOE
 90
     0
 91
     0
280
0
281
0
  0
CLASS
  1
IMAGE_BACKGROUND
  2
AcDbImageBackground
  3
SCENEOE
 90
     0
 91
     0
280
0
281
0
  0
CLASS
  1
SOLID_BACKGROUND
  2
AcDbSolidBackground
  3
SCENEOE
 90
     0
 91
     0
280
0
281
0
  0
CLASS
  1
GROUND_PLANE_BACKGROUND
  2
AcDbGroundPlaneBackground
  3
SCENEOE
 90
     0
 91
     0
280
0
281
0
  0
CLASS
  1
GRADIENT_BACKGROUND
  2
AcDbGradientBackground
  3
SCENEOE
 90
     0
 91
     0
280
0
281
0
  0
CLASS
  1
ACDBCURVEPATH
  2
AcDbCurvePath
  3
SCENEOE
 90
     0
 91
     0
280
0
281
0
  0
CLASS
  1
ACDBMOTIONPATH
  2
AcDbMotionPath
  3
SCENEOE
 90
     0
 91
     0
280
0
281
0
  0
CLASS
  1
ACDBPOINTPATH
  2
AcDbPointPath
  3
SCENEOE
 90
     0
 91
     0
280
0
281
0
  0
CLASS
  1
TVDEVICEPROPERTIES
  2
AcDbTvDeviceProperties
  3
SCENEOE
 90
     0
 91
     0
280
0
281
0
  0
CLASS
  1
ACDBPOINTCLOUDDEF
  2
AcDbPointCloudDef
  3
AcDbPointCloudObj
 90
     0
 91
     0
280
0
281
0
  0
CLASS
  1
ACDBPOINTCLOUDDEFEX
  2
AcDbPointCloudDefEx
  3
AcDbPointCloudObj
 90
     0
 91
     0
280
0
281
0
  0
CLASS
  1
ACDBPOINTCLOUDDEF_REACTOR
  2
AcDbPointCloudDefReactor
  3
AcDbPointCloudObj
 90
     0
 91
     0
280
0
281
0
  0
CLASS
  1
ACDBPOINTCLOUDDEF_REACTOR_EX
  2
AcDbPointCloudDefReactorEx
  3
AcDbPointCloudObj
 90
     0
 91
     0
280
0
281
0
  0
CLASS
  1
ACDBPOINTCLOUDCOLORMAP
  2
AcDbPointCloudColorMap
  3
AcDbPointCloudObj
 90
     0
 91
     0
280
0
281
0
  0
CLASS
  1
NAVISWORKSMODELDEF
  2
AcDbNavisworksModelDef
  3
ObjectDBX Classes
 90
     0
 91
     0
280
0
281
0
  0
CLASS
  1
CONTEXTDATAMANAGER
  2
AcDbContextDataManager
  3
ObjectDBX Classes
 90
     0
 91
     0
280
0
281
0
  0
CLASS
  1
DATATABLE
  2
AcDbDataTable
  3
ObjectDBX Classes
 90
     0
 91
     0
280
0
281
0
  0
CLASS
  1
DATALINK
  2
AcDbDataLink
  3
ObjectDBX Classes
 90
     0
 91
     0
280
0
281
0
  0
CLASS
  1
ACDBPERSSUBENTMANAGER
  2
AcDbPersSubentManager
  3
ObjectDBX Classes
 90
     0
 91
     0
280
0
281
0
  0
CLASS
  1
GEOMAPIMAGE
  2
AcDbGeomapImage
  3
ObjectDBX Classes
 90
     0
 91
     0
280
0
281
0
  0
CLASS
  1
ACDBDETAILVIEWSTYLE
  2
AcDbDetailViewStyle
  3
ObjectDBX Classes
 90
     0
 91
     0
280
0
281
0
  0
CLASS
  1
ACDBSECTIONVIEWSTYLE
  2
AcDbSectionViewStyle
  3
ObjectDBX Classes
 90
     0
 91
     0
280
0
281
0
  0
CLASS
  1
ACAD_PROXY_ENTITY_WRAPPER
  2
AcDbProxyEntityWrapper
  3
ObjectDBX Classes
 90
     0
 91
     0
280
0
281
1
  0
CLASS
  1
ACAD_PROXY_OBJECT_WRAPPER
  2
AcDbProxyObjectWrapper
  3
ObjectDBX Classes
 90
     0
 91
     0
280
0
281
0
  0
CLASS
  1
AEC_REFEDIT_STATUS_TRACKER
  2
AecDbRefEditStatusTracker
  3
AecArchBase
 90
     0
 91
     0
280
0
281
0
  0
CLASS
  1
EXACXREFPANELOBJECT
  2
ExAcXREFPanelObject
  3
EXAC_ESW
 90
     0
 91
     0
280
0
281
0
  0
CLASS
  1
XREFPANELOBJECT
  2
ExAcXREFPanelObject
  3
EXAC_ESW
 90
     0
 91
     0
280
0
281
0
  0
CLASS
  1
NPOCOLLECTION
  2
AcDbImpNonPersistentObjectsCollection
  3
ObjectDBX Classes
 90
     0
 91
     0
280
0
281
0
  0
CLASS
  1
LSDEFINITION
  2
AcDbLSDefinition
  3
DgnLS
 90
     0
 91
     0
280
0
281
0
  0
CLASS
  1
LSSYMBOLCOMPONENT
  2
AcDbLSSymbolComponent
  3
DgnLS
 90
     0
 91
     0
280
0
281
0
  0
CLASS
  1
LSCOMPOUNDCOMPONENT
  2
AcDbLSCompoundComponent
  3
DgnLS
 90
     0
 91
     0
280
0
281
0
  0
CLASS
  1
LSSTROKEPATTERNCOMPONENT
  2
AcDbLSStrokePatternComponent
  3
DgnLS
 90
     0
 91
     0
280
0
281
0
  0
CLASS
  1
LSPOINTCOMPONENT
  2
AcDbLSPointComponent
  3
DgnLS
 90
     0
 91
     0
280
0
281
0
  0
CLASS
  1
LSINTERNALCOMPONENT
  2
AcDbLSInternalComponent
  3
DgnLS
 90
     0
 91
     0
280
0
281
0
  0
CLASS
  1
McDbContainer2
  2
McDbContainer2
  3
NanoSPDS
 90
     0
 91
     0
280
0
281
0
  0
CLASS
  1
Wall
  2
PtDbWall
  3
NanoSPDS
 90
     0
 91
     0
280
0
281
1
  0
CLASS
  1
mcsDbObject
  2
mcsDbObject
  3
NanoSPDS
 90
     0
 91
     0
280
0
281
1
  0
CLASS
  1
NOTEPOSITION
  2
mcsDbObjectNotePosition
  3
NanoSPDS
 90
     0
 91
     0
280
0
281
1
  0
CLASS
  1
spdsLevelMark
  2
mcsDbObjectLevelMark
  3
NanoSPDS
 90
     0
 91
     0
280
0
281
1
  0
CLASS
  1
spdsRelationMark
  2
mcsDbObjectRelationMark
  3
NanoSPDS
 90
     0
 91
     0
280
0
281
1
  0
CLASS
  1
SECTIONLINE
  2
AcDbSectionSymbol
  3
ObjectDBX Classes
 90
     0
 91
     0
280
0
281
1
  0
CLASS
  1
DRAWINGVIEW
  2
AcDbViewBorder
  3
ObjectDBX Classes
 90
     0
 91
     0
280
0
281
1
  0
CLASS
  1
ACDB_ANNOTSCALEOBJECTCONTEXTDATA_CLASS
  2
AcDbAnnotScaleObjectContextData
  3
ObjectDBX Classes
 90
     0
 91
     0
280
0
281
0
  0
CLASS
  1
ACDB_BLKREFOBJECTCONTEXTDATA_CLASS
  2
AcDbBlkrefObjectContextData
  3
ObjectDBX Classes
 90
     0
 91
     0
280
0
281
0
  0
CLASS
  1
ACDB_TEXTOBJECTCONTEXTDATA_CLASS
  2
AcDbTextObjectContextData
  3
ObjectDBX Classes
 90
     0
 91
     0
280
0
281
0
  0
CLASS
  1
ACDB_MTEXTOBJECTCONTEXTDATA_CLASS
  2
AcDbMTextObjectContextData
  3
ObjectDBX Classes
 90
     0
 91
     0
280
0
281
0
  0
CLASS
  1
ACDB_ALDIMOBJECTCONTEXTDATA_CLASS
  2
AcDbAlignedDimensionObjectContextData
  3
ObjectDBX Classes
 90
     0
 91
     0
280
0
281
0
  0
CLASS
  1
ACDB_ANGDIMOBJECTCONTEXTDATA_CLASS
  2
AcDbAngularDimensionObjectContextData
  3
ObjectDBX Classes
 90
     0
 91
     0
280
0
281
0
  0
CLASS
  1
ACDB_DMDIMOBJECTCONTEXTDATA_CLASS
  2
AcDbDiametricDimensionObjectContextData
  3
ObjectDBX Classes
 90
     0
 91
     0
280
0
281
0
  0
CLASS
  1
ACDB_RADIMOBJECTCONTEXTDATA_CLASS
  2
AcDbRadialDimensionObjectContextData
  3
ObjectDBX Classes
 90
     0
 91
     0
280
0
281
0
  0
CLASS
  1
ACDB_RADIMLGOBJECTCONTEXTDATA_CLASS
  2
AcDbRadialDimensionLargeObjectContextData
  3
ObjectDBX Classes
 90
     0
 91
     0
280
0
281
0
  0
CLASS
  1
ACDB_ORDDIMOBJECTCONTEXTDATA_CLASS
  2
AcDbOrdinateDimensionObjectContextData
  3
ObjectDBX Classes
 90
     0
 91
     0
280
0
281
0
  0
CLASS
  1
ACDB_MLEADEROBJECTCONTEXTDATA_CLASS
  2
AcDbMLeaderObjectContextData
  3
ObjectDBX Classes
 90
     0
 91
     0
280
0
281
0
  0
CLASS
  1
ACDB_MTEXTATTRIBUTEOBJECTCONTEXTDATA_CLASS
  2
AcDbMTextAttributeObjectContextData
  3
ObjectDBX Classes
 90
     0
 91
     0
280
0
281
0
  0
CLASS
  1
ACDB_LEADEROBJECTCONTEXTDATA_CLASS
  2
AcDbLeaderObjectContextData
  3
ObjectDBX Classes
 90
     0
 91
     0
280
0
281
0
  0
CLASS
  1
ACDB_FCFOBJECTCONTEXTDATA_CLASS
  2
AcDbFcfObjectContextData
  3
ObjectDBX Classes
 90
     0
 91
     0
280
0
281
0
  0
CLASS
  1
ACDB_HATCHSCALECONTEXTDATA_CLASS
  2
AcDbHatchScaleContextData
  3
ObjectDBX Classes
 90
     0
 91
     0
280
0
281
0
  0
CLASS
  1
ACDB_HATCHVIEWCONTEXTDATA_CLASS
  2
AcDbHatchViewContextData
  3
ObjectDBX Classes
 90
     0
 91
     0
280
0
281
0
  0
CLASS
  1
TABLESTYLE
  2
AcDbTableStyle
  3
ObjectDBX Classes
 90
  1025
 91
     0
280
0
281
0
  0
CLASS
  1
MATERIAL
  2
AcDbMaterial
  3
ObjectDBX Classes
 90
  1025
 91
     0
280
0
281
0
  0
CLASS
  1
VISUALSTYLE
  2
AcDbVisualStyle
  3
ObjectDBX Classes
 90
  4095
 91
     0
280
0
281
0
  0
CLASS
  1
MLEADERSTYLE
  2
AcDbMLeaderStyle
  3
ACDB_MLEADERSTYLE_CLASS
 90
  4095
 91
     0
280
0
281
0
  0
CLASS
  1
CELLSTYLEMAP
  2
AcDbCellStyleMap
  3
ObjectDBX Classes
 90
  1025
 91
     0
280
0
281
0
  0
CLASS
  1
ACDSRECORD
  2
AcDsRecord
  3
AcDsData
 90
     0
 91
     0
280
0
281
0
  0
CLASS
  1
ACDSSCHEMA
  2
AcDsSchema
  3
AcDsData
 90
     0
 91
     0
280
0
281
0
  0
CLASS
  1
XRECORD
  2
AcDbXrecord
  3
ObjectDBX Classes
 90
     0
 91
     0
280
0
281
0
  0
CLASS
  1
SORTENTSTABLE
  2
AcDbSortentsTable
  3
ObjectDBX Classes
 90
     0
 91
     0
280
0
281
0
  0
CLASS
  1
BREAKDATA
  2
AcDbBreakData
  3
ObjectDBX Classes
 90
     0
 91
     0
280
0
281
0
  0
CLASS
  1
BREAKPOINTREF
  2
AcDbBreakPointRef
  3
ObjectDBX Classes
 90
     0
 91
     0
280
0
281
0
  0
CLASS
  1
IDBUFFER
  2
AcDbIdBuffer
  3
ObjectDBX Classes
 90
     0
 91
     0
280
0
281
0
  0
CLASS
  1
INDEX
  2
AcDbIndex
  3
ObjectDBX Classes
 90
     0
 91
     0
280
0
281
0
  0
CLASS
  1
LAYER_INDEX
  2
AcDbLayerIndex
  3
ObjectDBX Classes
 90
     0
 91
     0
280
0
281
0
  0
CLASS
  1
PARTIAL_VIEWING_FILTER
  2
OdDbPartialViewingFilter
  3
OdDbPartialViewing|https://www.opendesign.com Teigha(R) Core Db
 90
     0
 91
     0
280
0
281
0
  0
CLASS
  1
WIPEOUTVARIABLES
  2
AcDbWipeoutVariables
  3
WipeOut|AutoCAD Express Tool|www.autodesk.com
 90
     0
 91
     0
280
0
281
0
  0
CLASS
  1
DIMASSOC
  2
AcDbDimAssoc
  3
AcDbDimAssoc|Product Desc:     AcDim ARX App For Dimension|Company:          Autodesk|WEB Address:      www.autodesk.com
 90
     0
 91
     0
280
0
281
0
  0
CLASS
  1
TABLECONTENT
  2
AcDbTableContent
  3
ObjectDBX Classes
 90
  1025
 91
     0
280
0
281
0
  0
CLASS
  1
TABLEGEOMETRY
  2
AcDbTableGeometry
  3
ObjectDBX Classes
 90
  1025
 91
     0
280
0
281
0
  0
CLASS
  1
Format
  2
mcsDbObjectFormat
  3
NanoSPDS
 90
     0
 91
     0
280
0
281
1
  0
CLASS
  1
RASTERVARIABLES
  2
AcDbRasterVariables
  3
ISM
 90
     0
 91
     0
280
0
281
0
  0
CLASS
  1
IMAGEDEF
  2
AcDbRasterImageDef
  3
ISM
 90
     0
 91
     0
280
0
281
0
  0
CLASS
  1
IMAGEDEF_REACTOR
  2
AcDbRasterImageDefReactor
  3
ISM
 90
     1
 91
     0
280
0
281
0
  0
CLASS
  1
DBCOLOR
  2
AcDbColor
  3
ObjectDBX Classes
 90
  1025
 91
     0
280
0
281
0
  0
CLASS
  1
GEODATA
  2
AcDbGeoData
  3
ObjectDBX Classes
 90
  1025
 91
     0
280
0
281
0
  0
CLASS
  1
PDFDEFINITION
  2
AcDbPdfDefinition
  3
ObjectDBX Classes
 90
     1
 91
     0
280
0
281
0
  0
CLASS
  1
DWFDEFINITION
  2
AcDbDwfDefinition
  3
ObjectDBX Classes
 90
     1
 91
     0
280
0
281
0
  0
CLASS
  1
DGNDEFINITION
  2
AcDbDgnDefinition
  3
ObjectDBX Classes
 90
     1
 91
     0
280
0
281
0
  0
CLASS
  1
SPATIAL_FILTER
  2
AcDbSpatialFilter
  3
ObjectDBX Classes
 90
     1
 91
     0
280
0
281
0
  0
CLASS
  1
GROUP
  2
AcDbGroup
  3
ObjectDBX Classes
 90
     0
 91
     0
280
0
281
0
  0
CLASS
  1
MLINESTYLE
  2
AcDbMlineStyle
  3
ObjectDBX Classes
 90
     0
 91
     0
280
0
281
0
  0
ENDSEC
  0
SECTION
  2
TABLES
  0
TABLE
  2
VPORT
  5
8
330
0
100
AcDbSymbolTable
 70
     1
  0
VPORT
  5
1F
330
8
100
AcDbSymbolTableRecord
100
AcDbViewportTableRecord
  2
*Active
 70
     0
 10
0.0
 20
0.0
 11
1.0
 21
1.0
 12
0.0
 22
0.0
 13
0.0
 23
0.0
 14
0.5
 24
0.5
 15
10.0
 25
10.0
 16
0.0
 26
0.0
 36
1.0
 17
0.0
 27
0.0
 37
0.0
 40
10.0
 41
1.0
 42
50.0
 43
0.0
 44
0.0
 50
0.0
 51
0.0
 71
     0
 72
   100
 73
     1
 74
     3
 75
     0
 76
     0
 77
     0
 78
     0
281
     0
 65
     1
110
0.0
120
0.0
130
0.0
111
1.0
121
0.0
131
0.0
112
0.0
122
1.0
132
0.0
 79
     0
146
0.0
 60
     2
 61
     5
292
     1
282
     1
141
0.0
142
0.0
 63
   250
  0
ENDTAB
  0
TABLE
  2
LTYPE
  5
5
330
0
100
AcDbSymbolTable
 70
     3
  0
LTYPE
  5
11
330
5
100
AcDbSymbolTableRecord
100
AcDbLinetypeTableRecord
  2
Continuous
 70
     0
  3
Solid line
 72
    65
 73
     0
 40
0.0
  0
LTYPE
  5
12
330
5
100
AcDbSymbolTableRecord
100
AcDbLinetypeTableRecord
  2
ByLayer
 70
     0
  3

 72
    65
 73
     0
 40
0.0
  0
LTYPE
  5
13
330
5
100
AcDbSymbolTableRecord
100
AcDbLinetypeTableRecord
  2
ByBlock
 70
     0
  3

 72
    65
 73
     0
 40
0.0
  0
ENDTAB
  0
TABLE
  2
LAYER
  5
2
330
0
100
AcDbSymbolTable
 70
     2
  0
LAYER
  5
10
330
2
100
AcDbSymbolTableRecord
100
AcDbLayerTableRecord
  2
0
 70
     0
 62
     7
  6
Continuous
370
    -3
390
2F
290
     1
  0
LAYER
  5
33
330
2
100
AcDbSymbolTableRecord
100
AcDbLayerTableRecord
  2
AEC_WALL_AXIS
 70
     0
 62
    -7
  6
Continuous
370
    -3
390
2F
290
     0
  0
ENDTAB
  0
TABLE
  2
STYLE
  5
3
330
0
100
AcDbSymbolTable
 70
     1
  0
STYLE
  5
14
330
3
100
AcDbSymbolTableRecord
100
AcDbTextStyleTableRecord
  2
Standard
 70
     0
 40
0.0
 41
1.0
 50
0.0
 71
     0
 42
2.5
  3
txt
  4

  0
ENDTAB
  0
TABLE
  2
VIEW
  5
6
330
0
100
AcDbSymbolTable
 70
     0
  0
ENDTAB
  0
TABLE
  2
UCS
  5
7
330
0
100
AcDbSymbolTable
 70
     0
  0
ENDTAB
  0
TABLE
  2
APPID
  5
9
330
0
100
AcDbSymbolTable
 70
     4
  0
APPID
  5
1C
330
9
100
AcDbSymbolTableRecord
100
AcDbRegAppTableRecord
  2
ACAD
 70
     0
  0
APPID
  5
1D
330
9
100
AcDbSymbolTableRecord
100
AcDbRegAppTableRecord
  2
AcadAnnotative
 70
     0
  0
APPID
  5
1E
330
9
100
AcDbSymbolTableRecord
100
AcDbRegAppTableRecord
  2
AcCmTransparency
 70
     0
  0
APPID
  5
30
330
9
100
AcDbSymbolTableRecord
100
AcDbRegAppTableRecord
  2
OPENCAD_AEC
 70
     0
  0
ENDTAB
  0
TABLE
  2
DIMSTYLE
  5
A
330
0
100
AcDbSymbolTable
 70
     1
100
AcDbDimStyleTable
 71
     1
  0
DIMSTYLE
105
1B
330
A
100
AcDbSymbolTableRecord
100
AcDbDimStyleTableRecord
  2
Standard
 70
     0
 40
1.0
 41
0.18
 42
0.625
 43
3.75
 44
1.25
 45
0.0
 46
0.0
 47
0.0
 48
0.0
140
0.18
141
0.09
142
0.0
143
25.4
144
1.0
145
0.0
146
1.0
147
0.625
 71
     0
 72
     0
 73
     0
 74
     0
 75
     0
 76
     0
 77
     1
 78
     8
 79
     0
170
     0
171
     3
172
     0
173
     1
174
     0
175
     0
176
     0
177
     0
178
     0
179
     0
271
     2
272
     2
273
     2
274
     3
275
     0
276
     0
277
     2
278
    46
279
     0
280
     0
281
     0
282
     0
283
     0
284
     8
285
     0
286
     0
288
     0
289
     3
340
14
371
    -2
372
    -2
  0
ENDTAB
  0
TABLE
  2
BLOCK_RECORD
  5
1
330
0
100
AcDbSymbolTable
 70
     2
  0
BLOCK_RECORD
  5
15
330
1
100
AcDbSymbolTableRecord
100
AcDbBlockTableRecord
  2
*Model_Space
 70
     0
280
1
281
     0
  0
BLOCK_RECORD
  5
18
330
1
100
AcDbSymbolTableRecord
100
AcDbBlockTableRecord
  2
*Paper_Space
 70
     0
280
1
281
     0
  0
ENDTAB
  0
ENDSEC
  0
SECTION
  2
BLOCKS
  0
BLOCK
  5
16
330
15
100
AcDbEntity
  8
0
100
AcDbBlockBegin
  2
*Model_Space
 70
     0
 10
0.0
 20
0.0
 30
0.0
  3
*Model_Space
  1

  0
ENDBLK
  5
17
330
15
100
AcDbEntity
  8
0
100
AcDbBlockEnd
  0
BLOCK
  5
19
330
18
100
AcDbEntity
 67
     1
  8
0
100
AcDbBlockBegin
  2
*Paper_Space
 70
     0
 10
0.0
 20
0.0
 30
0.0
  3
*Paper_Space
  1

  0
ENDBLK
  5
1A
330
18
100
AcDbEntity
 67
     1
  8
0
100
AcDbBlockEnd
  0
ENDSEC
  0
SECTION
  2
ENTITIES
  0
LWPOLYLINE
  5
31
330
15
100
AcDbEntity
  8
AEC_WALL_AXIS
100
AcDbPolyline
 90
     2
 70
     0
 38
0.0
 10
0.0
 20
0.0
 40
0.0
 41
0.0
 42
0.0
 10
5.0
 20
0.0
 40
0.0
 41
0.0
 42
0.0
1001
OPENCAD_AEC
1000
WALL
1000
style1
1041
3.0
1071
     0
1071
     1
1000
Concrete
1041
0.2
1000
Structural
1071
     3
1005
34
1005
3B
1005
3C
1000
Center
1000
axis_offset
1041
-0.1
1041
0.0
1041
0.0
1000

1000

1000
layer_id
1000
20c31aae-26e7-4566-9763-e0fd6617fe53
1000
New
1000
0
1041
0.0
1000

1000
planes
1000

1000

1041
0.0
1041
0.0
1041
0.0
1041
0.0
1041
0.0
1041
0.0
1041
0.0
1041
1.0
1041
0.0
1041
0.0
1041
0.0
1041
0.0
1041
0.0
1041
1.0
1001
OPENCAD_AEC
1000
JOINED_PEERS
1005
32
  0
LWPOLYLINE
  5
32
330
15
100
AcDbEntity
  8
AEC_WALL_AXIS
100
AcDbPolyline
 90
     2
 70
     0
 38
0.0
 10
5.0
 20
0.0
 40
0.0
 41
0.0
 42
0.0
 10
5.0
 20
5.0
 40
0.0
 41
0.0
 42
0.0
1001
OPENCAD_AEC
1000
WALL
1000
style1
1041
3.0
1071
     0
1071
     1
1000
Concrete
1041
0.2
1000
Structural
1071
     3
1005
38
1005
3D
1005
3E
1000
Center
1000
axis_offset
1041
-0.1
1041
0.0
1041
0.0
1000

1000

1000
layer_id
1000
1fb84f0d-b23a-40be-8592-f1a73159618d
1000
New
1000
0
1041
0.0
1000

1000
planes
1000

1000

1041
0.0
1041
0.0
1041
0.0
1041
0.0
1041
0.0
1041
0.0
1041
0.0
1041
1.0
1041
0.0
1041
0.0
1041
0.0
1041
0.0
1041
0.0
1041
1.0
1001
OPENCAD_AEC
1000
JOINED_PEERS
1005
31
  0
LWPOLYLINE
  5
34
330
15
100
AcDbEntity
  8
0
100
AcDbPolyline
 90
     4
 70
     1
 38
0.0
 10
0.0
 20
-0.1
 40
0.0
 41
0.0
 42
0.0
 10
5.100000000000023
 20
-0.1
 40
0.0
 41
0.0
 42
0.0
 10
4.900000000000034
 20
0.1
 40
0.0
 41
0.0
 42
0.0
 10
0.0
 20
0.1
 40
0.0
 41
0.0
 42
0.0
1001
OPENCAD_AEC
1000
WALL_REP
1005
31
1000
contour
  0
POINT
  5
37
330
15
100
AcDbEntity
  8
0
100
AcDbPoint
 10
0.0
 20
0.0
 30
0.0
1001
OPENCAD_AEC
1000
STOREY
1071
     0
1000
Level 1
1040
0.0
1040
3.0
1001
OPENCAD_AEC
1000
CHILD_HANDLES
1005
31
1005
32
1005
40
1005
41
1005
61
1005
62
1005
8C
1005
8D
1005
BD
1005
BE
1005
E1
1005
E2
1005
E3
1005
F4
1005
F5
  0
LWPOLYLINE
  5
38
330
15
100
AcDbEntity
  8
0
100
AcDbPolyline
 90
     4
 70
     1
 38
0.0
 10
5.1
 20
-0.10000000000002274
 40
0.0
 41
0.0
 42
0.0
 10
5.1
 20
5.0
 40
0.0
 41
0.0
 42
0.0
 10
4.9
 20
5.0
 40
0.0
 41
0.0
 42
0.0
 10
4.9
 20
0.0999999999999659
 40
0.0
 41
0.0
 42
0.0
1001
OPENCAD_AEC
1000
WALL_REP
1005
32
1000
contour
  0
HATCH
  5
3B
330
15
100
AcDbEntity
  8
0
100
AcDbHatch
 10
0.0
 20
0.0
 30
0.0
210
0.0
220
0.0
230
1.0
  2
ANSI31
 70
     0
 71
     0
 91
     1
 92
    19
 72
     0
 73
     1
 93
     5
 10
0.0
 20
-0.1
 10
5.100000000000023
 20
-0.1
 10
4.900000000000034
 20
0.1
 10
0.0
 20
0.1
 10
0.0
 20
-0.1
 97
     0
 75
     0
 76
     1
 52
0.0
 41
1.0
 77
     0
 78
     0
 98
     0
1001
OPENCAD_AEC
1000
WALL_REP
1005
31
1000
hatch
  0
3DSOLID
  5
3C
330
15
100
AcDbEntity
  8
0
100
AcDbModelerGeometry
290
     0
  2
{00000000-0000-0000-0000-000000000000}
100
AcDb3dSolid
350
0
1001
OPENCAD_AEC
1000
WALL_REP
1005
31
1000
solid
  0
HATCH
  5
3D
330
15
100
AcDbEntity
  8
0
100
AcDbHatch
 10
0.0
 20
0.0
 30
0.0
210
0.0
220
0.0
230
1.0
  2
ANSI31
 70
     0
 71
     0
 91
     1
 92
    19
 72
     0
 73
     1
 93
     5
 10
5.1
 20
-0.10000000000002274
 10
5.1
 20
5.0
 10
4.9
 20
5.0
 10
4.9
 20
0.0999999999999659
 10
5.1
 20
-0.10000000000002274
 97
     0
 75
     0
 76
     1
 52
90.00000250447816
 41
1.0
 77
     0
 78
     0
 98
     0
1001
OPENCAD_AEC
1000
WALL_REP
1005
32
1000
hatch
  0
3DSOLID
  5
3E
330
15
100
AcDbEntity
  8
0
100
AcDbModelerGeometry
290
     0
  2
{00000000-0000-0000-0000-000000000000}
100
AcDb3dSolid
350
0
1001
OPENCAD_AEC
1000
WALL_REP
1005
32
1000
solid
  0
MTEXT
  5
3F
330
15
100
AcDbEntity
  8
0
100
AcDbMText
 10
0.0
 20
-1.4
 30
0.0
 40
0.28
 41
10.0
 71
     1
 72
     1
  1
L einschalig\PStil: style1 (Concrete)\PVerbindung: L, Standard-Miter\POverride: keiner
  7
Standard
 73
     1
 44
1.0
  0
LWPOLYLINE
  5
40
330
15
100
AcDbEntity
  8
AEC_WALL_AXIS
100
AcDbPolyline
 90
     2
 70
     0
 38
0.0
 10
10.0
 20
0.0
 40
0.0
 41
0.0
 42
0.0
 10
16.0
 20
0.0
 40
0.0
 41
0.0
 42
0.0
1001
OPENCAD_AEC
1000
WALL
1000
style1
1041
3.0
1071
     0
1071
     3
1000
Putz
1041
0.015
1000
Finish
1000
Mauerwerk
1041
0.24
1000
Structural
1000
Putz
1041
0.015
1000
Finish
1071
     9
1005
48
1005
54
1005
55
1005
45
1005
56
1005
57
1005
42
1005
58
1005
59
1000
Center
1000
axis_offset
1041
-0.135
1041
0.0
1041
0.0
1041
-0.12000000000000001
1041
0.0
1041
0.0
1041
0.11999999999999998
1041
0.0
1041
0.0
1000

1000

1000

1000
DOTS
1000
ANSI31
1000
DOTS
1000
layer_id
1000
e94eca81-4133-44ec-8f1f-97b291c30978
1000
c41f5859-bf96-4e45-9b7c-916018aad9c8
1000
1ccdb837-99fc-45da-b4ba-e3939532f367
1000
New
1000
0
1041
0.0
1000

1000
planes
1000

1000

1041
0.0
1041
0.0
1041
0.0
1041
0.0
1041
0.0
1041
0.0
1041
0.0
1041
1.0
1041
0.0
1041
0.0
1041
0.0
1041
0.0
1041
0.0
1041
1.0
1001
OPENCAD_AEC
1000
JOINED_PEERS
1005
41
  0
LWPOLYLINE
  5
41
330
15
100
AcDbEntity
  8
AEC_WALL_AXIS
100
AcDbPolyline
 90
     2
 70
     0
 38
0.0
 10
16.0
 20
0.0
 40
0.0
 41
0.0
 42
0.0
 10
16.0
 20
5.0
 40
0.0
 41
0.0
 42
0.0
1001
OPENCAD_AEC
1000
WALL
1000
style1
1041
3.0
1071
     0
1071
     3
1000
Putz
1041
0.015
1000
Finish
1000
Mauerwerk
1041
0.24
1000
Structural
1000
Putz
1041
0.015
1000
Finish
1071
     9
1005
51
1005
5A
1005
5B
1005
4E
1005
5C
1005
5D
1005
4B
1005
5E
1005
5F
1000
Center
1000
axis_offset
1041
-0.135
1041
0.0
1041
0.0
1041
-0.12000000000000001
1041
0.0
1041
0.0
1041
0.11999999999999998
1041
0.0
1041
0.0
1000

1000

1000

1000
DOTS
1000
ANSI31
1000
DOTS
1000
layer_id
1000
69313de0-b4db-4a7c-b63b-a6546c7389ee
1000
1b63b18e-6361-492e-8d6f-46be60e85aa9
1000
cb343268-d3e6-4760-8641-134083ea9028
1000
New
1000
0
1041
0.0
1000

1000
planes
1000

1000

1041
0.0
1041
0.0
1041
0.0
1041
0.0
1041
0.0
1041
0.0
1041
0.0
1041
1.0
1041
0.0
1041
0.0
1041
0.0
1041
0.0
1041
0.0
1041
1.0
1001
OPENCAD_AEC
1000
JOINED_PEERS
1005
40
  0
LWPOLYLINE
  5
42
330
15
100
AcDbEntity
  8
0
 62
     9
420
13158596
100
AcDbPolyline
 90
     4
 70
     1
 38
0.0
 10
10.0
 20
0.11999999999999998
 40
0.0
 41
0.0
 42
0.0
 10
15.88000000000011
 20
0.11999999999999998
 40
0.0
 41
0.0
 42
0.0
 10
15.864999999999895
 20
0.13499999999999998
 40
0.0
 41
0.0
 42
0.0
 10
10.0
 20
0.13499999999999998
 40
0.0
 41
0.0
 42
0.0
1001
OPENCAD_AEC
1000
WALL_REP
1005
40
1000
contour
  0
LWPOLYLINE
  5
45
330
15
100
AcDbEntity
  8
0
 62
    45
420
9139029
100
AcDbPolyline
 90
     4
 70
     1
 38
0.0
 10
10.0
 20
-0.12000000000000001
 40
0.0
 41
0.0
 42
0.0
 10
16.11999999999989
 20
-0.12000000000000001
 40
0.0
 41
0.0
 42
0.0
 10
15.88000000000011
 20
0.11999999999999998
 40
0.0
 41
0.0
 42
0.0
 10
10.0
 20
0.11999999999999998
 40
0.0
 41
0.0
 42
0.0
1001
OPENCAD_AEC
1000
WALL_REP
1005
40
1000
contour
  0
LWPOLYLINE
  5
48
330
15
100
AcDbEntity
  8
0
 62
     9
420
13158596
100
AcDbPolyline
 90
     4
 70
     1
 38
0.0
 10
10.0
 20
-0.135
 40
0.0
 41
0.0
 42
0.0
 10
16.135000000000105
 20
-0.135
 40
0.0
 41
0.0
 42
0.0
 10
16.11999999999989
 20
-0.12000000000000001
 40
0.0
 41
0.0
 42
0.0
 10
10.0
 20
-0.12000000000000001
 40
0.0
 41
0.0
 42
0.0
1001
OPENCAD_AEC
1000
WALL_REP
1005
40
1000
contour
  0
LWPOLYLINE
  5
4B
330
15
100
AcDbEntity
  8
0
 62
     9
420
13158596
100
AcDbPolyline
 90
     4
 70
     1
 38
0.0
 10
15.88
 20
0.1199999999999477
 40
0.0
 41
0.0
 42
0.0
 10
15.88
 20
5.0
 40
0.0
 41
0.0
 42
0.0
 10
15.865
 20
5.0
 40
0.0
 41
0.0
 42
0.0
 10
15.865
 20
0.13499999999993406
 40
0.0
 41
0.0
 42
0.0
1001
OPENCAD_AEC
1000
WALL_REP
1005
41
1000
contour
  0
LWPOLYLINE
  5
4E
330
15
100
AcDbEntity
  8
0
 62
    45
420
9139029
100
AcDbPolyline
 90
     4
 70
     1
 38
0.0
 10
16.12
 20
-0.1199999999999477
 40
0.0
 41
0.0
 42
0.0
 10
16.12
 20
5.0
 40
0.0
 41
0.0
 42
0.0
 10
15.88
 20
5.0
 40
0.0
 41
0.0
 42
0.0
 10
15.88
 20
0.1199999999999477
 40
0.0
 41
0.0
 42
0.0
1001
OPENCAD_AEC
1000
WALL_REP
1005
41
1000
contour
  0
LWPOLYLINE
  5
51
330
15
100
AcDbEntity
  8
0
 62
     9
420
13158596
100
AcDbPolyline
 90
     4
 70
     1
 38
0.0
 10
16.135
 20
-0.13499999999987722
 40
0.0
 41
0.0
 42
0.0
 10
16.135
 20
5.0
 40
0.0
 41
0.0
 42
0.0
 10
16.12
 20
5.0
 40
0.0
 41
0.0
 42
0.0
 10
16.12
 20
-0.1199999999999477
 40
0.0
 41
0.0
 42
0.0
1001
OPENCAD_AEC
1000
WALL_REP
1005
41
1000
contour
  0
HATCH
  5
54
330
15
100
AcDbEntity
  8
0
 62
   253
420
11842736
440
33554687
100
AcDbHatch
 10
0.0
 20
0.0
 30
0.0
210
0.0
220
0.0
230
1.0
  2
DOTS
 70
     0
 71
     0
 91
     1
 92
    19
 72
     0
 73
     1
 93
     5
 10
10.0
 20
-0.135
 10
16.135000000000105
 20
-0.135
 10
16.11999999999989
 20
-0.12000000000000001
 10
10.0
 20
-0.12000000000000001
 10
10.0
 20
-0.135
 97
     0
 75
     0
 76
     1
 52
0.0
 41
0.0012000000569969416
 77
     0
 78
     0
 98
     0
1001
OPENCAD_AEC
1000
WALL_REP
1005
40
1000
hatch
  0
3DSOLID
  5
55
330
15
100
AcDbEntity
  8
0
100
AcDbModelerGeometry
290
     0
  2
{00000000-0000-0000-0000-000000000000}
100
AcDb3dSolid
350
0
1001
OPENCAD_AEC
1000
WALL_REP
1005
40
1000
solid
  0
HATCH
  5
56
330
15
100
AcDbEntity
  8
0
 62
    45
420
9139029
440
33554687
100
AcDbHatch
 10
0.0
 20
0.0
 30
0.0
210
0.0
220
0.0
230
1.0
  2
ANSI31
 70
     0
 71
     0
 91
     1
 92
    19
 72
     0
 73
     1
 93
     5
 10
10.0
 20
-0.12000000000000001
 10
16.11999999999989
 20
-0.12000000000000001
 10
15.88000000000011
 20
0.11999999999999998
 10
10.0
 20
0.11999999999999998
 10
10.0
 20
-0.12000000000000001
 97
     0
 75
     0
 76
     1
 52
0.0
 41
0.0024999999441206455
 77
     0
 78
     0
 98
     0
1001
OPENCAD_AEC
1000
WALL_REP
1005
40
1000
hatch
  0
3DSOLID
  5
57
330
15
100
AcDbEntity
  8
0
100
AcDbModelerGeometry
290
     0
  2
{00000000-0000-0000-0000-000000000000}
100
AcDb3dSolid
350
0
1001
OPENCAD_AEC
1000
WALL_REP
1005
40
1000
solid
  0
HATCH
  5
58
330
15
100
AcDbEntity
  8
0
 62
   253
420
11842736
440
33554687
100
AcDbHatch
 10
0.0
 20
0.0
 30
0.0
210
0.0
220
0.0
230
1.0
  2
DOTS
 70
     0
 71
     0
 91
     1
 92
    19
 72
     0
 73
     1
 93
     5
 10
10.0
 20
0.11999999999999998
 10
15.88000000000011
 20
0.11999999999999998
 10
15.864999999999895
 20
0.13499999999999998
 10
10.0
 20
0.13499999999999998
 10
10.0
 20
0.11999999999999998
 97
     0
 75
     0
 76
     1
 52
0.0
 41
0.0012000000569969416
 77
     0
 78
     0
 98
     0
1001
OPENCAD_AEC
1000
WALL_REP
1005
40
1000
hatch
  0
3DSOLID
  5
59
330
15
100
AcDbEntity
  8
0
100
AcDbModelerGeometry
290
     0
  2
{00000000-0000-0000-0000-000000000000}
100
AcDb3dSolid
350
0
1001
OPENCAD_AEC
1000
WALL_REP
1005
40
1000
solid
  0
HATCH
  5
5A
330
15
100
AcDbEntity
  8
0
 62
   253
420
11842736
440
33554687
100
AcDbHatch
 10
0.0
 20
0.0
 30
0.0
210
0.0
220
0.0
230
1.0
  2
DOTS
 70
     0
 71
     0
 91
     1
 92
    19
 72
     0
 73
     1
 93
     5
 10
16.135
 20
-0.13499999999987722
 10
16.135
 20
5.0
 10
16.12
 20
5.0
 10
16.12
 20
-0.1199999999999477
 10
16.135
 20
-0.13499999999987722
 97
     0
 75
     0
 76
     1
 52
90.00000250447816
 41
0.0012000000569969416
 77
     0
 78
     0
 98
     0
1001
OPENCAD_AEC
1000
WALL_REP
1005
41
1000
hatch
  0
3DSOLID
  5
5B
330
15
100
AcDbEntity
  8
0
100
AcDbModelerGeometry
290
     0
  2
{00000000-0000-0000-0000-000000000000}
100
AcDb3dSolid
350
0
1001
OPENCAD_AEC
1000
WALL_REP
1005
41
1000
solid
  0
HATCH
  5
5C
330
15
100
AcDbEntity
  8
0
 62
    45
420
9139029
440
33554687
100
AcDbHatch
 10
0.0
 20
0.0
 30
0.0
210
0.0
220
0.0
230
1.0
  2
ANSI31
 70
     0
 71
     0
 91
     1
 92
    19
 72
     0
 73
     1
 93
     5
 10
16.12
 20
-0.1199999999999477
 10
16.12
 20
5.0
 10
15.88
 20
5.0
 10
15.88
 20
0.1199999999999477
 10
16.12
 20
-0.1199999999999477
 97
     0
 75
     0
 76
     1
 52
90.00000250447816
 41
0.0024999999441206455
 77
     0
 78
     0
 98
     0
1001
OPENCAD_AEC
1000
WALL_REP
1005
41
1000
hatch
  0
3DSOLID
  5
5D
330
15
100
AcDbEntity
  8
0
100
AcDbModelerGeometry
290
     0
  2
{00000000-0000-0000-0000-000000000000}
100
AcDb3dSolid
350
0
1001
OPENCAD_AEC
1000
WALL_REP
1005
41
1000
solid
  0
HATCH
  5
5E
330
15
100
AcDbEntity
  8
0
 62
   253
420
11842736
440
33554687
100
AcDbHatch
 10
0.0
 20
0.0
 30
0.0
210
0.0
220
0.0
230
1.0
  2
DOTS
 70
     0
 71
     0
 91
     1
 92
    19
 72
     0
 73
     1
 93
     5
 10
15.88
 20
0.1199999999999477
 10
15.88
 20
5.0
 10
15.865
 20
5.0
 10
15.865
 20
0.13499999999993406
 10
15.88
 20
0.1199999999999477
 97
     0
 75
     0
 76
     1
 52
90.00000250447816
 41
0.0012000000569969416
 77
     0
 78
     0
 98
     0
1001
OPENCAD_AEC
1000
WALL_REP
1005
41
1000
hatch
  0
3DSOLID
  5
5F
330
15
100
AcDbEntity
  8
0
100
AcDbModelerGeometry
290
     0
  2
{00000000-0000-0000-0000-000000000000}
100
AcDb3dSolid
350
0
1001
OPENCAD_AEC
1000
WALL_REP
1005
41
1000
solid
  0
MTEXT
  5
60
330
15
100
AcDbEntity
  8
0
100
AcDbMText
 10
10.0
 20
-1.4
 30
0.0
 40
0.28
 41
10.0
 71
     1
 72
     1
  1
L dreischalig\PStil: style1 (Putz+Mauerwerk+Putz)\PVerbindung: L, Standard-Miter\POverride: keiner
  7
Standard
 73
     1
 44
1.0
  0
LWPOLYLINE
  5
61
330
15
100
AcDbEntity
  8
AEC_WALL_AXIS
100
AcDbPolyline
 90
     2
 70
     0
 38
0.0
 10
20.0
 20
0.0
 40
0.0
 41
0.0
 42
0.0
 10
26.0
 20
0.0
 40
0.0
 41
0.0
 42
0.0
1001
OPENCAD_AEC
1000
WALL
1000
style1
1041
3.0
1071
     0
1071
     4
1000
Putz
1041
0.015
1000
Finish
1000
Mauerwerk
1041
0.24
1000
Structural
1000
Insulation
1041
0.12
1000
Insulation
1000
Putz
1041
0.015
1000
Finish
1071
    12
1005
6C
1005
7B
1005
7C
1005
69
1005
7D
1005
7E
1005
66
1005
7F
1005
80
1005
63
1005
81
1005
82
1000
Center
1000
axis_offset
1041
-0.195
1041
0.0
1041
0.0
1041
-0.18
1041
0.0
1041
0.0
1041
0.06
1041
0.0
1041
0.0
1041
0.18
1041
0.0
1041
0.0
1000

1000

1000

1000

1000
DOTS
1000
ANSI31
1000

1000
DOTS
1000
layer_id
1000
a497693a-2ca2-4e64-a362-e89dde866d39
1000
1fca686d-ab20-4818-9bbd-66bf1c57ff60
1000
83f64efb-d3d2-4185-914f-89b5c47707d4
1000
9f779731-c738-4676-a5b1-8a8e8a035c5d
1000
New
1000
0
1041
0.0
1000

1000
planes
1000

1000

1041
0.0
1041
0.0
1041
0.0
1041
0.0
1041
0.0
1041
0.0
1041
0.0
1041
1.0
1041
0.0
1041
0.0
1041
0.0
1041
0.0
1041
0.0
1041
1.0
1001
OPENCAD_AEC
1000
JOINED_PEERS
1005
62
  0
LWPOLYLINE
  5
62
330
15
100
AcDbEntity
  8
AEC_WALL_AXIS
100
AcDbPolyline
 90
     2
 70
     0
 38
0.0
 10
26.0
 20
0.0
 40
0.0
 41
0.0
 42
0.0
 10
26.0
 20
5.0
 40
0.0
 41
0.0
 42
0.0
1001
OPENCAD_AEC
1000
WALL
1000
style1
1041
3.0
1071
     0
1071
     4
1000
Putz
1041
0.015
1000
Finish
1000
Mauerwerk
1041
0.24
1000
Structural
1000
Insulation
1041
0.12
1000
Insulation
1000
Putz
1041
0.015
1000
Finish
1071
    12
1005
78
1005
83
1005
84
1005
75
1005
85
1005
86
1005
72
1005
87
1005
88
1005
6F
1005
89
1005
8A
1000
Center
1000
axis_offset
1041
-0.195
1041
0.0
1041
0.0
1041
-0.18
1041
0.0
1041
0.0
1041
0.06
1041
0.0
1041
0.0
1041
0.18
1041
0.0
1041
0.0
1000

1000

1000

1000

1000
DOTS
1000
ANSI31
1000

1000
DOTS
1000
layer_id
1000
215ef5ba-3116-49b9-b054-32ea8cc4f707
1000
9430daf2-862b-408f-963e-ec36b097b6ee
1000
d7e0a155-2b5e-4ece-84fb-629fcc02311a
1000
c2795fbc-492a-4cb0-af6b-6980cdc463d1
1000
New
1000
0
1041
0.0
1000

1000
planes
1000

1000

1041
0.0
1041
0.0
1041
0.0
1041
0.0
1041
0.0
1041
0.0
1041
0.0
1041
1.0
1041
0.0
1041
0.0
1041
0.0
1041
0.0
1041
0.0
1041
1.0
1001
OPENCAD_AEC
1000
JOINED_PEERS
1005
61
  0
LWPOLYLINE
  5
63
330
15
100
AcDbEntity
  8
0
 62
     9
420
13158596
100
AcDbPolyline
 90
     4
 70
     1
 38
0.0
 10
20.0
 20
0.18
 40
0.0
 41
0.0
 42
0.0
 10
25.820000000000164
 20
0.18
 40
0.0
 41
0.0
 42
0.0
 10
25.804999999999836
 20
0.195
 40
0.0
 41
0.0
 42
0.0
 10
20.0
 20
0.195
 40
0.0
 41
0.0
 42
0.0
1001
OPENCAD_AEC
1000
WALL_REP
1005
61
1000
contour
  0
LWPOLYLINE
  5
66
330
15
100
AcDbEntity
  8
0
 62
    45
420
9139029
100
AcDbPolyline
 90
     4
 70
     1
 38
0.0
 10
20.0
 20
0.06
 40
0.0
 41
0.0
 42
0.0
 10
25.94000000000017
 20
0.06
 40
0.0
 41
0.0
 42
0.0
 10
25.820000000000164
 20
0.18
 40
0.0
 41
0.0
 42
0.0
 10
20.0
 20
0.18
 40
0.0
 41
0.0
 42
0.0
1001
OPENCAD_AEC
1000
WALL_REP
1005
61
1000
contour
  0
LWPOLYLINE
  5
69
330
15
100
AcDbEntity
  8
0
 62
    45
420
9139029
100
AcDbPolyline
 90
     4
 70
     1
 38
0.0
 10
20.0
 20
-0.18
 40
0.0
 41
0.0
 42
0.0
 10
26.179999999999836
 20
-0.18
 40
0.0
 41
0.0
 42
0.0
 10
25.94000000000017
 20
0.06
 40
0.0
 41
0.0
 42
0.0
 10
20.0
 20
0.06
 40
0.0
 41
0.0
 42
0.0
1001
OPENCAD_AEC
1000
WALL_REP
1005
61
1000
contour
  0
LWPOLYLINE
  5
6C
330
15
100
AcDbEntity
  8
0
 62
     9
420
13158596
100
AcDbPolyline
 90
     4
 70
     1
 38
0.0
 10
20.0
 20
-0.195
 40
0.0
 41
0.0
 42
0.0
 10
26.195000000000164
 20
-0.195
 40
0.0
 41
0.0
 42
0.0
 10
26.179999999999836
 20
-0.18
 40
0.0
 41
0.0
 42
0.0
 10
20.0
 20
-0.18
 40
0.0
 41
0.0
 42
0.0
1001
OPENCAD_AEC
1000
WALL_REP
1005
61
1000
contour
  0
LWPOLYLINE
  5
6F
330
15
100
AcDbEntity
  8
0
 62
     9
420
13158596
100
AcDbPolyline
 90
     4
 70
     1
 38
0.0
 10
25.82
 20
0.17999999999994998
 40
0.0
 41
0.0
 42
0.0
 10
25.82
 20
5.0
 40
0.0
 41
0.0
 42
0.0
 10
25.805
 20
5.0
 40
0.0
 41
0.0
 42
0.0
 10
25.805
 20
0.19500000000005002
 40
0.0
 41
0.0
 42
0.0
1001
OPENCAD_AEC
1000
WALL_REP
1005
62
1000
contour
  0
LWPOLYLINE
  5
72
330
15
100
AcDbEntity
  8
0
 62
    45
420
9139029
100
AcDbPolyline
 90
     4
 70
     1
 38
0.0
 10
25.94
 20
0.05999999999994543
 40
0.0
 41
0.0
 42
0.0
 10
25.94
 20
5.0
 40
0.0
 41
0.0
 42
0.0
 10
25.82
 20
5.0
 40
0.0
 41
0.0
 42
0.0
 10
25.82
 20
0.17999999999994998
 40
0.0
 41
0.0
 42
0.0
1001
OPENCAD_AEC
1000
WALL_REP
1005
62
1000
contour
  0
LWPOLYLINE
  5
75
330
15
100
AcDbEntity
  8
0
 62
    45
420
9139029
100
AcDbPolyline
 90
     4
 70
     1
 38
0.0
 10
26.18
 20
-0.17999999999994998
 40
0.0
 41
0.0
 42
0.0
 10
26.18
 20
5.0
 40
0.0
 41
0.0
 42
0.0
 10
25.94
 20
5.0
 40
0.0
 41
0.0
 42
0.0
 10
25.94
 20
0.05999999999994543
 40
0.0
 41
0.0
 42
0.0
1001
OPENCAD_AEC
1000
WALL_REP
1005
62
1000
contour
  0
LWPOLYLINE
  5
78
330
15
100
AcDbEntity
  8
0
 62
     9
420
13158596
100
AcDbPolyline
 90
     4
 70
     1
 38
0.0
 10
26.195
 20
-0.19499999999999318
 40
0.0
 41
0.0
 42
0.0
 10
26.195
 20
5.0
 40
0.0
 41
0.0
 42
0.0
 10
26.18
 20
5.0
 40
0.0
 41
0.0
 42
0.0
 10
26.18
 20
-0.17999999999994998
 40
0.0
 41
0.0
 42
0.0
1001
OPENCAD_AEC
1000
WALL_REP
1005
62
1000
contour
  0
HATCH
  5
7B
330
15
100
AcDbEntity
  8
0
 62
   253
420
11842736
440
33554687
100
AcDbHatch
 10
0.0
 20
0.0
 30
0.0
210
0.0
220
0.0
230
1.0
  2
DOTS
 70
     0
 71
     0
 91
     1
 92
    19
 72
     0
 73
     1
 93
     5
 10
20.0
 20
-0.195
 10
26.195000000000164
 20
-0.195
 10
26.179999999999836
 20
-0.18
 10
20.0
 20
-0.18
 10
20.0
 20
-0.195
 97
     0
 75
     0
 76
     1
 52
0.0
 41
0.0012000000569969416
 77
     0
 78
     0
 98
     0
1001
OPENCAD_AEC
1000
WALL_REP
1005
61
1000
hatch
  0
3DSOLID
  5
7C
330
15
100
AcDbEntity
  8
0
100
AcDbModelerGeometry
290
     0
  2
{00000000-0000-0000-0000-000000000000}
100
AcDb3dSolid
350
0
1001
OPENCAD_AEC
1000
WALL_REP
1005
61
1000
solid
  0
HATCH
  5
7D
330
15
100
AcDbEntity
  8
0
 62
    45
420
9139029
440
33554687
100
AcDbHatch
 10
0.0
 20
0.0
 30
0.0
210
0.0
220
0.0
230
1.0
  2
ANSI31
 70
     0
 71
     0
 91
     1
 92
    19
 72
     0
 73
     1
 93
     5
 10
20.0
 20
-0.18
 10
26.179999999999836
 20
-0.18
 10
25.94000000000017
 20
0.06
 10
20.0
 20
0.06
 10
20.0
 20
-0.18
 97
     0
 75
     0
 76
     1
 52
0.0
 41
0.0024999999441206455
 77
     0
 78
     0
 98
     0
1001
OPENCAD_AEC
1000
WALL_REP
1005
61
1000
hatch
  0
3DSOLID
  5
7E
330
15
100
AcDbEntity
  8
0
100
AcDbModelerGeometry
290
     0
  2
{00000000-0000-0000-0000-000000000000}
100
AcDb3dSolid
350
0
1001
OPENCAD_AEC
1000
WALL_REP
1005
61
1000
solid
  0
HATCH
  5
7F
330
15
100
AcDbEntity
  8
0
100
AcDbHatch
 10
0.0
 20
0.0
 30
0.0
210
0.0
220
0.0
230
1.0
  2
ANSI31
 70
     0
 71
     0
 91
     1
 92
    19
 72
     0
 73
     1
 93
     5
 10
20.0
 20
0.06
 10
25.94000000000017
 20
0.06
 10
25.820000000000164
 20
0.18
 10
20.0
 20
0.18
 10
20.0
 20
0.06
 97
     0
 75
     0
 76
     1
 52
0.0
 41
1.0
 77
     0
 78
     0
 98
     0
1001
OPENCAD_AEC
1000
WALL_REP
1005
61
1000
hatch
  0
3DSOLID
  5
80
330
15
100
AcDbEntity
  8
0
100
AcDbModelerGeometry
290
     0
  2
{00000000-0000-0000-0000-000000000000}
100
AcDb3dSolid
350
0
1001
OPENCAD_AEC
1000
WALL_REP
1005
61
1000
solid
  0
HATCH
  5
81
330
15
100
AcDbEntity
  8
0
 62
   253
420
11842736
440
33554687
100
AcDbHatch
 10
0.0
 20
0.0
 30
0.0
210
0.0
220
0.0
230
1.0
  2
DOTS
 70
     0
 71
     0
 91
     1
 92
    19
 72
     0
 73
     1
 93
     5
 10
20.0
 20
0.18
 10
25.820000000000164
 20
0.18
 10
25.804999999999836
 20
0.195
 10
20.0
 20
0.195
 10
20.0
 20
0.18
 97
     0
 75
     0
 76
     1
 52
0.0
 41
0.0012000000569969416
 77
     0
 78
     0
 98
     0
1001
OPENCAD_AEC
1000
WALL_REP
1005
61
1000
hatch
  0
3DSOLID
  5
82
330
15
100
AcDbEntity
  8
0
100
AcDbModelerGeometry
290
     0
  2
{00000000-0000-0000-0000-000000000000}
100
AcDb3dSolid
350
0
1001
OPENCAD_AEC
1000
WALL_REP
1005
61
1000
solid
  0
HATCH
  5
83
330
15
100
AcDbEntity
  8
0
 62
   253
420
11842736
440
33554687
100
AcDbHatch
 10
0.0
 20
0.0
 30
0.0
210
0.0
220
0.0
230
1.0
  2
DOTS
 70
     0
 71
     0
 91
     1
 92
    19
 72
     0
 73
     1
 93
     5
 10
26.195
 20
-0.19499999999999318
 10
26.195
 20
5.0
 10
26.18
 20
5.0
 10
26.18
 20
-0.17999999999994998
 10
26.195
 20
-0.19499999999999318
 97
     0
 75
     0
 76
     1
 52
90.00000250447816
 41
0.0012000000569969416
 77
     0
 78
     0
 98
     0
1001
OPENCAD_AEC
1000
WALL_REP
1005
62
1000
hatch
  0
3DSOLID
  5
84
330
15
100
AcDbEntity
  8
0
100
AcDbModelerGeometry
290
     0
  2
{00000000-0000-0000-0000-000000000000}
100
AcDb3dSolid
350
0
1001
OPENCAD_AEC
1000
WALL_REP
1005
62
1000
solid
  0
HATCH
  5
85
330
15
100
AcDbEntity
  8
0
 62
    45
420
9139029
440
33554687
100
AcDbHatch
 10
0.0
 20
0.0
 30
0.0
210
0.0
220
0.0
230
1.0
  2
ANSI31
 70
     0
 71
     0
 91
     1
 92
    19
 72
     0
 73
     1
 93
     5
 10
26.18
 20
-0.17999999999994998
 10
26.18
 20
5.0
 10
25.94
 20
5.0
 10
25.94
 20
0.05999999999994543
 10
26.18
 20
-0.17999999999994998
 97
     0
 75
     0
 76
     1
 52
90.00000250447816
 41
0.0024999999441206455
 77
     0
 78
     0
 98
     0
1001
OPENCAD_AEC
1000
WALL_REP
1005
62
1000
hatch
  0
3DSOLID
  5
86
330
15
100
AcDbEntity
  8
0
100
AcDbModelerGeometry
290
     0
  2
{00000000-0000-0000-0000-000000000000}
100
AcDb3dSolid
350
0
1001
OPENCAD_AEC
1000
WALL_REP
1005
62
1000
solid
  0
HATCH
  5
87
330
15
100
AcDbEntity
  8
0
100
AcDbHatch
 10
0.0
 20
0.0
 30
0.0
210
0.0
220
0.0
230
1.0
  2
ANSI31
 70
     0
 71
     0
 91
     1
 92
    19
 72
     0
 73
     1
 93
     5
 10
25.94
 20
0.05999999999994543
 10
25.94
 20
5.0
 10
25.82
 20
5.0
 10
25.82
 20
0.17999999999994998
 10
25.94
 20
0.05999999999994543
 97
     0
 75
     0
 76
     1
 52
90.00000250447816
 41
1.0
 77
     0
 78
     0
 98
     0
1001
OPENCAD_AEC
1000
WALL_REP
1005
62
1000
hatch
  0
3DSOLID
  5
88
330
15
100
AcDbEntity
  8
0
100
AcDbModelerGeometry
290
     0
  2
{00000000-0000-0000-0000-000000000000}
100
AcDb3dSolid
350
0
1001
OPENCAD_AEC
1000
WALL_REP
1005
62
1000
solid
  0
HATCH
  5
89
330
15
100
AcDbEntity
  8
0
 62
   253
420
11842736
440
33554687
100
AcDbHatch
 10
0.0
 20
0.0
 30
0.0
210
0.0
220
0.0
230
1.0
  2
DOTS
 70
     0
 71
     0
 91
     1
 92
    19
 72
     0
 73
     1
 93
     5
 10
25.82
 20
0.17999999999994998
 10
25.82
 20
5.0
 10
25.805
 20
5.0
 10
25.805
 20
0.19500000000005002
 10
25.82
 20
0.17999999999994998
 97
     0
 75
     0
 76
     1
 52
90.00000250447816
 41
0.0012000000569969416
 77
     0
 78
     0
 98
     0
1001
OPENCAD_AEC
1000
WALL_REP
1005
62
1000
hatch
  0
3DSOLID
  5
8A
330
15
100
AcDbEntity
  8
0
100
AcDbModelerGeometry
290
     0
  2
{00000000-0000-0000-0000-000000000000}
100
AcDb3dSolid
350
0
1001
OPENCAD_AEC
1000
WALL_REP
1005
62
1000
solid
  0
MTEXT
  5
8B
330
15
100
AcDbEntity
  8
0
100
AcDbMText
 10
20.0
 20
-1.4
 30
0.0
 40
0.28
 41
10.0
 71
     1
 72
     1
  1
L vierschalig\PStil: style1 (Putz+Mauerwerk+Insulation+Putz)\PVerbindung: L, Standard-Miter\POverride: keiner
  7
Standard
 73
     1
 44
1.0
  0
LWPOLYLINE
  5
8C
330
15
100
AcDbEntity
  8
AEC_WALL_AXIS
100
AcDbPolyline
 90
     2
 70
     0
 38
0.0
 10
0.0
 20
10.0
 40
0.0
 41
0.0
 42
0.0
 10
10.0
 20
10.0
 40
0.0
 41
0.0
 42
0.0
1001
OPENCAD_AEC
1000
WALL
1000
style1
1041
3.0
1071
     0
1071
     4
1000
Putz
1041
0.015
1000
Finish
1000
Mauerwerk
1041
0.24
1000
Structural
1000
Insulation
1041
0.12
1000
Insulation
1000
Putz
1041
0.015
1000
Finish
1071
    18
1005
97
1005
AE
1005
AF
1005
94
1005
B0
1005
B1
1005
91
1005
B2
1005
8E
1005
B3
1005
B4
1005
B5
1005
B6
1005
B7
1005
B8
1005
B9
1005
BA
1005
BB
1000
Center
1000
axis_offset
1041
-0.195
1041
0.0
1041
0.0
1041
-0.18
1041
0.0
1041
0.0
1041
0.06
1041
0.0
1041
0.0
1041
0.18
1041
0.0
1041
0.0
1000

1000

1000

1000

1000
DOTS
1000
ANSI31
1000

1000
DOTS
1000
layer_id
1000
7435348a-a6e3-480c-8312-3e13c8953205
1000
c62b4a3b-13fc-4784-88f9-eccbabc2dc0d
1000
e4863f75-958c-4e2b-aa25-3789f6076a2d
1000
19ac3ed4-547f-4247-b9f2-cf32847cf7fc
1000
New
1000
0
1041
0.0
1000

1000
planes
1000

1000

1041
0.0
1041
0.0
1041
0.0
1041
0.0
1041
0.0
1041
0.0
1041
0.0
1041
1.0
1041
0.0
1041
0.0
1041
0.0
1041
0.0
1041
0.0
1041
1.0
1001
OPENCAD_AEC
1000
JOINED_PEERS
1005
8D
  0
LWPOLYLINE
  5
8D
330
15
100
AcDbEntity
  8
AEC_WALL_AXIS
100
AcDbPolyline
 90
     2
 70
     0
 38
0.0
 10
5.0
 20
10.0
 40
0.0
 41
0.0
 42
0.0
 10
5.0
 20
16.0
 40
0.0
 41
0.0
 42
0.0
1001
OPENCAD_AEC
1000
WALL
1000
style1
1041
3.0
1071
     0
1071
     4
1000
Putz
1041
0.015
1000
Finish
1000
Mauerwerk
1041
0.24
1000
Structural
1000
Insulation
1041
0.12
1000
Insulation
1000
Putz
1041
0.015
1000
Finish
1071
    12
1005
A3
1005
A6
1005
A7
1005
A0
1005
A8
1005
A9
1005
9D
1005
AA
1005
AB
1005
9A
1005
AC
1005
AD
1000
Center
1000
axis_offset
1041
-0.195
1041
0.0
1041
0.0
1041
-0.18
1041
0.0
1041
0.0
1041
0.06
1041
0.0
1041
0.0
1041
0.18
1041
0.0
1041
0.0
1000

1000

1000

1000

1000
DOTS
1000
ANSI31
1000

1000
DOTS
1000
layer_id
1000
999fd4ea-b3d1-40a9-a310-467b5488d61c
1000
9847aee8-c8b2-4d2a-bb7e-f6810f9860fa
1000
2fa5757e-74f2-49fb-a4e0-78e54df58500
1000
1a4c4a00-60af-4815-ac7e-916d5d7aa51f
1000
New
1000
0
1041
0.0
1000

1000
planes
1000

1000

1041
0.0
1041
0.0
1041
0.0
1041
0.0
1041
0.0
1041
0.0
1041
0.0
1041
1.0
1041
0.0
1041
0.0
1041
0.0
1041
0.0
1041
0.0
1041
1.0
1001
OPENCAD_AEC
1000
JOINED_PEERS
1005
8C
  0
LWPOLYLINE
  5
8E
330
15
100
AcDbEntity
  8
0
 62
     9
420
13158596
100
AcDbPolyline
 90
     4
 70
     1
 38
0.0
 10
5.18
 20
10.06
 40
0.0
 41
0.0
 42
0.0
 10
10.0
 20
10.06
 40
0.0
 41
0.0
 42
0.0
 10
10.0
 20
10.18
 40
0.0
 41
0.0
 42
0.0
 10
5.18
 20
10.18
 40
0.0
 41
0.0
 42
0.0
1001
OPENCAD_AEC
1000
WALL_REP
1005
8C
1000
contour
  0
LWPOLYLINE
  5
91
330
15
100
AcDbEntity
  8
0
 62
    45
420
9139029
100
AcDbPolyline
 90
     4
 70
     1
 38
0.0
 10
0.0
 20
10.06
 40
0.0
 41
0.0
 42
0.0
 10
4.94
 20
10.06
 40
0.0
 41
0.0
 42
0.0
 10
4.82
 20
10.18
 40
0.0
 41
0.0
 42
0.0
 10
0.0
 20
10.18
 40
0.0
 41
0.0
 42
0.0
1001
OPENCAD_AEC
1000
WALL_REP
1005
8C
1000
contour
  0
LWPOLYLINE
  5
94
330
15
100
AcDbEntity
  8
0
 62
    45
420
9139029
100
AcDbPolyline
 90
     4
 70
     1
 38
0.0
 10
0.0
 20
9.82
 40
0.0
 41
0.0
 42
0.0
 10
10.0
 20
9.82
 40
0.0
 41
0.0
 42
0.0
 10
10.0
 20
10.06
 40
0.0
 41
0.0
 42
-0.0
 10
0.0
 20
10.06
 40
0.0
 41
0.0
 42
0.0
1001
OPENCAD_AEC
1000
WALL_REP
1005
8C
1000
contour
  0
LWPOLYLINE
  5
97
330
15
100
AcDbEntity
  8
0
 62
     9
420
13158596
100
AcDbPolyline
 90
     4
 70
     1
 38
0.0
 10
0.0
 20
9.805
 40
0.0
 41
0.0
 42
0.0
 10
10.0
 20
9.805
 40
0.0
 41
0.0
 42
0.0
 10
10.0
 20
9.82
 40
0.0
 41
0.0
 42
-0.0
 10
0.0
 20
9.82
 40
0.0
 41
0.0
 42
0.0
1001
OPENCAD_AEC
1000
WALL_REP
1005
8C
1000
contour
  0
LWPOLYLINE
  5
9A
330
15
100
AcDbEntity
  8
0
 62
     9
420
13158596
100
AcDbPolyline
 90
     4
 70
     1
 38
0.0
 10
4.82
 20
10.179999999999836
 40
0.0
 41
0.0
 42
0.0
 10
4.82
 20
16.0
 40
0.0
 41
0.0
 42
0.0
 10
4.805
 20
16.0
 40
0.0
 41
0.0
 42
0.0
 10
4.805
 20
10.195000000000164
 40
0.0
 41
0.0
 42
0.0
1001
OPENCAD_AEC
1000
WALL_REP
1005
8D
1000
contour
  0
LWPOLYLINE
  5
9D
330
15
100
AcDbEntity
  8
0
 62
    45
420
9139029
100
AcDbPolyline
 90
     4
 70
     1
 38
0.0
 10
4.94
 20
10.059999999999832
 40
0.0
 41
0.0
 42
0.0
 10
4.94
 20
16.0
 40
0.0
 41
0.0
 42
0.0
 10
4.82
 20
16.0
 40
0.0
 41
0.0
 42
0.0
 10
4.82
 20
10.179999999999836
 40
0.0
 41
0.0
 42
0.0
1001
OPENCAD_AEC
1000
WALL_REP
1005
8D
1000
contour
  0
LWPOLYLINE
  5
A0
330
15
100
AcDbEntity
  8
0
 62
    45
420
9139029
100
AcDbPolyline
 90
     4
 70
     1
 38
0.0
 10
5.18
 20
10.059999999999832
 40
0.0
 41
0.0
 42
0.0
 10
5.18
 20
16.0
 40
0.0
 41
0.0
 42
0.0
 10
4.94
 20
16.0
 40
0.0
 41
0.0
 42
0.0
 10
4.94
 20
10.059999999999832
 40
0.0
 41
0.0
 42
0.0
1001
OPENCAD_AEC
1000
WALL_REP
1005
8D
1000
contour
  0
LWPOLYLINE
  5
A3
330
15
100
AcDbEntity
  8
0
 62
     9
420
13158596
100
AcDbPolyline
 90
     4
 70
     1
 38
0.0
 10
5.195
 20
10.195000000000164
 40
0.0
 41
0.0
 42
0.0
 10
5.195
 20
16.0
 40
0.0
 41
0.0
 42
0.0
 10
5.18
 20
16.0
 40
0.0
 41
0.0
 42
0.0
 10
5.18
 20
10.179999999999836
 40
0.0
 41
0.0
 42
0.0
1001
OPENCAD_AEC
1000
WALL_REP
1005
8D
1000
contour
  0
HATCH
  5
A6
330
15
100
AcDbEntity
  8
0
 62
   253
420
11842736
440
33554687
100
AcDbHatch
 10
0.0
 20
0.0
 30
0.0
210
0.0
220
0.0
230
1.0
  2
DOTS
 70
     0
 71
     0
 91
     1
 92
    19
 72
     0
 73
     1
 93
     5
 10
5.195
 20
10.195000000000164
 10
5.195
 20
16.0
 10
5.18
 20
16.0
 10
5.18
 20
10.179999999999836
 10
5.195
 20
10.195000000000164
 97
     0
 75
     0
 76
     1
 52
90.00000250447816
 41
0.0012000000569969416
 77
     0
 78
     0
 98
     0
1001
OPENCAD_AEC
1000
WALL_REP
1005
8D
1000
hatch
  0
3DSOLID
  5
A7
330
15
100
AcDbEntity
  8
0
100
AcDbModelerGeometry
290
     0
  2
{00000000-0000-0000-0000-000000000000}
100
AcDb3dSolid
350
0
1001
OPENCAD_AEC
1000
WALL_REP
1005
8D
1000
solid
  0
HATCH
  5
A8
330
15
100
AcDbEntity
  8
0
 62
    45
420
9139029
440
33554687
100
AcDbHatch
 10
0.0
 20
0.0
 30
0.0
210
0.0
220
0.0
230
1.0
  2
ANSI31
 70
     0
 71
     0
 91
     1
 92
    19
 72
     0
 73
     1
 93
     5
 10
5.18
 20
10.059999999999832
 10
5.18
 20
16.0
 10
4.94
 20
16.0
 10
4.94
 20
10.059999999999832
 10
5.18
 20
10.059999999999832
 97
     0
 75
     0
 76
     1
 52
90.00000250447816
 41
0.0024999999441206455
 77
     0
 78
     0
 98
     0
1001
OPENCAD_AEC
1000
WALL_REP
1005
8D
1000
hatch
  0
3DSOLID
  5
A9
330
15
100
AcDbEntity
  8
0
100
AcDbModelerGeometry
290
     0
  2
{00000000-0000-0000-0000-000000000000}
100
AcDb3dSolid
350
0
1001
OPENCAD_AEC
1000
WALL_REP
1005
8D
1000
solid
  0
HATCH
  5
AA
330
15
100
AcDbEntity
  8
0
100
AcDbHatch
 10
0.0
 20
0.0
 30
0.0
210
0.0
220
0.0
230
1.0
  2
ANSI31
 70
     0
 71
     0
 91
     1
 92
    19
 72
     0
 73
     1
 93
     5
 10
4.94
 20
10.059999999999832
 10
4.94
 20
16.0
 10
4.82
 20
16.0
 10
4.82
 20
10.179999999999836
 10
4.94
 20
10.059999999999832
 97
     0
 75
     0
 76
     1
 52
90.00000250447816
 41
1.0
 77
     0
 78
     0
 98
     0
1001
OPENCAD_AEC
1000
WALL_REP
1005
8D
1000
hatch
  0
3DSOLID
  5
AB
330
15
100
AcDbEntity
  8
0
100
AcDbModelerGeometry
290
     0
  2
{00000000-0000-0000-0000-000000000000}
100
AcDb3dSolid
350
0
1001
OPENCAD_AEC
1000
WALL_REP
1005
8D
1000
solid
  0
HATCH
  5
AC
330
15
100
AcDbEntity
  8
0
 62
   253
420
11842736
440
33554687
100
AcDbHatch
 10
0.0
 20
0.0
 30
0.0
210
0.0
220
0.0
230
1.0
  2
DOTS
 70
     0
 71
     0
 91
     1
 92
    19
 72
     0
 73
     1
 93
     5
 10
4.82
 20
10.179999999999836
 10
4.82
 20
16.0
 10
4.805
 20
16.0
 10
4.805
 20
10.195000000000164
 10
4.82
 20
10.179999999999836
 97
     0
 75
     0
 76
     1
 52
90.00000250447816
 41
0.0012000000569969416
 77
     0
 78
     0
 98
     0
1001
OPENCAD_AEC
1000
WALL_REP
1005
8D
1000
hatch
  0
3DSOLID
  5
AD
330
15
100
AcDbEntity
  8
0
100
AcDbModelerGeometry
290
     0
  2
{00000000-0000-0000-0000-000000000000}
100
AcDb3dSolid
350
0
1001
OPENCAD_AEC
1000
WALL_REP
1005
8D
1000
solid
  0
HATCH
  5
AE
330
15
100
AcDbEntity
  8
0
 62
   253
420
11842736
440
33554687
100
AcDbHatch
 10
0.0
 20
0.0
 30
0.0
210
0.0
220
0.0
230
1.0
  2
DOTS
 70
     0
 71
     0
 91
     1
 92
    19
 72
     0
 73
     1
 93
     5
 10
0.0
 20
9.805
 10
10.0
 20
9.805
 10
10.0
 20
9.82
 10
0.0
 20
9.82
 10
0.0
 20
9.805
 97
     0
 75
     0
 76
     1
 52
0.0
 41
0.0012000000569969416
 77
     0
 78
     0
 98
     0
1001
OPENCAD_AEC
1000
WALL_REP
1005
8C
1000
hatch
  0
3DSOLID
  5
AF
330
15
100
AcDbEntity
  8
0
100
AcDbModelerGeometry
290
     0
  2
{00000000-0000-0000-0000-000000000000}
100
AcDb3dSolid
350
0
1001
OPENCAD_AEC
1000
WALL_REP
1005
8C
1000
solid
  0
HATCH
  5
B0
330
15
100
AcDbEntity
  8
0
 62
    45
420
9139029
440
33554687
100
AcDbHatch
 10
0.0
 20
0.0
 30
0.0
210
0.0
220
0.0
230
1.0
  2
ANSI31
 70
     0
 71
     0
 91
     1
 92
    19
 72
     0
 73
     1
 93
     5
 10
0.0
 20
9.82
 10
10.0
 20
9.82
 10
10.0
 20
10.06
 10
0.0
 20
10.06
 10
0.0
 20
9.82
 97
     0
 75
     0
 76
     1
 52
0.0
 41
0.0024999999441206455
 77
     0
 78
     0
 98
     0
1001
OPENCAD_AEC
1000
WALL_REP
1005
8C
1000
hatch
  0
3DSOLID
  5
B1
330
15
100
AcDbEntity
  8
0
100
AcDbModelerGeometry
290
     0
  2
{00000000-0000-0000-0000-000000000000}
100
AcDb3dSolid
350
0
1001
OPENCAD_AEC
1000
WALL_REP
1005
8C
1000
solid
  0
HATCH
  5
B2
330
15
100
AcDbEntity
  8
0
100
AcDbHatch
 10
0.0
 20
0.0
 30
0.0
210
0.0
220
0.0
230
1.0
  2
ANSI31
 70
     0
 71
     0
 91
     1
 92
    19
 72
     0
 73
     1
 93
     5
 10
0.0
 20
10.06
 10
4.94
 20
10.06
 10
4.82
 20
10.18
 10
0.0
 20
10.18
 10
0.0
 20
10.06
 97
     0
 75
     0
 76
     1
 52
0.0
 41
1.0
 77
     0
 78
     0
 98
     0
1001
OPENCAD_AEC
1000
WALL_REP
1005
8C
1000
hatch
  0
HATCH
  5
B3
330
15
100
AcDbEntity
  8
0
100
AcDbHatch
 10
0.0
 20
0.0
 30
0.0
210
0.0
220
0.0
230
1.0
  2
ANSI31
 70
     0
 71
     0
 91
     1
 92
    19
 72
     0
 73
     1
 93
     5
 10
5.18
 20
10.06
 10
10.0
 20
10.06
 10
10.0
 20
10.18
 10
5.18
 20
10.18
 10
5.18
 20
10.06
 97
     0
 75
     0
 76
     1
 52
0.0
 41
1.0
 77
     0
 78
     0
 98
     0
1001
OPENCAD_AEC
1000
WALL_REP
1005
8C
1000
hatch
  0
3DSOLID
  5
B4
330
15
100
AcDbEntity
  8
0
100
AcDbModelerGeometry
290
     0
  2
{00000000-0000-0000-0000-000000000000}
100
AcDb3dSolid
350
0
1001
OPENCAD_AEC
1000
WALL_REP
1005
8C
1000
solid
  0
3DSOLID
  5
B5
330
15
100
AcDbEntity
  8
0
100
AcDbModelerGeometry
290
     0
  2
{00000000-0000-0000-0000-000000000000}
100
AcDb3dSolid
350
0
1001
OPENCAD_AEC
1000
WALL_REP
1005
8C
1000
solid
  0
LWPOLYLINE
  5
B6
330
15
100
AcDbEntity
  8
0
 62
     9
420
13158596
100
AcDbPolyline
 90
     4
 70
     1
 38
0.0
 10
0.0
 20
10.18
 40
0.0
 41
0.0
 42
0.0
 10
4.82
 20
10.18
 40
0.0
 41
0.0
 42
0.0
 10
4.805
 20
10.195
 40
0.0
 41
0.0
 42
0.0
 10
0.0
 20
10.195
 40
0.0
 41
0.0
 42
0.0
1001
OPENCAD_AEC
1000
WALL_REP
1005
8C
1000
contour
  0
HATCH
  5
B7
330
15
100
AcDbEntity
  8
0
 62
   253
420
11842736
440
33554687
100
AcDbHatch
 10
0.0
 20
0.0
 30
0.0
210
0.0
220
0.0
230
1.0
  2
DOTS
 70
     0
 71
     0
 91
     1
 92
    19
 72
     0
 73
     1
 93
     5
 10
0.0
 20
10.18
 10
4.82
 20
10.18
 10
4.805
 20
10.195
 10
0.0
 20
10.195
 10
0.0
 20
10.18
 97
     0
 75
     0
 76
     1
 52
0.0
 41
0.0012000000569969416
 77
     0
 78
     0
 98
     0
1001
OPENCAD_AEC
1000
WALL_REP
1005
8C
1000
hatch
  0
LWPOLYLINE
  5
B8
330
15
100
AcDbEntity
  8
0
 62
     9
420
13158596
100
AcDbPolyline
 90
     4
 70
     1
 38
0.0
 10
5.18
 20
10.18
 40
0.0
 41
0.0
 42
0.0
 10
10.0
 20
10.18
 40
0.0
 41
0.0
 42
0.0
 10
10.0
 20
10.195
 40
0.0
 41
0.0
 42
0.0
 10
5.194999999999999
 20
10.195
 40
0.0
 41
0.0
 42
0.0
1001
OPENCAD_AEC
1000
WALL_REP
1005
8C
1000
contour
  0
HATCH
  5
B9
330
15
100
AcDbEntity
  8
0
 62
   253
420
11842736
440
33554687
100
AcDbHatch
 10
0.0
 20
0.0
 30
0.0
210
0.0
220
0.0
230
1.0
  2
DOTS
 70
     0
 71
     0
 91
     1
 92
    19
 72
     0
 73
     1
 93
     5
 10
5.18
 20
10.18
 10
10.0
 20
10.18
 10
10.0
 20
10.195
 10
5.194999999999999
 20
10.195
 10
5.18
 20
10.18
 97
     0
 75
     0
 76
     1
 52
0.0
 41
0.0012000000569969416
 77
     0
 78
     0
 98
     0
1001
OPENCAD_AEC
1000
WALL_REP
1005
8C
1000
hatch
  0
3DSOLID
  5
BA
330
15
100
AcDbEntity
  8
0
100
AcDbModelerGeometry
290
     0
  2
{00000000-0000-0000-0000-000000000000}
100
AcDb3dSolid
350
0
1001
OPENCAD_AEC
1000
WALL_REP
1005
8C
1000
solid
  0
3DSOLID
  5
BB
330
15
100
AcDbEntity
  8
0
100
AcDbModelerGeometry
290
     0
  2
{00000000-0000-0000-0000-000000000000}
100
AcDb3dSolid
350
0
1001
OPENCAD_AEC
1000
WALL_REP
1005
8C
1000
solid
  0
MTEXT
  5
BC
330
15
100
AcDbEntity
  8
0
100
AcDbMText
 10
0.0
 20
8.3
 30
0.0
 40
0.28
 41
10.0
 71
     1
 72
     1
  1
T vierschalig\PStil: style1 (Putz+Mauerwerk+Insulation+Putz)\PVerbindung: T (Auto-Join)\PStamm → Durchgang, Standard-Miter\POverride: keiner
  7
Standard
 73
     1
 44
1.0
  0
LWPOLYLINE
  5
BD
330
15
100
AcDbEntity
  8
AEC_WALL_AXIS
100
AcDbPolyline
 90
     2
 70
     0
 38
0.0
 10
14.0
 20
10.0
 40
0.0
 41
0.0
 42
0.0
 10
24.0
 20
10.0
 40
0.0
 41
0.0
 42
0.0
1001
OPENCAD_AEC
1000
WALL
1000
style1
1041
3.0
1071
     0
1071
     3
1000
Putz
1041
0.015
1000
Finish
1000
Mauerwerk
1041
0.24
1000
Structural
1000
Putz
1041
0.015
1000
Finish
1071
    12
1005
C5
1005
D7
1005
D8
1005
C2
1005
D9
1005
DA
1005
BF
1005
DB
1005
DC
1005
DD
1005
DE
1005
DF
1000
Center
1000
axis_offset
1041
-0.135
1041
0.0
1041
0.0
1041
-0.12000000000000001
1041
0.0
1041
0.0
1041
0.11999999999999998
1041
0.0
1041
0.0
1000

1000

1000

1000
DOTS
1000
ANSI31
1000
DOTS
1000
layer_id
1000
27b3f4d9-5f95-45cb-985f-f4e913f7d599
1000
695dea5e-a0e1-4881-b2af-e123246c0cfb
1000
315698a1-ceba-4150-b7f9-60545dda0ddc
1000
New
1000
0
1041
0.0
1000

1000
planes
1000

1000

1041
0.0
1041
0.0
1041
0.0
1041
0.0
1041
0.0
1041
0.0
1041
0.0
1041
1.0
1041
0.0
1041
0.0
1041
0.0
1041
0.0
1041
0.0
1041
1.0
1001
OPENCAD_AEC
1000
JOINED_PEERS
1005
BE
  0
LWPOLYLINE
  5
BE
330
15
100
AcDbEntity
  8
AEC_WALL_AXIS
100
AcDbPolyline
 90
     2
 70
     0
 38
0.0
 10
19.0
 20
10.0
 40
0.0
 41
0.0
 42
0.0
 10
19.0
 20
16.0
 40
0.0
 41
0.0
 42
0.0
1001
OPENCAD_AEC
1000
WALL
1000
style1
1041
3.0
1071
     0
1071
     3
1000
Putz
1041
0.015
1000
Finish
1000
Mauerwerk
1041
0.24
1000
Structural
1000
Putz
1041
0.015
1000
Finish
1071
     9
1005
CE
1005
D1
1005
D2
1005
CB
1005
D3
1005
D4
1005
C8
1005
D5
1005
D6
1000
Center
1000
axis_offset
1041
-0.135
1041
0.0
1041
0.0
1041
-0.12000000000000001
1041
0.0
1041
0.0
1041
0.11999999999999998
1041
0.0
1041
0.0
1000

1000

1000

1000
DOTS
1000
ANSI31
1000
DOTS
1000
layer_id
1000
c3e07e0f-a85b-496d-b644-13cfa199d2b7
1000
e4e939a9-6889-44c3-ad97-72abd0fcafc4
1000
480f8dde-88a4-4074-988e-2c3adb89b3de
1000
New
1000
0
1041
0.0
1000

1000
planes
1000

1000

1041
0.0
1041
0.0
1041
0.0
1041
0.0
1041
0.0
1041
0.0
1041
0.0
1041
1.0
1041
0.0
1041
0.0
1041
0.0
1041
0.0
1041
0.0
1041
1.0
1001
OPENCAD_AEC
1000
JOINED_PEERS
1005
BD
  0
LWPOLYLINE
  5
BF
330
15
100
AcDbEntity
  8
0
 62
     9
420
13158596
100
AcDbPolyline
 90
     4
 70
     1
 38
0.0
 10
14.0
 20
10.12
 40
0.0
 41
0.0
 42
0.0
 10
18.88
 20
10.12
 40
0.0
 41
0.0
 42
0.0
 10
18.865
 20
10.135
 40
0.0
 41
0.0
 42
0.0
 10
14.0
 20
10.135
 40
0.0
 41
0.0
 42
0.0
1001
OPENCAD_AEC
1000
WALL_REP
1005
BD
1000
contour
  0
LWPOLYLINE
  5
C2
330
15
100
AcDbEntity
  8
0
 62
    45
420
9139029
100
AcDbPolyline
 90
     4
 70
     1
 38
0.0
 10
14.0
 20
9.88
 40
0.0
 41
0.0
 42
0.0
 10
24.0
 20
9.88
 40
0.0
 41
0.0
 42
0.0
 10
24.0
 20
10.12
 40
0.0
 41
0.0
 42
-0.0
 10
14.0
 20
10.12
 40
0.0
 41
0.0
 42
0.0
1001
OPENCAD_AEC
1000
WALL_REP
1005
BD
1000
contour
  0
LWPOLYLINE
  5
C5
330
15
100
AcDbEntity
  8
0
 62
     9
420
13158596
100
AcDbPolyline
 90
     4
 70
     1
 38
0.0
 10
14.0
 20
9.865
 40
0.0
 41
0.0
 42
0.0
 10
24.0
 20
9.865
 40
0.0
 41
0.0
 42
0.0
 10
24.0
 20
9.88
 40
0.0
 41
0.0
 42
-0.0
 10
14.0
 20
9.88
 40
0.0
 41
0.0
 42
0.0
1001
OPENCAD_AEC
1000
WALL_REP
1005
BD
1000
contour
  0
LWPOLYLINE
  5
C8
330
15
100
AcDbEntity
  8
0
 62
     9
420
13158596
100
AcDbPolyline
 90
     4
 70
     1
 38
0.0
 10
18.88
 20
10.11999999999989
 40
0.0
 41
0.0
 42
0.0
 10
18.88
 20
16.0
 40
0.0
 41
0.0
 42
0.0
 10
18.865
 20
16.0
 40
0.0
 41
0.0
 42
0.0
 10
18.865
 20
10.135000000000105
 40
0.0
 41
0.0
 42
0.0
1001
OPENCAD_AEC
1000
WALL_REP
1005
BE
1000
contour
  0
LWPOLYLINE
  5
CB
330
15
100
AcDbEntity
  8
0
 62
    45
420
9139029
100
AcDbPolyline
 90
     4
 70
     1
 38
0.0
 10
19.12
 20
10.11999999999989
 40
0.0
 41
0.0
 42
0.0
 10
19.12
 20
16.0
 40
0.0
 41
0.0
 42
0.0
 10
18.88
 20
16.0
 40
0.0
 41
0.0
 42
0.0
 10
18.88
 20
10.11999999999989
 40
0.0
 41
0.0
 42
0.0
1001
OPENCAD_AEC
1000
WALL_REP
1005
BE
1000
contour
  0
LWPOLYLINE
  5
CE
330
15
100
AcDbEntity
  8
0
 62
     9
420
13158596
100
AcDbPolyline
 90
     4
 70
     1
 38
0.0
 10
19.135
 20
10.135000000000105
 40
0.0
 41
0.0
 42
0.0
 10
19.135
 20
16.0
 40
0.0
 41
0.0
 42
0.0
 10
19.12
 20
16.0
 40
0.0
 41
0.0
 42
0.0
 10
19.12
 20
10.11999999999989
 40
0.0
 41
0.0
 42
0.0
1001
OPENCAD_AEC
1000
WALL_REP
1005
BE
1000
contour
  0
HATCH
  5
D1
330
15
100
AcDbEntity
  8
0
 62
   253
420
11842736
440
33554687
100
AcDbHatch
 10
0.0
 20
0.0
 30
0.0
210
0.0
220
0.0
230
1.0
  2
DOTS
 70
     0
 71
     0
 91
     1
 92
    19
 72
     0
 73
     1
 93
     5
 10
19.135
 20
10.135000000000105
 10
19.135
 20
16.0
 10
19.12
 20
16.0
 10
19.12
 20
10.11999999999989
 10
19.135
 20
10.135000000000105
 97
     0
 75
     0
 76
     1
 52
90.00000250447816
 41
0.0012000000569969416
 77
     0
 78
     0
 98
     0
1001
OPENCAD_AEC
1000
WALL_REP
1005
BE
1000
hatch
  0
3DSOLID
  5
D2
330
15
100
AcDbEntity
  8
0
100
AcDbModelerGeometry
290
     0
  2
{00000000-0000-0000-0000-000000000000}
100
AcDb3dSolid
350
0
1001
OPENCAD_AEC
1000
WALL_REP
1005
BE
1000
solid
  0
HATCH
  5
D3
330
15
100
AcDbEntity
  8
0
 62
    45
420
9139029
440
33554687
100
AcDbHatch
 10
0.0
 20
0.0
 30
0.0
210
0.0
220
0.0
230
1.0
  2
ANSI31
 70
     0
 71
     0
 91
     1
 92
    19
 72
     0
 73
     1
 93
     5
 10
19.12
 20
10.11999999999989
 10
19.12
 20
16.0
 10
18.88
 20
16.0
 10
18.88
 20
10.11999999999989
 10
19.12
 20
10.11999999999989
 97
     0
 75
     0
 76
     1
 52
90.00000250447816
 41
0.0024999999441206455
 77
     0
 78
     0
 98
     0
1001
OPENCAD_AEC
1000
WALL_REP
1005
BE
1000
hatch
  0
3DSOLID
  5
D4
330
15
100
AcDbEntity
  8
0
100
AcDbModelerGeometry
290
     0
  2
{00000000-0000-0000-0000-000000000000}
100
AcDb3dSolid
350
0
1001
OPENCAD_AEC
1000
WALL_REP
1005
BE
1000
solid
  0
HATCH
  5
D5
330
15
100
AcDbEntity
  8
0
 62
   253
420
11842736
440
33554687
100
AcDbHatch
 10
0.0
 20
0.0
 30
0.0
210
0.0
220
0.0
230
1.0
  2
DOTS
 70
     0
 71
     0
 91
     1
 92
    19
 72
     0
 73
     1
 93
     5
 10
18.88
 20
10.11999999999989
 10
18.88
 20
16.0
 10
18.865
 20
16.0
 10
18.865
 20
10.135000000000105
 10
18.88
 20
10.11999999999989
 97
     0
 75
     0
 76
     1
 52
90.00000250447816
 41
0.0012000000569969416
 77
     0
 78
     0
 98
     0
1001
OPENCAD_AEC
1000
WALL_REP
1005
BE
1000
hatch
  0
3DSOLID
  5
D6
330
15
100
AcDbEntity
  8
0
100
AcDbModelerGeometry
290
     0
  2
{00000000-0000-0000-0000-000000000000}
100
AcDb3dSolid
350
0
1001
OPENCAD_AEC
1000
WALL_REP
1005
BE
1000
solid
  0
HATCH
  5
D7
330
15
100
AcDbEntity
  8
0
 62
   253
420
11842736
440
33554687
100
AcDbHatch
 10
0.0
 20
0.0
 30
0.0
210
0.0
220
0.0
230
1.0
  2
DOTS
 70
     0
 71
     0
 91
     1
 92
    19
 72
     0
 73
     1
 93
     5
 10
14.0
 20
9.865
 10
24.0
 20
9.865
 10
24.0
 20
9.88
 10
14.0
 20
9.88
 10
14.0
 20
9.865
 97
     0
 75
     0
 76
     1
 52
0.0
 41
0.0012000000569969416
 77
     0
 78
     0
 98
     0
1001
OPENCAD_AEC
1000
WALL_REP
1005
BD
1000
hatch
  0
3DSOLID
  5
D8
330
15
100
AcDbEntity
  8
0
100
AcDbModelerGeometry
290
     0
  2
{00000000-0000-0000-0000-000000000000}
100
AcDb3dSolid
350
0
1001
OPENCAD_AEC
1000
WALL_REP
1005
BD
1000
solid
  0
HATCH
  5
D9
330
15
100
AcDbEntity
  8
0
 62
    45
420
9139029
440
33554687
100
AcDbHatch
 10
0.0
 20
0.0
 30
0.0
210
0.0
220
0.0
230
1.0
  2
ANSI31
 70
     0
 71
     0
 91
     1
 92
    19
 72
     0
 73
     1
 93
     5
 10
14.0
 20
9.88
 10
24.0
 20
9.88
 10
24.0
 20
10.12
 10
14.0
 20
10.12
 10
14.0
 20
9.88
 97
     0
 75
     0
 76
     1
 52
0.0
 41
0.0024999999441206455
 77
     0
 78
     0
 98
     0
1001
OPENCAD_AEC
1000
WALL_REP
1005
BD
1000
hatch
  0
3DSOLID
  5
DA
330
15
100
AcDbEntity
  8
0
100
AcDbModelerGeometry
290
     0
  2
{00000000-0000-0000-0000-000000000000}
100
AcDb3dSolid
350
0
1001
OPENCAD_AEC
1000
WALL_REP
1005
BD
1000
solid
  0
HATCH
  5
DB
330
15
100
AcDbEntity
  8
0
 62
   253
420
11842736
440
33554687
100
AcDbHatch
 10
0.0
 20
0.0
 30
0.0
210
0.0
220
0.0
230
1.0
  2
DOTS
 70
     0
 71
     0
 91
     1
 92
    19
 72
     0
 73
     1
 93
     5
 10
14.0
 20
10.12
 10
18.88
 20
10.12
 10
18.865
 20
10.135
 10
14.0
 20
10.135
 10
14.0
 20
10.12
 97
     0
 75
     0
 76
     1
 52
0.0
 41
0.0012000000569969416
 77
     0
 78
     0
 98
     0
1001
OPENCAD_AEC
1000
WALL_REP
1005
BD
1000
hatch
  0
LWPOLYLINE
  5
DC
330
15
100
AcDbEntity
  8
0
 62
     9
420
13158596
100
AcDbPolyline
 90
     4
 70
     1
 38
0.0
 10
19.12
 20
10.12
 40
0.0
 41
0.0
 42
0.0
 10
24.0
 20
10.12
 40
0.0
 41
0.0
 42
0.0
 10
24.0
 20
10.135
 40
0.0
 41
0.0
 42
0.0
 10
19.135
 20
10.135
 40
0.0
 41
0.0
 42
0.0
1001
OPENCAD_AEC
1000
WALL_REP
1005
BD
1000
contour
  0
HATCH
  5
DD
330
15
100
AcDbEntity
  8
0
 62
   253
420
11842736
440
33554687
100
AcDbHatch
 10
0.0
 20
0.0
 30
0.0
210
0.0
220
0.0
230
1.0
  2
DOTS
 70
     0
 71
     0
 91
     1
 92
    19
 72
     0
 73
     1
 93
     5
 10
19.12
 20
10.12
 10
24.0
 20
10.12
 10
24.0
 20
10.135
 10
19.135
 20
10.135
 10
19.12
 20
10.12
 97
     0
 75
     0
 76
     1
 52
0.0
 41
0.0012000000569969416
 77
     0
 78
     0
 98
     0
1001
OPENCAD_AEC
1000
WALL_REP
1005
BD
1000
hatch
  0
3DSOLID
  5
DE
330
15
100
AcDbEntity
  8
0
100
AcDbModelerGeometry
290
     0
  2
{00000000-0000-0000-0000-000000000000}
100
AcDb3dSolid
350
0
1001
OPENCAD_AEC
1000
WALL_REP
1005
BD
1000
solid
  0
3DSOLID
  5
DF
330
15
100
AcDbEntity
  8
0
100
AcDbModelerGeometry
290
     0
  2
{00000000-0000-0000-0000-000000000000}
100
AcDb3dSolid
350
0
1001
OPENCAD_AEC
1000
WALL_REP
1005
BD
1000
solid
  0
MTEXT
  5
E0
330
15
100
AcDbEntity
  8
0
100
AcDbMText
 10
14.0
 20
8.3
 30
0.0
 40
0.28
 41
10.0
 71
     1
 72
     1
  1
T dreischalig\PStil: style1 (Putz+Mauerwerk+Putz)\PVerbindung: T (Auto-Join)\PStamm → Durchgang, Standard-Miter\POverride: keiner
  7
Standard
 73
     1
 44
1.0
  0
LWPOLYLINE
  5
E1
330
15
100
AcDbEntity
  8
AEC_WALL_AXIS
100
AcDbPolyline
 90
     2
 70
     0
 38
0.0
 10
0.0
 20
22.0
 40
0.0
 41
0.0
 42
0.0
 10
8.0
 20
22.0
 40
0.0
 41
0.0
 42
0.0
1001
OPENCAD_AEC
1000
WALL
1000
style1
1041
3.0
1071
     0
1071
     1
1000
Concrete
1041
0.2
1000
Structural
1071
     3
1005
E4
1005
ED
1005
EE
1000
Center
1000
axis_offset
1041
-0.1
1041
0.0
1041
0.0
1000

1000

1000
layer_id
1000
fa6390a4-1475-4e33-9068-d8fb7d57c12a
1000
New
1000
0
1041
0.0
1000

1000
planes
1000

1000

1041
0.0
1041
0.0
1041
0.0
1041
0.0
1041
0.0
1041
0.0
1041
0.0
1041
1.0
1041
0.0
1041
0.0
1041
0.0
1041
0.0
1041
0.0
1041
1.0
1001
OPENCAD_AEC
1000
JOINED_PEERS
1005
E2
1005
E3
  0
LWPOLYLINE
  5
E2
330
15
100
AcDbEntity
  8
AEC_WALL_AXIS
100
AcDbPolyline
 90
     2
 70
     0
 38
0.0
 10
8.0
 20
22.0
 40
0.0
 41
0.0
 42
0.0
 10
8.0
 20
28.0
 40
0.0
 41
0.0
 42
0.0
1001
OPENCAD_AEC
1000
WALL
1000
style1
1041
3.0
1071
     0
1071
     1
1000
Concrete
1041
0.2
1000
Structural
1071
     3
1005
E7
1005
EF
1005
F0
1000
Center
1000
axis_offset
1041
-0.1
1041
0.0
1041
0.0
1000

1000

1000
layer_id
1000
0150b8b3-4339-4d42-97ec-0171f9700f51
1000
New
1000
0
1041
0.0
1000

1000
planes
1000

1000

1041
0.0
1041
0.0
1041
0.0
1041
0.0
1041
0.0
1041
0.0
1041
0.0
1041
1.0
1041
0.0
1041
0.0
1041
0.0
1041
0.0
1041
0.0
1041
1.0
1001
OPENCAD_AEC
1000
JOINED_PEERS
1005
E1
1005
E3
  0
LWPOLYLINE
  5
E3
330
15
100
AcDbEntity
  8
AEC_WALL_AXIS
100
AcDbPolyline
 90
     2
 70
     0
 38
0.0
 10
8.0
 20
22.0
 40
0.0
 41
0.0
 42
0.0
 10
8.0
 20
16.0
 40
0.0
 41
0.0
 42
0.0
1001
OPENCAD_AEC
1000
WALL
1000
style1
1041
3.0
1071
     0
1071
     1
1000
Concrete
1041
0.2
1000
Structural
1071
     3
1005
EA
1005
F1
1005
F2
1000
Center
1000
axis_offset
1041
-0.1
1041
0.0
1041
0.0
1000

1000

1000
layer_id
1000
05092ae7-4567-47cf-ae70-105ea440e725
1000
New
1000
0
1041
0.0
1000

1000
planes
1000

1000

1041
0.0
1041
0.0
1041
0.0
1041
0.0
1041
0.0
1041
0.0
1041
0.0
1041
1.0
1041
0.0
1041
0.0
1041
0.0
1041
0.0
1041
0.0
1041
1.0
1001
OPENCAD_AEC
1000
JOINED_PEERS
1005
E1
1005
E2
  0
LWPOLYLINE
  5
E4
330
15
100
AcDbEntity
  8
0
100
AcDbPolyline
 90
     4
 70
     1
 38
0.0
 10
0.0
 20
21.9
 40
0.0
 41
0.0
 42
0.0
 10
8.100000000000023
 20
21.9
 40
0.0
 41
0.0
 42
0.0
 10
8.100000000000023
 20
22.1
 40
0.0
 41
0.0
 42
0.0
 10
0.0
 20
22.1
 40
0.0
 41
0.0
 42
0.0
1001
OPENCAD_AEC
1000
WALL_REP
1005
E1
1000
contour
  0
LWPOLYLINE
  5
E7
330
15
100
AcDbEntity
  8
0
100
AcDbPolyline
 90
     4
 70
     1
 38
0.0
 10
8.1
 20
22.0
 40
0.0
 41
0.0
 42
0.0
 10
8.1
 20
28.0
 40
0.0
 41
0.0
 42
0.0
 10
7.9
 20
28.0
 40
0.0
 41
0.0
 42
0.0
 10
7.9
 20
22.100000000000023
 40
0.0
 41
0.0
 42
0.0
1001
OPENCAD_AEC
1000
WALL_REP
1005
E2
1000
contour
  0
LWPOLYLINE
  5
EA
330
15
100
AcDbEntity
  8
0
100
AcDbPolyline
 90
     4
 70
     1
 38
0.0
 10
7.9
 20
21.899999999999977
 40
0.0
 41
0.0
 42
0.0
 10
7.9
 20
16.0
 40
0.0
 41
0.0
 42
0.0
 10
8.1
 20
16.0
 40
0.0
 41
0.0
 42
0.0
 10
8.1
 20
22.0
 40
0.0
 41
0.0
 42
0.0
1001
OPENCAD_AEC
1000
WALL_REP
1005
E3
1000
contour
  0
HATCH
  5
ED
330
15
100
AcDbEntity
  8
0
100
AcDbHatch
 10
0.0
 20
0.0
 30
0.0
210
0.0
220
0.0
230
1.0
  2
ANSI31
 70
     0
 71
     0
 91
     1
 92
    19
 72
     0
 73
     1
 93
     5
 10
0.0
 20
21.9
 10
8.100000000000023
 20
21.9
 10
8.100000000000023
 20
22.1
 10
0.0
 20
22.1
 10
0.0
 20
21.9
 97
     0
 75
     0
 76
     1
 52
0.0
 41
1.0
 77
     0
 78
     0
 98
     0
1001
OPENCAD_AEC
1000
WALL_REP
1005
E1
1000
hatch
  0
3DSOLID
  5
EE
330
15
100
AcDbEntity
  8
0
100
AcDbModelerGeometry
290
     0
  2
{00000000-0000-0000-0000-000000000000}
100
AcDb3dSolid
350
0
1001
OPENCAD_AEC
1000
WALL_REP
1005
E1
1000
solid
  0
HATCH
  5
EF
330
15
100
AcDbEntity
  8
0
100
AcDbHatch
 10
0.0
 20
0.0
 30
0.0
210
0.0
220
0.0
230
1.0
  2
ANSI31
 70
     0
 71
     0
 91
     1
 92
    19
 72
     0
 73
     1
 93
     5
 10
8.1
 20
22.0
 10
8.1
 20
28.0
 10
7.9
 20
28.0
 10
7.9
 20
22.100000000000023
 10
8.1
 20
22.0
 97
     0
 75
     0
 76
     1
 52
90.00000250447816
 41
1.0
 77
     0
 78
     0
 98
     0
1001
OPENCAD_AEC
1000
WALL_REP
1005
E2
1000
hatch
  0
3DSOLID
  5
F0
330
15
100
AcDbEntity
  8
0
100
AcDbModelerGeometry
290
     0
  2
{00000000-0000-0000-0000-000000000000}
100
AcDb3dSolid
350
0
1001
OPENCAD_AEC
1000
WALL_REP
1005
E2
1000
solid
  0
HATCH
  5
F1
330
15
100
AcDbEntity
  8
0
100
AcDbHatch
 10
0.0
 20
0.0
 30
0.0
210
0.0
220
0.0
230
1.0
  2
ANSI31
 70
     0
 71
     0
 91
     1
 92
    19
 72
     0
 73
     1
 93
     5
 10
7.9
 20
21.899999999999977
 10
7.9
 20
16.0
 10
8.1
 20
16.0
 10
8.1
 20
22.0
 10
7.9
 20
21.899999999999977
 97
     0
 75
     0
 76
     1
 52
-90.00000250447816
 41
1.0
 77
     0
 78
     0
 98
     0
1001
OPENCAD_AEC
1000
WALL_REP
1005
E3
1000
hatch
  0
3DSOLID
  5
F2
330
15
100
AcDbEntity
  8
0
100
AcDbModelerGeometry
290
     0
  2
{00000000-0000-0000-0000-000000000000}
100
AcDb3dSolid
350
0
1001
OPENCAD_AEC
1000
WALL_REP
1005
E3
1000
solid
  0
MTEXT
  5
F3
330
15
100
AcDbEntity
  8
0
100
AcDbMText
 10
0.0
 20
29.2
 30
0.0
 40
0.28
 41
10.0
 71
     1
 72
     1
  1
N-Wege einschalig\PStil: style1 (Concrete)\PVerbindung: N-Wege (3 Wände)\PStandard-Miter\POverride: keiner
  7
Standard
 73
     1
 44
1.0
  0
LWPOLYLINE
  5
F4
330
15
100
AcDbEntity
  8
AEC_WALL_AXIS
100
AcDbPolyline
 90
     2
 70
     0
 38
0.0
 10
14.0
 20
22.0
 40
0.0
 41
0.0
 42
0.0
 10
22.0
 20
22.0
 40
0.0
 41
0.0
 42
0.0
1001
OPENCAD_AEC
1000
JOINED_PEERS
1005
F5
1001
OPENCAD_AEC
1000
JOIN_OVERRIDE
1071
     1
1000
{"default_style":"Miter","layer_pairs":[{"layer_a":{"material_id":"Putz","role_tag":null,"index":0,"layer_id":"916d5716-4c93-4c85-bbfb-f6202ad99422"},"layer_b":null,"style":"NoExtend"},{"layer_a":{"material_id":"Mauerwerk","role_tag":null,"index":1,"layer_id":"cd41c037-631c-4e75-9721-82d7b9faf410"},"layer_b":{"material_id":"Mauerwerk","role_tag":null,"index":1,"layer_id":"cd41c037-631c-4e75-9721-82d7b9faf410"},"style":"Miter"},{"layer_a":{"material_id":"Insulation","role_tag":null,"index":2,"layer_id":"f8987cce-72d3-40fa-8367-7abc9ef21443"},"layer_b":null,"style":"Butt"},{"layer_a":{"material_id":"Putz","role_tag":null,"index":3,"layer_id":"709dde10-b36b-4ef3-8f61-481ba808d530"},"layer_b":null,"style":"NoExtend"}],"layer_gaps":[]}
1001
OPENCAD_AEC
1000
WALL
1000
style1
1041
3.0
1071
     0
1071
     4
1000
Putz
1041
0.015
1000
Finish
1000
Mauerwerk
1041
0.24
1000
Structural
1000
Insulation
1041
0.12
1000
Insulation
1000
Putz
1041
0.015
1000
Finish
1071
    12
1005
F6
1005
11E
1005
11F
1005
F9
1005
120
1005
121
1005
FC
1005
122
1005
123
1005
FF
1005
124
1005
125
1000
Center
1000
axis_offset
1041
-0.195
1041
0.0
1041
0.0
1041
-0.18
1041
0.0
1041
0.0
1041
0.06
1041
0.0
1041
0.0
1041
0.18
1041
0.0
1041
0.0
1000

1000

1000

1000

1000
DOTS
1000
ANSI31
1000

1000
DOTS
1000
layer_id
1000
916d5716-4c93-4c85-bbfb-f6202ad99422
1000
cd41c037-631c-4e75-9721-82d7b9faf410
1000
f8987cce-72d3-40fa-8367-7abc9ef21443
1000
709dde10-b36b-4ef3-8f61-481ba808d530
1000
New
1000
0
1041
0.0
1000

1000
planes
1000

1000

1041
0.0
1041
0.0
1041
0.0
1041
0.0
1041
0.0
1041
0.0
1041
0.0
1041
1.0
1041
0.0
1041
0.0
1041
0.0
1041
0.0
1041
0.0
1041
1.0
  0
LWPOLYLINE
  5
F5
330
15
100
AcDbEntity
  8
AEC_WALL_AXIS
100
AcDbPolyline
 90
     2
 70
     0
 38
0.0
 10
22.0
 20
22.0
 40
0.0
 41
0.0
 42
0.0
 10
22.0
 20
28.0
 40
0.0
 41
0.0
 42
0.0
1001
OPENCAD_AEC
1000
JOINED_PEERS
1005
F4
1001
OPENCAD_AEC
1000
WALL
1000
style1
1041
3.0
1071
     0
1071
     4
1000
Putz
1041
0.015
1000
Finish
1000
Mauerwerk
1041
0.24
1000
Structural
1000
Insulation
1041
0.12
1000
Insulation
1000
Putz
1041
0.015
1000
Finish
1071
    12
1005
102
1005
126
1005
127
1005
105
1005
128
1005
129
1005
108
1005
12A
1005
12B
1005
10B
1005
12C
1005
12D
1000
Center
1000
axis_offset
1041
-0.195
1041
0.0
1041
0.0
1041
-0.18
1041
0.0
1041
0.0
1041
0.06
1041
0.0
1041
0.0
1041
0.18
1041
0.0
1041
0.0
1000

1000

1000

1000

1000
DOTS
1000
ANSI31
1000

1000
DOTS
1000
layer_id
1000
cd38f1ee-e631-4b16-8c27-b605d4720da6
1000
3cb39a9e-0669-4c79-94d5-482ddfb1ccb7
1000
7c95b3cb-d378-48a4-899a-9597ca9460c6
1000
5309d70e-63fb-46cf-9ec5-eda355afac55
1000
New
1000
0
1041
0.0
1000

1000
planes
1000

1000

1041
0.0
1041
0.0
1041
0.0
1041
0.0
1041
0.0
1041
0.0
1041
0.0
1041
1.0
1041
0.0
1041
0.0
1041
0.0
1041
0.0
1041
0.0
1041
1.0
  0
LWPOLYLINE
  5
F6
330
15
100
AcDbEntity
  8
0
 62
     9
420
13158596
100
AcDbPolyline
 90
     4
 70
     1
 38
0.0
 10
14.0
 20
21.805
 40
0.0
 41
0.0
 42
0.0
 10
22.0
 20
21.805
 40
0.0
 41
0.0
 42
0.0
 10
22.0
 20
21.82
 40
0.0
 41
0.0
 42
0.0
 10
14.0
 20
21.82
 40
0.0
 41
0.0
 42
0.0
1001
OPENCAD_AEC
1000
WALL_REP
1005
F4
1000
contour
  0
LWPOLYLINE
  5
F9
330
15
100
AcDbEntity
  8
0
 62
    45
420
9139029
100
AcDbPolyline
 90
     4
 70
     1
 38
0.0
 10
14.0
 20
21.82
 40
0.0
 41
0.0
 42
0.0
 10
22.17999999999995
 20
21.82
 40
0.0
 41
0.0
 42
0.0
 10
21.940000000000055
 20
22.06
 40
0.0
 41
0.0
 42
0.0
 10
14.0
 20
22.06
 40
0.0
 41
0.0
 42
0.0
1001
OPENCAD_AEC
1000
WALL_REP
1005
F4
1000
contour
  0
LWPOLYLINE
  5
FC
330
15
100
AcDbEntity
  8
0
 62
    45
420
9139029
100
AcDbPolyline
 90
     4
 70
     1
 38
0.0
 10
14.0
 20
22.06
 40
0.0
 41
0.0
 42
0.0
 10
21.82000000000005
 20
22.06
 40
0.0
 41
0.0
 42
0.0
 10
21.82000000000005
 20
22.18
 40
0.0
 41
0.0
 42
0.0
 10
14.0
 20
22.18
 40
0.0
 41
0.0
 42
0.0
1001
OPENCAD_AEC
1000
WALL_REP
1005
F4
1000
contour
  0
LWPOLYLINE
  5
FF
330
15
100
AcDbEntity
  8
0
 62
     9
420
13158596
100
AcDbPolyline
 90
     4
 70
     1
 38
0.0
 10
14.0
 20
22.18
 40
0.0
 41
0.0
 42
0.0
 10
22.0
 20
22.18
 40
0.0
 41
0.0
 42
0.0
 10
22.0
 20
22.195
 40
0.0
 41
0.0
 42
0.0
 10
14.0
 20
22.195
 40
0.0
 41
0.0
 42
0.0
1001
OPENCAD_AEC
1000
WALL_REP
1005
F4
1000
contour
  0
LWPOLYLINE
  5
102
330
15
100
AcDbEntity
  8
0
 62
     9
420
13158596
100
AcDbPolyline
 90
     4
 70
     1
 38
0.0
 10
22.195
 20
21.80499999999995
 40
0.0
 41
0.0
 42
0.0
 10
22.195
 20
28.0
 40
0.0
 41
0.0
 42
0.0
 10
22.18
 20
28.0
 40
0.0
 41
0.0
 42
0.0
 10
22.18
 20
21.82000000000005
 40
0.0
 41
0.0
 42
0.0
1001
OPENCAD_AEC
1000
WALL_REP
1005
F5
1000
contour
  0
LWPOLYLINE
  5
105
330
15
100
AcDbEntity
  8
0
 62
    45
420
9139029
100
AcDbPolyline
 90
     4
 70
     1
 38
0.0
 10
22.18
 20
21.82000000000005
 40
0.0
 41
0.0
 42
0.0
 10
22.18
 20
28.0
 40
0.0
 41
0.0
 42
0.0
 10
21.94
 20
28.0
 40
0.0
 41
0.0
 42
0.0
 10
21.94
 20
22.05999999999983
 40
0.0
 41
0.0
 42
0.0
1001
OPENCAD_AEC
1000
WALL_REP
1005
F5
1000
contour
  0
LWPOLYLINE
  5
108
330
15
100
AcDbEntity
  8
0
 62
    45
420
9139029
100
AcDbPolyline
 90
     4
 70
     1
 38
0.0
 10
21.94
 20
22.05999999999983
 40
0.0
 41
0.0
 42
0.0
 10
21.94
 20
28.0
 40
0.0
 41
0.0
 42
0.0
 10
21.82
 20
28.0
 40
0.0
 41
0.0
 42
0.0
 10
21.82
 20
22.180000000000064
 40
0.0
 41
0.0
 42
0.0
1001
OPENCAD_AEC
1000
WALL_REP
1005
F5
1000
contour
  0
LWPOLYLINE
  5
10B
330
15
100
AcDbEntity
  8
0
 62
     9
420
13158596
100
AcDbPolyline
 90
     4
 70
     1
 38
0.0
 10
21.82
 20
22.180000000000064
 40
0.0
 41
0.0
 42
0.0
 10
21.82
 20
28.0
 40
0.0
 41
0.0
 42
0.0
 10
21.805
 20
28.0
 40
0.0
 41
0.0
 42
0.0
 10
21.805
 20
22.19500000000005
 40
0.0
 41
0.0
 42
0.0
1001
OPENCAD_AEC
1000
WALL_REP
1005
F5
1000
contour
  0
HATCH
  5
11E
330
15
100
AcDbEntity
  8
0
 62
   253
420
11842736
440
33554687
100
AcDbHatch
 10
0.0
 20
0.0
 30
0.0
210
0.0
220
0.0
230
1.0
  2
DOTS
 70
     0
 71
     0
 91
     1
 92
    19
 72
     0
 73
     1
 93
     5
 10
14.0
 20
21.805
 10
22.0
 20
21.805
 10
22.0
 20
21.82
 10
14.0
 20
21.82
 10
14.0
 20
21.805
 97
     0
 75
     0
 76
     1
 52
0.0
 41
0.0012000000569969416
 77
     0
 78
     0
 98
     0
1001
OPENCAD_AEC
1000
WALL_REP
1005
F4
1000
hatch
  0
3DSOLID
  5
11F
330
15
100
AcDbEntity
  8
0
100
AcDbModelerGeometry
290
     0
  2
{00000000-0000-0000-0000-000000000000}
100
AcDb3dSolid
350
0
1001
OPENCAD_AEC
1000
WALL_REP
1005
F4
1000
solid
  0
HATCH
  5
120
330
15
100
AcDbEntity
  8
0
 62
    45
420
9139029
440
33554687
100
AcDbHatch
 10
0.0
 20
0.0
 30
0.0
210
0.0
220
0.0
230
1.0
  2
ANSI31
 70
     0
 71
     0
 91
     1
 92
    19
 72
     0
 73
     1
 93
     5
 10
14.0
 20
21.82
 10
22.17999999999995
 20
21.82
 10
21.940000000000055
 20
22.06
 10
14.0
 20
22.06
 10
14.0
 20
21.82
 97
     0
 75
     0
 76
     1
 52
0.0
 41
0.0024999999441206455
 77
     0
 78
     0
 98
     0
1001
OPENCAD_AEC
1000
WALL_REP
1005
F4
1000
hatch
  0
3DSOLID
  5
121
330
15
100
AcDbEntity
  8
0
100
AcDbModelerGeometry
290
     0
  2
{00000000-0000-0000-0000-000000000000}
100
AcDb3dSolid
350
0
1001
OPENCAD_AEC
1000
WALL_REP
1005
F4
1000
solid
  0
HATCH
  5
122
330
15
100
AcDbEntity
  8
0
100
AcDbHatch
 10
0.0
 20
0.0
 30
0.0
210
0.0
220
0.0
230
1.0
  2
ANSI31
 70
     0
 71
     0
 91
     1
 92
    19
 72
     0
 73
     1
 93
     5
 10
14.0
 20
22.06
 10
21.82000000000005
 20
22.06
 10
21.82000000000005
 20
22.18
 10
14.0
 20
22.18
 10
14.0
 20
22.06
 97
     0
 75
     0
 76
     1
 52
0.0
 41
1.0
 77
     0
 78
     0
 98
     0
1001
OPENCAD_AEC
1000
WALL_REP
1005
F4
1000
hatch
  0
3DSOLID
  5
123
330
15
100
AcDbEntity
  8
0
100
AcDbModelerGeometry
290
     0
  2
{00000000-0000-0000-0000-000000000000}
100
AcDb3dSolid
350
0
1001
OPENCAD_AEC
1000
WALL_REP
1005
F4
1000
solid
  0
HATCH
  5
124
330
15
100
AcDbEntity
  8
0
 62
   253
420
11842736
440
33554687
100
AcDbHatch
 10
0.0
 20
0.0
 30
0.0
210
0.0
220
0.0
230
1.0
  2
DOTS
 70
     0
 71
     0
 91
     1
 92
    19
 72
     0
 73
     1
 93
     5
 10
14.0
 20
22.18
 10
22.0
 20
22.18
 10
22.0
 20
22.195
 10
14.0
 20
22.195
 10
14.0
 20
22.18
 97
     0
 75
     0
 76
     1
 52
0.0
 41
0.0012000000569969416
 77
     0
 78
     0
 98
     0
1001
OPENCAD_AEC
1000
WALL_REP
1005
F4
1000
hatch
  0
3DSOLID
  5
125
330
15
100
AcDbEntity
  8
0
100
AcDbModelerGeometry
290
     0
  2
{00000000-0000-0000-0000-000000000000}
100
AcDb3dSolid
350
0
1001
OPENCAD_AEC
1000
WALL_REP
1005
F4
1000
solid
  0
HATCH
  5
126
330
15
100
AcDbEntity
  8
0
 62
   253
420
11842736
440
33554687
100
AcDbHatch
 10
0.0
 20
0.0
 30
0.0
210
0.0
220
0.0
230
1.0
  2
DOTS
 70
     0
 71
     0
 91
     1
 92
    19
 72
     0
 73
     1
 93
     5
 10
22.195
 20
21.80499999999995
 10
22.195
 20
28.0
 10
22.18
 20
28.0
 10
22.18
 20
21.82000000000005
 10
22.195
 20
21.80499999999995
 97
     0
 75
     0
 76
     1
 52
90.00000250447816
 41
0.0012000000569969416
 77
     0
 78
     0
 98
     0
1001
OPENCAD_AEC
1000
WALL_REP
1005
F5
1000
hatch
  0
3DSOLID
  5
127
330
15
100
AcDbEntity
  8
0
100
AcDbModelerGeometry
290
     0
  2
{00000000-0000-0000-0000-000000000000}
100
AcDb3dSolid
350
0
1001
OPENCAD_AEC
1000
WALL_REP
1005
F5
1000
solid
  0
HATCH
  5
128
330
15
100
AcDbEntity
  8
0
 62
    45
420
9139029
440
33554687
100
AcDbHatch
 10
0.0
 20
0.0
 30
0.0
210
0.0
220
0.0
230
1.0
  2
ANSI31
 70
     0
 71
     0
 91
     1
 92
    19
 72
     0
 73
     1
 93
     5
 10
22.18
 20
21.82000000000005
 10
22.18
 20
28.0
 10
21.94
 20
28.0
 10
21.94
 20
22.05999999999983
 10
22.18
 20
21.82000000000005
 97
     0
 75
     0
 76
     1
 52
90.00000250447816
 41
0.0024999999441206455
 77
     0
 78
     0
 98
     0
1001
OPENCAD_AEC
1000
WALL_REP
1005
F5
1000
hatch
  0
3DSOLID
  5
129
330
15
100
AcDbEntity
  8
0
100
AcDbModelerGeometry
290
     0
  2
{00000000-0000-0000-0000-000000000000}
100
AcDb3dSolid
350
0
1001
OPENCAD_AEC
1000
WALL_REP
1005
F5
1000
solid
  0
HATCH
  5
12A
330
15
100
AcDbEntity
  8
0
100
AcDbHatch
 10
0.0
 20
0.0
 30
0.0
210
0.0
220
0.0
230
1.0
  2
ANSI31
 70
     0
 71
     0
 91
     1
 92
    19
 72
     0
 73
     1
 93
     5
 10
21.94
 20
22.05999999999983
 10
21.94
 20
28.0
 10
21.82
 20
28.0
 10
21.82
 20
22.180000000000064
 10
21.94
 20
22.05999999999983
 97
     0
 75
     0
 76
     1
 52
90.00000250447816
 41
1.0
 77
     0
 78
     0
 98
     0
1001
OPENCAD_AEC
1000
WALL_REP
1005
F5
1000
hatch
  0
3DSOLID
  5
12B
330
15
100
AcDbEntity
  8
0
100
AcDbModelerGeometry
290
     0
  2
{00000000-0000-0000-0000-000000000000}
100
AcDb3dSolid
350
0
1001
OPENCAD_AEC
1000
WALL_REP
1005
F5
1000
solid
  0
HATCH
  5
12C
330
15
100
AcDbEntity
  8
0
 62
   253
420
11842736
440
33554687
100
AcDbHatch
 10
0.0
 20
0.0
 30
0.0
210
0.0
220
0.0
230
1.0
  2
DOTS
 70
     0
 71
     0
 91
     1
 92
    19
 72
     0
 73
     1
 93
     5
 10
21.82
 20
22.180000000000064
 10
21.82
 20
28.0
 10
21.805
 20
28.0
 10
21.805
 20
22.19500000000005
 10
21.82
 20
22.180000000000064
 97
     0
 75
     0
 76
     1
 52
90.00000250447816
 41
0.0012000000569969416
 77
     0
 78
     0
 98
     0
1001
OPENCAD_AEC
1000
WALL_REP
1005
F5
1000
hatch
  0
3DSOLID
  5
12D
330
15
100
AcDbEntity
  8
0
100
AcDbModelerGeometry
290
     0
  2
{00000000-0000-0000-0000-000000000000}
100
AcDb3dSolid
350
0
1001
OPENCAD_AEC
1000
WALL_REP
1005
F5
1000
solid
  0
MTEXT
  5
12E
330
15
100
AcDbEntity
  8
0
100
AcDbMText
 10
14.0
 20
29.2
 30
0.0
 40
0.28
 41
10.0
 71
     1
 72
     1
  1
L vierschalig mit Schicht-Overrides\PStil: style1 (Putz+Mauerwerk+Insulation+Putz)\PVerbindung: L\PDefault: Miter\PPutz außen/innen: NoExtend\PMauerwerk: Miter\PDämmung: Butt
  7
Standard
 73
     1
 44
1.0
  0
ENDSEC
  0
SECTION
  2
OBJECTS
  0
DICTIONARY
  5
C
330
0
100
AcDbDictionary
280
0
281
1
  3
ACAD_GROUP
350
20
  3
ACAD_MLINESTYLE
350
21
  3
ACAD_LAYOUT
350
22
  3
ACAD_PLOTSETTINGS
350
23
  3
ACAD_PLOTSTYLENAME
350
24
  3
ACAD_MATERIAL
350
25
  3
ACAD_COLOR
350
26
  3
ACAD_VISUALSTYLE
350
27
  3
ACAD_MLEADERSTYLE
350
28
  3
ACAD_TABLESTYLE
350
29
  0
DICTIONARY
  5
26
330
C
100
AcDbDictionary
280
0
281
1
  0
DICTIONARY
  5
29
330
C
100
AcDbDictionary
280
0
281
1
  3
Standard
350
2C
  0
DICTIONARY
  5
22
330
C
100
AcDbDictionary
280
0
281
1
  3
Model
350
2D
  3
Layout1
350
2E
  0
DICTIONARY
  5
23
330
C
100
AcDbDictionary
280
0
281
1
  0
ACDBDICTIONARYWDFLT
  5
24
330
C
100
AcDbDictionary
281
     1
  3
Normal
350
2F
100
AcDbDictionaryWithDefault
340
2F
  0
MLINESTYLE
  5
2A
330
21
100
AcDbMlineStyle
  2
Standard
 70
     0
  3

 62
   256
 51
90.0
 52
90.0
 71
     2
 49
0.5
 62
   256
  6
BYLAYER
 49
-0.5
 62
   256
  6
BYLAYER
  0
DICTIONARY
  5
21
330
C
100
AcDbDictionary
280
0
281
1
  3
Standard
350
2A
  0
MLEADERSTYLE
  5
2B
330
28
100
AcDbMLeaderStyle
170
     2
171
     0
172
     0
 90
     2
 40
0.0
 41
0.0
173
     1
 91
-1056964608
340
12
 92
    -2
290
     1
 42
0.09
291
     1
 43
0.36
  3
Standard
 44
0.18
300

342
14
174
     1
175
     1
176
     0
178
     1
 93
-1056964608
 45
0.18
292
     0
297
     0
 46
0.0
 94
-1056964608
 47
1.0
 49
1.0
140
1.0
293
     0
141
0.0
294
     0
177
     0
142
1.0
295
     0
296
     0
143
0.125
  0
LAYOUT
  5
2D
330
22
100
AcDbPlotSettings
  1

  2

  4

  6

  7

 40
0.0
 41
0.0
 42
0.0
 43
0.0
 44
0.0
 45
0.0
 46
0.0
 47
0.0
 48
0.0
 49
0.0
140
0.0
141
0.0
142
1.0
143
1.0
147
1.0
148
0.0
149
0.0
 70
  1024
 72
     0
 73
     0
 74
     5
 75
     0
 76
     0
 77
     0
 78
   300
100
AcDbLayout
  1
Model
 70
     1
 71
     0
 10
0.0
 20
0.0
 11
0.0
 21
0.0
 12
0.0
 22
0.0
 32
0.0
 14
0.0
 24
0.0
 34
0.0
 15
12.0
 25
9.0
 35
0.0
146
0.0
 13
0.0
 23
0.0
 33
0.0
 16
1.0
 26
0.0
 36
0.0
 17
0.0
 27
1.0
 37
0.0
 76
     0
330
15
  0
DICTIONARY
  5
28
330
C
100
AcDbDictionary
280
0
281
1
  3
Standard
350
2B
  0
TABLESTYLE
  5
2C
330
29
100
AcDbTableStyle
  3
Standard
 70
     0
 71
     0
 40
0.06
 41
0.06
280
0
281
0
  7
Standard
140
0.18
170
     5
 62
     0
 63
     7
283
0
 90
   512
 91
     0
  1

274
    -2
284
1
 64
     0
275
    -2
285
1
 65
     0
276
    -2
286
1
 66
     0
277
    -2
287
1
 67
     0
278
    -2
288
1
 68
     0
279
    -2
289
1
 69
     0
  7
Standard
140
0.25
170
     2
 62
     0
 63
     7
283
0
 90
   512
 91
     0
  1

274
    -2
284
1
 64
     0
275
    -2
285
1
 65
     0
276
    -2
286
1
 66
     0
277
    -2
287
1
 67
     0
278
    -2
288
1
 68
     0
279
    -2
289
1
 69
     0
  7
Standard
140
0.25
170
     2
 62
     0
 63
     7
283
0
 90
   512
 91
     0
  1

274
    -2
284
1
 64
     0
275
    -2
285
1
 65
     0
276
    -2
286
1
 66
     0
277
    -2
287
1
 67
     0
278
    -2
288
1
 68
     0
279
    -2
289
1
 69
     0
  0
DICTIONARY
  5
27
330
C
100
AcDbDictionary
280
0
281
1
  0
ACDBPLACEHOLDER
  5
2F
102
{ACAD_REACTORS
330
24
102
}
330
24
  0
DICTIONARY
  5
25
330
C
100
AcDbDictionary
280
0
281
1
  0
DICTIONARY
  5
20
330
C
100
AcDbDictionary
280
0
281
1
  0
LAYOUT
  5
2E
330
22
100
AcDbPlotSettings
  1

  2

  4

  6

  7

 40
0.0
 41
0.0
 42
0.0
 43
0.0
 44
0.0
 45
0.0
 46
0.0
 47
0.0
 48
0.0
 49
0.0
140
0.0
141
0.0
142
1.0
143
1.0
147
1.0
148
0.0
149
0.0
 70
     0
 72
     0
 73
     0
 74
     5
 75
     0
 76
     0
 77
     0
 78
   300
100
AcDbLayout
  1
Layout1
 70
     0
 71
     1
 10
0.0
 20
0.0
 11
0.0
 21
0.0
 12
0.0
 22
0.0
 32
0.0
 14
0.0
 24
0.0
 34
0.0
 15
12.0
 25
9.0
 35
0.0
146
0.0
 13
0.0
 23
0.0
 33
0.0
 16
1.0
 26
0.0
 36
0.0
 17
0.0
 27
1.0
 37
0.0
 76
     0
330
18
  0
ENDSEC
  0
EOF
