  0
SECTION
  2
HEADER
  9
$ACADVER
  1
AC1032
  9
$ACADMAINTVER
 90
     0
  9
$DWGCODEPAGE
  3
ANSI_1252
  9
$HANDSEED
  5
161
  9
$INSBASE
 10
0.0
 20
0.0
 30
0.0
  9
$EXTMIN
 10
1.0000000000000000e20
 20
1.0000000000000000e20
 30
1.0000000000000000e20
  9
$EXTMAX
 10
-1.0000000000000000e20
 20
-1.0000000000000000e20
 30
-1.0000000000000000e20
  9
$LIMMIN
 10
0.0
 20
0.0
  9
$LIMMAX
 10
0.0
 20
0.0
  9
$ORTHOMODE
 70
     0
  9
$OSMODE
 70
     0
  9
$REGENMODE
 70
     1
  9
$FILLMODE
 70
     1
  9
$QTEXTMODE
 70
     0
  9
$MIRRTEXT
 70
     0
  9
$LTSCALE
 40
1.0
  9
$ATTMODE
 70
     1
  9
$TEXTSIZE
 40
2.5
  9
$TRACEWID
 40
0.05
  9
$SKETCHINC
 40
0.1
  9
$SKPOLY
 70
     0
  9
$TEXTSTYLE
  7
Standard
  9
$CMLSTYLE
  2
Standard
  9
$CLAYER
  8
0
  9
$CELTYPE
  6
ByLayer
  9
$CECOLOR
 62
   256
  9
$CELWEIGHT
370
    -1
  9
$CELTSCALE
 40
1.0
  9
$DISPSILH
 70
     1
  9
$LWDISPLAY
290
     0
  9
$LUNITS
 70
     2
  9
$LUPREC
 70
     4
  9
$AUNITS
 70
     0
  9
$AUPREC
 70
     0
  9
$MEASUREMENT
 70
     0
  9
$INSUNITS
 70
     0
  9
$PDMODE
 70
     0
  9
$PDSIZE
 40
0.0
  9
$PLINEGEN
 70
     0
  9
$PSLTSCALE
 70
     1
  9
$DIMSCALE
 40
1.0
  9
$DIMASZ
 40
0.18
  9
$DIMEXO
 40
0.0625
  9
$DIMDLI
 40
0.38
  9
$DIMRND
 40
0.0
  9
$DIMDLE
 40
0.0
  9
$DIMEXE
 40
0.18
  9
$DIMTP
 40
0.0
  9
$DIMTM
 40
0.0
  9
$DIMTXT
 40
0.18
  9
$DIMCEN
 40
0.09
  9
$DIMTSZ
 40
0.0
  9
$DIMTOL
 70
     0
  9
$DIMLIM
 70
     0
  9
$DIMTIH
 70
     1
  9
$DIMTOH
 70
     1
  9
$DIMSE1
 70
     0
  9
$DIMSE2
 70
     0
  9
$DIMTAD
 70
     0
  9
$DIMZIN
 70
     0
  9
$DIMCLRD
 70
     0
  9
$DIMCLRE
 70
     0
  9
$DIMCLRT
 70
     0
  9
$DIMGAP
 40
0.09
  9
$DIMALT
 70
     0
  9
$DIMALTD
 70
     2
  9
$DIMALTF
 40
25.4
  9
$DIMLFAC
 40
1.0
  9
$DIMTOFL
 70
     0
  9
$DIMTVP
 40
0.0
  9
$DIMTIX
 70
     0
  9
$DIMSOXD
 70
     0
  9
$DIMSAH
 70
     0
  9
$DIMPOST
  1

  9
$DIMAPOST
  1

  9
$DIMSTYLE
  2
Standard
  9
$DIMLUNIT
 70
     2
  9
$DIMDEC
 70
     4
  9
$DIMTDEC
 70
     4
  9
$DIMALTU
 70
     2
  9
$DIMALTTD
 70
     4
  9
$DIMAUNIT
 70
     0
  9
$DIMADEC
 70
     0
  9
$DIMJUST
 70
     0
  9
$DIMSD1
 70
     0
  9
$DIMSD2
 70
     0
  9
$DIMTOLJ
 70
     1
  9
$DIMTZIN
 70
     0
  9
$DIMALTZ
 70
     0
  9
$DIMALTTZ
 70
     0
  9
$DIMATFIT
 70
     3
  9
$DIMDSEP
 70
    46
  9
$DIMTMOVE
 70
     0
  9
$DIMFRAC
 70
     0
  9
$DIMLWD
 70
    -2
  9
$DIMLWE
 70
    -2
  9
$DIMTFAC
 40
1.0
  9
$SPLFRAME
 70
     0
  9
$SOLIDHIST
280
0
  9
$SHOWHIST
280
1
  9
$SPLINETYPE
 70
     6
  9
$SPLINESEGS
 70
     8
  9
$SURFTAB1
 70
     6
  9
$SURFTAB2
 70
     6
  9
$SURFTYPE
 70
     6
  9
$SURFU
 70
     6
  9
$SURFV
 70
     6
  9
$WORLDVIEW
 70
     1
  9
$PELEVATION
 40
0.0
  9
$PLINEWID
 40
0.0
  9
$MAXACTVP
 70
    64
  9
$TILEMODE
 70
     1
  9
$PLIMCHECK
 70
     0
  9
$VISRETAIN
 70
     1
  9
$PSTYLEMODE
290
     1
  9
$TDCREATE
 40
0.0
  9
$TDUPDATE
 40
0.0
  9
$TDINDWG
 40
0.0
  9
$UCSORG
 10
0.0
 20
0.0
 30
0.0
  9
$UCSXDIR
 10
1.0
 20
0.0
 30
0.0
  9
$UCSYDIR
 10
0.0
 20
1.0
 30
0.0
  0
ENDSEC
  0
SECTION
  2
CLASSES
  0
CLASS
  1
ACDBDICTIONARYWDFLT
  2
AcDbDictionaryWithDefault
  3
ObjectDBX Classes
 90
     0
 91
     0
280
0
281
0
  0
CLASS
  1
DICTIONARYVAR
  2
AcDbDictionaryVar
  3
ObjectDBX Classes
 90
     0
 91
     0
280
0
281
0
  0
CLASS
  1
LAYOUT
  2
AcDbLayout
  3
ObjectDBX Classes
 90
     0
 91
     0
280
0
281
0
  0
CLASS
  1
ACDBPLACEHOLDER
  2
AcDbPlaceHolder
  3
ObjectDBX Classes
 90
     0
 91
     0
280
0
281
0
  0
CLASS
  1
PLOTSETTINGS
  2
AcDbPlotSettings
  3
ObjectDBX Classes
 90
     0
 91
     0
280
0
281
0
  0
CLASS
  1
SCALE
  2
AcDbScale
  3
ObjectDBX Classes
 90
     0
 91
     0
280
0
281
0
  0
CLASS
  1
MESH
  2
AcDbSubDMesh
  3
AcDbSubDMesh|Description: AutoCAD subD mesh
 90
  4095
 91
     0
280
0
281
1
  0
CLASS
  1
ACAD_TABLE
  2
AcDbTable
  3
ObjectDBX Classes
 90
  1025
 91
     0
280
0
281
1
  0
CLASS
  1
WIPEOUT
  2
AcDbWipeout
  3
WipeOut|AutoCAD Express Tool|www.autodesk.com
 90
   127
 91
     0
280
0
281
1
  0
CLASS
  1
IMAGE
  2
AcDbRasterImage
  3
ISM
 90
   127
 91
     0
280
0
281
1
  0
CLASS
  1
PDFREFERENCE
  2
AcDbPdfReference
  3
ObjectDBX Classes
 90
     1
 91
     0
280
0
281
1
  0
CLASS
  1
DWFREFERENCE
  2
AcDbDwfReference
  3
ObjectDBX Classes
 90
     1
 91
     0
280
0
281
1
  0
CLASS
  1
DGNREFERENCE
  2
AcDbDgnReference
  3
ObjectDBX Classes
 90
     1
 91
     0
280
0
281
1
  0
CLASS
  1
PDFUNDERLAY
  2
AcDbPdfReference
  3
ObjectDBX Classes
 90
     1
 91
     0
280
0
281
1
  0
CLASS
  1
DWFUNDERLAY
  2
AcDbDwfReference
  3
ObjectDBX Classes
 90
     1
 91
     0
280
0
281
1
  0
CLASS
  1
DGNUNDERLAY
  2
AcDbDgnReference
  3
ObjectDBX Classes
 90
     1
 91
     0
280
0
281
1
  0
CLASS
  1
HELIX
  2
AcDbHelix
  3
ObjectDBX Classes
 90
     0
 91
     0
280
0
281
1
  0
CLASS
  1
LIGHT
  2
AcDbLight
  3
SCENEOE
 90
  1153
 91
     0
280
0
281
1
  0
CLASS
  1
MULTILEADER
  2
AcDbMLeader
  3
ACDB_MLEADER_CLASS
 90
  1025
 91
     0
280
0
281
1
  0
CLASS
  1
OLE2FRAME
  2
AcDbOle2Frame
  3
ObjectDBX Classes
 90
     1
 91
     0
280
0
281
1
  0
CLASS
  1
MLINE
  2
AcDbMline
  3
ObjectDBX Classes
 90
     1
 91
     0
280
0
281
1
  0
CLASS
  1
ARC_DIMENSION
  2
AcDbArcDimension
  3
ObjectDBX Classes
 90
     0
 91
     0
280
0
281
1
  0
CLASS
  1
LARGE_RADIAL_DIMENSION
  2
AcDbRadialDimensionLarge
  3
ObjectDBX Classes
 90
     0
 91
     0
280
0
281
1
  0
CLASS
  1
CAMERA
  2
AcDbCamera
  3
ObjectDBX Classes
 90
     0
 91
     0
280
0
281
1
  0
CLASS
  1
SECTIONOBJECT
  2
AcDbSection
  3
ObjectDBX Classes
 90
     0
 91
     0
280
0
281
1
  0
CLASS
  1
ARCALIGNEDTEXT
  2
AcDbArcAlignedText
  3
AutoCAD Express Tools
 90
   127
 91
     0
280
0
281
1
  0
CLASS
  1
RTEXT
  2
AcDbRText
  3
AutoCAD Express Tools
 90
   127
 91
     0
280
0
281
1
  0
CLASS
  1
POSITIONMARKER
  2
AcDbGeoPositionMarker
  3
ObjectDBX Classes
 90
     0
 91
     0
280
0
281
1
  0
CLASS
  1
COORDINATION_MODEL
  2
AcDbNavisworksModel
  3
ObjectDBX Classes
 90
     0
 91
     0
280
0
281
1
  0
CLASS
  1
ACDBPOINTCLOUD
  2
AcDbPointCloud
  3
AcDbPointCloudObj
 90
     0
 91
     0
280
0
281
1
  0
CLASS
  1
ACDBPOINTCLOUDEX
  2
AcDbPointCloudEx
  3
AcDbPointCloudObj
 90
     0
 91
     0
280
0
281
1
  0
CLASS
  1
MPOLYGON
  2
AcDbMPolygon
  3
ObjectDBX Classes
 90
   127
 91
     0
280
0
281
1
  0
CLASS
  1
ALIGNMENTPARAMETERENTITY
  2
AcDbBlockAlignmentParameterEntity
  3
ObjectDBX Classes
 90
     0
 91
     0
280
0
281
1
  0
CLASS
  1
BASEPOINTPARAMETERENTITY
  2
AcDbBlockBasepointParameterEntity
  3
ObjectDBX Classes
 90
     0
 91
     0
280
0
281
1
  0
CLASS
  1
FLIPPARAMETERENTITY
  2
AcDbBlockFlipParameterEntity
  3
ObjectDBX Classes
 90
     0
 91
     0
280
0
281
1
  0
CLASS
  1
LINEARPARAMETERENTITY
  2
AcDbBlockLinearParameterEntity
  3
ObjectDBX Classes
 90
     0
 91
     0
280
0
281
1
  0
CLASS
  1
POINTPARAMETERENTITY
  2
AcDbBlockPointParameterEntity
  3
ObjectDBX Classes
 90
     0
 91
     0
280
0
281
1
  0
CLASS
  1
ROTATIONPARAMETERENTITY
  2
AcDbBlockRotationParameterEntity
  3
ObjectDBX Classes
 90
     0
 91
     0
280
0
281
1
  0
CLASS
  1
VISIBILITYPARAMETERENTITY
  2
AcDbBlockVisibilityParameterEntity
  3
ObjectDBX Classes
 90
     0
 91
     0
280
0
281
1
  0
CLASS
  1
FLIPGRIPENTITY
  2
AcDbBlockFlipGripEntity
  3
ObjectDBX Classes
 90
     0
 91
     0
280
0
281
1
  0
CLASS
  1
LINEARGRIPENTITY
  2
AcDbBlockLinearGripEntity
  3
ObjectDBX Classes
 90
     0
 91
     0
280
0
281
1
  0
CLASS
  1
POLARGRIPENTITY
  2
AcDbBlockPolarGripEntity
  3
ObjectDBX Classes
 90
     0
 91
     0
280
0
281
1
  0
CLASS
  1
ROTATIONGRIPENTITY
  2
AcDbBlockRotationGripEntity
  3
ObjectDBX Classes
 90
     0
 91
     0
280
0
281
1
  0
CLASS
  1
VISIBILITYGRIPENTITY
  2
AcDbBlockVisibilityGripEntity
  3
ObjectDBX Classes
 90
     0
 91
     0
280
0
281
1
  0
CLASS
  1
XYGRIPENTITY
  2
AcDbBlockXYGripEntity
  3
ObjectDBX Classes
 90
     0
 91
     0
280
0
281
1
  0
CLASS
  1
XYPARAMETERENTITY
  2
AcDbBlockXYParameterEntity
  3
ObjectDBX Classes
 90
     0
 91
     0
280
0
281
1
  0
CLASS
  1
BLOCKANGULARCONSTRAINTPARAMETERENTITY
  2
AcDbBlockAngularConstraintParameterEntity
  3
ObjectDBX Classes
 90
     0
 91
     0
280
0
281
1
  0
CLASS
  1
LOFTEDSURFACE
  2
AcDbLoftedSurface
  3
ObjectDBX Classes
 90
     0
 91
     0
280
0
281
1
  0
CLASS
  1
ACDBASSOCDEPENDENCY
  2
AcDbAssocDependency
  3
ObjectDBX Classes
 90
     0
 91
     0
280
0
281
0
  0
CLASS
  1
ACDBASSOCVALUEDEPENDENCY
  2
AcDbAssocValueDependency
  3
ObjectDBX Classes
 90
  1025
 91
     0
280
0
281
0
  0
CLASS
  1
ACDBASSOCGEOMDEPENDENCY
  2
AcDbAssocGeomDependency
  3
ObjectDBX Classes
 90
  1025
 91
     0
280
0
281
0
  0
CLASS
  1
ACDBASSOCACTION
  2
AcDbAssocAction
  3
ObjectDBX Classes
 90
     0
 91
     0
280
0
281
0
  0
CLASS
  1
ACDBASSOCNETWORK
  2
AcDbAssocNetwork
  3
ObjectDBX Classes
 90
  1025
 91
     0
280
0
281
0
  0
CLASS
  1
ACDBASSOC2DCONSTRAINTGROUP
  2
AcDbAssoc2dConstraintGroup
  3
ObjectDBX Classes
 90
  1025
 91
     0
280
0
281
0
  0
CLASS
  1
ACDBASSOCVARIABLE
  2
AcDbAssocVariable
  3
ObjectDBX Classes
 90
  1025
 91
     0
280
0
281
0
  0
CLASS
  1
ACDBASSOCPERSSUBENTMANAGER
  2
AcDbAssocPersSubentManager
  3
ObjectDBX Classes
 90
     0
 91
     0
280
0
281
0
  0
CLASS
  1
ACDBASSOCCOMPOUNDACTIONPARAM
  2
AcDbAssocCompoundActionParam
  3
ObjectDBX Classes
 90
     0
 91
     0
280
0
281
0
  0
CLASS
  1
ACDBASSOCOSNAPPOINTREFACTIONPARAM
  2
AcDbAssocOsnapPointRefActionParam
  3
ObjectDBX Classes
 90
     0
 91
     0
280
0
281
0
  0
CLASS
  1
ACDBASSOCOBJECTACTIONPARAM
  2
AcDbAssocObjectActionParam
  3
ObjectDBX Classes
 90
     0
 91
     0
280
0
281
0
  0
CLASS
  1
ACDBASSOCPATHACTIONPARAM
  2
AcDbAssocPathActionParam
  3
ObjectDBX Classes
 90
     0
 91
     0
280
0
281
0
  0
CLASS
  1
ACDBASSOCEDGEACTIONPARAM
  2
AcDbAssocEdgeActionParam
  3
ObjectDBX Classes
 90
     0
 91
     0
280
0
281
0
  0
CLASS
  1
ACDBASSOCFACEACTIONPARAM
  2
AcDbAssocFaceActionParam
  3
ObjectDBX Classes
 90
     0
 91
     0
280
0
281
0
  0
CLASS
  1
ACDBASSOCVERTEXACTIONPARAM
  2
AcDbAssocVertexActionParam
  3
ObjectDBX Classes
 90
     0
 91
     0
280
0
281
0
  0
CLASS
  1
ACDBASSOCASMBODYACTIONPARAM
  2
AcDbAssocAsmbodyActionParam
  3
ObjectDBX Classes
 90
     0
 91
     0
280
0
281
0
  0
CLASS
  1
ACDBASSOCDIMDEPENDENCYBODY
  2
AcDbAssocDimDependencyBody
  3
ObjectDBX Classes
 90
     0
 91
     0
280
0
281
0
  0
CLASS
  1
ACDBASSOCPLANESURFACEACTIONBODY
  2
AcDbAssocPlaneSurfaceActionBody
  3
ObjectDBX Classes
 90
     0
 91
     0
280
0
281
0
  0
CLASS
  1
ACDBASSOCEXTENDSURFACEACTIONBODY
  2
AcDbAssocExtendSurfaceActionBody
  3
ObjectDBX Classes
 90
     0
 91
     0
280
0
281
0
  0
CLASS
  1
ACDBASSOCEXTRUDEDSURFACEACTIONBODY
  2
AcDbAssocExtrudedSurfaceActionBody
  3
ObjectDBX Classes
 90
     0
 91
     0
280
0
281
0
  0
CLASS
  1
ACDBASSOCLOFTEDSURFACEACTIONBODY
  2
AcDbAssocLoftedSurfaceActionBody
  3
ObjectDBX Classes
 90
     0
 91
     0
280
0
281
0
  0
CLASS
  1
ACDBASSOCNETWORKSURFACEACTIONBODY
  2
AcDbAssocNetworkSurfaceActionBody
  3
ObjectDBX Classes
 90
     0
 91
     0
280
0
281
0
  0
CLASS
  1
ACDBASSOCOFFSETSURFACEACTIONBODY
  2
AcDbAssocOffsetSurfaceActionBody
  3
ObjectDBX Classes
 90
     0
 91
     0
280
0
281
0
  0
CLASS
  1
ACDBASSOCREVOLVEDSURFACEACTIONBODY
  2
AcDbAssocRevolvedSurfaceActionBody
  3
ObjectDBX Classes
 90
     0
 91
     0
280
0
281
0
  0
CLASS
  1
ACDBASSOCTRIMSURFACEACTIONBODY
  2
AcDbAssocTrimSurfaceActionBody
  3
ObjectDBX Classes
 90
     0
 91
     0
280
0
281
0
  0
CLASS
  1
ACDBASSOCBLENDSURFACEACTIONBODY
  2
AcDbAssocBlendSurfaceActionBody
  3
ObjectDBX Classes
 90
     0
 91
     0
280
0
281
0
  0
CLASS
  1
ACDBASSOCPATCHSURFACEACTIONBODY
  2
AcDbAssocPatchSurfaceActionBody
  3
ObjectDBX Classes
 90
     0
 91
     0
280
0
281
0
  0
CLASS
  1
ACDBASSOCFILLETSURFACEACTIONBODY
  2
AcDbAssocFilletSurfaceActionBody
  3
ObjectDBX Classes
 90
     0
 91
     0
280
0
281
0
  0
CLASS
  1
ACDBASSOCSWEPTSURFACEACTIONBODY
  2
AcDbAssocSweptSurfaceActionBody
  3
ObjectDBX Classes
 90
     0
 91
     0
280
0
281
0
  0
CLASS
  1
ACDBASSOCEDGECHAMFERACTIONBODY
  2
AcDbAssocEdgeChamferActionBody
  3
ObjectDBX Classes
 90
     0
 91
     0
280
0
281
0
  0
CLASS
  1
ACDBASSOCEDGEFILLETACTIONBODY
  2
AcDbAssocEdgeFilletActionBody
  3
ObjectDBX Classes
 90
     0
 91
     0
280
0
281
0
  0
CLASS
  1
ACDBASSOCRESTOREENTITYSTATEACTIONBODY
  2
AcDbAssocRestoreEntityStateActionBody
  3
ObjectDBX Classes
 90
     0
 91
     0
280
0
281
0
  0
CLASS
  1
ACDBASSOCMLEADERACTIONBODY
  2
AcDbAssocMLeaderActionBody
  3
ObjectDBX Classes
 90
     0
 91
     0
280
0
281
0
  0
CLASS
  1
ACDBASSOCALIGNEDDIMACTIONBODY
  2
AcDbAssocAlignedDimActionBody
  3
ObjectDBX Classes
 90
     0
 91
     0
280
0
281
0
  0
CLASS
  1
ACDBASSOC3POINTANGULARDIMACTIONBODY
  2
AcDbAssoc3PointAngularDimActionBody
  3
ObjectDBX Classes
 90
     0
 91
     0
280
0
281
0
  0
CLASS
  1
ACDBASSOCORDINATEDIMACTIONBODY
  2
AcDbAssocOrdinateDimActionBody
  3
ObjectDBX Classes
 90
     0
 91
     0
280
0
281
0
  0
CLASS
  1
ACDBASSOCROTATEDDIMACTIONBODY
  2
AcDbAssocRotatedDimActionBody
  3
ObjectDBX Classes
 90
     0
 91
     0
280
0
281
0
  0
CLASS
  1
ACDBASSOCARRAYMODIFYPARAMETERS
  2
AcDbAssocArrayModifyParameters
  3
ObjectDBX Classes
 90
     0
 91
     0
280
0
281
0
  0
CLASS
  1
ACDBASSOCARRAYPATHPARAMETERS
  2
AcDbAssocArrayPathParameters
  3
ObjectDBX Classes
 90
     0
 91
     0
280
0
281
0
  0
CLASS
  1
ACDBASSOCARRAYPOLARPARAMETERS
  2
AcDbAssocArrayPolarParameters
  3
ObjectDBX Classes
 90
     0
 91
     0
280
0
281
0
  0
CLASS
  1
ACDBASSOCARRAYRECTANGULARPARAMETERS
  2
AcDbAssocArrayRectangularParameters
  3
ObjectDBX Classes
 90
     0
 91
     0
280
0
281
0
  0
CLASS
  1
ACDBASSOCARRAYACTIONBODY
  2
AcDbAssocArrayActionBody
  3
ObjectDBX Classes
 90
     0
 91
     0
280
0
281
0
  0
CLASS
  1
ACDBASSOCARRAYMODIFYACTIONBODY
  2
AcDbAssocArrayModifyActionBody
  3
ObjectDBX Classes
 90
     0
 91
     0
280
0
281
0
  0
CLASS
  1
PERSUBENTMGR
  2
AcDbPersSubentManager
  3
ObjectDBX Classes
 90
     0
 91
     0
280
0
281
0
  0
CLASS
  1
ACSH_BOOLEAN_CLASS
  2
AcDbShBoolean
  3
ObjectDBX Classes
 90
     0
 91
     0
280
0
281
0
  0
CLASS
  1
ACSH_BOX_CLASS
  2
AcDbShBox
  3
ObjectDBX Classes
 90
     0
 91
     0
280
0
281
0
  0
CLASS
  1
ACSH_BREP_CLASS
  2
AcDbShBrep
  3
ObjectDBX Classes
 90
     0
 91
     0
280
0
281
0
  0
CLASS
  1
ACSH_CHAMFER_CLASS
  2
AcDbShChamfer
  3
ObjectDBX Classes
 90
     0
 91
     0
280
0
281
0
  0
CLASS
  1
ACSH_CONE_CLASS
  2
AcDbShCone
  3
ObjectDBX Classes
 90
     0
 91
     0
280
0
281
0
  0
CLASS
  1
ACSH_CYLINDER_CLASS
  2
AcDbShCylinder
  3
ObjectDBX Classes
 90
     0
 91
     0
280
0
281
0
  0
CLASS
  1
ACSH_EXTRUSION_CLASS
  2
AcDbShExtrusion
  3
ObjectDBX Classes
 90
     0
 91
     0
280
0
281
0
  0
CLASS
  1
ACSH_FILLET_CLASS
  2
AcDbShFillet
  3
ObjectDBX Classes
 90
     0
 91
     0
280
0
281
0
  0
CLASS
  1
ACSH_HISTORY_CLASS
  2
AcDbShHistory
  3
ObjectDBX Classes
 90
     0
 91
     0
280
0
281
0
  0
CLASS
  1
ACSH_LOFT_CLASS
  2
AcDbShLoft
  3
ObjectDBX Classes
 90
     0
 91
     0
280
0
281
0
  0
CLASS
  1
ACSH_PYRAMID_CLASS
  2
AcDbShPyramid
  3
ObjectDBX Classes
 90
     0
 91
     0
280
0
281
0
  0
CLASS
  1
ACSH_REVOLVE_CLASS
  2
AcDbShRevolve
  3
ObjectDBX Classes
 90
     0
 91
     0
280
0
281
0
  0
CLASS
  1
ACSH_SPHERE_CLASS
  2
AcDbShSphere
  3
ObjectDBX Classes
 90
     0
 91
     0
280
0
281
0
  0
CLASS
  1
ACSH_SWEEP_CLASS
  2
AcDbShSweep
  3
ObjectDBX Classes
 90
     0
 91
     0
280
0
281
0
  0
CLASS
  1
ACSH_TORUS_CLASS
  2
AcDbShTorus
  3
ObjectDBX Classes
 90
     0
 91
     0
280
0
281
0
  0
CLASS
  1
ACSH_WEDGE_CLASS
  2
AcDbShWedge
  3
ObjectDBX Classes
 90
     0
 91
     0
280
0
281
0
  0
CLASS
  1
ACDB_BLOCKREPRESENTATION_DATA
  2
AcDbBlockRepresentationData
  3
ObjectDBX Classes
 90
     0
 91
     0
280
0
281
0
  0
CLASS
  1
ACDB_DYNAMICBLOCKPURGEPREVENTER_VERSION
  2
AcDbDynamicBlockPurgePreventer
  3
ObjectDBX Classes
 90
     0
 91
     0
280
0
281
0
  0
CLASS
  1
ACDB_DYNAMICBLOCKPROXYNODE
  2
AcDbDynamicBlockProxyNode
  3
ObjectDBX Classes
 90
     0
 91
     0
280
0
281
0
  0
CLASS
  1
ACAD_EVALUATION_GRAPH
  2
AcDbEvalGraph
  3
ObjectDBX Classes
 90
     0
 91
     0
280
0
281
0
  0
CLASS
  1
BLOCKGRIPLOCATIONCOMPONENT
  2
AcDbBlockGripExpr
  3
ObjectDBX Classes
 90
     0
 91
     0
280
0
281
0
  0
CLASS
  1
BLOCKALIGNMENTPARAMETER
  2
AcDbBlockAlignmentParameter
  3
ObjectDBX Classes
 90
     0
 91
     0
280
0
281
0
  0
CLASS
  1
BLOCKALIGNMENTGRIP
  2
AcDbBlockAlignmentGrip
  3
ObjectDBX Classes
 90
     0
 91
     0
280
0
281
0
  0
CLASS
  1
BLOCKBASEPOINTPARAMETER
  2
AcDbBlockBasepointParameter
  3
ObjectDBX Classes
 90
     0
 91
     0
280
0
281
0
  0
CLASS
  1
BLOCKFLIPACTION
  2
AcDbBlockFlipAction
  3
ObjectDBX Classes
 90
     0
 91
     0
280
0
281
0
  0
CLASS
  1
BLOCKFLIPPARAMETER
  2
AcDbBlockFlipParameter
  3
ObjectDBX Classes
 90
     0
 91
     0
280
0
281
0
  0
CLASS
  1
BLOCKFLIPGRIP
  2
AcDbBlockFlipGrip
  3
ObjectDBX Classes
 90
     0
 91
     0
280
0
281
0
  0
CLASS
  1
BLOCKLINEARGRIP
  2
AcDbBlockLinearGrip
  3
ObjectDBX Classes
 90
     0
 91
     0
280
0
281
0
  0
CLASS
  1
BLOCKLOOKUPGRIP
  2
AcDbBlockLookupGrip
  3
ObjectDBX Classes
 90
     0
 91
     0
280
0
281
0
  0
CLASS
  1
BLOCKROTATIONGRIP
  2
AcDbBlockRotationGrip
  3
ObjectDBX Classes
 90
     0
 91
     0
280
0
281
0
  0
CLASS
  1
BLOCKMOVEACTION
  2
AcDbBlockMoveAction
  3
ObjectDBX Classes
 90
     0
 91
     0
280
0
281
0
  0
CLASS
  1
BLOCKROTATEACTION
  2
AcDbBlockRotationAction
  3
ObjectDBX Classes
 90
     0
 91
     0
280
0
281
0
  0
CLASS
  1
BLOCKSCALEACTION
  2
AcDbBlockScaleAction
  3
ObjectDBX Classes
 90
     0
 91
     0
280
0
281
0
  0
CLASS
  1
BLOCKVISIBILITYGRIP
  2
AcDbBlockVisibilityGrip
  3
ObjectDBX Classes
 90
     0
 91
     0
280
0
281
0
  0
CLASS
  1
BLOCKLINEARPARAMETER
  2
AcDbBlockLinearParameter
  3
ObjectDBX Classes
 90
     0
 91
     0
280
0
281
0
  0
CLASS
  1
BLOCKROTATIONPARAMETER
  2
AcDbBlockRotationParameter
  3
ObjectDBX Classes
 90
     0
 91
     0
280
0
281
0
  0
CLASS
  1
BLOCKXYPARAMETER
  2
AcDbBlockXYParameter
  3
ObjectDBX Classes
 90
     0
 91
     0
280
0
281
0
  0
CLASS
  1
BLOCKVISIBILITYPARAMETER
  2
AcDbBlockVisibilityParameter
  3
ObjectDBX Classes
 90
     0
 91
     0
280
0
281
0
  0
CLASS
  1
BLOCKPOLARPARAMETER
  2
AcDbBlockPolarParameter
  3
ObjectDBX Classes
 90
     0
 91
     0
280
0
281
0
  0
CLASS
  1
BLOCKPOLARGRIP
  2
AcDbBlockPolarGrip
  3
ObjectDBX Classes
 90
     0
 91
     0
280
0
281
0
  0
CLASS
  1
ACDBBLOCKPARAMDEPENDENCYBODY
  2
AcDbBlockParameterDependencyBody
  3
ObjectDBX Classes
 90
     0
 91
     0
280
0
281
0
  0
CLASS
  1
BLOCKPARAMDEPENDENCYBODY
  2
AcDbBlockParameterDependencyBody
  3
ObjectDBX Classes
 90
     0
 91
     0
280
0
281
0
  0
CLASS
  1
ACMECOMMANDHISTORY
  2
AcMeCommandHistory
  3
AcMeServices
 90
     0
 91
     0
280
0
281
0
  0
CLASS
  1
ACMESCOPE
  2
AcMeScope
  3
AcMeServices
 90
     0
 91
     0
280
0
281
0
  0
CLASS
  1
ACMESTATEMGR
  2
AcMeStateMgr
  3
AcMeServices
 90
     0
 91
     0
280
0
281
0
  0
CLASS
  1
CSACDOCUMENTOPTIONS
  2
CDocDataContainer
  3
"DERU003_CSAPP"
 90
  4095
 91
     0
280
0
281
0
  0
CLASS
  1
BLOCKALIGNEDCONSTRAINTPARAMETER
  2
AcDbBlockAlignedConstraintParameter
  3
ObjectDBX Classes
 90
     0
 91
     0
280
0
281
0
  0
CLASS
  1
BLOCKANGULARCONSTRAINTPARAMETER
  2
AcDbBlockAngularConstraintParameter
  3
ObjectDBX Classes
 90
     0
 91
     0
280
0
281
0
  0
CLASS
  1
BLOCKARRAYACTION
  2
AcDbBlockArrayAction
  3
ObjectDBX Classes
 90
     0
 91
     0
280
0
281
0
  0
CLASS
  1
BLOCKDIAMETRICCONSTRAINTPARAMETER
  2
AcDbBlockDiametricConstraintParameter
  3
ObjectDBX Classes
 90
     0
 91
     0
280
0
281
0
  0
CLASS
  1
BLOCKHORIZONTALCONSTRAINTPARAMETER
  2
AcDbBlockHorizontalConstraintParameter
  3
ObjectDBX Classes
 90
     0
 91
     0
280
0
281
0
  0
CLASS
  1
BLOCKLINEARCONSTRAINTPARAMETER
  2
AcDbBlockLinearConstraintParameter
  3
ObjectDBX Classes
 90
     0
 91
     0
280
0
281
0
  0
CLASS
  1
BLOCKRADIALCONSTRAINTPARAMETER
  2
AcDbBlockRadialConstraintParameter
  3
ObjectDBX Classes
 90
     0
 91
     0
280
0
281
0
  0
CLASS
  1
BLOCKVERTICALCONSTRAINTPARAMETER
  2
AcDbBlockVerticalConstraintParameter
  3
ObjectDBX Classes
 90
     0
 91
     0
280
0
281
0
  0
CLASS
  1
BLOCKLOOKUPACTION
  2
AcDbBlockLookupAction
  3
ObjectDBX Classes
 90
     0
 91
     0
280
0
281
0
  0
CLASS
  1
BLOCKLOOKUPPARAMETER
  2
AcDbBlockLookupParameter
  3
ObjectDBX Classes
 90
     0
 91
     0
280
0
281
0
  0
CLASS
  1
BLOCKPOINTPARAMETER
  2
AcDbBlockPointParameter
  3
ObjectDBX Classes
 90
     0
 91
     0
280
0
281
0
  0
CLASS
  1
BLOCKPOLARSTRETCHACTION
  2
AcDbBlockPolarStretchAction
  3
ObjectDBX Classes
 90
     0
 91
     0
280
0
281
0
  0
CLASS
  1
BLOCKSTRETCHACTION
  2
AcDbBlockStretchAction
  3
ObjectDBX Classes
 90
     0
 91
     0
280
0
281
0
  0
CLASS
  1
BLOCKUSERPARAMETER
  2
AcDbBlockUserParameter
  3
ObjectDBX Classes
 90
     0
 91
     0
280
0
281
0
  0
CLASS
  1
BLOCKXYGRIP
  2
AcDbBlockXYGrip
  3
ObjectDBX Classes
 90
     0
 91
     0
280
0
281
0
  0
CLASS
  1
BLOCKPROPERTIESTABLE
  2
AcDbBlockPropertiesTable
  3
ObjectDBX Classes
 90
     0
 91
     0
280
0
281
0
  0
CLASS
  1
BLOCKPROPERTIESTABLEGRIP
  2
AcDbBlockPropertiesTableGrip
  3
ObjectDBX Classes
 90
     0
 91
     0
280
0
281
0
  0
CLASS
  1
SPATIAL_INDEX
  2
AcDbSpatialIndex
  3
ObjectDBX Classes
 90
     0
 91
     0
280
0
281
0
  0
CLASS
  1
LAYERFILTER
  2
AcDbLayerFilter
  3
ObjectDBX Classes
 90
     0
 91
     0
280
0
281
0
  0
CLASS
  1
PARTIAL_VIEWING_INDEX
  2
OdDbPartialViewingIndex
  3
ObjectDBX Classes
 90
     0
 91
     0
280
0
281
0
  0
CLASS
  1
VBA_PROJECT
  2
AcDbVbaProject
  3
ObjectDBX Classes
 90
     0
 91
     0
280
0
281
0
  0
CLASS
  1
SECTION_MANAGER
  2
AcDbSectionManager
  3
ObjectDBX Classes
 90
     0
 91
     0
280
0
281
0
  0
CLASS
  1
SECTION_SETTINGS
  2
AcDbSectionSettings
  3
ObjectDBX Classes
 90
     0
 91
     0
280
0
281
0
  0
CLASS
  1
LIGHTLIST
  2
AcDbLightList
  3
SCENEOE
 90
     0
 91
     0
280
0
281
0
  0
CLASS
  1
SUN
  2
AcDbSun
  3
SCENEOE
 90
     0
 91
     0
280
0
281
0
  0
CLASS
  1
SUNSTUDY
  2
AcDbSunStudy
  3
SCENEOE
 90
     0
 91
     0
280
0
281
0
  0
CLASS
  1
RENDERSETTINGS
  2
AcDbRenderSettings
  3
SCENEOE
 90
     0
 91
     0
280
0
281
0
  0
CLASS
  1
MENTALRAYRENDERSETTINGS
  2
AcDbMentalRayRenderSettings
  3
SCENEOE
 90
     0
 91
     0
280
0
281
0
  0
CLASS
  1
RAPIDRTRENDERSETTINGS
  2
AcDbRapidRTRenderSettings
  3
ObjectDBX Classes
 90
     0
 91
     0
280
0
281
0
  0
CLASS
  1
RENDERENVIRONMENT
  2
AcDbRenderEnvironment
  3
SCENEOE
 90
     0
 91
     0
280
0
281
0
  0
CLASS
  1
RENDERGLOBAL
  2
AcDbRenderGlobal
  3
SCENEOE
 90
     0
 91
     0
280
0
281
0
  0
CLASS
  1
RENDERENTRY
  2
AcDbRenderEntry
  3
SCENEOE
 90
     0
 91
     0
280
0
281
0
  0
CLASS
  1
RAPIDRTRENDERENVIRONMENT
  2
AcDbIBLBackground
  3
SCENEOE
 90
     0
 91
     0
280
0
281
0
  0
CLASS
  1
SKYLIGHT_BACKGROUND
  2
AcDbSkyBackground
  3
SCENEOE
 90
     0
 91
     0
280
0
281
0
  0
CLASS
  1
IMAGE_BACKGROUND
  2
AcDbImageBackground
  3
SCENEOE
 90
     0
 91
     0
280
0
281
0
  0
CLASS
  1
SOLID_BACKGROUND
  2
AcDbSolidBackground
  3
SCENEOE
 90
     0
 91
     0
280
0
281
0
  0
CLASS
  1
GROUND_PLANE_BACKGROUND
  2
AcDbGroundPlaneBackground
  3
SCENEOE
 90
     0
 91
     0
280
0
281
0
  0
CLASS
  1
GRADIENT_BACKGROUND
  2
AcDbGradientBackground
  3
SCENEOE
 90
     0
 91
     0
280
0
281
0
  0
CLASS
  1
ACDBCURVEPATH
  2
AcDbCurvePath
  3
SCENEOE
 90
     0
 91
     0
280
0
281
0
  0
CLASS
  1
ACDBMOTIONPATH
  2
AcDbMotionPath
  3
SCENEOE
 90
     0
 91
     0
280
0
281
0
  0
CLASS
  1
ACDBPOINTPATH
  2
AcDbPointPath
  3
SCENEOE
 90
     0
 91
     0
280
0
281
0
  0
CLASS
  1
TVDEVICEPROPERTIES
  2
AcDbTvDeviceProperties
  3
SCENEOE
 90
     0
 91
     0
280
0
281
0
  0
CLASS
  1
ACDBPOINTCLOUDDEF
  2
AcDbPointCloudDef
  3
AcDbPointCloudObj
 90
     0
 91
     0
280
0
281
0
  0
CLASS
  1
ACDBPOINTCLOUDDEFEX
  2
AcDbPointCloudDefEx
  3
AcDbPointCloudObj
 90
     0
 91
     0
280
0
281
0
  0
CLASS
  1
ACDBPOINTCLOUDDEF_REACTOR
  2
AcDbPointCloudDefReactor
  3
AcDbPointCloudObj
 90
     0
 91
     0
280
0
281
0
  0
CLASS
  1
ACDBPOINTCLOUDDEF_REACTOR_EX
  2
AcDbPointCloudDefReactorEx
  3
AcDbPointCloudObj
 90
     0
 91
     0
280
0
281
0
  0
CLASS
  1
ACDBPOINTCLOUDCOLORMAP
  2
AcDbPointCloudColorMap
  3
AcDbPointCloudObj
 90
     0
 91
     0
280
0
281
0
  0
CLASS
  1
NAVISWORKSMODELDEF
  2
AcDbNavisworksModelDef
  3
ObjectDBX Classes
 90
     0
 91
     0
280
0
281
0
  0
CLASS
  1
CONTEXTDATAMANAGER
  2
AcDbContextDataManager
  3
ObjectDBX Classes
 90
     0
 91
     0
280
0
281
0
  0
CLASS
  1
DATATABLE
  2
AcDbDataTable
  3
ObjectDBX Classes
 90
     0
 91
     0
280
0
281
0
  0
CLASS
  1
DATALINK
  2
AcDbDataLink
  3
ObjectDBX Classes
 90
     0
 91
     0
280
0
281
0
  0
CLASS
  1
ACDBPERSSUBENTMANAGER
  2
AcDbPersSubentManager
  3
ObjectDBX Classes
 90
     0
 91
     0
280
0
281
0
  0
CLASS
  1
GEOMAPIMAGE
  2
AcDbGeomapImage
  3
ObjectDBX Classes
 90
     0
 91
     0
280
0
281
0
  0
CLASS
  1
ACDBDETAILVIEWSTYLE
  2
AcDbDetailViewStyle
  3
ObjectDBX Classes
 90
     0
 91
     0
280
0
281
0
  0
CLASS
  1
ACDBSECTIONVIEWSTYLE
  2
AcDbSectionViewStyle
  3
ObjectDBX Classes
 90
     0
 91
     0
280
0
281
0
  0
CLASS
  1
ACAD_PROXY_ENTITY_WRAPPER
  2
AcDbProxyEntityWrapper
  3
ObjectDBX Classes
 90
     0
 91
     0
280
0
281
1
  0
CLASS
  1
ACAD_PROXY_OBJECT_WRAPPER
  2
AcDbProxyObjectWrapper
  3
ObjectDBX Classes
 90
     0
 91
     0
280
0
281
0
  0
CLASS
  1
AEC_REFEDIT_STATUS_TRACKER
  2
AecDbRefEditStatusTracker
  3
AecArchBase
 90
     0
 91
     0
280
0
281
0
  0
CLASS
  1
EXACXREFPANELOBJECT
  2
ExAcXREFPanelObject
  3
EXAC_ESW
 90
     0
 91
     0
280
0
281
0
  0
CLASS
  1
XREFPANELOBJECT
  2
ExAcXREFPanelObject
  3
EXAC_ESW
 90
     0
 91
     0
280
0
281
0
  0
CLASS
  1
NPOCOLLECTION
  2
AcDbImpNonPersistentObjectsCollection
  3
ObjectDBX Classes
 90
     0
 91
     0
280
0
281
0
  0
CLASS
  1
LSDEFINITION
  2
AcDbLSDefinition
  3
DgnLS
 90
     0
 91
     0
280
0
281
0
  0
CLASS
  1
LSSYMBOLCOMPONENT
  2
AcDbLSSymbolComponent
  3
DgnLS
 90
     0
 91
     0
280
0
281
0
  0
CLASS
  1
LSCOMPOUNDCOMPONENT
  2
AcDbLSCompoundComponent
  3
DgnLS
 90
     0
 91
     0
280
0
281
0
  0
CLASS
  1
LSSTROKEPATTERNCOMPONENT
  2
AcDbLSStrokePatternComponent
  3
DgnLS
 90
     0
 91
     0
280
0
281
0
  0
CLASS
  1
LSPOINTCOMPONENT
  2
AcDbLSPointComponent
  3
DgnLS
 90
     0
 91
     0
280
0
281
0
  0
CLASS
  1
LSINTERNALCOMPONENT
  2
AcDbLSInternalComponent
  3
DgnLS
 90
     0
 91
     0
280
0
281
0
  0
CLASS
  1
McDbContainer2
  2
McDbContainer2
  3
NanoSPDS
 90
     0
 91
     0
280
0
281
0
  0
CLASS
  1
Wall
  2
PtDbWall
  3
NanoSPDS
 90
     0
 91
     0
280
0
281
1
  0
CLASS
  1
mcsDbObject
  2
mcsDbObject
  3
NanoSPDS
 90
     0
 91
     0
280
0
281
1
  0
CLASS
  1
NOTEPOSITION
  2
mcsDbObjectNotePosition
  3
NanoSPDS
 90
     0
 91
     0
280
0
281
1
  0
CLASS
  1
spdsLevelMark
  2
mcsDbObjectLevelMark
  3
NanoSPDS
 90
     0
 91
     0
280
0
281
1
  0
CLASS
  1
spdsRelationMark
  2
mcsDbObjectRelationMark
  3
NanoSPDS
 90
     0
 91
     0
280
0
281
1
  0
CLASS
  1
SECTIONLINE
  2
AcDbSectionSymbol
  3
ObjectDBX Classes
 90
     0
 91
     0
280
0
281
1
  0
CLASS
  1
DRAWINGVIEW
  2
AcDbViewBorder
  3
ObjectDBX Classes
 90
     0
 91
     0
280
0
281
1
  0
CLASS
  1
ACDB_ANNOTSCALEOBJECTCONTEXTDATA_CLASS
  2
AcDbAnnotScaleObjectContextData
  3
ObjectDBX Classes
 90
     0
 91
     0
280
0
281
0
  0
CLASS
  1
ACDB_BLKREFOBJECTCONTEXTDATA_CLASS
  2
AcDbBlkrefObjectContextData
  3
ObjectDBX Classes
 90
     0
 91
     0
280
0
281
0
  0
CLASS
  1
ACDB_TEXTOBJECTCONTEXTDATA_CLASS
  2
AcDbTextObjectContextData
  3
ObjectDBX Classes
 90
     0
 91
     0
280
0
281
0
  0
CLASS
  1
ACDB_MTEXTOBJECTCONTEXTDATA_CLASS
  2
AcDbMTextObjectContextData
  3
ObjectDBX Classes
 90
     0
 91
     0
280
0
281
0
  0
CLASS
  1
ACDB_ALDIMOBJECTCONTEXTDATA_CLASS
  2
AcDbAlignedDimensionObjectContextData
  3
ObjectDBX Classes
 90
     0
 91
     0
280
0
281
0
  0
CLASS
  1
ACDB_ANGDIMOBJECTCONTEXTDATA_CLASS
  2
AcDbAngularDimensionObjectContextData
  3
ObjectDBX Classes
 90
     0
 91
     0
280
0
281
0
  0
CLASS
  1
ACDB_DMDIMOBJECTCONTEXTDATA_CLASS
  2
AcDbDiametricDimensionObjectContextData
  3
ObjectDBX Classes
 90
     0
 91
     0
280
0
281
0
  0
CLASS
  1
ACDB_RADIMOBJECTCONTEXTDATA_CLASS
  2
AcDbRadialDimensionObjectContextData
  3
ObjectDBX Classes
 90
     0
 91
     0
280
0
281
0
  0
CLASS
  1
ACDB_RADIMLGOBJECTCONTEXTDATA_CLASS
  2
AcDbRadialDimensionLargeObjectContextData
  3
ObjectDBX Classes
 90
     0
 91
     0
280
0
281
0
  0
CLASS
  1
ACDB_ORDDIMOBJECTCONTEXTDATA_CLASS
  2
AcDbOrdinateDimensionObjectContextData
  3
ObjectDBX Classes
 90
     0
 91
     0
280
0
281
0
  0
CLASS
  1
ACDB_MLEADEROBJECTCONTEXTDATA_CLASS
  2
AcDbMLeaderObjectContextData
  3
ObjectDBX Classes
 90
     0
 91
     0
280
0
281
0
  0
CLASS
  1
ACDB_MTEXTATTRIBUTEOBJECTCONTEXTDATA_CLASS
  2
AcDbMTextAttributeObjectContextData
  3
ObjectDBX Classes
 90
     0
 91
     0
280
0
281
0
  0
CLASS
  1
ACDB_LEADEROBJECTCONTEXTDATA_CLASS
  2
AcDbLeaderObjectContextData
  3
ObjectDBX Classes
 90
     0
 91
     0
280
0
281
0
  0
CLASS
  1
ACDB_FCFOBJECTCONTEXTDATA_CLASS
  2
AcDbFcfObjectContextData
  3
ObjectDBX Classes
 90
     0
 91
     0
280
0
281
0
  0
CLASS
  1
ACDB_HATCHSCALECONTEXTDATA_CLASS
  2
AcDbHatchScaleContextData
  3
ObjectDBX Classes
 90
     0
 91
     0
280
0
281
0
  0
CLASS
  1
ACDB_HATCHVIEWCONTEXTDATA_CLASS
  2
AcDbHatchViewContextData
  3
ObjectDBX Classes
 90
     0
 91
     0
280
0
281
0
  0
CLASS
  1
TABLESTYLE
  2
AcDbTableStyle
  3
ObjectDBX Classes
 90
  1025
 91
     0
280
0
281
0
  0
CLASS
  1
MATERIAL
  2
AcDbMaterial
  3
ObjectDBX Classes
 90
  1025
 91
     0
280
0
281
0
  0
CLASS
  1
VISUALSTYLE
  2
AcDbVisualStyle
  3
ObjectDBX Classes
 90
  4095
 91
     0
280
0
281
0
  0
CLASS
  1
MLEADERSTYLE
  2
AcDbMLeaderStyle
  3
ACDB_MLEADERSTYLE_CLASS
 90
  4095
 91
     0
280
0
281
0
  0
CLASS
  1
CELLSTYLEMAP
  2
AcDbCellStyleMap
  3
ObjectDBX Classes
 90
  1025
 91
     0
280
0
281
0
  0
CLASS
  1
ACDSRECORD
  2
AcDsRecord
  3
AcDsData
 90
     0
 91
     0
280
0
281
0
  0
CLASS
  1
ACDSSCHEMA
  2
AcDsSchema
  3
AcDsData
 90
     0
 91
     0
280
0
281
0
  0
CLASS
  1
XRECORD
  2
AcDbXrecord
  3
ObjectDBX Classes
 90
     0
 91
     0
280
0
281
0
  0
CLASS
  1
SORTENTSTABLE
  2
AcDbSortentsTable
  3
ObjectDBX Classes
 90
     0
 91
     0
280
0
281
0
  0
CLASS
  1
BREAKDATA
  2
AcDbBreakData
  3
ObjectDBX Classes
 90
     0
 91
     0
280
0
281
0
  0
CLASS
  1
BREAKPOINTREF
  2
AcDbBreakPointRef
  3
ObjectDBX Classes
 90
     0
 91
     0
280
0
281
0
  0
CLASS
  1
IDBUFFER
  2
AcDbIdBuffer
  3
ObjectDBX Classes
 90
     0
 91
     0
280
0
281
0
  0
CLASS
  1
INDEX
  2
AcDbIndex
  3
ObjectDBX Classes
 90
     0
 91
     0
280
0
281
0
  0
CLASS
  1
LAYER_INDEX
  2
AcDbLayerIndex
  3
ObjectDBX Classes
 90
     0
 91
     0
280
0
281
0
  0
CLASS
  1
PARTIAL_VIEWING_FILTER
  2
OdDbPartialViewingFilter
  3
OdDbPartialViewing|https://www.opendesign.com Teigha(R) Core Db
 90
     0
 91
     0
280
0
281
0
  0
CLASS
  1
WIPEOUTVARIABLES
  2
AcDbWipeoutVariables
  3
WipeOut|AutoCAD Express Tool|www.autodesk.com
 90
     0
 91
     0
280
0
281
0
  0
CLASS
  1
DIMASSOC
  2
AcDbDimAssoc
  3
AcDbDimAssoc|Product Desc:     AcDim ARX App For Dimension|Company:          Autodesk|WEB Address:      www.autodesk.com
 90
     0
 91
     0
280
0
281
0
  0
CLASS
  1
TABLECONTENT
  2
AcDbTableContent
  3
ObjectDBX Classes
 90
  1025
 91
     0
280
0
281
0
  0
CLASS
  1
TABLEGEOMETRY
  2
AcDbTableGeometry
  3
ObjectDBX Classes
 90
  1025
 91
     0
280
0
281
0
  0
CLASS
  1
Format
  2
mcsDbObjectFormat
  3
NanoSPDS
 90
     0
 91
     0
280
0
281
1
  0
CLASS
  1
RASTERVARIABLES
  2
AcDbRasterVariables
  3
ISM
 90
     0
 91
     0
280
0
281
0
  0
CLASS
  1
IMAGEDEF
  2
AcDbRasterImageDef
  3
ISM
 90
     0
 91
     0
280
0
281
0
  0
CLASS
  1
IMAGEDEF_REACTOR
  2
AcDbRasterImageDefReactor
  3
ISM
 90
     1
 91
     0
280
0
281
0
  0
CLASS
  1
DBCOLOR
  2
AcDbColor
  3
ObjectDBX Classes
 90
  1025
 91
     0
280
0
281
0
  0
CLASS
  1
GEODATA
  2
AcDbGeoData
  3
ObjectDBX Classes
 90
  1025
 91
     0
280
0
281
0
  0
CLASS
  1
PDFDEFINITION
  2
AcDbPdfDefinition
  3
ObjectDBX Classes
 90
     1
 91
     0
280
0
281
0
  0
CLASS
  1
DWFDEFINITION
  2
AcDbDwfDefinition
  3
ObjectDBX Classes
 90
     1
 91
     0
280
0
281
0
  0
CLASS
  1
DGNDEFINITION
  2
AcDbDgnDefinition
  3
ObjectDBX Classes
 90
     1
 91
     0
280
0
281
0
  0
CLASS
  1
SPATIAL_FILTER
  2
AcDbSpatialFilter
  3
ObjectDBX Classes
 90
     1
 91
     0
280
0
281
0
  0
CLASS
  1
GROUP
  2
AcDbGroup
  3
ObjectDBX Classes
 90
     0
 91
     0
280
0
281
0
  0
CLASS
  1
MLINESTYLE
  2
AcDbMlineStyle
  3
ObjectDBX Classes
 90
     0
 91
     0
280
0
281
0
  0
ENDSEC
  0
SECTION
  2
TABLES
  0
TABLE
  2
VPORT
  5
8
330
0
100
AcDbSymbolTable
 70
     1
  0
VPORT
  5
20
330
8
100
AcDbSymbolTableRecord
100
AcDbViewportTableRecord
  2
*Active
 70
     0
 10
0.0
 20
0.0
 11
1.0
 21
1.0
 12
0.0
 22
0.0
 13
0.0
 23
0.0
 14
0.5
 24
0.5
 15
10.0
 25
10.0
 16
0.0
 26
0.0
 36
1.0
 17
0.0
 27
0.0
 37
0.0
 40
10.0
 41
1.0
 42
50.0
 43
0.0
 44
0.0
 50
0.0
 51
0.0
 71
     0
 72
   100
 73
     1
 74
     3
 75
     0
 76
     0
 77
     0
 78
     0
281
     0
 65
     1
110
0.0
120
0.0
130
0.0
111
1.0
121
0.0
131
0.0
112
0.0
122
1.0
132
0.0
 79
     0
146
0.0
 60
     2
 61
     5
292
     1
282
     1
141
0.0
142
0.0
 63
   250
  0
ENDTAB
  0
TABLE
  2
LTYPE
  5
5
330
0
100
AcDbSymbolTable
 70
     3
  0
LTYPE
  5
11
330
5
100
AcDbSymbolTableRecord
100
AcDbLinetypeTableRecord
  2
Continuous
 70
     0
  3
Solid line
 72
    65
 73
     0
 40
0.0
  0
LTYPE
  5
12
330
5
100
AcDbSymbolTableRecord
100
AcDbLinetypeTableRecord
  2
ByLayer
 70
     0
  3

 72
    65
 73
     0
 40
0.0
  0
LTYPE
  5
13
330
5
100
AcDbSymbolTableRecord
100
AcDbLinetypeTableRecord
  2
ByBlock
 70
     0
  3

 72
    65
 73
     0
 40
0.0
  0
ENDTAB
  0
TABLE
  2
LAYER
  5
2
330
0
100
AcDbSymbolTable
 70
     3
  0
LAYER
  5
10
330
2
100
AcDbSymbolTableRecord
100
AcDbLayerTableRecord
  2
0
 70
     0
 62
     7
  6
Continuous
370
    -3
390
30
290
     1
  0
LAYER
  5
34
330
2
100
AcDbSymbolTableRecord
100
AcDbLayerTableRecord
  2
AEC_WALL_AXIS
 70
     0
 62
    -7
  6
Continuous
370
    -3
390
30
290
     0
  0
LAYER
  5
107
330
2
100
AcDbSymbolTableRecord
100
AcDbLayerTableRecord
  2
AEC_CONTROLPLANES
 70
     0
 62
     7
  6
Continuous
370
    -3
390
30
290
     0
  0
ENDTAB
  0
TABLE
  2
STYLE
  5
3
330
0
100
AcDbSymbolTable
 70
     1
  0
STYLE
  5
14
330
3
100
AcDbSymbolTableRecord
100
AcDbTextStyleTableRecord
  2
Standard
 70
     0
 40
0.0
 41
1.0
 50
0.0
 71
     0
 42
2.5
  3
txt
  4

  0
ENDTAB
  0
TABLE
  2
VIEW
  5
6
330
0
100
AcDbSymbolTable
 70
     0
  0
ENDTAB
  0
TABLE
  2
UCS
  5
7
330
0
100
AcDbSymbolTable
 70
     0
  0
ENDTAB
  0
TABLE
  2
APPID
  5
9
330
0
100
AcDbSymbolTable
 70
     5
  0
APPID
  5
1C
330
9
100
AcDbSymbolTableRecord
100
AcDbRegAppTableRecord
  2
ACAD
 70
     0
  0
APPID
  5
1D
330
9
100
AcDbSymbolTableRecord
100
AcDbRegAppTableRecord
  2
AcadAnnotative
 70
     0
  0
APPID
  5
1E
330
9
100
AcDbSymbolTableRecord
100
AcDbRegAppTableRecord
  2
AcCmTransparency
 70
     0
  0
APPID
  5
1F
330
9
100
AcDbSymbolTableRecord
100
AcDbRegAppTableRecord
  2
AcAecLayerStandard
 70
     0
  0
APPID
  5
31
330
9
100
AcDbSymbolTableRecord
100
AcDbRegAppTableRecord
  2
OPENCAD_AEC
 70
     0
  0
ENDTAB
  0
TABLE
  2
DIMSTYLE
  5
A
330
0
100
AcDbSymbolTable
 70
     1
100
AcDbDimStyleTable
 71
     1
  0
DIMSTYLE
105
1B
330
A
100
AcDbSymbolTableRecord
100
AcDbDimStyleTableRecord
  2
Standard
 70
     0
 40
1.0
 41
0.18
 42
0.625
 43
3.75
 44
1.25
 45
0.0
 46
0.0
 47
0.0
 48
0.0
140
0.18
141
0.09
142
0.0
143
25.4
144
1.0
145
0.0
146
1.0
147
0.625
 71
     0
 72
     0
 73
     0
 74
     0
 75
     0
 76
     0
 77
     1
 78
     8
 79
     0
170
     0
171
     3
172
     0
173
     1
174
     0
175
     0
176
     0
177
     0
178
     0
179
     0
271
     2
272
     2
273
     2
274
     3
275
     0
276
     0
277
     2
278
    46
279
     0
280
     0
281
     0
282
     0
283
     0
284
     8
285
     0
286
     0
288
     0
289
     3
340
14
371
    -2
372
    -2
  0
ENDTAB
  0
TABLE
  2
BLOCK_RECORD
  5
1
330
0
100
AcDbSymbolTable
 70
     2
  0
BLOCK_RECORD
  5
15
330
1
100
AcDbSymbolTableRecord
100
AcDbBlockTableRecord
  2
*Model_Space
 70
     0
280
1
281
     0
  0
BLOCK_RECORD
  5
18
330
1
100
AcDbSymbolTableRecord
100
AcDbBlockTableRecord
  2
*Paper_Space
 70
     0
280
1
281
     0
  0
ENDTAB
  0
ENDSEC
  0
SECTION
  2
BLOCKS
  0
BLOCK
  5
16
330
15
100
AcDbEntity
  8
0
100
AcDbBlockBegin
  2
*Model_Space
 70
     0
 10
0.0
 20
0.0
 30
0.0
  3
*Model_Space
  1

  0
ENDBLK
  5
17
330
15
100
AcDbEntity
  8
0
100
AcDbBlockEnd
  0
BLOCK
  5
19
330
18
100
AcDbEntity
 67
     1
  8
0
100
AcDbBlockBegin
  2
*Paper_Space
 70
     0
 10
0.0
 20
0.0
 30
0.0
  3
*Paper_Space
  1

  0
ENDBLK
  5
1A
330
18
100
AcDbEntity
 67
     1
  8
0
100
AcDbBlockEnd
  0
ENDSEC
  0
SECTION
  2
ENTITIES
  0
LWPOLYLINE
  5
32
330
15
100
AcDbEntity
  8
AEC_WALL_AXIS
100
AcDbPolyline
 90
     2
 70
     0
 38
0.0
 10
0.0
 20
0.0
 40
0.0
 41
0.0
 42
0.0
 10
10.0
 20
0.0
 40
0.0
 41
0.0
 42
0.0
1001
OPENCAD_AEC
1000
CHILD_HANDLES
1005
33
1005
5C
1001
OPENCAD_AEC
1000
WALL
1000
Standard
1041
2.5
1071
     0
1071
     2
1000
Concrete
1041
0.24
1000
Structural
1000
Insulation
1041
0.12
1000
Thermal
1071
    24
1005
69
1005
B4
1005
67
1005
B5
1005
35
1005
B6
1005
B7
1005
B8
1005
B9
1005
BA
1005
BB
1005
BC
1005
37
1005
BD
1005
3D
1005
BE
1005
3F
1005
BF
1005
C0
1005
C1
1005
C2
1005
C3
1005
C4
1005
C5
1000
Center
1000
axis_offset
1041
-0.12
1041
0.0
1041
0.0
1041
-0.06
1041
0.0
1041
0.0
1000

1000

1000

1000

1000
layer_id
1000
0cbf9672-b0fb-451c-952e-89ca9104910a
1000
85dfabc8-c854-410c-a2bb-9e15bfd50341
1000
New
1000
0
1041
0.0
1000

1000
planes
1000

1000

1041
0.0
1041
0.0
1041
0.0
1041
0.0
1041
0.0
1041
0.0
1041
0.0
1041
1.0
1041
0.0
1041
0.0
1041
2.5
1041
-0.25881904510252074
1041
-0.0
1041
0.9659258262890683
1000

1000

  0
POINT
  5
33
330
15
100
AcDbEntity
  8
0
100
AcDbPoint
 10
3.5
 20
0.0
 30
0.0
1001
OPENCAD_AEC
1000
OPENING
1005
32
1041
3.5
1041
1.2
1041
1.2
1041
0.9
1000
Window
1000
style_window_standard
1000
Left
1000
Rectangle
1041
0.0
1000
Center
1041
0.0
1041
-1.0
1000
Exterior
1000
Exterior
1000
planes
1000

1000

1041
0.0
1041
0.0
1041
0.0
1041
0.0
1041
0.0
1041
0.0
1041
0.0
1041
1.0
1041
0.0
1041
0.0
1041
0.0
1041
0.0
1041
0.0
1041
1.0
1001
OPENCAD_AEC
1000
CHILD_HANDLES
1005
C6
1005
C7
1005
C8
1005
C9
1005
CA
1005
CB
1005
CC
1005
CD
1005
CE
1005
CF
1005
D0
1005
D1
1005
D2
1005
D3
1005
D4
1005
D5
1005
D6
1005
D7
1005
D8
1005
D9
1005
DA
1005
DB
  0
LWPOLYLINE
  5
35
330
15
100
AcDbEntity
  8
0
100
AcDbPolyline
 90
     4
 70
     1
 38
0.0
 10
7.95
 20
-0.12
 40
0.0
 41
0.0
 42
0.0
 10
10.0
 20
-0.12
 40
0.0
 41
0.0
 42
0.0
 10
10.0
 20
0.12
 40
0.0
 41
0.0
 42
0.0
 10
7.95
 20
0.12
 40
0.0
 41
0.0
 42
0.0
1001
OPENCAD_AEC
1000
WALL_REP
1005
32
1000
contour
  0
LWPOLYLINE
  5
37
330
15
100
AcDbEntity
  8
0
100
AcDbPolyline
 90
     4
 70
     1
 38
0.0
 10
0.0
 20
-0.06
 40
0.0
 41
0.0
 42
0.0
 10
2.9
 20
-0.06
 40
0.0
 41
0.0
 42
0.0
 10
2.9000000000000004
 20
0.06
 40
0.0
 41
0.0
 42
0.0
 10
0.0
 20
0.06
 40
0.0
 41
0.0
 42
0.0
1001
OPENCAD_AEC
1000
WALL_REP
1005
32
1000
contour
  0
LWPOLYLINE
  5
3D
330
15
100
AcDbEntity
  8
0
100
AcDbPolyline
 90
     4
 70
     1
 38
0.0
 10
4.1
 20
-0.06
 40
0.0
 41
0.0
 42
0.0
 10
7.05
 20
-0.06
 40
0.0
 41
0.0
 42
0.0
 10
7.05
 20
0.06
 40
0.0
 41
0.0
 42
0.0
 10
4.1
 20
0.06
 40
0.0
 41
0.0
 42
0.0
1001
OPENCAD_AEC
1000
WALL_REP
1005
32
1000
contour
  0
LWPOLYLINE
  5
3F
330
15
100
AcDbEntity
  8
0
100
AcDbPolyline
 90
     4
 70
     1
 38
0.0
 10
7.95
 20
-0.06
 40
0.0
 41
0.0
 42
0.0
 10
10.0
 20
-0.06
 40
0.0
 41
0.0
 42
0.0
 10
10.0
 20
0.06
 40
0.0
 41
0.0
 42
0.0
 10
7.95
 20
0.06
 40
0.0
 41
0.0
 42
0.0
1001
OPENCAD_AEC
1000
WALL_REP
1005
32
1000
contour
  0
POINT
  5
45
330
15
100
AcDbEntity
  8
0
100
AcDbPoint
 10
0.0
 20
0.0
 30
0.0
1001
OPENCAD_AEC
1000
STOREY
1071
     0
1000
Level 1
1040
0.0
1040
3.0
1001
OPENCAD_AEC
1000
CHILD_HANDLES
1005
32
1005
93
1005
94
  0
POINT
  5
5C
330
15
100
AcDbEntity
  8
0
100
AcDbPoint
 10
7.5
 20
0.0
 30
0.0
1001
OPENCAD_AEC
1000
OPENING
1005
32
1041
7.5
1041
0.9
1041
2.1
1041
0.0
1000
Door
1000
style_door_standard
1000
Left
1000
Rectangle
1041
0.0
1000
Center
1041
0.0
1041
-1.0
1000
Exterior
1000
Exterior
1000
planes
1000

1000

1041
0.0
1041
0.0
1041
0.0
1041
0.0
1041
0.0
1041
0.0
1041
0.0
1041
1.0
1041
0.0
1041
0.0
1041
0.0
1041
0.0
1041
0.0
1041
1.0
1001
OPENCAD_AEC
1000
CHILD_HANDLES
1005
DC
1005
DD
1005
DE
1005
DF
1005
E0
1005
E1
1005
E2
1005
E3
1005
E4
1005
E5
1005
E6
1005
E7
  0
LWPOLYLINE
  5
67
330
15
100
AcDbEntity
  8
0
100
AcDbPolyline
 90
     4
 70
     1
 38
0.0
 10
4.1
 20
-0.12
 40
0.0
 41
0.0
 42
0.0
 10
7.05
 20
-0.12
 40
0.0
 41
0.0
 42
0.0
 10
7.05
 20
0.12
 40
0.0
 41
0.0
 42
0.0
 10
4.1
 20
0.12
 40
0.0
 41
0.0
 42
0.0
1001
OPENCAD_AEC
1000
WALL_REP
1005
32
1000
contour
  0
LWPOLYLINE
  5
69
330
15
100
AcDbEntity
  8
0
100
AcDbPolyline
 90
     4
 70
     1
 38
0.0
 10
0.0
 20
-0.12
 40
0.0
 41
0.0
 42
0.0
 10
2.9
 20
-0.12
 40
0.0
 41
0.0
 42
0.0
 10
2.9000000000000004
 20
0.12
 40
0.0
 41
0.0
 42
0.0
 10
0.0
 20
0.12
 40
0.0
 41
0.0
 42
0.0
1001
OPENCAD_AEC
1000
WALL_REP
1005
32
1000
contour
  0
LWPOLYLINE
  5
93
330
15
100
AcDbEntity
  8
AEC_WALL_AXIS
100
AcDbPolyline
 90
     2
 70
     0
 38
0.0
 10
0.0
 20
5.0
 40
0.0
 41
0.0
 42
0.0
 10
5.0
 20
5.0
 40
0.0
 41
0.0
 42
0.0
1001
OPENCAD_AEC
1000
CHILD_HANDLES
1005
95
1001
OPENCAD_AEC
1000
WALL
1000
Standard
1041
2.5
1071
     0
1071
     1
1000
Concrete
1041
0.3
1000
Structural
1071
     8
1005
98
1005
E8
1005
96
1005
E9
1005
EA
1005
EB
1005
EC
1005
ED
1000
Center
1000
axis_offset
1041
-0.15
1041
0.0
1041
0.0
1000

1000

1000
layer_id
1000
24fdace0-e2bf-4446-aed8-f434e16aab92
1000
New
1000
0
1041
0.0
1000

1000
planes
1000

1000

1041
0.0
1041
0.0
1041
0.0
1041
0.0
1041
0.0
1041
0.0
1041
0.0
1041
1.0
1041
0.0
1041
5.0
1041
2.5
1041
-0.42261826174069944
1041
-0.0
1041
0.9063077870366499
1000

1000

  0
LWPOLYLINE
  5
94
330
15
100
AcDbEntity
  8
AEC_WALL_AXIS
100
AcDbPolyline
 90
     2
 70
     0
 38
0.0
 10
5.0
 20
5.0
 40
0.0
 41
0.0
 42
0.0
 10
10.0
 20
5.0
 40
0.0
 41
0.0
 42
0.0
1001
OPENCAD_AEC
1000
WALL
1000
Standard
1041
2.5
1071
     0
1071
     1
1000
Concrete
1041
0.3
1000
Structural
1071
     3
1005
104
1005
105
1005
106
1000
Center
1000
axis_offset
1041
-0.15
1041
0.0
1041
0.0
1000

1000

1000
layer_id
1000
f3c26435-e510-4b57-bdc3-61d845127924
1000
New
1000
0
1041
0.0
1000

1000
planes
1000

1000

1041
0.0
1041
0.0
1041
0.0
1041
0.0
1041
0.0
1041
0.0
1041
0.0
1041
1.0
1041
5.0
1041
5.0
1041
4.8315382907749935
1041
0.42261826174069944
1041
0.0
1041
0.9063077870366499
1000

1000

  0
POINT
  5
95
330
15
100
AcDbEntity
  8
0
100
AcDbPoint
 10
2.5
 20
5.0
 30
0.0
1001
OPENCAD_AEC
1000
OPENING
1005
93
1041
2.5
1041
1.2
1041
1.2
1041
0.9
1000
Window
1000
style_window_standard
1000
Left
1000
Rectangle
1041
0.0
1000
Center
1041
0.0
1041
-1.0
1000
Exterior
1000
Exterior
1000
planes
1000

1000

1041
0.0
1041
0.0
1041
0.0
1041
0.0
1041
0.0
1041
0.0
1041
0.0
1041
1.0
1041
0.0
1041
0.0
1041
0.0
1041
0.0
1041
0.0
1041
1.0
1001
OPENCAD_AEC
1000
CHILD_HANDLES
1005
EE
1005
EF
1005
F0
1005
F1
1005
F2
1005
F3
1005
F4
1005
F5
1005
F6
1005
F7
1005
F8
1005
F9
1005
FA
1005
FB
1005
FC
1005
FD
1005
FE
1005
FF
1005
100
1005
101
1005
102
1005
103
  0
LWPOLYLINE
  5
96
330
15
100
AcDbEntity
  8
0
100
AcDbPolyline
 90
     4
 70
     1
 38
0.0
 10
3.1
 20
4.85
 40
0.0
 41
0.0
 42
0.0
 10
5.0
 20
4.85
 40
0.0
 41
0.0
 42
0.0
 10
5.0
 20
5.15
 40
0.0
 41
0.0
 42
0.0
 10
3.1
 20
5.15
 40
0.0
 41
0.0
 42
0.0
1001
OPENCAD_AEC
1000
WALL_REP
1005
93
1000
contour
  0
LWPOLYLINE
  5
98
330
15
100
AcDbEntity
  8
0
100
AcDbPolyline
 90
     4
 70
     1
 38
0.0
 10
0.0
 20
4.85
 40
0.0
 41
0.0
 42
0.0
 10
1.9
 20
4.85
 40
0.0
 41
0.0
 42
0.0
 10
1.9
 20
5.15
 40
0.0
 41
0.0
 42
0.0
 10
0.0
 20
5.15
 40
0.0
 41
0.0
 42
0.0
1001
OPENCAD_AEC
1000
WALL_REP
1005
93
1000
contour
  0
HATCH
  5
B4
330
15
100
AcDbEntity
  8
0
100
AcDbHatch
 10
0.0
 20
0.0
 30
0.0
210
0.0
220
0.0
230
1.0
  2
ANSI31
 70
     0
 71
     0
 91
     1
 92
    19
 72
     0
 73
     1
 93
     5
 10
0.0
 20
-0.12
 10
2.9
 20
-0.12
 10
2.9000000000000004
 20
0.12
 10
0.0
 20
0.12
 10
0.0
 20
-0.12
 97
     0
 75
     0
 76
     1
 52
0.0
 41
1.0
 77
     0
 78
     1
 53
45.0
 43
0.0
 44
0.11999999731779099
 45
-2.2450639965498094
 46
2.24506399654981
 79
     0
 98
     0
1001
OPENCAD_AEC
1000
WALL_REP
1005
32
1000
hatch
  0
HATCH
  5
B5
330
15
100
AcDbEntity
  8
0
100
AcDbHatch
 10
0.0
 20
0.0
 30
0.0
210
0.0
220
0.0
230
1.0
  2
ANSI31
 70
     0
 71
     0
 91
     1
 92
    19
 72
     0
 73
     1
 93
     5
 10
4.1
 20
-0.12
 10
7.05
 20
-0.12
 10
7.05
 20
0.12
 10
4.1
 20
0.12
 10
4.1
 20
-0.12
 97
     0
 75
     0
 76
     1
 52
0.0
 41
1.0
 77
     0
 78
     1
 53
45.0
 43
-4.099999904632568
 44
0.11999999731779099
 45
-2.2450639965498094
 46
2.24506399654981
 79
     0
 98
     0
1001
OPENCAD_AEC
1000
WALL_REP
1005
32
1000
hatch
  0
HATCH
  5
B6
330
15
100
AcDbEntity
  8
0
100
AcDbHatch
 10
0.0
 20
0.0
 30
0.0
210
0.0
220
0.0
230
1.0
  2
ANSI31
 70
     0
 71
     0
 91
     1
 92
    19
 72
     0
 73
     1
 93
     5
 10
7.95
 20
-0.12
 10
10.0
 20
-0.12
 10
10.0
 20
0.12
 10
7.95
 20
0.12
 10
7.95
 20
-0.12
 97
     0
 75
     0
 76
     1
 52
0.0
 41
1.0
 77
     0
 78
     1
 53
45.0
 43
-7.949999809265137
 44
0.11999999731779099
 45
-2.2450639965498094
 46
2.24506399654981
 79
     0
 98
     0
1001
OPENCAD_AEC
1000
WALL_REP
1005
32
1000
hatch
  0
3DSOLID
  5
B7
330
15
100
AcDbEntity
  8
0
100
AcDbModelerGeometry
290
     0
  2
{00000000-0000-0000-0000-000000000000}
100
AcDb3dSolid
350
0
1001
OPENCAD_AEC
1000
WALL_REP
1005
32
1000
solid
  0
3DSOLID
  5
B8
330
15
100
AcDbEntity
  8
0
100
AcDbModelerGeometry
290
     0
  2
{00000000-0000-0000-0000-000000000000}
100
AcDb3dSolid
350
0
1001
OPENCAD_AEC
1000
WALL_REP
1005
32
1000
solid
  0
3DSOLID
  5
B9
330
15
100
AcDbEntity
  8
0
100
AcDbModelerGeometry
290
     0
  2
{00000000-0000-0000-0000-000000000000}
100
AcDb3dSolid
350
0
1001
OPENCAD_AEC
1000
WALL_REP
1005
32
1000
solid
  0
3DSOLID
  5
BA
330
15
100
AcDbEntity
  8
0
100
AcDbModelerGeometry
290
     0
  2
{00000000-0000-0000-0000-000000000000}
100
AcDb3dSolid
350
0
1001
OPENCAD_AEC
1000
WALL_REP
1005
32
1000
solid
  0
3DSOLID
  5
BB
330
15
100
AcDbEntity
  8
0
100
AcDbModelerGeometry
290
     0
  2
{00000000-0000-0000-0000-000000000000}
100
AcDb3dSolid
350
0
1001
OPENCAD_AEC
1000
WALL_REP
1005
32
1000
solid
  0
3DSOLID
  5
BC
330
15
100
AcDbEntity
  8
0
100
AcDbModelerGeometry
290
     0
  2
{00000000-0000-0000-0000-000000000000}
100
AcDb3dSolid
350
0
1001
OPENCAD_AEC
1000
WALL_REP
1005
32
1000
solid
  0
HATCH
  5
BD
330
15
100
AcDbEntity
  8
0
100
AcDbHatch
 10
0.0
 20
0.0
 30
0.0
210
0.0
220
0.0
230
1.0
  2
ANSI31
 70
     0
 71
     0
 91
     1
 92
    19
 72
     0
 73
     1
 93
     5
 10
0.0
 20
-0.06
 10
2.9
 20
-0.06
 10
2.9000000000000004
 20
0.06
 10
0.0
 20
0.06
 10
0.0
 20
-0.06
 97
     0
 75
     0
 76
     1
 52
0.0
 41
1.0
 77
     0
 78
     1
 53
45.0
 43
0.0
 44
0.05999999865889549
 45
-2.2450639965498094
 46
2.24506399654981
 79
     0
 98
     0
1001
OPENCAD_AEC
1000
WALL_REP
1005
32
1000
hatch
  0
HATCH
  5
BE
330
15
100
AcDbEntity
  8
0
100
AcDbHatch
 10
0.0
 20
0.0
 30
0.0
210
0.0
220
0.0
230
1.0
  2
ANSI31
 70
     0
 71
     0
 91
     1
 92
    19
 72
     0
 73
     1
 93
     5
 10
4.1
 20
-0.06
 10
7.05
 20
-0.06
 10
7.05
 20
0.06
 10
4.1
 20
0.06
 10
4.1
 20
-0.06
 97
     0
 75
     0
 76
     1
 52
0.0
 41
1.0
 77
     0
 78
     1
 53
45.0
 43
-4.099999904632568
 44
0.05999999865889549
 45
-2.2450639965498094
 46
2.24506399654981
 79
     0
 98
     0
1001
OPENCAD_AEC
1000
WALL_REP
1005
32
1000
hatch
  0
HATCH
  5
BF
330
15
100
AcDbEntity
  8
0
100
AcDbHatch
 10
0.0
 20
0.0
 30
0.0
210
0.0
220
0.0
230
1.0
  2
ANSI31
 70
     0
 71
     0
 91
     1
 92
    19
 72
     0
 73
     1
 93
     5
 10
7.95
 20
-0.06
 10
10.0
 20
-0.06
 10
10.0
 20
0.06
 10
7.95
 20
0.06
 10
7.95
 20
-0.06
 97
     0
 75
     0
 76
     1
 52
0.0
 41
1.0
 77
     0
 78
     1
 53
45.0
 43
-7.949999809265137
 44
0.05999999865889549
 45
-2.2450639965498094
 46
2.24506399654981
 79
     0
 98
     0
1001
OPENCAD_AEC
1000
WALL_REP
1005
32
1000
hatch
  0
3DSOLID
  5
C0
330
15
100
AcDbEntity
  8
0
100
AcDbModelerGeometry
290
     0
  2
{00000000-0000-0000-0000-000000000000}
100
AcDb3dSolid
350
0
1001
OPENCAD_AEC
1000
WALL_REP
1005
32
1000
solid
  0
3DSOLID
  5
C1
330
15
100
AcDbEntity
  8
0
100
AcDbModelerGeometry
290
     0
  2
{00000000-0000-0000-0000-000000000000}
100
AcDb3dSolid
350
0
1001
OPENCAD_AEC
1000
WALL_REP
1005
32
1000
solid
  0
3DSOLID
  5
C2
330
15
100
AcDbEntity
  8
0
100
AcDbModelerGeometry
290
     0
  2
{00000000-0000-0000-0000-000000000000}
100
AcDb3dSolid
350
0
1001
OPENCAD_AEC
1000
WALL_REP
1005
32
1000
solid
  0
3DSOLID
  5
C3
330
15
100
AcDbEntity
  8
0
100
AcDbModelerGeometry
290
     0
  2
{00000000-0000-0000-0000-000000000000}
100
AcDb3dSolid
350
0
1001
OPENCAD_AEC
1000
WALL_REP
1005
32
1000
solid
  0
3DSOLID
  5
C4
330
15
100
AcDbEntity
  8
0
100
AcDbModelerGeometry
290
     0
  2
{00000000-0000-0000-0000-000000000000}
100
AcDb3dSolid
350
0
1001
OPENCAD_AEC
1000
WALL_REP
1005
32
1000
solid
  0
3DSOLID
  5
C5
330
15
100
AcDbEntity
  8
0
100
AcDbModelerGeometry
290
     0
  2
{00000000-0000-0000-0000-000000000000}
100
AcDb3dSolid
350
0
1001
OPENCAD_AEC
1000
WALL_REP
1005
32
1000
solid
  0
POLYLINE
  5
C6
330
15
100
AcDbEntity
  8
0
100
AcDb3dPolyline
 66
     1
 10
0.0
 20
0.0
 30
0.0
 70
     9
1001
OPENCAD_AEC
1000
OPENING_REP
1005
33
1000
ElevationContour2D
  0
VERTEX
  5
10D
330
C6
100
AcDbEntity
  8
0
100
AcDbVertex
100
AcDb3dPolylineVertex
 10
2.9
 20
0.0
 30
0.9
 70
    32
  0
VERTEX
  5
10E
330
C6
100
AcDbEntity
  8
0
100
AcDbVertex
100
AcDb3dPolylineVertex
 10
4.1
 20
0.0
 30
0.9
 70
    32
  0
VERTEX
  5
10F
330
C6
100
AcDbEntity
  8
0
100
AcDbVertex
100
AcDb3dPolylineVertex
 10
4.1
 20
0.0
 30
2.1
 70
    32
  0
VERTEX
  5
110
330
C6
100
AcDbEntity
  8
0
100
AcDbVertex
100
AcDb3dPolylineVertex
 10
2.9
 20
0.0
 30
2.1
 70
    32
  0
SEQEND
  5
111
330
C6
100
AcDbEntity
  8
0
  0
POLYLINE
  5
C7
330
15
100
AcDbEntity
  8
0
100
AcDb3dPolyline
 66
     1
 10
0.0
 20
0.0
 30
0.0
 70
     9
1001
OPENCAD_AEC
1000
OPENING_REP
1005
33
1000
ElevationContour2D
  0
VERTEX
  5
112
330
C7
100
AcDbEntity
  8
0
100
AcDbVertex
100
AcDb3dPolylineVertex
 10
2.96
 20
0.0
 30
0.96
 70
    32
  0
VERTEX
  5
113
330
C7
100
AcDbEntity
  8
0
100
AcDbVertex
100
AcDb3dPolylineVertex
 10
4.04
 20
0.0
 30
0.96
 70
    32
  0
VERTEX
  5
114
330
C7
100
AcDbEntity
  8
0
100
AcDbVertex
100
AcDb3dPolylineVertex
 10
4.04
 20
0.0
 30
2.04
 70
    32
  0
VERTEX
  5
115
330
C7
100
AcDbEntity
  8
0
100
AcDbVertex
100
AcDb3dPolylineVertex
 10
2.96
 20
0.0
 30
2.04
 70
    32
  0
SEQEND
  5
116
330
C7
100
AcDbEntity
  8
0
  0
POLYLINE
  5
C8
330
15
100
AcDbEntity
  8
0
100
AcDb3dPolyline
 66
     1
 10
0.0
 20
0.0
 30
0.0
 70
     8
1001
OPENCAD_AEC
1000
OPENING_REP
1005
33
1000
ElevationSill2D
  0
VERTEX
  5
117
330
C8
100
AcDbEntity
  8
0
100
AcDbVertex
100
AcDb3dPolylineVertex
 10
2.865
 20
0.0
 30
0.9
 70
    32
  0
VERTEX
  5
118
330
C8
100
AcDbEntity
  8
0
100
AcDbVertex
100
AcDb3dPolylineVertex
 10
4.135
 20
0.0
 30
0.9
 70
    32
  0
SEQEND
  5
119
330
C8
100
AcDbEntity
  8
0
  0
POLYLINE
  5
C9
330
15
100
AcDbEntity
  8
0
100
AcDb3dPolyline
 66
     1
 10
0.0
 20
0.0
 30
0.0
 70
     9
1001
OPENCAD_AEC
1000
OPENING_REP
1005
33
1000
ElevationSill2D
  0
VERTEX
  5
11A
330
C9
100
AcDbEntity
  8
0
100
AcDbVertex
100
AcDb3dPolylineVertex
 10
2.865
 20
0.0
 30
0.9
 70
    32
  0
VERTEX
  5
11B
330
C9
100
AcDbEntity
  8
0
100
AcDbVertex
100
AcDb3dPolylineVertex
 10
2.865
 20
0.0
 30
0.85
 70
    32
  0
VERTEX
  5
11C
330
C9
100
AcDbEntity
  8
0
100
AcDbVertex
100
AcDb3dPolylineVertex
 10
4.135
 20
0.0
 30
0.85
 70
    32
  0
VERTEX
  5
11D
330
C9
100
AcDbEntity
  8
0
100
AcDbVertex
100
AcDb3dPolylineVertex
 10
4.135
 20
0.0
 30
0.9
 70
    32
  0
SEQEND
  5
11E
330
C9
100
AcDbEntity
  8
0
  0
POLYLINE
  5
CA
330
15
100
AcDbEntity
  8
0
100
AcDb3dPolyline
 66
     1
 10
0.0
 20
0.0
 30
0.0
 70
     8
1001
OPENCAD_AEC
1000
OPENING_REP
1005
33
1000
ElevationSwing2D
  0
VERTEX
  5
11F
330
CA
100
AcDbEntity
  8
0
100
AcDbVertex
100
AcDb3dPolylineVertex
 10
4.04
 20
0.0
 30
0.96
 70
    32
  0
VERTEX
  5
120
330
CA
100
AcDbEntity
  8
0
100
AcDbVertex
100
AcDb3dPolylineVertex
 10
2.96
 20
0.0
 30
1.5
 70
    32
  0
VERTEX
  5
121
330
CA
100
AcDbEntity
  8
0
100
AcDbVertex
100
AcDb3dPolylineVertex
 10
4.04
 20
0.0
 30
2.04
 70
    32
  0
SEQEND
  5
122
330
CA
100
AcDbEntity
  8
0
  0
LWPOLYLINE
  5
CB
330
15
100
AcDbEntity
  8
0
100
AcDbPolyline
 90
     4
 70
     1
 38
0.0
 10
2.9
 20
-0.035
 40
0.0
 41
0.0
 42
0.0
 10
2.96
 20
-0.035
 40
0.0
 41
0.0
 42
0.0
 10
2.96
 20
0.035
 40
0.0
 41
0.0
 42
0.0
 10
2.9
 20
0.035
 40
0.0
 41
0.0
 42
0.0
1001
OPENCAD_AEC
1000
OPENING_REP
1005
33
1000
Frame2D
  0
LWPOLYLINE
  5
CC
330
15
100
AcDbEntity
  8
0
100
AcDbPolyline
 90
     4
 70
     1
 38
0.0
 10
4.04
 20
-0.035
 40
0.0
 41
0.0
 42
0.0
 10
4.1
 20
-0.035
 40
0.0
 41
0.0
 42
0.0
 10
4.1
 20
0.035
 40
0.0
 41
0.0
 42
0.0
 10
4.04
 20
0.035
 40
0.0
 41
0.0
 42
0.0
1001
OPENCAD_AEC
1000
OPENING_REP
1005
33
1000
Frame2D
  0
LWPOLYLINE
  5
CD
330
15
100
AcDbEntity
  8
0
100
AcDbPolyline
 90
     2
 70
     0
 38
0.0
 10
2.96
 20
-0.012
 40
0.0
 41
0.0
 42
0.0
 10
4.04
 20
-0.012
 40
0.0
 41
0.0
 42
0.0
1001
OPENCAD_AEC
1000
OPENING_REP
1005
33
1000
Glazing2D
  0
LWPOLYLINE
  5
CE
330
15
100
AcDbEntity
  8
0
100
AcDbPolyline
 90
     2
 70
     0
 38
0.0
 10
2.96
 20
0.012
 40
0.0
 41
0.0
 42
0.0
 10
4.04
 20
0.012
 40
0.0
 41
0.0
 42
0.0
1001
OPENCAD_AEC
1000
OPENING_REP
1005
33
1000
Glazing2D
  0
LWPOLYLINE
  5
CF
330
15
100
AcDbEntity
  8
0
100
AcDbPolyline
 90
     2
 70
     0
 38
0.0
 10
2.96
 20
0.0
 40
0.0
 41
0.0
 42
0.0
 10
4.04
 20
0.0
 40
0.0
 41
0.0
 42
0.0
1001
OPENCAD_AEC
1000
OPENING_REP
1005
33
1000
Leaf2D
  0
LWPOLYLINE
  5
D0
330
15
100
AcDbEntity
  8
0
100
AcDbPolyline
 90
     2
 70
     0
 38
0.0
 10
3.3
 20
0.0
 40
0.0
 41
0.0
 42
0.0
 10
3.7
 20
0.0
 40
0.0
 41
0.0
 42
0.0
1001
OPENCAD_AEC
1000
OPENING_REP
1005
33
1000
OpeningLabel2D
  0
LWPOLYLINE
  5
D1
330
15
100
AcDbEntity
  8
0
100
AcDbPolyline
 90
     4
 70
     1
 38
0.0
 10
2.88
 20
-0.155
 40
0.0
 41
0.0
 42
0.0
 10
4.12
 20
-0.155
 40
0.0
 41
0.0
 42
0.0
 10
4.12
 20
-0.12
 40
0.0
 41
0.0
 42
0.0
 10
2.88
 20
-0.12
 40
0.0
 41
0.0
 42
0.0
1001
OPENCAD_AEC
1000
OPENING_REP
1005
33
1000
Sill2D
  0
LWPOLYLINE
  5
D2
330
15
100
AcDbEntity
  8
0
100
AcDbPolyline
 90
     2
 70
     0
 38
0.0
 10
2.9
 20
-0.12
 40
0.0
 41
0.0
 42
0.0
 10
4.1
 20
-0.12
 40
0.0
 41
0.0
 42
0.0
1001
OPENCAD_AEC
1000
OPENING_REP
1005
33
1000
Sill2D
  0
LWPOLYLINE
  5
D3
330
15
100
AcDbEntity
  8
0
100
AcDbPolyline
 90
     2
 70
     0
 38
0.0
 10
2.9
 20
-0.035
 40
0.0
 41
0.0
 42
0.0
 10
2.9
 20
-0.12
 40
0.0
 41
0.0
 42
0.0
1001
OPENCAD_AEC
1000
OPENING_REP
1005
33
1000
Sill2D
  0
LWPOLYLINE
  5
D4
330
15
100
AcDbEntity
  8
0
100
AcDbPolyline
 90
     2
 70
     0
 38
0.0
 10
4.1
 20
-0.035
 40
0.0
 41
0.0
 42
0.0
 10
4.1
 20
-0.12
 40
0.0
 41
0.0
 42
0.0
1001
OPENCAD_AEC
1000
OPENING_REP
1005
33
1000
Sill2D
  0
LWPOLYLINE
  5
D5
330
15
100
AcDbEntity
  8
0
100
AcDbPolyline
 90
     4
 70
     1
 38
0.0
 10
2.88
 20
0.145
 40
0.0
 41
0.0
 42
0.0
 10
4.12
 20
0.145
 40
0.0
 41
0.0
 42
0.0
 10
4.12
 20
0.12
 40
0.0
 41
0.0
 42
0.0
 10
2.88
 20
0.12
 40
0.0
 41
0.0
 42
0.0
1001
OPENCAD_AEC
1000
OPENING_REP
1005
33
1000
Sill2D
  0
LWPOLYLINE
  5
D6
330
15
100
AcDbEntity
  8
0
100
AcDbPolyline
 90
     2
 70
     0
 38
0.0
 10
2.9
 20
0.12
 40
0.0
 41
0.0
 42
0.0
 10
4.1
 20
0.12
 40
0.0
 41
0.0
 42
0.0
1001
OPENCAD_AEC
1000
OPENING_REP
1005
33
1000
Sill2D
  0
LWPOLYLINE
  5
D7
330
15
100
AcDbEntity
  8
0
100
AcDbPolyline
 90
     2
 70
     0
 38
0.0
 10
2.9
 20
0.035
 40
0.0
 41
0.0
 42
0.0
 10
2.9
 20
0.12
 40
0.0
 41
0.0
 42
0.0
1001
OPENCAD_AEC
1000
OPENING_REP
1005
33
1000
Sill2D
  0
LWPOLYLINE
  5
D8
330
15
100
AcDbEntity
  8
0
100
AcDbPolyline
 90
     2
 70
     0
 38
0.0
 10
4.1
 20
0.035
 40
0.0
 41
0.0
 42
0.0
 10
4.1
 20
0.12
 40
0.0
 41
0.0
 42
0.0
1001
OPENCAD_AEC
1000
OPENING_REP
1005
33
1000
Sill2D
  0
MTEXT
  5
D9
330
15
100
AcDbEntity
  8
0
100
AcDbMText
 10
3.5
 20
0.0
 30
0.0
 40
0.15
 41
10.0
 71
     5
 72
     1
  1
1.20 / 1.20\PBRH 0.90
  7
Standard
 73
     1
 44
1.0
1001
OPENCAD_AEC
1000
OPENING_REP
1005
33
1000
OpeningLabel2D
  0
3DSOLID
  5
DA
330
15
100
AcDbEntity
  8
0
100
AcDbModelerGeometry
290
     0
  2
{00000000-0000-0000-0000-000000000000}
100
AcDb3dSolid
350
0
1001
OPENCAD_AEC
1000
OPENING_REP
1005
33
1000
Frame3D
  0
3DSOLID
  5
DB
330
15
100
AcDbEntity
  8
0
100
AcDbModelerGeometry
290
     0
  2
{00000000-0000-0000-0000-000000000000}
100
AcDb3dSolid
350
0
1001
OPENCAD_AEC
1000
OPENING_REP
1005
33
1000
Glazing3D
  0
POLYLINE
  5
DC
330
15
100
AcDbEntity
  8
0
100
AcDb3dPolyline
 66
     1
 10
0.0
 20
0.0
 30
0.0
 70
     9
1001
OPENCAD_AEC
1000
OPENING_REP
1005
5C
1000
ElevationContour2D
  0
VERTEX
  5
123
330
DC
100
AcDbEntity
  8
0
100
AcDbVertex
100
AcDb3dPolylineVertex
 10
7.05
 20
0.0
 30
0.0
 70
    32
  0
VERTEX
  5
124
330
DC
100
AcDbEntity
  8
0
100
AcDbVertex
100
AcDb3dPolylineVertex
 10
7.95
 20
0.0
 30
0.0
 70
    32
  0
VERTEX
  5
125
330
DC
100
AcDbEntity
  8
0
100
AcDbVertex
100
AcDb3dPolylineVertex
 10
7.95
 20
0.0
 30
2.1
 70
    32
  0
VERTEX
  5
126
330
DC
100
AcDbEntity
  8
0
100
AcDbVertex
100
AcDb3dPolylineVertex
 10
7.05
 20
0.0
 30
2.1
 70
    32
  0
SEQEND
  5
127
330
DC
100
AcDbEntity
  8
0
  0
POLYLINE
  5
DD
330
15
100
AcDbEntity
  8
0
100
AcDb3dPolyline
 66
     1
 10
0.0
 20
0.0
 30
0.0
 70
     9
1001
OPENCAD_AEC
1000
OPENING_REP
1005
5C
1000
ElevationContour2D
  0
VERTEX
  5
128
330
DD
100
AcDbEntity
  8
0
100
AcDbVertex
100
AcDb3dPolylineVertex
 10
7.11
 20
0.0
 30
0.06
 70
    32
  0
VERTEX
  5
129
330
DD
100
AcDbEntity
  8
0
100
AcDbVertex
100
AcDb3dPolylineVertex
 10
7.89
 20
0.0
 30
0.06
 70
    32
  0
VERTEX
  5
12A
330
DD
100
AcDbEntity
  8
0
100
AcDbVertex
100
AcDb3dPolylineVertex
 10
7.89
 20
0.0
 30
2.04
 70
    32
  0
VERTEX
  5
12B
330
DD
100
AcDbEntity
  8
0
100
AcDbVertex
100
AcDb3dPolylineVertex
 10
7.11
 20
0.0
 30
2.04
 70
    32
  0
SEQEND
  5
12C
330
DD
100
AcDbEntity
  8
0
  0
POLYLINE
  5
DE
330
15
100
AcDbEntity
  8
0
100
AcDb3dPolyline
 66
     1
 10
0.0
 20
0.0
 30
0.0
 70
     8
1001
OPENCAD_AEC
1000
OPENING_REP
1005
5C
1000
ElevationSwing2D
  0
VERTEX
  5
12D
330
DE
100
AcDbEntity
  8
0
100
AcDbVertex
100
AcDb3dPolylineVertex
 10
7.89
 20
0.0
 30
0.06
 70
    32
  0
VERTEX
  5
12E
330
DE
100
AcDbEntity
  8
0
100
AcDbVertex
100
AcDb3dPolylineVertex
 10
7.11
 20
0.0
 30
1.05
 70
    32
  0
VERTEX
  5
12F
330
DE
100
AcDbEntity
  8
0
100
AcDbVertex
100
AcDb3dPolylineVertex
 10
7.89
 20
0.0
 30
2.04
 70
    32
  0
SEQEND
  5
130
330
DE
100
AcDbEntity
  8
0
  0
LWPOLYLINE
  5
DF
330
15
100
AcDbEntity
  8
0
100
AcDbPolyline
 90
     6
 70
     1
 38
0.0
 10
7.05
 20
-0.12
 40
0.0
 41
0.0
 42
0.0
 10
7.11
 20
-0.12
 40
0.0
 41
0.0
 42
0.0
 10
7.11
 20
0.0
 40
0.0
 41
0.0
 42
0.0
 10
7.08
 20
0.0
 40
0.0
 41
0.0
 42
0.0
 10
7.08
 20
0.12
 40
0.0
 41
0.0
 42
0.0
 10
7.05
 20
0.12
 40
0.0
 41
0.0
 42
0.0
1001
OPENCAD_AEC
1000
OPENING_REP
1005
5C
1000
Frame2D
  0
LWPOLYLINE
  5
E0
330
15
100
AcDbEntity
  8
0
100
AcDbPolyline
 90
     6
 70
     1
 38
0.0
 10
7.95
 20
-0.12
 40
0.0
 41
0.0
 42
0.0
 10
7.89
 20
-0.12
 40
0.0
 41
0.0
 42
0.0
 10
7.89
 20
0.0
 40
0.0
 41
0.0
 42
0.0
 10
7.92
 20
0.0
 40
0.0
 41
0.0
 42
0.0
 10
7.92
 20
0.12
 40
0.0
 41
0.0
 42
0.0
 10
7.95
 20
0.12
 40
0.0
 41
0.0
 42
0.0
1001
OPENCAD_AEC
1000
OPENING_REP
1005
5C
1000
Frame2D
  0
LWPOLYLINE
  5
E1
330
15
100
AcDbEntity
  8
0
100
AcDbPolyline
 90
     2
 70
     0
 38
0.0
 10
7.08
 20
0.0
 40
0.0
 41
0.0
 42
0.0
 10
7.08
 20
0.8400000000000001
 40
0.0
 41
0.0
 42
0.0
1001
OPENCAD_AEC
1000
OPENING_REP
1005
5C
1000
Leaf2D
  0
LWPOLYLINE
  5
E2
330
15
100
AcDbEntity
  8
0
100
AcDbPolyline
 90
     2
 70
     0
 38
0.0
 10
7.3
 20
0.0
 40
0.0
 41
0.0
 42
0.0
 10
7.7
 20
0.0
 40
0.0
 41
0.0
 42
0.0
1001
OPENCAD_AEC
1000
OPENING_REP
1005
5C
1000
OpeningLabel2D
  0
LWPOLYLINE
  5
E3
330
15
100
AcDbEntity
  8
0
100
AcDbPolyline
 90
    17
 70
     0
 38
0.0
 10
7.92
 20
0.0
 40
0.0
 41
0.0
 42
0.0
 10
7.915955170404645
 20
0.08233439787683092
 40
0.0
 41
0.0
 42
0.0
 10
7.903859635538714
 20
0.16387587049354774
 40
0.0
 41
0.0
 42
0.0
 10
7.883829882015055
 20
0.24383912889374837
 40
0.0
 41
0.0
 42
0.0
 10
7.856058807309481
 20
0.32145408318667545
 40
0.0
 41
0.0
 42
0.0
 10
7.820813862052618
 20
0.39597325893383806
 40
0.0
 41
0.0
 42
0.0
 10
7.778434474334138
 20
0.4666789957364659
 40
0.0
 41
0.0
 42
0.0
 10
7.729328780824699
 20
0.5328903586974623
 40
0.0
 41
0.0
 42
0.0
 10
7.6739696961967
 20
0.5939696961966999
 40
0.0
 41
0.0
 42
0.0
 10
7.612890358697462
 20
0.6493287808246991
 40
0.0
 41
0.0
 42
0.0
 10
7.546678995736466
 20
0.6984344743341381
 40
0.0
 41
0.0
 42
0.0
 10
7.475973258933839
 20
0.7408138620526182
 40
0.0
 41
0.0
 42
0.0
 10
7.4014540831866755
 20
0.776058807309481
 40
0.0
 41
0.0
 42
0.0
 10
7.3238391288937486
 20
0.8038298820150556
 40
0.0
 41
0.0
 42
0.0
 10
7.2438758704935475
 20
0.8238596355387137
 40
0.0
 41
0.0
 42
0.0
 10
7.1623343978768315
 20
0.8359551704046454
 40
0.0
 41
0.0
 42
0.0
 10
7.08
 20
0.8400000000000001
 40
0.0
 41
0.0
 42
0.0
1001
OPENCAD_AEC
1000
OPENING_REP
1005
5C
1000
Swing2D
  0
LWPOLYLINE
  5
E4
330
15
100
AcDbEntity
  8
0
100
AcDbPolyline
 90
     4
 70
     1
 38
0.0
 10
7.05
 20
-0.05
 40
0.0
 41
0.0
 42
0.0
 10
7.95
 20
-0.05
 40
0.0
 41
0.0
 42
0.0
 10
7.95
 20
0.05
 40
0.0
 41
0.0
 42
0.0
 10
7.05
 20
0.05
 40
0.0
 41
0.0
 42
0.0
1001
OPENCAD_AEC
1000
OPENING_REP
1005
5C
1000
Threshold2D
  0
MTEXT
  5
E5
330
15
100
AcDbEntity
  8
0
100
AcDbMText
 10
7.5
 20
0.0
 30
0.0
 40
0.15
 41
10.0
 71
     5
 72
     1
  1
0.90 / 2.10
  7
Standard
 73
     1
 44
1.0
1001
OPENCAD_AEC
1000
OPENING_REP
1005
5C
1000
OpeningLabel2D
  0
3DSOLID
  5
E6
330
15
100
AcDbEntity
  8
0
100
AcDbModelerGeometry
290
     0
  2
{00000000-0000-0000-0000-000000000000}
100
AcDb3dSolid
350
0
1001
OPENCAD_AEC
1000
OPENING_REP
1005
5C
1000
Frame3D
  0
3DSOLID
  5
E7
330
15
100
AcDbEntity
  8
0
100
AcDbModelerGeometry
290
     0
  2
{00000000-0000-0000-0000-000000000000}
100
AcDb3dSolid
350
0
1001
OPENCAD_AEC
1000
OPENING_REP
1005
5C
1000
Leaf3D
  0
HATCH
  5
E8
330
15
100
AcDbEntity
  8
0
100
AcDbHatch
 10
0.0
 20
0.0
 30
0.0
210
0.0
220
0.0
230
1.0
  2
ANSI31
 70
     0
 71
     0
 91
     1
 92
    19
 72
     0
 73
     1
 93
     5
 10
0.0
 20
4.85
 10
1.9
 20
4.85
 10
1.9
 20
5.15
 10
0.0
 20
5.15
 10
0.0
 20
4.85
 97
     0
 75
     0
 76
     1
 52
0.0
 41
1.0
 77
     0
 78
     1
 53
45.0
 43
0.0
 44
-4.849999904632568
 45
-2.2450639965498094
 46
2.24506399654981
 79
     0
 98
     0
1001
OPENCAD_AEC
1000
WALL_REP
1005
93
1000
hatch
  0
HATCH
  5
E9
330
15
100
AcDbEntity
  8
0
100
AcDbHatch
 10
0.0
 20
0.0
 30
0.0
210
0.0
220
0.0
230
1.0
  2
ANSI31
 70
     0
 71
     0
 91
     1
 92
    19
 72
     0
 73
     1
 93
     5
 10
3.1
 20
4.85
 10
5.0
 20
4.85
 10
5.0
 20
5.15
 10
3.1
 20
5.15
 10
3.1
 20
4.85
 97
     0
 75
     0
 76
     1
 52
0.0
 41
1.0
 77
     0
 78
     1
 53
45.0
 43
-3.0999999046325684
 44
-4.849999904632568
 45
-2.2450639965498094
 46
2.24506399654981
 79
     0
 98
     0
1001
OPENCAD_AEC
1000
WALL_REP
1005
93
1000
hatch
  0
3DSOLID
  5
EA
330
15
100
AcDbEntity
  8
0
100
AcDbModelerGeometry
290
     0
  2
{00000000-0000-0000-0000-000000000000}
100
AcDb3dSolid
350
0
1001
OPENCAD_AEC
1000
WALL_REP
1005
93
1000
solid
  0
3DSOLID
  5
EB
330
15
100
AcDbEntity
  8
0
100
AcDbModelerGeometry
290
     0
  2
{00000000-0000-0000-0000-000000000000}
100
AcDb3dSolid
350
0
1001
OPENCAD_AEC
1000
WALL_REP
1005
93
1000
solid
  0
3DSOLID
  5
EC
330
15
100
AcDbEntity
  8
0
100
AcDbModelerGeometry
290
     0
  2
{00000000-0000-0000-0000-000000000000}
100
AcDb3dSolid
350
0
1001
OPENCAD_AEC
1000
WALL_REP
1005
93
1000
solid
  0
3DSOLID
  5
ED
330
15
100
AcDbEntity
  8
0
100
AcDbModelerGeometry
290
     0
  2
{00000000-0000-0000-0000-000000000000}
100
AcDb3dSolid
350
0
1001
OPENCAD_AEC
1000
WALL_REP
1005
93
1000
solid
  0
POLYLINE
  5
EE
330
15
100
AcDbEntity
  8
0
100
AcDb3dPolyline
 66
     1
 10
0.0
 20
0.0
 30
0.0
 70
     9
1001
OPENCAD_AEC
1000
OPENING_REP
1005
95
1000
ElevationContour2D
  0
VERTEX
  5
131
330
EE
100
AcDbEntity
  8
0
100
AcDbVertex
100
AcDb3dPolylineVertex
 10
1.9
 20
5.0
 30
0.9
 70
    32
  0
VERTEX
  5
132
330
EE
100
AcDbEntity
  8
0
100
AcDbVertex
100
AcDb3dPolylineVertex
 10
3.1
 20
5.0
 30
0.9
 70
    32
  0
VERTEX
  5
133
330
EE
100
AcDbEntity
  8
0
100
AcDbVertex
100
AcDb3dPolylineVertex
 10
3.1
 20
5.0
 30
2.1
 70
    32
  0
VERTEX
  5
134
330
EE
100
AcDbEntity
  8
0
100
AcDbVertex
100
AcDb3dPolylineVertex
 10
1.9
 20
5.0
 30
2.1
 70
    32
  0
SEQEND
  5
135
330
EE
100
AcDbEntity
  8
0
  0
POLYLINE
  5
EF
330
15
100
AcDbEntity
  8
0
100
AcDb3dPolyline
 66
     1
 10
0.0
 20
0.0
 30
0.0
 70
     9
1001
OPENCAD_AEC
1000
OPENING_REP
1005
95
1000
ElevationContour2D
  0
VERTEX
  5
136
330
EF
100
AcDbEntity
  8
0
100
AcDbVertex
100
AcDb3dPolylineVertex
 10
1.96
 20
5.0
 30
0.96
 70
    32
  0
VERTEX
  5
137
330
EF
100
AcDbEntity
  8
0
100
AcDbVertex
100
AcDb3dPolylineVertex
 10
3.04
 20
5.0
 30
0.96
 70
    32
  0
VERTEX
  5
138
330
EF
100
AcDbEntity
  8
0
100
AcDbVertex
100
AcDb3dPolylineVertex
 10
3.04
 20
5.0
 30
2.04
 70
    32
  0
VERTEX
  5
139
330
EF
100
AcDbEntity
  8
0
100
AcDbVertex
100
AcDb3dPolylineVertex
 10
1.96
 20
5.0
 30
2.04
 70
    32
  0
SEQEND
  5
13A
330
EF
100
AcDbEntity
  8
0
  0
POLYLINE
  5
F0
330
15
100
AcDbEntity
  8
0
100
AcDb3dPolyline
 66
     1
 10
0.0
 20
0.0
 30
0.0
 70
     8
1001
OPENCAD_AEC
1000
OPENING_REP
1005
95
1000
ElevationSill2D
  0
VERTEX
  5
13B
330
F0
100
AcDbEntity
  8
0
100
AcDbVertex
100
AcDb3dPolylineVertex
 10
1.865
 20
5.0
 30
0.9
 70
    32
  0
VERTEX
  5
13C
330
F0
100
AcDbEntity
  8
0
100
AcDbVertex
100
AcDb3dPolylineVertex
 10
3.135
 20
5.0
 30
0.9
 70
    32
  0
SEQEND
  5
13D
330
F0
100
AcDbEntity
  8
0
  0
POLYLINE
  5
F1
330
15
100
AcDbEntity
  8
0
100
AcDb3dPolyline
 66
     1
 10
0.0
 20
0.0
 30
0.0
 70
     9
1001
OPENCAD_AEC
1000
OPENING_REP
1005
95
1000
ElevationSill2D
  0
VERTEX
  5
13E
330
F1
100
AcDbEntity
  8
0
100
AcDbVertex
100
AcDb3dPolylineVertex
 10
1.865
 20
5.0
 30
0.9
 70
    32
  0
VERTEX
  5
13F
330
F1
100
AcDbEntity
  8
0
100
AcDbVertex
100
AcDb3dPolylineVertex
 10
1.865
 20
5.0
 30
0.85
 70
    32
  0
VERTEX
  5
140
330
F1
100
AcDbEntity
  8
0
100
AcDbVertex
100
AcDb3dPolylineVertex
 10
3.135
 20
5.0
 30
0.85
 70
    32
  0
VERTEX
  5
141
330
F1
100
AcDbEntity
  8
0
100
AcDbVertex
100
AcDb3dPolylineVertex
 10
3.135
 20
5.0
 30
0.9
 70
    32
  0
SEQEND
  5
142
330
F1
100
AcDbEntity
  8
0
  0
POLYLINE
  5
F2
330
15
100
AcDbEntity
  8
0
100
AcDb3dPolyline
 66
     1
 10
0.0
 20
0.0
 30
0.0
 70
     8
1001
OPENCAD_AEC
1000
OPENING_REP
1005
95
1000
ElevationSwing2D
  0
VERTEX
  5
143
330
F2
100
AcDbEntity
  8
0
100
AcDbVertex
100
AcDb3dPolylineVertex
 10
3.04
 20
5.0
 30
0.96
 70
    32
  0
VERTEX
  5
144
330
F2
100
AcDbEntity
  8
0
100
AcDbVertex
100
AcDb3dPolylineVertex
 10
1.96
 20
5.0
 30
1.5
 70
    32
  0
VERTEX
  5
145
330
F2
100
AcDbEntity
  8
0
100
AcDbVertex
100
AcDb3dPolylineVertex
 10
3.04
 20
5.0
 30
2.04
 70
    32
  0
SEQEND
  5
146
330
F2
100
AcDbEntity
  8
0
  0
LWPOLYLINE
  5
F3
330
15
100
AcDbEntity
  8
0
100
AcDbPolyline
 90
     4
 70
     1
 38
0.0
 10
1.9
 20
4.965
 40
0.0
 41
0.0
 42
0.0
 10
1.96
 20
4.965
 40
0.0
 41
0.0
 42
0.0
 10
1.96
 20
5.035
 40
0.0
 41
0.0
 42
0.0
 10
1.9
 20
5.035
 40
0.0
 41
0.0
 42
0.0
1001
OPENCAD_AEC
1000
OPENING_REP
1005
95
1000
Frame2D
  0
LWPOLYLINE
  5
F4
330
15
100
AcDbEntity
  8
0
100
AcDbPolyline
 90
     4
 70
     1
 38
0.0
 10
3.04
 20
4.965
 40
0.0
 41
0.0
 42
0.0
 10
3.1
 20
4.965
 40
0.0
 41
0.0
 42
0.0
 10
3.1
 20
5.035
 40
0.0
 41
0.0
 42
0.0
 10
3.04
 20
5.035
 40
0.0
 41
0.0
 42
0.0
1001
OPENCAD_AEC
1000
OPENING_REP
1005
95
1000
Frame2D
  0
LWPOLYLINE
  5
F5
330
15
100
AcDbEntity
  8
0
100
AcDbPolyline
 90
     2
 70
     0
 38
0.0
 10
1.96
 20
4.988
 40
0.0
 41
0.0
 42
0.0
 10
3.04
 20
4.988
 40
0.0
 41
0.0
 42
0.0
1001
OPENCAD_AEC
1000
OPENING_REP
1005
95
1000
Glazing2D
  0
LWPOLYLINE
  5
F6
330
15
100
AcDbEntity
  8
0
100
AcDbPolyline
 90
     2
 70
     0
 38
0.0
 10
1.96
 20
5.012
 40
0.0
 41
0.0
 42
0.0
 10
3.04
 20
5.012
 40
0.0
 41
0.0
 42
0.0
1001
OPENCAD_AEC
1000
OPENING_REP
1005
95
1000
Glazing2D
  0
LWPOLYLINE
  5
F7
330
15
100
AcDbEntity
  8
0
100
AcDbPolyline
 90
     2
 70
     0
 38
0.0
 10
1.96
 20
5.0
 40
0.0
 41
0.0
 42
0.0
 10
3.04
 20
5.0
 40
0.0
 41
0.0
 42
0.0
1001
OPENCAD_AEC
1000
OPENING_REP
1005
95
1000
Leaf2D
  0
LWPOLYLINE
  5
F8
330
15
100
AcDbEntity
  8
0
100
AcDbPolyline
 90
     2
 70
     0
 38
0.0
 10
2.3
 20
5.0
 40
0.0
 41
0.0
 42
0.0
 10
2.7
 20
5.0
 40
0.0
 41
0.0
 42
0.0
1001
OPENCAD_AEC
1000
OPENING_REP
1005
95
1000
OpeningLabel2D
  0
LWPOLYLINE
  5
F9
330
15
100
AcDbEntity
  8
0
100
AcDbPolyline
 90
     4
 70
     1
 38
0.0
 10
1.88
 20
4.815
 40
0.0
 41
0.0
 42
0.0
 10
3.12
 20
4.815
 40
0.0
 41
0.0
 42
0.0
 10
3.12
 20
4.85
 40
0.0
 41
0.0
 42
0.0
 10
1.88
 20
4.85
 40
0.0
 41
0.0
 42
0.0
1001
OPENCAD_AEC
1000
OPENING_REP
1005
95
1000
Sill2D
  0
LWPOLYLINE
  5
FA
330
15
100
AcDbEntity
  8
0
100
AcDbPolyline
 90
     2
 70
     0
 38
0.0
 10
1.9
 20
4.85
 40
0.0
 41
0.0
 42
0.0
 10
3.1
 20
4.85
 40
0.0
 41
0.0
 42
0.0
1001
OPENCAD_AEC
1000
OPENING_REP
1005
95
1000
Sill2D
  0
LWPOLYLINE
  5
FB
330
15
100
AcDbEntity
  8
0
100
AcDbPolyline
 90
     2
 70
     0
 38
0.0
 10
1.9
 20
4.965
 40
0.0
 41
0.0
 42
0.0
 10
1.9
 20
4.85
 40
0.0
 41
0.0
 42
0.0
1001
OPENCAD_AEC
1000
OPENING_REP
1005
95
1000
Sill2D
  0
LWPOLYLINE
  5
FC
330
15
100
AcDbEntity
  8
0
100
AcDbPolyline
 90
     2
 70
     0
 38
0.0
 10
3.1
 20
4.965
 40
0.0
 41
0.0
 42
0.0
 10
3.1
 20
4.85
 40
0.0
 41
0.0
 42
0.0
1001
OPENCAD_AEC
1000
OPENING_REP
1005
95
1000
Sill2D
  0
LWPOLYLINE
  5
FD
330
15
100
AcDbEntity
  8
0
100
AcDbPolyline
 90
     4
 70
     1
 38
0.0
 10
1.88
 20
5.175
 40
0.0
 41
0.0
 42
0.0
 10
3.12
 20
5.175
 40
0.0
 41
0.0
 42
0.0
 10
3.12
 20
5.15
 40
0.0
 41
0.0
 42
0.0
 10
1.88
 20
5.15
 40
0.0
 41
0.0
 42
0.0
1001
OPENCAD_AEC
1000
OPENING_REP
1005
95
1000
Sill2D
  0
LWPOLYLINE
  5
FE
330
15
100
AcDbEntity
  8
0
100
AcDbPolyline
 90
     2
 70
     0
 38
0.0
 10
1.9
 20
5.15
 40
0.0
 41
0.0
 42
0.0
 10
3.1
 20
5.15
 40
0.0
 41
0.0
 42
0.0
1001
OPENCAD_AEC
1000
OPENING_REP
1005
95
1000
Sill2D
  0
LWPOLYLINE
  5
FF
330
15
100
AcDbEntity
  8
0
100
AcDbPolyline
 90
     2
 70
     0
 38
0.0
 10
1.9
 20
5.035
 40
0.0
 41
0.0
 42
0.0
 10
1.9
 20
5.15
 40
0.0
 41
0.0
 42
0.0
1001
OPENCAD_AEC
1000
OPENING_REP
1005
95
1000
Sill2D
  0
LWPOLYLINE
  5
100
330
15
100
AcDbEntity
  8
0
100
AcDbPolyline
 90
     2
 70
     0
 38
0.0
 10
3.1
 20
5.035
 40
0.0
 41
0.0
 42
0.0
 10
3.1
 20
5.15
 40
0.0
 41
0.0
 42
0.0
1001
OPENCAD_AEC
1000
OPENING_REP
1005
95
1000
Sill2D
  0
MTEXT
  5
101
330
15
100
AcDbEntity
  8
0
100
AcDbMText
 10
2.5
 20
5.0
 30
0.0
 40
0.15
 41
10.0
 71
     5
 72
     1
  1
1.20 / 1.20\PBRH 0.90
  7
Standard
 73
     1
 44
1.0
1001
OPENCAD_AEC
1000
OPENING_REP
1005
95
1000
OpeningLabel2D
  0
3DSOLID
  5
102
330
15
100
AcDbEntity
  8
0
100
AcDbModelerGeometry
290
     0
  2
{00000000-0000-0000-0000-000000000000}
100
AcDb3dSolid
350
0
1001
OPENCAD_AEC
1000
OPENING_REP
1005
95
1000
Frame3D
  0
3DSOLID
  5
103
330
15
100
AcDbEntity
  8
0
100
AcDbModelerGeometry
290
     0
  2
{00000000-0000-0000-0000-000000000000}
100
AcDb3dSolid
350
0
1001
OPENCAD_AEC
1000
OPENING_REP
1005
95
1000
Glazing3D
  0
LWPOLYLINE
  5
104
330
15
100
AcDbEntity
  8
0
100
AcDbPolyline
 90
     4
 70
     1
 38
0.0
 10
5.0
 20
4.85
 40
0.0
 41
0.0
 42
0.0
 10
10.0
 20
4.85
 40
0.0
 41
0.0
 42
0.0
 10
10.0
 20
5.15
 40
0.0
 41
0.0
 42
-0.0
 10
5.0
 20
5.15
 40
0.0
 41
0.0
 42
0.0
1001
OPENCAD_AEC
1000
WALL_REP
1005
94
1000
contour
  0
HATCH
  5
105
330
15
100
AcDbEntity
  8
0
100
AcDbHatch
 10
0.0
 20
0.0
 30
0.0
210
0.0
220
0.0
230
1.0
  2
ANSI31
 70
     0
 71
     0
 91
     1
 92
    19
 72
     0
 73
     1
 93
     5
 10
5.0
 20
4.85
 10
10.0
 20
4.85
 10
10.0
 20
5.15
 10
5.0
 20
5.15
 10
5.0
 20
4.85
 97
     0
 75
     0
 76
     1
 52
0.0
 41
1.0
 77
     0
 78
     1
 53
45.0
 43
-5.0
 44
-4.849999904632568
 45
-2.2450639965498094
 46
2.24506399654981
 79
     0
 98
     0
1001
OPENCAD_AEC
1000
WALL_REP
1005
94
1000
hatch
  0
3DSOLID
  5
106
330
15
100
AcDbEntity
  8
0
100
AcDbModelerGeometry
290
     0
  2
{00000000-0000-0000-0000-000000000000}
100
AcDb3dSolid
350
0
1001
OPENCAD_AEC
1000
WALL_REP
1005
94
1000
solid
  0
POLYLINE
  5
108
330
15
100
AcDbEntity
  8
AEC_CONTROLPLANES
 62
     2
100
AcDb3dPolyline
 66
     1
 10
0.0
 20
0.0
 30
0.0
 70
     9
1001
OPENCAD_AEC
1000
CONTROLPLANE
1000
b6017bed-0e53-45b1-aeba-857269a116b0
1000
Dachgeschoss_ELEVATION
1071
     0
  0
VERTEX
  5
147
330
108
100
AcDbEntity
  8
0
 62
     2
100
AcDbVertex
100
AcDb3dPolylineVertex
 10
-5.0
 20
-5.0
 30
0.0
 70
    32
  0
VERTEX
  5
148
330
108
100
AcDbEntity
  8
0
 62
     2
100
AcDbVertex
100
AcDb3dPolylineVertex
 10
45.0
 20
-5.0
 30
0.0
 70
    32
  0
VERTEX
  5
149
330
108
100
AcDbEntity
  8
0
 62
     2
100
AcDbVertex
100
AcDb3dPolylineVertex
 10
45.0
 20
45.0
 30
0.0
 70
    32
  0
VERTEX
  5
14A
330
108
100
AcDbEntity
  8
0
 62
     2
100
AcDbVertex
100
AcDb3dPolylineVertex
 10
-5.0
 20
45.0
 30
0.0
 70
    32
  0
SEQEND
  5
14B
330
108
100
AcDbEntity
  8
AEC_CONTROLPLANES
  0
POLYLINE
  5
109
330
15
100
AcDbEntity
  8
AEC_CONTROLPLANES
 62
     4
100
AcDb3dPolyline
 66
     1
 10
0.0
 20
0.0
 30
0.0
 70
     9
1001
OPENCAD_AEC
1000
CONTROLPLANE
1000
ef53296c-cb49-4b23-8793-a567ea92b968
1000
Dachgeschoss_OKGH
1071
     0
  0
VERTEX
  5
14C
330
109
100
AcDbEntity
  8
0
 62
     4
100
AcDbVertex
100
AcDb3dPolylineVertex
 10
-5.0
 20
-5.0
 30
3.0
 70
    32
  0
VERTEX
  5
14D
330
109
100
AcDbEntity
  8
0
 62
     4
100
AcDbVertex
100
AcDb3dPolylineVertex
 10
45.0
 20
-5.0
 30
3.0
 70
    32
  0
VERTEX
  5
14E
330
109
100
AcDbEntity
  8
0
 62
     4
100
AcDbVertex
100
AcDb3dPolylineVertex
 10
45.0
 20
45.0
 30
3.0
 70
    32
  0
VERTEX
  5
14F
330
109
100
AcDbEntity
  8
0
 62
     4
100
AcDbVertex
100
AcDb3dPolylineVertex
 10
-5.0
 20
45.0
 30
3.0
 70
    32
  0
SEQEND
  5
150
330
109
100
AcDbEntity
  8
AEC_CONTROLPLANES
  0
POLYLINE
  5
10A
330
15
100
AcDbEntity
  8
AEC_CONTROLPLANES
 62
     4
100
AcDb3dPolyline
 66
     1
 10
0.0
 20
0.0
 30
0.0
 70
     9
1001
OPENCAD_AEC
1000
CONTROLPLANE
1000
3d0f17ef-4823-4f71-a474-66663512db29
1000
Pultdach_OK
1071
     0
  0
VERTEX
  5
151
330
10A
100
AcDbEntity
  8
0
 62
     4
100
AcDbVertex
100
AcDb3dPolylineVertex
 10
-4.8296291314453415
 20
-5.0
 30
1.2059047744873965
 70
    32
  0
VERTEX
  5
152
330
10A
100
AcDbEntity
  8
0
 62
     4
100
AcDbVertex
100
AcDb3dPolylineVertex
 10
-4.8296291314453415
 20
45.0
 30
1.2059047744873965
 70
    32
  0
VERTEX
  5
153
330
10A
100
AcDbEntity
  8
0
 62
     4
100
AcDbVertex
100
AcDb3dPolylineVertex
 10
43.46666218300807
 20
45.0
 30
14.14685702961343
 70
    32
  0
VERTEX
  5
154
330
10A
100
AcDbEntity
  8
0
 62
     4
100
AcDbVertex
100
AcDb3dPolylineVertex
 10
43.46666218300807
 20
-5.0
 30
14.14685702961343
 70
    32
  0
SEQEND
  5
155
330
10A
100
AcDbEntity
  8
AEC_CONTROLPLANES
  0
POLYLINE
  5
10B
330
15
100
AcDbEntity
  8
AEC_CONTROLPLANES
 62
     4
100
AcDb3dPolyline
 66
     1
 10
0.0
 20
0.0
 30
0.0
 70
     9
1001
OPENCAD_AEC
1000
CONTROLPLANE
1000
af0c6bee-1e77-416f-a5e7-626c521327ba
1000
Dach_Links
1071
     0
  0
VERTEX
  5
156
330
10B
100
AcDbEntity
  8
0
 62
     4
100
AcDbVertex
100
AcDb3dPolylineVertex
 10
-4.531538935183249
 20
0.0
 30
0.38690869129650274
 70
    32
  0
VERTEX
  5
157
330
10B
100
AcDbEntity
  8
0
 62
     4
100
AcDbVertex
100
AcDb3dPolylineVertex
 10
-4.531538935183249
 20
50.0
 30
0.38690869129650274
 70
    32
  0
VERTEX
  5
158
330
10B
100
AcDbEntity
  8
0
 62
     4
100
AcDbVertex
100
AcDb3dPolylineVertex
 10
40.783850416649244
 20
50.0
 30
21.51782177833148
 70
    32
  0
VERTEX
  5
159
330
10B
100
AcDbEntity
  8
0
 62
     4
100
AcDbVertex
100
AcDb3dPolylineVertex
 10
40.783850416649244
 20
0.0
 30
21.51782177833148
 70
    32
  0
SEQEND
  5
15A
330
10B
100
AcDbEntity
  8
AEC_CONTROLPLANES
  0
POLYLINE
  5
10C
330
15
100
AcDbEntity
  8
AEC_CONTROLPLANES
 62
     4
100
AcDb3dPolyline
 66
     1
 10
0.0
 20
0.0
 30
0.0
 70
     9
1001
OPENCAD_AEC
1000
CONTROLPLANE
1000
8d2daba4-ded6-4a36-a74e-b860205ac5d7
1000
Dach_Rechts
1071
     0
  0
VERTEX
  5
15B
330
10C
100
AcDbEntity
  8
0
 62
     4
100
AcDbVertex
100
AcDb3dPolylineVertex
 10
9.53153893518325
 20
10.0
 30
2.7184469820714963
 70
    32
  0
VERTEX
  5
15C
330
10C
100
AcDbEntity
  8
0
 62
     4
100
AcDbVertex
100
AcDb3dPolylineVertex
 10
9.531538935183244
 20
-40.0
 30
2.7184469820714963
 70
    32
  0
VERTEX
  5
15D
330
10C
100
AcDbEntity
  8
0
 62
     4
100
AcDbVertex
100
AcDb3dPolylineVertex
 10
-35.78385041664925
 20
-39.99999999999999
 30
23.849360069106474
 70
    32
  0
VERTEX
  5
15E
330
10C
100
AcDbEntity
  8
0
 62
     4
100
AcDbVertex
100
AcDb3dPolylineVertex
 10
-35.783850416649244
 20
10.000000000000005
 30
23.849360069106474
 70
    32
  0
SEQEND
  5
15F
330
10C
100
AcDbEntity
  8
AEC_CONTROLPLANES
  0
ENDSEC
  0
SECTION
  2
OBJECTS
  0
DICTIONARY
  5
C
330
0
100
AcDbDictionary
280
0
281
1
  3
ACAD_GROUP
350
21
  3
ACAD_MLINESTYLE
350
22
  3
ACAD_LAYOUT
350
23
  3
ACAD_PLOTSETTINGS
350
24
  3
ACAD_PLOTSTYLENAME
350
25
  3
ACAD_MATERIAL
350
26
  3
ACAD_COLOR
350
27
  3
ACAD_VISUALSTYLE
350
28
  3
ACAD_MLEADERSTYLE
350
29
  3
ACAD_TABLESTYLE
350
2A
  0
DICTIONARY
  5
21
330
C
100
AcDbDictionary
280
0
281
1
  0
DICTIONARY
  5
22
330
C
100
AcDbDictionary
280
0
281
1
  3
Standard
350
2B
  0
DICTIONARY
  5
23
330
C
100
AcDbDictionary
280
0
281
1
  3
Model
350
2E
  3
Layout1
350
2F
  0
DICTIONARY
  5
24
330
C
100
AcDbDictionary
280
0
281
1
  0
ACDBDICTIONARYWDFLT
  5
25
330
C
100
AcDbDictionary
281
     1
  3
Normal
350
30
100
AcDbDictionaryWithDefault
340
30
  0
DICTIONARY
  5
26
330
C
100
AcDbDictionary
280
0
281
1
  0
DICTIONARY
  5
27
330
C
100
AcDbDictionary
280
0
281
1
  0
DICTIONARY
  5
28
330
C
100
AcDbDictionary
280
0
281
1
  0
DICTIONARY
  5
29
330
C
100
AcDbDictionary
280
0
281
1
  3
Standard
350
2C
  0
DICTIONARY
  5
2A
330
C
100
AcDbDictionary
280
0
281
1
  3
Standard
350
2D
  0
MLINESTYLE
  5
2B
330
22
100
AcDbMlineStyle
  2
Standard
 70
     0
  3

 62
   256
 51
90.0
 52
90.0
 71
     2
 49
0.5
 62
   256
  6
BYLAYER
 49
-0.5
 62
   256
  6
BYLAYER
  0
MLEADERSTYLE
  5
2C
330
29
100
AcDbMLeaderStyle
170
     2
171
     0
172
     0
 90
     2
 40
0.0
 41
0.0
173
     1
 91
-1056964608
340
12
 92
    -2
290
     1
 42
0.09
291
     1
 43
0.36
  3
Standard
 44
0.18
300

342
14
174
     1
175
     1
176
     0
178
     1
 93
-1056964608
 45
0.18
292
     0
297
     0
 46
0.0
 94
-1056964608
 47
1.0
 49
1.0
140
1.0
293
     0
141
0.0
294
     0
177
     0
142
1.0
295
     0
296
     0
143
0.125
  0
TABLESTYLE
  5
2D
330
2A
100
AcDbTableStyle
  3
Standard
 70
     0
 71
     0
 40
0.06
 41
0.06
280
0
281
0
  7
Standard
140
0.18
170
     5
 62
     0
 63
     7
283
0
 90
   512
 91
     0
  1

274
    -2
284
1
 64
     0
275
    -2
285
1
 65
     0
276
    -2
286
1
 66
     0
277
    -2
287
1
 67
     0
278
    -2
288
1
 68
     0
279
    -2
289
1
 69
     0
  7
Standard
140
0.25
170
     2
 62
     0
 63
     7
283
0
 90
   512
 91
     0
  1

274
    -2
284
1
 64
     0
275
    -2
285
1
 65
     0
276
    -2
286
1
 66
     0
277
    -2
287
1
 67
     0
278
    -2
288
1
 68
     0
279
    -2
289
1
 69
     0
  7
Standard
140
0.25
170
     2
 62
     0
 63
     7
283
0
 90
   512
 91
     0
  1

274
    -2
284
1
 64
     0
275
    -2
285
1
 65
     0
276
    -2
286
1
 66
     0
277
    -2
287
1
 67
     0
278
    -2
288
1
 68
     0
279
    -2
289
1
 69
     0
  0
LAYOUT
  5
2E
330
23
100
AcDbPlotSettings
  1

  2

  4

  6

  7

 40
0.0
 41
0.0
 42
0.0
 43
0.0
 44
0.0
 45
0.0
 46
0.0
 47
0.0
 48
0.0
 49
0.0
140
0.0
141
0.0
142
1.0
143
1.0
147
1.0
148
0.0
149
0.0
 70
  1024
 72
     0
 73
     0
 74
     5
 75
     0
 76
     0
 77
     0
 78
   300
100
AcDbLayout
  1
Model
 70
     1
 71
     0
 10
0.0
 20
0.0
 11
0.0
 21
0.0
 12
0.0
 22
0.0
 32
0.0
 14
0.0
 24
0.0
 34
0.0
 15
12.0
 25
9.0
 35
0.0
146
0.0
 13
0.0
 23
0.0
 33
0.0
 16
1.0
 26
0.0
 36
0.0
 17
0.0
 27
1.0
 37
0.0
 76
     0
330
15
  0
LAYOUT
  5
2F
330
23
100
AcDbPlotSettings
  1

  2

  4

  6

  7

 40
0.0
 41
0.0
 42
0.0
 43
0.0
 44
0.0
 45
0.0
 46
0.0
 47
0.0
 48
0.0
 49
0.0
140
0.0
141
0.0
142
1.0
143
1.0
147
1.0
148
0.0
149
0.0
 70
     0
 72
     0
 73
     0
 74
     5
 75
     0
 76
     0
 77
     0
 78
   300
100
AcDbLayout
  1
Layout1
 70
     0
 71
     1
 10
0.0
 20
0.0
 11
0.0
 21
0.0
 12
0.0
 22
0.0
 32
0.0
 14
0.0
 24
0.0
 34
0.0
 15
12.0
 25
9.0
 35
0.0
146
0.0
 13
0.0
 23
0.0
 33
0.0
 16
1.0
 26
0.0
 36
0.0
 17
0.0
 27
1.0
 37
0.0
 76
     0
330
18
  0
ACDBPLACEHOLDER
  5
30
102
{ACAD_REACTORS
330
25
102
}
330
25
  0
ENDSEC
  0
EOF
